<svg width="20" height="20" viewBox="0 0 20 20" fill="none" xmlns="http://www.w3.org/2000/svg">
<path d="M10.0001 18.3323C14.6024 18.3323 18.3333 14.6014 18.3333 9.99915C18.3333 5.39689 14.6024 1.66602 10.0001 1.66602C5.39786 1.66602 1.66699 5.39689 1.66699 9.99915C1.66699 14.6014 5.39786 18.3323 10.0001 18.3323Z" fill="#F0F0F0"/>
<path d="M17.8149 7.10156H2.18531C1.85032 8.00431 1.66699 8.98072 1.66699 10C1.66699 11.0193 1.85032 11.9957 2.18531 12.8985H17.815C18.1499 11.9957 18.3333 11.0193 18.3333 10C18.3333 8.98072 18.1499 8.00431 17.8149 7.10156Z" fill="#0052B4"/>
<path d="M10.0015 1.66602C7.47582 1.66602 5.21276 2.78982 3.68457 4.56448H16.3184C14.7903 2.78982 12.5272 1.66602 10.0015 1.66602Z" fill="#D80027"/>
<path d="M16.3175 15.4336H3.68359C5.21178 17.2083 7.47484 18.332 10.0005 18.332C12.5262 18.332 14.7893 17.2083 16.3175 15.4336Z" fill="#D80027"/>
</svg>
