<svg width="24" height="24" viewBox="0 0 24 24" fill="none" xmlns="http://www.w3.org/2000/svg">
<path fill-rule="evenodd" clip-rule="evenodd" d="M4 11.9998C4 11.5722 4.34662 11.2256 4.77419 11.2256H19.2258C19.6533 11.2256 20 11.5722 20 11.9998C20 12.4274 19.6533 12.774 19.2258 12.774H4.77419C4.34662 12.774 4 12.4274 4 11.9998Z" fill="#000"/>
<path fill-rule="evenodd" clip-rule="evenodd" d="M14.7875 7.56172C15.0899 7.25938 15.5801 7.25938 15.8824 7.56172L19.7732 11.4525C20.0756 11.7549 20.0756 12.2451 19.7732 12.5474L15.8824 16.4382C15.5801 16.7405 15.0899 16.7405 14.7875 16.4382C14.4852 16.1359 14.4852 15.6457 14.7875 15.3433L18.1309 12L14.7875 8.65659C14.4852 8.35425 14.4852 7.86406 14.7875 7.56172Z" fill="#000"/>
</svg>
