<svg width="24" height="24" viewBox="0 0 24 24" fill="none" xmlns="http://www.w3.org/2000/svg">
<path fill-rule="evenodd" clip-rule="evenodd" d="M9.36996 2.23123C9.67827 2.53954 9.67827 3.03941 9.36996 3.34772L6.3857 6.33198L9.36996 9.31625C9.67827 9.62456 9.67827 10.1244 9.36996 10.4327C9.06165 10.741 8.56179 10.741 8.25348 10.4327L4.71097 6.89023C4.40266 6.58192 4.40266 6.08205 4.71097 5.77374L8.25348 2.23123C8.56179 1.92292 9.06165 1.92292 9.36996 2.23123Z" fill="#000"/>
<path fill-rule="evenodd" clip-rule="evenodd" d="M4.47974 6.33195C4.47974 5.89594 4.8332 5.54248 5.26922 5.54248H12C13.6275 5.54248 15.2184 6.02509 16.5716 6.92927C17.9248 7.83346 18.9795 9.11861 19.6024 10.6222C20.2252 12.1258 20.3881 13.7804 20.0706 15.3766C19.7531 16.9728 18.9694 18.439 17.8186 19.5898C16.6678 20.7406 15.2016 21.5244 13.6053 21.8419C12.0091 22.1594 10.3546 21.9964 8.85098 21.3736C7.34737 20.7508 6.06222 19.6961 5.15803 18.3429C4.25385 16.9897 3.77124 15.3987 3.77124 13.7712C3.77124 13.3352 4.1247 12.9818 4.56071 12.9818C4.99673 12.9818 5.35019 13.3352 5.35019 13.7712C5.35019 15.0864 5.74019 16.3721 6.47088 17.4657C7.20157 18.5592 8.24013 19.4115 9.45522 19.9148C10.6703 20.4181 12.0074 20.5498 13.2973 20.2933C14.5872 20.0367 15.7721 19.4033 16.7021 18.4733C17.6321 17.5434 18.2654 16.3585 18.522 15.0685C18.7786 13.7786 18.6469 12.4416 18.1436 11.2265C17.6403 10.0114 16.788 8.97281 15.6944 8.24212C14.6009 7.51143 13.3152 7.12143 12 7.12143H5.26922C4.8332 7.12143 4.47974 6.76797 4.47974 6.33195Z" fill="#000"/>
</svg>
