<svg width="20" height="20" viewBox="0 0 20 20" fill="none" xmlns="http://www.w3.org/2000/svg">
<path fill-rule="evenodd" clip-rule="evenodd" d="M10 3.3335C10.3563 3.3335 10.6452 3.62234 10.6452 3.97866V16.0217C10.6452 16.378 10.3563 16.6668 10 16.6668C9.64371 16.6668 9.35486 16.378 9.35486 16.0217V3.97866C9.35486 3.62234 9.64371 3.3335 10 3.3335Z" fill="#C21D00"/>
<path fill-rule="evenodd" clip-rule="evenodd" d="M6.30139 12.3232C6.55334 12.0713 6.96183 12.0713 7.21379 12.3232L9.99994 15.1094L12.7861 12.3232C13.038 12.0713 13.4465 12.0713 13.6985 12.3232C13.9504 12.5752 13.9504 12.9837 13.6985 13.2356L10.4561 16.478C10.2042 16.7299 9.79569 16.7299 9.54374 16.478L6.30139 13.2356C6.04944 12.9837 6.04944 12.5752 6.30139 12.3232Z" fill="#C21D00"/>
</svg>
