<svg width="24" height="24" viewBox="0 0 24 24" xmlns="http://www.w3.org/2000/svg">
    <path fill-rule="evenodd" clip-rule="evenodd" d="M2 10.2288C2 9.79279 2.35346 9.43933 2.78947 9.43933H21.2105C21.6465 9.43933 22 9.79279 22 10.2288C22 10.6648 21.6465 11.0183 21.2105 11.0183H2.78947C2.35346 11.0183 2 10.6648 2 10.2288Z" fill="#000"/>
    <path fill-rule="evenodd" clip-rule="evenodd" d="M14.7529 15.1883C14.7529 14.7523 15.1064 14.3988 15.5424 14.3988H17.6679C18.1039 14.3988 18.4574 14.7523 18.4574 15.1883C18.4574 15.6243 18.1039 15.9778 17.6679 15.9778H15.5424C15.1064 15.9778 14.7529 15.6243 14.7529 15.1883Z" fill="#ff0"/>
    <path fill-rule="evenodd" clip-rule="evenodd" d="M4.20648 6.05868C3.8599 6.05868 3.57895 6.33964 3.57895 6.68621V17.3137C3.57895 17.6603 3.8599 17.9413 4.20648 17.9413H19.7935C20.1401 17.9413 20.4211 17.6603 20.4211 17.3137V6.68621C20.4211 6.33964 20.1401 6.05868 19.7935 6.05868H4.20648ZM2 6.68621C2 5.46761 2.98787 4.47974 4.20648 4.47974H19.7935C21.0121 4.47974 22 5.46761 22 6.68621V17.3137C22 18.5323 21.0121 19.5202 19.7935 19.5202H4.20648C2.98787 19.5202 2 18.5323 2 17.3137V6.68621Z" fill="#000"/>
</svg>
