<svg width="24" height="24" viewBox="0 0 24 24" fill="none" xmlns="http://www.w3.org/2000/svg">
<path fill-rule="evenodd" clip-rule="evenodd" d="M15.1604 4.42105C14.9189 4.42105 14.6798 4.46887 14.4569 4.56175C14.2339 4.65463 14.0316 4.79073 13.8615 4.9622L13.8603 4.96347L5.81023 13.0389C5.35023 13.5069 5.09244 14.1369 5.09244 14.7931C5.09244 15.4501 5.35078 16.0807 5.81169 16.5488L8.07254 18.8478C8.29958 19.0791 8.57098 19.2634 8.86987 19.3889C9.16876 19.5143 9.48966 19.5789 9.8138 19.5789C10.138 19.5789 10.4588 19.5143 10.7577 19.3889C11.0566 19.2634 11.3275 19.0797 11.5546 18.8483L11.5571 18.8457L19.1135 11.2258C19.3898 10.9472 19.8397 10.9453 20.1184 11.2216C20.397 11.4979 20.3989 11.9478 20.1226 12.2264L12.5688 19.8437C12.5683 19.8441 12.5679 19.8446 12.5674 19.8451C12.2083 20.2106 11.7801 20.5009 11.3077 20.6992C10.8347 20.8977 10.3268 21 9.8138 21C9.30079 21 8.79293 20.8977 8.3199 20.6992C7.8471 20.5008 7.41857 20.2101 7.05934 19.8442L4.79906 17.5458C4.07642 16.8118 3.67139 15.8231 3.67139 14.7931C3.67139 13.7631 4.07642 12.7744 4.79906 12.0404L4.80216 12.0373L12.8526 3.96149C12.8528 3.96124 12.8531 3.961 12.8533 3.96076C13.1553 3.65644 13.5146 3.41488 13.9104 3.24998C14.3065 3.08496 14.7313 3 15.1604 3C15.5895 3 16.0144 3.08496 16.4105 3.24998C16.8061 3.41481 17.1652 3.65625 17.4672 3.96039C17.4675 3.96076 17.4679 3.96112 17.4683 3.96149L18.3658 4.85905C18.3661 4.85937 18.3665 4.85968 18.3668 4.85999C18.671 5.16197 18.9125 5.52114 19.0773 5.91684C19.2424 6.31294 19.3273 6.7378 19.3273 7.1669C19.3273 7.596 19.2424 8.02085 19.0773 8.41696C18.9126 8.8124 18.6713 9.17137 18.3673 9.47323C18.3668 9.47373 18.3663 9.47424 18.3658 9.47474L11.2327 16.6333C11.2325 16.6335 11.2328 16.6331 11.2327 16.6333C11.0487 16.8187 10.8293 16.9664 10.5882 17.0668C10.3468 17.1674 10.0879 17.2191 9.8265 17.2191C9.56505 17.2191 9.30619 17.1674 9.06485 17.0668C8.8235 16.9663 8.60445 16.8189 8.42034 16.6333L8.41535 16.6283L7.9749 16.1752C7.79166 15.9921 7.64609 15.7749 7.54645 15.5357C7.44591 15.2944 7.39414 15.0355 7.39414 14.7741C7.39414 14.5126 7.44591 14.2538 7.54645 14.0124C7.647 13.7711 7.79434 13.552 7.97997 13.3679L12.7677 8.61824C13.0463 8.34188 13.4962 8.34367 13.7726 8.62226C14.0489 8.90084 14.0471 9.35072 13.7686 9.62709L8.98073 14.3768C8.92829 14.4288 8.88662 14.4907 8.85822 14.5589C8.82982 14.6271 8.81519 14.7002 8.81519 14.7741C8.81519 14.8479 8.82982 14.9211 8.85822 14.9892C8.88662 15.0574 8.92824 15.1193 8.98068 15.1713L8.98977 15.1805L9.43128 15.6346C9.48288 15.6861 9.54405 15.727 9.61135 15.7551C9.67952 15.7835 9.75265 15.7981 9.8265 15.7981C9.90036 15.7981 9.97348 15.7835 10.0417 15.7551C10.1098 15.7267 10.1717 15.685 10.2237 15.6326L10.2249 15.6314L17.3622 8.46874L17.3651 8.46579C17.5366 8.29572 17.6727 8.09339 17.7656 7.87045C17.8584 7.64752 17.9063 7.40841 17.9063 7.1669C17.9063 6.92539 17.8584 6.68627 17.7656 6.46334C17.6727 6.24041 17.5366 6.03807 17.3651 5.868L17.3631 5.86594L16.4593 4.9622C16.2892 4.79073 16.0869 4.65463 15.864 4.56175C15.641 4.46887 15.4019 4.42105 15.1604 4.42105Z" fill="#000"/>
</svg>
