<svg width="24" height="24" viewBox="0 0 24 24" fill="none" xmlns="http://www.w3.org/2000/svg">
    <path fill-rule="evenodd" clip-rule="evenodd" d="M5.62337 9.29199C6.01578 9.29199 6.33389 9.61011 6.33389 10.0025V17.0167C6.33389 17.4091 6.01578 17.7272 5.62337 17.7272C5.23096 17.7272 4.91284 17.4091 4.91284 17.0167V10.0025C4.91284 9.61011 5.23096 9.29199 5.62337 9.29199Z" fill="#ff0"/>
    <path fill-rule="evenodd" clip-rule="evenodd" d="M8.81184 9.29199C9.20426 9.29199 9.52237 9.61011 9.52237 10.0025V17.0167C9.52237 17.4091 9.20426 17.7272 8.81184 17.7272C8.41943 17.7272 8.10132 17.4091 8.10132 17.0167V10.0025C8.10132 9.61011 8.41943 9.29199 8.81184 9.29199Z" fill="#ff0"/>
    <path fill-rule="evenodd" clip-rule="evenodd" d="M12.0001 9.29199C12.3925 9.29199 12.7106 9.61011 12.7106 10.0025V17.0167C12.7106 17.4091 12.3925 17.7272 12.0001 17.7272C11.6077 17.7272 11.2896 17.4091 11.2896 17.0167V10.0025C11.2896 9.61011 11.6077 9.29199 12.0001 9.29199Z" fill="#ff0"/>
    <path fill-rule="evenodd" clip-rule="evenodd" d="M15.1883 9.29199C15.5807 9.29199 15.8988 9.61011 15.8988 10.0025V17.0167C15.8988 17.4091 15.5807 17.7272 15.1883 17.7272C14.7959 17.7272 14.4778 17.4091 14.4778 17.0167V10.0025C14.4778 9.61011 14.7959 9.29199 15.1883 9.29199Z" fill="#ff0"/>
    <path fill-rule="evenodd" clip-rule="evenodd" d="M18.3765 9.29199C18.769 9.29199 19.0871 9.61011 19.0871 10.0025V17.0167C19.0871 17.4091 18.769 17.7272 18.3765 17.7272C17.9841 17.7272 17.666 17.4091 17.666 17.0167V10.0025C17.666 9.61011 17.9841 9.29199 18.3765 9.29199Z" fill="#ff0"/>
    <path fill-rule="evenodd" clip-rule="evenodd" d="M11.9105 4.52673L4.633 9.29221H19.3668L12.0893 4.52673C12.0617 4.5125 12.031 4.50504 11.9999 4.50504C11.9687 4.50504 11.9381 4.5125 11.9105 4.52673ZM11.1805 3.30712C11.4289 3.16102 11.7117 3.08398 11.9999 3.08398C12.288 3.08398 12.5709 3.16102 12.8193 3.30712C12.8291 3.31288 12.8387 3.31888 12.8482 3.32511L20.387 8.2617C20.9508 8.63327 21.1242 9.27842 20.905 9.82991C20.6947 10.3592 20.1653 10.7133 19.5369 10.7133H4.46284C3.83448 10.7133 3.30504 10.3592 3.09474 9.82991C2.8756 9.27842 3.04896 8.63327 3.61272 8.2617L3.61448 8.26054L11.1515 3.32511C11.161 3.31888 11.1707 3.31288 11.1805 3.30712Z" fill="#000"/>
    <path fill-rule="evenodd" clip-rule="evenodd" d="M4.42105 17.7272V19.4944H19.5789V17.7272H4.42105ZM3 17.6543C3 16.9098 3.6036 16.3062 4.34818 16.3062H19.6518C20.3964 16.3062 21 16.9098 21 17.6543V19.5673C21 20.3119 20.3964 20.9155 19.6518 20.9155H4.34818C3.6036 20.9155 3 20.3119 3 19.5673V17.6543Z" fill="#000"/>
</svg>
