<svg width="40" height="40" viewBox="0 0 40 40" fill="none" xmlns="http://www.w3.org/2000/svg">
<rect width="40" height="40" rx="20" fill="#FFF7EF"/>
<rect x="0.5" y="0.5" width="39" height="39" rx="19.5" stroke="#0C0C0E" stroke-opacity="0.05"/>
<path d="M20.6 10.2C20.4269 10.0702 20.2164 10 20 10C19.7836 10 19.5731 10.0702 19.4 10.2C18.9834 10.5192 18.5992 10.8786 18.253 11.273C17.73 11.862 17 12.855 17 14C17 14.7956 17.3161 15.5587 17.8787 16.1213C18.4413 16.6839 19.2044 17 20 17H14C13.2044 17 12.4413 17.3161 11.8787 17.8787C11.3161 18.4413 11 19.2044 11 20V22C11 23.236 12.411 23.942 13.4 23.2L14.067 22.7C14.2401 22.5702 14.4506 22.5 14.667 22.5C14.8834 22.5 15.0939 22.5702 15.267 22.7L15.533 22.9C16.0523 23.2895 16.6839 23.5 17.333 23.5C17.9821 23.5 18.6137 23.2895 19.133 22.9L19.4 22.7C19.5731 22.5702 19.7836 22.5 20 22.5C20.2164 22.5 20.4269 22.5702 20.6 22.7L20.867 22.9C21.3863 23.2895 22.0179 23.5 22.667 23.5C23.3161 23.5 23.9477 23.2895 24.467 22.9L24.733 22.7C24.9061 22.5702 25.1166 22.5 25.333 22.5C25.5494 22.5 25.7599 22.5702 25.933 22.7L26.6 23.2C27.589 23.942 29 23.236 29 22V20C29 19.2044 28.6839 18.4413 28.1213 17.8787C27.5587 17.3161 26.7956 17 26 17H20C20.7956 17 21.5587 16.6839 22.1213 16.1213C22.6839 15.5587 23 14.7956 23 14C23 12.855 22.27 11.862 21.747 11.273C21.401 10.883 21.017 10.513 20.6 10.2ZM12 25.415V28C12 28.5304 12.2107 29.0391 12.5858 29.4142C12.9609 29.7893 13.4696 30 14 30H26C26.5304 30 27.0391 29.7893 27.4142 29.4142C27.7893 29.0391 28 28.5304 28 28V25.415C27.7673 25.4991 27.5172 25.5234 27.2726 25.4859C27.028 25.4483 26.7968 25.35 26.6 25.2L25.933 24.7C25.7599 24.5702 25.5494 24.5 25.333 24.5C25.1166 24.5 24.9061 24.5702 24.733 24.7L24.467 24.9C23.9477 25.2895 23.3161 25.5 22.667 25.5C22.0179 25.5 21.3863 25.2895 20.867 24.9L20.6 24.7C20.4269 24.5702 20.2164 24.5 20 24.5C19.7836 24.5 19.5731 24.5702 19.4 24.7L19.133 24.9C18.6137 25.2895 17.9821 25.5 17.333 25.5C16.6839 25.5 16.0523 25.2895 15.533 24.9L15.267 24.7C15.0939 24.5702 14.8834 24.5 14.667 24.5C14.4506 24.5 14.2401 24.5702 14.067 24.7L13.4 25.2C13.2032 25.35 12.972 25.4483 12.7274 25.4859C12.4828 25.5234 12.2327 25.4991 12 25.415Z" fill="#FFB800"/>
</svg>
