<svg width="41" height="40" viewBox="0 0 41 40" fill="none" xmlns="http://www.w3.org/2000/svg">
<rect x="0.5" width="40" height="40" rx="20" fill="#E8EFFE"/>
<rect x="1" y="0.5" width="39" height="39" rx="19.5" stroke="#0C0C0E" stroke-opacity="0.05"/>
<path d="M30.5625 27.1875H29.8438V14.9688C29.8438 14.7781 29.768 14.5953 29.6332 14.4605C29.4984 14.3257 29.3156 14.25 29.125 14.25H25.5312V12.0938C25.5312 11.9031 25.4555 11.7203 25.3207 11.5855C25.1859 11.4507 25.0031 11.375 24.8125 11.375H16.1875C15.9969 11.375 15.8141 11.4507 15.6793 11.5855C15.5445 11.7203 15.4688 11.9031 15.4688 12.0938V17.125H11.875C11.6844 17.125 11.5016 17.2007 11.3668 17.3355C11.232 17.4703 11.1562 17.6531 11.1562 17.8438V27.1875H10.4375C10.2469 27.1875 10.0641 27.2632 9.92927 27.398C9.79448 27.5328 9.71875 27.7156 9.71875 27.9062C9.71875 28.0969 9.79448 28.2797 9.92927 28.4145C10.0641 28.5493 10.2469 28.625 10.4375 28.625H30.5625C30.7531 28.625 30.9359 28.5493 31.0707 28.4145C31.2055 28.2797 31.2812 28.0969 31.2812 27.9062C31.2812 27.7156 31.2055 27.5328 31.0707 27.398C30.9359 27.2632 30.7531 27.1875 30.5625 27.1875ZM16.1875 24.3125H14.75C14.5594 24.3125 14.3766 24.2368 14.2418 24.102C14.107 23.9672 14.0312 23.7844 14.0312 23.5938C14.0312 23.4031 14.107 23.2203 14.2418 23.0855C14.3766 22.9507 14.5594 22.875 14.75 22.875H16.1875C16.3781 22.875 16.5609 22.9507 16.6957 23.0855C16.8305 23.2203 16.9062 23.4031 16.9062 23.5938C16.9062 23.7844 16.8305 23.9672 16.6957 24.102C16.5609 24.2368 16.3781 24.3125 16.1875 24.3125ZM16.1875 21.4375H14.75C14.5594 21.4375 14.3766 21.3618 14.2418 21.227C14.107 21.0922 14.0312 20.9094 14.0312 20.7188C14.0312 20.5281 14.107 20.3453 14.2418 20.2105C14.3766 20.0757 14.5594 20 14.75 20H16.1875C16.3781 20 16.5609 20.0757 16.6957 20.2105C16.8305 20.3453 16.9062 20.5281 16.9062 20.7188C16.9062 20.9094 16.8305 21.0922 16.6957 21.227C16.5609 21.3618 16.3781 21.4375 16.1875 21.4375ZM21.9375 27.1875H19.0625V23.5938H21.9375V27.1875ZM21.2188 21.4375H19.7812C19.5906 21.4375 19.4078 21.3618 19.273 21.227C19.1382 21.0922 19.0625 20.9094 19.0625 20.7188C19.0625 20.5281 19.1382 20.3453 19.273 20.2105C19.4078 20.0757 19.5906 20 19.7812 20H21.2188C21.4094 20 21.5922 20.0757 21.727 20.2105C21.8618 20.3453 21.9375 20.5281 21.9375 20.7188C21.9375 20.9094 21.8618 21.0922 21.727 21.227C21.5922 21.3618 21.4094 21.4375 21.2188 21.4375ZM21.2188 18.5625H19.7812C19.5906 18.5625 19.4078 18.4868 19.273 18.352C19.1382 18.2172 19.0625 18.0344 19.0625 17.8438C19.0625 17.6531 19.1382 17.4703 19.273 17.3355C19.4078 17.2007 19.5906 17.125 19.7812 17.125H21.2188C21.4094 17.125 21.5922 17.2007 21.727 17.3355C21.8618 17.4703 21.9375 17.6531 21.9375 17.8438C21.9375 18.0344 21.8618 18.2172 21.727 18.352C21.5922 18.4868 21.4094 18.5625 21.2188 18.5625ZM21.2188 15.6875H19.7812C19.5906 15.6875 19.4078 15.6118 19.273 15.477C19.1382 15.3422 19.0625 15.1594 19.0625 14.9688C19.0625 14.7781 19.1382 14.5953 19.273 14.4605C19.4078 14.3257 19.5906 14.25 19.7812 14.25H21.2188C21.4094 14.25 21.5922 14.3257 21.727 14.4605C21.8618 14.5953 21.9375 14.7781 21.9375 14.9688C21.9375 15.1594 21.8618 15.3422 21.727 15.477C21.5922 15.6118 21.4094 15.6875 21.2188 15.6875ZM26.25 24.3125H24.8125C24.6219 24.3125 24.4391 24.2368 24.3043 24.102C24.1695 23.9672 24.0938 23.7844 24.0938 23.5938C24.0938 23.4031 24.1695 23.2203 24.3043 23.0855C24.4391 22.9507 24.6219 22.875 24.8125 22.875H26.25C26.4406 22.875 26.6234 22.9507 26.7582 23.0855C26.893 23.2203 26.9688 23.4031 26.9688 23.5938C26.9688 23.7844 26.893 23.9672 26.7582 24.102C26.6234 24.2368 26.4406 24.3125 26.25 24.3125ZM26.25 21.4375H24.8125C24.6219 21.4375 24.4391 21.3618 24.3043 21.227C24.1695 21.0922 24.0938 20.9094 24.0938 20.7188C24.0938 20.5281 24.1695 20.3453 24.3043 20.2105C24.4391 20.0757 24.6219 20 24.8125 20H26.25C26.4406 20 26.6234 20.0757 26.7582 20.2105C26.893 20.3453 26.9688 20.5281 26.9688 20.7188C26.9688 20.9094 26.893 21.0922 26.7582 21.227C26.6234 21.3618 26.4406 21.4375 26.25 21.4375ZM26.25 18.5625H24.8125C24.6219 18.5625 24.4391 18.4868 24.3043 18.352C24.1695 18.2172 24.0938 18.0344 24.0938 17.8438C24.0938 17.6531 24.1695 17.4703 24.3043 17.3355C24.4391 17.2007 24.6219 17.125 24.8125 17.125H26.25C26.4406 17.125 26.6234 17.2007 26.7582 17.3355C26.893 17.4703 26.9688 17.6531 26.9688 17.8438C26.9688 18.0344 26.893 18.2172 26.7582 18.352C26.6234 18.4868 26.4406 18.5625 26.25 18.5625Z" fill="#4D50F5"/>
</svg>
