<svg width="16" height="20" viewBox="0 0 16 20" fill="none" xmlns="http://www.w3.org/2000/svg">
<path d="M7.99967 8.66667C7.99967 7.95942 7.71872 7.28115 7.21863 6.78105C6.71853 6.28095 6.04025 6 5.33301 6H1.33301V16H5.99967C6.53011 16 7.03882 16.2107 7.41389 16.5858C7.78896 16.9609 7.99967 17.4696 7.99967 18M7.99967 8.66667V18M7.99967 8.66667C7.99967 7.95942 8.28063 7.28115 8.78072 6.78105C9.28082 6.28095 9.9591 6 10.6663 6H14.6663V16H9.99967C9.46924 16 8.96053 16.2107 8.58546 16.5858C8.21039 16.9609 7.99967 17.4696 7.99967 18" stroke="#0C0C0E" stroke-opacity="0.6" stroke-width="1.33333" stroke-linecap="round" stroke-linejoin="round"/>
</svg>
