<svg width="40" height="40" viewBox="0 0 40 40" fill="none" xmlns="http://www.w3.org/2000/svg">
<rect width="40" height="40" rx="20" fill="#FFF6F5"/>
<rect x="0.5" y="0.5" width="39" height="39" rx="19.5" stroke="black" stroke-opacity="0.04"/>
<g clip-path="url(#clip0_16153_14953)">
<path d="M31.2937 17.4163H29.9601C29.7587 16.4291 29.357 15.3932 29.029 14.7946C29.5195 14.3332 29.8264 13.6804 29.8264 12.957V12.1133C29.8264 11.7252 29.5105 11.4102 29.1201 11.4102H26.17C25.094 10.5886 23.8643 9.98966 22.5382 9.65169C22.5418 9.56342 22.5409 9.64236 22.5409 8.70312C22.5409 8.315 22.2249 8 21.8346 8C20.7726 8 19.2267 8 18.165 8C17.7751 8 17.4587 8.315 17.4587 8.70312C17.4587 9.644 17.4577 9.56319 17.4613 9.65169C16.1478 9.98633 14.9166 10.5813 13.8308 11.4102H10.8794C10.4895 11.4102 10.1731 11.7252 10.1731 12.1133V12.957C10.1731 13.6806 10.4803 14.3337 10.9712 14.795C10.5405 15.6198 10.2271 16.5003 10.04 17.4163H8.70631C8.31594 17.4163 8 17.7308 8 18.1194V18.9631C8 20.1832 8.87267 21.2045 10.0292 21.4409C10.184 22.2195 10.4305 22.9726 10.762 23.6883C10.4281 23.7441 10.1732 24.0323 10.1732 24.3809V25.2242C10.1732 27.0905 12.1471 28.318 13.829 27.4971C14.5341 28.0355 15.3003 28.476 16.111 28.8102C16.111 28.8102 16.111 28.8102 16.1111 28.8102L15.5346 30.5938H11.2095C10.8192 30.5938 10.5032 30.9088 10.5032 31.2969C10.5032 31.685 10.8192 32 11.2095 32H28.7904C29.1803 32 29.4967 31.685 29.4967 31.2969C29.4967 30.9088 29.1803 30.5938 28.7904 30.5938H24.4649L23.8884 28.8099C24.7226 28.4664 25.5656 27.9693 26.1713 27.4973C27.8554 28.3188 29.8264 27.0885 29.8264 25.2242V24.3809C29.8264 24.0326 29.5722 23.7445 29.2384 23.6884C29.519 23.103 29.8064 22.2665 29.9707 21.4409C31.1273 21.2046 32 20.1832 32 18.9631V18.1194C32 17.7308 31.684 17.4163 31.2937 17.4163ZM23.4522 27.4605L21.5806 21.6703L24.752 24.2847C24.742 24.3571 24.7446 24.2914 24.7446 25.2242C24.7446 25.6999 24.8773 26.1452 25.1075 26.5257C24.6031 26.889 24.0392 27.209 23.4522 27.4605ZM17.8858 27.9106L19.9159 21.6298C19.9441 21.6312 19.9718 21.6317 20 21.6317C20.0281 21.6317 20.0558 21.6312 20.0835 21.6298L22.1135 27.9101C20.7271 28.2526 19.2679 28.2536 17.8858 27.9106ZM13.7691 23.6778H12.3462C11.9397 22.9506 11.6347 22.1597 11.4505 21.3243C12.0211 21.1057 12.4932 20.6884 12.7801 20.1574H17.9295C17.9295 20.1575 17.9295 20.1575 17.9296 20.1575C17.9381 20.181 17.9465 20.204 17.955 20.2269C17.955 20.227 17.955 20.2271 17.9551 20.2272L13.7691 23.6778ZM24.7446 12.1357C24.7446 13.001 24.6753 13.579 25.1376 14.306L21.1431 17.5989C21.0066 17.515 20.8603 17.4462 20.7064 17.3937V11.9757C21.2708 11.8128 21.7548 11.46 22.0837 10.9914C22.0963 10.9945 22.1089 10.9975 22.1215 11.0006C23.0466 11.2307 23.9332 11.6127 24.7446 12.1357ZM28.5104 17.4163H27.6245C27.2342 17.4163 26.9182 17.7308 26.9182 18.1194V18.7511H22.07C22.062 18.7278 22.0535 18.7044 22.0446 18.6815L26.2099 15.248C26.6894 15.4719 27.2311 15.543 27.7669 15.4403C28.0964 16.0697 28.3443 16.7285 28.5104 17.4163ZM27.6533 23.6778H26.2308L22.0446 20.2269C22.0446 20.2269 22.0446 20.2269 22.0446 20.2269C22.054 20.2039 22.062 20.1809 22.07 20.1575C22.07 20.1575 22.07 20.1574 22.07 20.1574H27.22C27.5068 20.6882 27.9787 21.1055 28.5492 21.3242C28.3723 22.1272 28.0832 22.9089 27.6533 23.6778ZM19.2937 19.4544C19.2937 19.0662 19.6101 18.7513 20 18.7513C20.3899 18.7513 20.7063 19.0662 20.7063 19.4544C20.7063 19.8425 20.3899 20.1575 20 20.1575C19.6101 20.1575 19.2937 19.8425 19.2937 19.4544ZM19.2937 11.9761V17.3933C19.1397 17.4462 18.9933 17.5152 18.8567 17.5986C18.8567 17.5986 18.8566 17.5987 18.8565 17.5987L14.8623 14.3061C15.3247 13.5792 15.2554 13.0014 15.2554 12.1356C16.0611 11.6162 16.9576 11.2251 17.9156 10.9913C18.2446 11.4601 18.7288 11.8131 19.2937 11.9761ZM12.233 15.4403C12.7733 15.5438 13.3145 15.47 13.7899 15.248L17.9551 18.6815C17.955 18.6816 17.955 18.6817 17.9549 18.6819C17.9465 18.7048 17.938 18.7277 17.9295 18.7511H13.0817V18.1194C13.0817 17.7308 12.7657 17.4163 12.3754 17.4163H11.4896C11.6574 16.7217 11.9089 16.0593 12.233 15.4403ZM16.547 27.4606C15.9595 27.2086 15.4051 26.8942 14.8921 26.5261C15.1225 26.1455 15.2554 25.7 15.2554 25.2242C15.2554 24.2961 15.2581 24.3583 15.248 24.2845L18.4188 21.6707L16.5472 27.4608C16.5472 27.4607 16.5471 27.4607 16.547 27.4606ZM17.0186 30.5938L17.4514 29.2546C19.0704 29.6696 20.8283 29.6903 22.5481 29.2546L22.981 30.5938C22.7191 30.5938 17.2803 30.5938 17.0186 30.5938Z" fill="url(#paint0_linear_16153_14953)"/>
</g>
<defs>
<linearGradient id="paint0_linear_16153_14953" x1="20" y1="8" x2="20" y2="32" gradientUnits="userSpaceOnUse">
<stop stop-color="#FF2B05"/>
<stop offset="1" stop-color="#FF4E2F"/>
</linearGradient>
<clipPath id="clip0_16153_14953">
<rect width="24" height="24" fill="white" transform="translate(8 8)"/>
</clipPath>
</defs>
</svg>
