<svg width="24" height="24" viewBox="0 0 24 24" fill="none" xmlns="http://www.w3.org/2000/svg">
<path fill-rule="evenodd" clip-rule="evenodd" d="M11.987 3.42935C11.3425 3.41779 10.702 3.53353 10.1023 3.76993C9.50255 4.00632 8.95536 4.35874 8.49207 4.80697C8.02878 5.25521 7.65849 5.79045 7.40241 6.38204C7.14702 6.97204 7.01024 7.60651 6.99985 8.24928V12.0008C6.99985 12.3953 6.68005 12.7151 6.28557 12.7151C5.89108 12.7151 5.57129 12.3953 5.57129 12.0008V8.23291C5.58387 7.40044 5.76067 6.57862 6.0914 5.81456C6.42214 5.05049 6.90039 4.3592 7.49875 3.78028C8.09711 3.20137 8.80382 2.74621 9.57839 2.44089C10.349 2.13714 11.1717 1.98763 11.9998 2.0008C12.8279 1.98763 13.6506 2.13714 14.4212 2.44089C15.1958 2.74621 15.9025 3.20137 16.5009 3.78028C17.0992 4.3592 17.5775 5.05049 17.9082 5.81456C18.2389 6.57862 18.4157 7.40044 18.4282 8.23292L18.4284 8.24371L18.4283 12.0008C18.4283 12.3953 18.1085 12.7151 17.714 12.7151C17.3196 12.7151 16.9998 12.3953 16.9998 12.0008V8.24929C16.9894 7.60651 16.8526 6.97204 16.5972 6.38204C16.3411 5.79045 15.9708 5.25521 15.5075 4.80697C15.0443 4.35874 14.4971 4.00632 13.8973 3.76993C13.2976 3.53353 12.6571 3.41779 12.0126 3.42935L11.9998 2.71518L11.987 3.42935Z" fill="#000"/>
<path fill-rule="evenodd" clip-rule="evenodd" d="M4.14284 10.5721C3.9534 10.5721 3.77172 10.6474 3.63777 10.7813C3.50381 10.9153 3.42856 11.097 3.42856 11.2864V14.1435C3.42856 14.333 3.50381 14.5146 3.63777 14.6486C3.77172 14.7825 3.9534 14.8578 4.14284 14.8578H5.5714V10.5721H4.14284ZM4.14284 9.14355H5.5714C5.95028 9.14355 6.31364 9.29406 6.58154 9.56197C6.84945 9.82988 6.99996 10.1932 6.99996 10.5721V14.8578C6.99996 15.2367 6.84945 15.6 6.58154 15.8679C6.31363 16.1358 5.95027 16.2864 5.5714 16.2864H4.14284C3.57452 16.2864 3.02948 16.0606 2.62762 15.6587C2.22576 15.2569 2 14.7118 2 14.1435V11.2864C2 10.7181 2.22576 10.173 2.62762 9.77118C3.02948 9.36932 3.57452 9.14355 4.14284 9.14355Z" fill="#000"/>
<path fill-rule="evenodd" clip-rule="evenodd" d="M19.8572 14.8576C20.0466 14.8576 20.2283 14.7823 20.3622 14.6484C20.4962 14.5144 20.5714 14.3327 20.5714 14.1433V11.2862C20.5714 11.0967 20.4962 10.9151 20.3622 10.7811C20.2283 10.6471 20.0466 10.5719 19.8572 10.5719H18.4286V14.8576H19.8572ZM19.8572 16.2861H18.4286C18.0497 16.2861 17.6864 16.1356 17.4185 15.8677C17.1505 15.5998 17 15.2364 17 14.8576V10.5719C17 10.193 17.1505 9.82966 17.4185 9.56175C17.6864 9.29384 18.0497 9.14334 18.4286 9.14334H19.8572C20.4255 9.14334 20.9705 9.3691 21.3724 9.77096C21.7742 10.1728 22 10.7179 22 11.2862V14.1433C22 14.7116 21.7742 15.2566 21.3724 15.6585C20.9705 16.0604 20.4255 16.2861 19.8572 16.2861Z" fill="#000"/>
<path fill-rule="evenodd" clip-rule="evenodd" d="M17.714 12.7148C18.1085 12.7148 18.4283 13.0346 18.4283 13.4291V16.6434C18.4283 17.5906 18.052 18.499 17.3822 19.1687C16.7125 19.8385 15.8041 20.2148 14.8569 20.2148C14.4624 20.2148 14.1426 19.895 14.1426 19.5005C14.1426 19.106 14.4624 18.7862 14.8569 18.7862C15.4252 18.7862 15.9702 18.5605 16.3721 18.1586C16.7739 17.7567 16.9997 17.2117 16.9997 16.6434V13.4291C16.9997 13.0346 17.3195 12.7148 17.714 12.7148Z" fill="#000"/>
<path fill-rule="evenodd" clip-rule="evenodd" d="M10.9287 18.4286C10.6445 18.4286 10.372 18.5414 10.1711 18.7424C9.97015 18.9433 9.85727 19.2158 9.85727 19.5C9.85727 19.7841 9.97015 20.0567 10.1711 20.2576C10.372 20.4585 10.6445 20.5714 10.9287 20.5714H13.0715C13.3557 20.5714 13.6282 20.4585 13.8291 20.2576C14.0301 20.0567 14.1429 19.7841 14.1429 19.5C14.1429 19.2158 14.0301 18.9433 13.8291 18.7424C13.6282 18.5414 13.3557 18.4286 13.0715 18.4286H10.9287ZM9.16094 17.7322C9.62977 17.2634 10.2657 17 10.9287 17H13.0715C13.7346 17 14.3704 17.2634 14.8393 17.7322C15.3081 18.2011 15.5715 18.8369 15.5715 19.5C15.5715 20.163 15.3081 20.7989 14.8393 21.2677C14.3704 21.7366 13.7346 22 13.0715 22H10.9287C10.2657 22 9.62977 21.7366 9.16094 21.2677C8.6921 20.7989 8.42871 20.163 8.42871 19.5C8.42871 18.8369 8.6921 18.2011 9.16094 17.7322Z" fill="#000"/>
</svg>
