<svg width="24" height="24" viewBox="0 0 24 24" fill="none" xmlns="http://www.w3.org/2000/svg">
<path fill-rule="evenodd" clip-rule="evenodd" d="M8.56913 6.36207C9.47909 5.4521 10.7133 4.94089 12.0002 4.94089C13.2871 4.94089 14.5212 5.4521 15.4312 6.36207C16.3411 7.27204 16.8524 8.50622 16.8524 9.79311V9.99933H7.14794V9.79311C7.14794 8.50622 7.65916 7.27204 8.56913 6.36207ZM5.20705 9.99933V9.79311C5.20705 7.99147 5.92275 6.26362 7.19671 4.98965C8.47066 3.7157 10.1985 3 12.0002 3C13.8018 3 15.5297 3.7157 16.8036 4.98965C18.0776 6.26362 18.7933 7.99147 18.7933 9.79311V9.99933H18.9478H18.9551V9.99936C20.1069 10.0126 21.007 11.0506 20.8572 12.1926L20.8571 12.1936L19.954 18.9979C19.9512 19.019 19.9483 19.0437 19.9451 19.0716L19.945 19.0718V19.072C19.9253 19.2413 19.8923 19.5234 19.7863 19.7791C19.5578 20.3299 19.077 20.7576 18.5069 20.9232C18.236 21.0018 17.9605 20.9995 17.7912 20.9981L17.7339 20.9977H6.35136C6.32836 20.9977 6.30148 20.9981 6.27136 20.9986H6.27134C6.08664 21.0017 5.77974 21.0069 5.49178 20.9232C4.92169 20.7576 4.44083 20.3299 4.21237 19.7791C4.0908 19.4859 4.05464 19.1373 4.03277 18.9264C4.0281 18.8814 4.02408 18.8425 4.02002 18.812L3.15872 12.3227C3.13872 12.172 3.10878 11.9445 3.14148 11.696C3.24832 10.884 3.869 10.2072 4.6784 10.0391C4.80815 10.0121 4.94233 9.99838 5.0793 9.99933H5.20705ZM8.87646 12.9836C9.32308 12.9836 9.68516 13.3457 9.68516 13.7923V17.4172C9.68516 17.8637 9.32308 18.2259 8.87646 18.2259C8.42982 18.2259 8.06776 17.8637 8.06776 17.4172V13.7923C8.06776 13.3457 8.42982 12.9836 8.87646 12.9836ZM15.9325 13.7923C15.9325 13.3457 15.5705 12.9836 15.1239 12.9836C14.6772 12.9836 14.3151 13.3457 14.3151 13.7923V17.4172C14.3151 17.8637 14.6772 18.2259 15.1239 18.2259C15.5705 18.2259 15.9325 17.8637 15.9325 17.4172V13.7923Z" fill="#000"/>
</svg>
