<svg width="40" height="40" viewBox="0 0 40 40" fill="none" xmlns="http://www.w3.org/2000/svg">
<rect width="40" height="40" rx="20" fill="#FFF8E5"/>
<rect x="0.25" y="0.25" width="39.5" height="39.5" rx="19.75" stroke="#0C0C0E" stroke-opacity="0.1" stroke-width="0.5"/>
<path d="M9.84644 26.3492C9.95975 27.6885 10.9049 28.6745 12.1019 28.761C13.6899 28.8757 16.2711 29 20 29C23.7288 29 26.31 28.8757 27.898 28.761C29.0951 28.6745 30.0402 27.6885 30.1535 26.3492C30.2715 24.9543 30.3846 22.8691 30.3846 20C30.3846 17.1309 30.2715 15.0457 30.1535 13.6508C30.0402 12.3115 29.0951 11.3255 27.898 11.2391C26.31 11.1243 23.7288 11 20 11C16.2711 11 13.6899 11.1243 12.1019 11.2391C10.9049 11.3255 9.95975 12.3115 9.84644 13.6508C9.72844 15.0457 9.61536 17.1309 9.61536 20C9.61536 22.8691 9.72844 24.9543 9.84644 26.3492Z" fill="#FFB800"/>
<path d="M23.2353 22.6804C22.7176 22.7093 22.3715 23.1397 22.3627 23.721C22.3604 23.8716 22.359 24.0424 22.359 24.2352C22.359 24.4328 22.3605 24.6073 22.3629 24.7602C22.3718 25.3328 22.7104 25.7576 23.2204 25.7878C23.5637 25.8082 24.0457 25.8234 24.7191 25.8234C25.3829 25.8234 25.8607 25.8092 26.203 25.79C26.7207 25.7611 27.0668 25.3307 27.0756 24.7494C27.0779 24.5989 27.0793 24.428 27.0793 24.2352C27.0793 24.0424 27.0779 23.8716 27.0756 23.721C27.0668 23.1397 26.7207 22.7093 26.203 22.6804C25.8607 22.6612 25.3829 22.647 24.7191 22.647C24.0554 22.647 23.5776 22.6612 23.2353 22.6804Z" fill="#FEE283"/>
<path fill-rule="evenodd" clip-rule="evenodd" d="M9.61536 20.0159C10.769 20.051 14.0789 20.1323 20 20.1323C25.921 20.1323 29.231 20.051 30.3846 20.0159C30.3846 20.0106 30.3846 20.0053 30.3846 20C30.3846 18.3206 30.3458 16.9097 30.29 15.7487C29.1626 15.7136 25.9177 15.6323 20 15.6323C14.0822 15.6323 10.8373 15.7136 9.70989 15.7487C9.6541 16.9097 9.61536 18.3206 9.61536 20C9.61536 20.0053 9.61536 20.0106 9.61536 20.0159Z" fill="#FEE283"/>
</svg>
