<svg width="22" height="18" viewBox="0 0 22 18" fill="none" xmlns="http://www.w3.org/2000/svg">
<path d="M0.84632 15.3492C0.959631 16.6885 1.90473 17.6745 3.10177 17.761C4.68983 17.8757 7.27102 18 10.9999 18C14.7287 18 17.3099 17.8757 18.8979 17.761C20.095 17.6745 21.0401 16.6885 21.1534 15.3492C21.2714 13.9543 21.3845 11.8691 21.3845 9C21.3845 6.13085 21.2714 4.04571 21.1534 2.65082C21.0401 1.3115 20.095 0.325535 18.8979 0.239056C17.3099 0.124327 14.7287 0 10.9999 0C7.27102 0 4.68983 0.124327 3.10178 0.239056C1.90474 0.32553 0.959631 1.3115 0.84632 2.65082C0.728313 4.04571 0.615234 6.13085 0.615234 9C0.615234 11.8691 0.728313 13.9543 0.84632 15.3492Z" fill="#29B26E"/>
<path d="M14.2357 11.6804C13.718 11.7093 13.3719 12.1397 13.3631 12.721C13.3608 12.8716 13.3594 13.0424 13.3594 13.2352C13.3594 13.4328 13.3608 13.6073 13.3632 13.7602C13.3722 14.3328 13.7108 14.7576 14.2207 14.7878C14.5641 14.8082 15.046 14.8234 15.7195 14.8234C16.3833 14.8234 16.861 14.8092 17.2033 14.79C17.7211 14.7611 18.0671 14.3307 18.076 13.7494C18.0782 13.5989 18.0797 13.428 18.0797 13.2352C18.0797 13.0424 18.0782 12.8716 18.076 12.721C18.0671 12.1397 17.7211 11.7093 17.2033 11.6804C16.861 11.6612 16.3833 11.647 15.7195 11.647C15.0557 11.647 14.578 11.6612 14.2357 11.6804Z" fill="#C9F3DE"/>
<path fill-rule="evenodd" clip-rule="evenodd" d="M0.615234 9.01585C1.76889 9.05095 5.07878 9.13232 10.9999 9.13232C16.9209 9.13232 20.2308 9.05095 21.3845 9.01585C21.3845 9.01056 21.3845 9.00527 21.3845 8.99997C21.3845 7.32057 21.3457 5.90974 21.2899 4.74874C20.1625 4.71359 16.9176 4.63232 10.9999 4.63232C5.08208 4.63232 1.83722 4.71359 0.709772 4.74874C0.653978 5.90974 0.615234 7.32057 0.615234 8.99997C0.615234 9.00527 0.615234 9.01056 0.615234 9.01585Z" fill="#C9F3DE"/>
</svg>
