<svg width="25" height="24" viewBox="0 0 25 24" fill="none" xmlns="http://www.w3.org/2000/svg">
<path fill-rule="evenodd" clip-rule="evenodd" d="M5.03981 6.41296C4.69323 6.41296 4.41228 6.69392 4.41228 7.04049V16.9595C4.41228 17.3061 4.69323 17.587 5.03981 17.587H20.6269C20.9734 17.587 21.2544 17.3061 21.2544 16.9595V7.04049C21.2544 6.69392 20.9734 6.41296 20.6269 6.41296H5.03981ZM2.83333 7.04049C2.83333 5.82189 3.8212 4.83401 5.03981 4.83401H20.6269C21.8455 4.83401 22.8333 5.82189 22.8333 7.04049V16.9595C22.8333 18.1781 21.8455 19.166 20.6269 19.166H5.03981C3.8212 19.166 2.83333 18.1781 2.83333 16.9595V7.04049Z" fill="#000"/>
<path fill-rule="evenodd" clip-rule="evenodd" d="M12.8334 10.6639C12.0955 10.6639 11.4974 11.2621 11.4974 12C11.4974 12.7378 12.0955 13.336 12.8334 13.336C13.5713 13.336 14.1694 12.7378 14.1694 12C14.1694 11.2621 13.5713 10.6639 12.8334 10.6639ZM9.91841 12C9.91841 10.3901 11.2235 9.08499 12.8334 9.08499C14.4433 9.08499 15.7484 10.3901 15.7484 12C15.7484 13.6099 14.4433 14.915 12.8334 14.915C11.2235 14.915 9.91841 13.6099 9.91841 12Z" fill="#ff0"/>
<path fill-rule="evenodd" clip-rule="evenodd" d="M6.37576 9.16603C6.37576 8.73002 6.72922 8.37656 7.16524 8.37656H7.87374C8.30975 8.37656 8.66321 8.73002 8.66321 9.16603C8.66321 9.60204 8.30975 9.9555 7.87374 9.9555H7.16524C6.72922 9.9555 6.37576 9.60204 6.37576 9.16603Z" fill="#ff0"/>
<path fill-rule="evenodd" clip-rule="evenodd" d="M17.0034 14.834C17.0034 14.398 17.3568 14.0446 17.7929 14.0446H18.5014C18.9374 14.0446 19.2908 14.398 19.2908 14.834C19.2908 15.27 18.9374 15.6235 18.5014 15.6235H17.7929C17.3568 15.6235 17.0034 15.27 17.0034 14.834Z" fill="#ff0"/>
</svg>
