<svg width="24" height="24" viewBox="0 0 24 24" fill="none" xmlns="http://www.w3.org/2000/svg">
<path fill-rule="evenodd" clip-rule="evenodd" d="M11.8127 14.0669C12.2514 14.0669 12.6071 14.4225 12.6071 14.8613V16.3928C12.6071 16.8315 12.2514 17.1872 11.8127 17.1872C11.374 17.1872 11.0183 16.8315 11.0183 16.3928V14.8613C11.0183 14.4225 11.374 14.0669 11.8127 14.0669Z" fill="#000"/>
<path fill-rule="evenodd" clip-rule="evenodd" d="M9.54956 10.2642C9.54956 9.01393 10.5631 8.00049 11.8133 8.00049H13.3447C13.7491 8.00049 14.0769 8.32828 14.0769 8.73263C14.0769 9.13699 13.7491 9.46478 13.3447 9.46478H11.8133C11.3717 9.46478 11.0139 9.82269 11.0139 10.2642C11.0139 10.7056 11.3717 11.0635 11.8132 11.0635C13.0634 11.0635 14.0769 12.077 14.0769 13.3272C14.0769 14.5774 13.0634 15.5908 11.8132 15.5908H10.2817C9.87735 15.5908 9.54956 15.263 9.54956 14.8587C9.54956 14.4543 9.87735 14.1265 10.2817 14.1265H11.8132C12.2547 14.1265 12.6126 13.7687 12.6126 13.3272C12.6126 12.8857 12.2547 12.5278 11.8132 12.5278C10.563 12.5278 9.54956 11.5143 9.54956 10.2642Z" fill="#000"/>
<path fill-rule="evenodd" clip-rule="evenodd" d="M11.8127 6.46973C12.2171 6.46973 12.5449 6.79752 12.5449 7.20187V8.73339C12.5449 9.13774 12.2171 9.46553 11.8127 9.46553C11.4084 9.46553 11.0806 9.13774 11.0806 8.73339V7.20187C11.0806 6.79752 11.4084 6.46973 11.8127 6.46973Z" fill="#000"/>
<path fill-rule="evenodd" clip-rule="evenodd" d="M3.58375 13.3235C3.97619 13.2261 4.3733 13.4652 4.47073 13.8577C5.30135 17.2036 8.32584 19.6826 11.9275 19.6826C15.5292 19.6826 18.5537 17.2035 19.3842 13.8577C19.4816 13.4653 19.8787 13.2261 20.2712 13.3235C20.6636 13.4209 20.9028 13.818 20.8054 14.2105C19.8167 18.1939 16.2178 21.1469 11.9275 21.1469C7.63722 21.1469 4.03847 18.1939 3.04957 14.2105C2.95215 13.818 3.19131 13.4209 3.58375 13.3235Z" fill="#ff0"/>
<path fill-rule="evenodd" clip-rule="evenodd" d="M3.50456 13.328C3.68938 13.2531 3.89674 13.2569 4.07874 13.3383L6.7758 14.546C7.14484 14.7113 7.31005 15.1444 7.1448 15.5134C6.97955 15.8825 6.54642 16.0477 6.17738 15.8824L4.17667 14.9866L3.41232 16.9015C3.26242 17.277 2.83646 17.4599 2.46092 17.31C2.08538 17.1601 1.90246 16.7342 2.05236 16.3586L3.09956 13.7351C3.17348 13.5499 3.31975 13.4029 3.50456 13.328Z" fill="#ff0"/>
<path fill-rule="evenodd" clip-rule="evenodd" d="M11.9275 4.31732C8.32582 4.31732 5.30134 6.79641 4.47073 10.1423C4.3733 10.5347 3.97619 10.7739 3.58375 10.6764C3.19131 10.579 2.95215 10.1819 3.04957 9.78946C4.03845 5.80608 7.6372 2.85303 11.9275 2.85303C16.2178 2.85303 19.8165 5.80609 20.8054 9.78946C20.9028 10.1819 20.6637 10.579 20.2712 10.6764C19.8788 10.7739 19.4817 10.5347 19.3842 10.1423C18.5536 6.79641 15.5292 4.31732 11.9275 4.31732Z" fill="#ff0"/>
<path fill-rule="evenodd" clip-rule="evenodd" d="M21.556 6.76202C21.9276 6.9213 22.0998 7.35172 21.9405 7.72338L20.8278 10.3197C20.7492 10.503 20.5993 10.6463 20.4127 10.7166C20.2261 10.7868 20.0188 10.7778 19.839 10.6918L17.173 9.41683C16.8082 9.24237 16.654 8.80523 16.8284 8.44045C17.0029 8.07567 17.44 7.92138 17.8048 8.09584L19.7824 9.04164L20.5946 7.14656C20.7539 6.7749 21.1843 6.60274 21.556 6.76202Z" fill="#ff0"/>
</svg>
