<svg width="24" height="24" viewBox="0 0 24 24" fill="none" xmlns="http://www.w3.org/2000/svg">
<path fill-rule="evenodd" clip-rule="evenodd" d="M11.997 2C13.5015 1.99915 14.9868 2.33796 16.3421 2.99119C17.6976 3.64444 18.8882 4.5953 19.8252 5.77287C20.762 6.95043 21.4212 8.32434 21.7533 9.79217C22.0855 11.26 22.0821 12.7839 21.7436 14.2503C21.4051 15.7167 20.74 17.0877 19.7978 18.2611C18.8559 19.4346 17.6611 20.3803 16.3029 21.0276C14.9446 21.675 13.4578 22.0072 11.9532 21.9999C10.5286 21.9928 9.12284 21.6812 7.82987 21.0871L2.84678 21.9885C2.59218 22.0345 2.33248 21.9402 2.16678 21.7415C2.00108 21.5427 1.95494 21.2702 2.04597 21.0279L3.47539 17.2238C2.59788 15.7911 2.09437 14.1583 2.01423 12.4759C1.92816 10.6691 2.33365 8.87278 3.18751 7.27826C4.04138 5.68375 5.31163 4.35075 6.86298 3.42126C8.41426 2.49179 10.1888 2.0006 11.997 2ZM7.36525 11.9976L7.36591 11.9999L7.36525 12.0021L7.36465 12.0032L7.36444 12.0035L7.36418 12.0037L7.36303 12.0043L7.36081 12.005L7.35859 12.0043L7.35744 12.0037L7.35718 12.0035L7.35698 12.0032L7.35638 12.0021L7.35572 11.9999L7.35638 11.9976L7.35698 11.9965L7.35718 11.9962L7.35744 11.996L7.35859 11.9954L7.36081 11.9948L7.36303 11.9954L7.36418 11.996L7.36444 11.9962L7.36465 11.9965L7.36525 11.9976ZM7.36081 10.5669C6.56962 10.5669 5.92822 11.2085 5.92822 11.9999C5.92822 12.7913 6.56962 13.4328 7.36081 13.4328C8.152 13.4328 8.79339 12.7913 8.79339 11.9999C8.79339 11.2085 8.152 10.5669 7.36081 10.5669ZM12.0044 11.9976L12.0051 11.9999L12.0044 12.0021L12.0038 12.0032L12.0036 12.0035L12.0034 12.0037L12.0022 12.0043L12 12.005L11.9978 12.0043L11.9966 12.0037L11.9964 12.0035L11.9962 12.0032L11.9956 12.0021L11.9949 11.9999L11.9956 11.9976L11.9962 11.9965L11.9964 11.9962L11.9966 11.996L11.9978 11.9954L12 11.9948L12.0022 11.9954L12.0034 11.996L12.0036 11.9962L12.0038 11.9965L12.0044 11.9976ZM12 10.5669C11.2088 10.5669 10.5674 11.2085 10.5674 11.9999C10.5674 12.7913 11.2088 13.4328 12 13.4328C12.7912 13.4328 13.4326 12.7913 13.4326 11.9999C13.4326 11.2085 12.7912 10.5669 12 10.5669ZM16.6443 11.9999L16.6437 11.9976L16.6431 11.9965L16.6428 11.9962L16.6427 11.996L16.6414 11.9954L16.6392 11.9948L16.6371 11.9954L16.6359 11.996L16.6356 11.9962L16.6353 11.9965L16.6348 11.9976L16.6342 11.9999L16.6348 12.0021L16.6353 12.0032L16.6356 12.0035L16.6359 12.0037L16.6371 12.0043L16.6392 12.005L16.6414 12.0043L16.6427 12.0037L16.6428 12.0035L16.6431 12.0032L16.6437 12.0021L16.6443 11.9999ZM15.2067 11.9999C15.2067 11.2085 15.848 10.5669 16.6392 10.5669C17.4304 10.5669 18.0718 11.2085 18.0718 11.9999C18.0718 12.7913 17.4304 13.4328 16.6392 13.4328C15.848 13.4328 15.2067 12.7913 15.2067 11.9999Z" fill="#000"/>
</svg>
