<svg width="24" height="24" viewBox="0 0 24 24" fill="none" xmlns="http://www.w3.org/2000/svg">
<path fill-rule="evenodd" clip-rule="evenodd" d="M5.6235 4.42105C4.95941 4.42105 4.42107 4.9594 4.42107 5.62348C4.42107 6.28757 4.95941 6.82591 5.6235 6.82591C6.28758 6.82591 6.82593 6.28757 6.82593 5.62348C6.82593 4.9594 6.28758 4.42105 5.6235 4.42105ZM3.00002 5.62348C3.00002 4.17457 4.17459 3 5.6235 3C7.07241 3 8.24698 4.17457 8.24698 5.62348C8.24698 7.07239 7.07241 8.24696 5.6235 8.24696C4.17459 8.24696 3.00002 7.07239 3.00002 5.62348Z" fill="#ff0"/>
<path fill-rule="evenodd" clip-rule="evenodd" d="M5.6235 10.7975C4.95941 10.7975 4.42107 11.3359 4.42107 11.9999C4.42107 12.664 4.95941 13.2024 5.6235 13.2024C6.28758 13.2024 6.82593 12.664 6.82593 11.9999C6.82593 11.3359 6.28758 10.7975 5.6235 10.7975ZM3.00002 11.9999C3.00002 10.551 4.17459 9.37646 5.6235 9.37646C7.07241 9.37646 8.24698 10.551 8.24698 11.9999C8.24698 13.4489 7.07241 14.6234 5.6235 14.6234C4.17459 14.6234 3.00002 13.4489 3.00002 11.9999Z" fill="#000"/>
<path fill-rule="evenodd" clip-rule="evenodd" d="M12.0001 4.42105C11.336 4.42105 10.7977 4.9594 10.7977 5.62348C10.7977 6.28757 11.336 6.82591 12.0001 6.82591C12.6642 6.82591 13.2025 6.28757 13.2025 5.62348C13.2025 4.9594 12.6642 4.42105 12.0001 4.42105ZM9.3766 5.62348C9.3766 4.17457 10.5512 3 12.0001 3C13.449 3 14.6236 4.17457 14.6236 5.62348C14.6236 7.07239 13.449 8.24696 12.0001 8.24696C10.5512 8.24696 9.3766 7.07239 9.3766 5.62348Z" fill="#000"/>
<path fill-rule="evenodd" clip-rule="evenodd" d="M12.0001 10.7975C11.336 10.7975 10.7977 11.3359 10.7977 11.9999C10.7977 12.664 11.336 13.2024 12.0001 13.2024C12.6642 13.2024 13.2025 12.664 13.2025 11.9999C13.2025 11.3359 12.6642 10.7975 12.0001 10.7975ZM9.3766 11.9999C9.3766 10.551 10.5512 9.37646 12.0001 9.37646C13.449 9.37646 14.6236 10.551 14.6236 11.9999C14.6236 13.4489 13.449 14.6234 12.0001 14.6234C10.5512 14.6234 9.3766 13.4489 9.3766 11.9999Z" fill="#000"/>
<path fill-rule="evenodd" clip-rule="evenodd" d="M12.0001 17.174C11.336 17.174 10.7977 17.7123 10.7977 18.3764C10.7977 19.0405 11.336 19.5788 12.0001 19.5788C12.6642 19.5788 13.2025 19.0405 13.2025 18.3764C13.2025 17.7123 12.6642 17.174 12.0001 17.174ZM9.3766 18.3764C9.3766 16.9275 10.5512 15.7529 12.0001 15.7529C13.449 15.7529 14.6236 16.9275 14.6236 18.3764C14.6236 19.8253 13.449 20.9999 12.0001 20.9999C10.5512 20.9999 9.3766 19.8253 9.3766 18.3764Z" fill="#000"/>
<path fill-rule="evenodd" clip-rule="evenodd" d="M18.3766 4.42105C17.7125 4.42105 17.1741 4.9594 17.1741 5.62348C17.1741 6.28757 17.7125 6.82591 18.3766 6.82591C19.0406 6.82591 19.579 6.28757 19.579 5.62348C19.579 4.9594 19.0406 4.42105 18.3766 4.42105ZM15.7531 5.62348C15.7531 4.17457 16.9277 3 18.3766 3C19.8255 3 21 4.17457 21 5.62348C21 7.07239 19.8255 8.24696 18.3766 8.24696C16.9277 8.24696 15.7531 7.07239 15.7531 5.62348Z" fill="#000"/>
<path fill-rule="evenodd" clip-rule="evenodd" d="M18.3766 10.7975C17.7125 10.7975 17.1741 11.3359 17.1741 11.9999C17.1741 12.664 17.7125 13.2024 18.3766 13.2024C19.0406 13.2024 19.579 12.664 19.579 11.9999C19.579 11.3359 19.0406 10.7975 18.3766 10.7975ZM15.7531 11.9999C15.7531 10.551 16.9277 9.37646 18.3766 9.37646C19.8255 9.37646 21 10.551 21 11.9999C21 13.4489 19.8255 14.6234 18.3766 14.6234C16.9277 14.6234 15.7531 13.4489 15.7531 11.9999Z" fill="#ff0"/>
<path fill-rule="evenodd" clip-rule="evenodd" d="M5.6235 17.174C4.95941 17.174 4.42107 17.7123 4.42107 18.3764C4.42107 19.0405 4.95941 19.5788 5.6235 19.5788C6.28758 19.5788 6.82593 19.0405 6.82593 18.3764C6.82593 17.7123 6.28758 17.174 5.6235 17.174ZM3.00002 18.3764C3.00002 16.9275 4.17459 15.7529 5.6235 15.7529C7.07241 15.7529 8.24698 16.9275 8.24698 18.3764C8.24698 19.8253 7.07241 20.9999 5.6235 20.9999C4.17459 20.9999 3.00002 19.8253 3.00002 18.3764Z" fill="#ff0"/>
<path fill-rule="evenodd" clip-rule="evenodd" d="M18.3766 17.174C17.7125 17.174 17.1741 17.7123 17.1741 18.3764C17.1741 19.0405 17.7125 19.5788 18.3766 19.5788C19.0406 19.5788 19.579 19.0405 19.579 18.3764C19.579 17.7123 19.0406 17.174 18.3766 17.174ZM15.7531 18.3764C15.7531 16.9275 16.9277 15.7529 18.3766 15.7529C19.8255 15.7529 21 16.9275 21 18.3764C21 19.8253 19.8255 20.9999 18.3766 20.9999C16.9277 20.9999 15.7531 19.8253 15.7531 18.3764Z" fill="#000"/>
</svg>
