<svg width="40" height="40" viewBox="0 0 40 40" fill="none" xmlns="http://www.w3.org/2000/svg">
<rect x="4" y="4" width="32" height="32" rx="16" fill="#111827" fill-opacity="0.25"/>
<path fill-rule="evenodd" clip-rule="evenodd" d="M22.37 14.2197C22.6629 14.5126 22.6629 14.9874 22.37 15.2803L17.6503 20L22.37 24.7197C22.6629 25.0126 22.6629 25.4874 22.37 25.7803C22.0771 26.0732 21.6023 26.0732 21.3094 25.7803L16.3482 20.8192C16.24 20.7149 16.1534 20.5901 16.0936 20.452C16.0319 20.3093 16 20.1555 16 20C16 19.8445 16.0319 19.6907 16.0936 19.548C16.1534 19.4099 16.24 19.2851 16.3482 19.1808L21.3094 14.2197C21.6023 13.9268 22.0771 13.9268 22.37 14.2197Z" fill="#000"/>
</svg>
