<svg width="24" height="24" viewBox="0 0 24 24" xmlns="http://www.w3.org/2000/svg">
<path d="M19.5 3H4.5C4.10218 3 3.72064 3.15804 3.43934 3.43934C3.15804 3.72064 3 4.10218 3 4.5V19.5C3 19.8978 3.15804 20.2794 3.43934 20.5607C3.72064 20.842 4.10218 21 4.5 21H19.5C19.8978 21 20.2794 20.842 20.5607 20.5607C20.842 20.2794 21 19.8978 21 19.5V4.5C21 4.10218 20.842 3.72064 20.5607 3.43934C20.2794 3.15804 19.8978 3 19.5 3ZM11.2152 15.4159C10.8192 15.8085 10.1808 15.8085 9.78479 15.4159L7.35322 13.0051C7.022 12.6767 7.02497 12.1404 7.35979 11.8157C7.68425 11.501 8.20045 11.5026 8.52304 11.8191L10.5 13.7592L15.4651 8.83637C15.7926 8.51169 16.3205 8.5116 16.6481 8.83618C16.9799 9.16487 16.9799 9.701 16.6483 10.0298L11.2152 15.4159Z"/>
</svg>
