<svg width="24" height="24" viewBox="0 0 24 24" fill="none" xmlns="http://www.w3.org/2000/svg">
    <path fill-rule="evenodd" clip-rule="evenodd" d="M12 9.65035L7.28033 14.37C6.98744 14.6629 6.51256 14.6629 6.21967 14.37C5.92678 14.0771 5.92678 13.6023 6.21967 13.3094L11.1808 8.34825C11.2851 8.23997 11.4099 8.15341 11.548 8.09364C11.6907 8.03187 11.8445 8 12 8C12.1555 8 12.3093 8.03187 12.452 8.09364C12.5901 8.15341 12.7149 8.23997 12.8192 8.34825L17.7803 13.3094C18.0732 13.6023 18.0732 14.0771 17.7803 14.37C17.4874 14.6629 17.0126 14.6629 16.7197 14.37L12 9.65035Z" fill="#000"/>
</svg>
