<svg width="24" height="24" viewBox="0 0 24 24" fill="none" xmlns="http://www.w3.org/2000/svg">
<path fill-rule="evenodd" clip-rule="evenodd" d="M12 3.57895C7.34918 3.57895 3.57895 7.34918 3.57895 12C3.57895 16.6508 7.34918 20.4211 12 20.4211C16.6508 20.4211 20.4211 16.6508 20.4211 12C20.4211 7.34918 16.6508 3.57895 12 3.57895ZM2 12C2 6.47715 6.47715 2 12 2C17.5228 2 22 6.47715 22 12C22 17.5228 17.5228 22 12 22C6.47715 22 2 17.5228 2 12Z" fill="#000"/>
<path fill-rule="evenodd" clip-rule="evenodd" d="M11.9999 7.66797C12.4359 7.66797 12.7894 8.02143 12.7894 8.45744V11.7077L16.1982 15.6802C16.4822 16.0111 16.4441 16.5095 16.1132 16.7934C15.7823 17.0774 15.2839 17.0393 15 16.7084L11.4008 12.5141C11.278 12.3709 11.2104 12.1886 11.2104 12V8.45744C11.2104 8.02143 11.5639 7.66797 11.9999 7.66797Z" fill="#000"/>
</svg>
