<svg width="22" height="23" viewBox="0 0 22 23" fill="none" xmlns="http://www.w3.org/2000/svg">
<g filter="url(#filter0_dd_11095_49784)">
<rect x="1" y="1" width="20" height="20" rx="10" fill="white" shape-rendering="crispEdges"/>
<path fill-rule="evenodd" clip-rule="evenodd" d="M13.8902 8.64017C14.0366 8.49372 14.0366 8.25628 13.8902 8.10983C13.7437 7.96339 13.5063 7.96339 13.3598 8.10983L11 10.4697L8.64017 8.10983C8.49372 7.96339 8.25628 7.96339 8.10983 8.10983C7.96339 8.25628 7.96339 8.49372 8.10983 8.64017L10.4697 11L8.10983 13.3598C7.96339 13.5063 7.96339 13.7437 8.10983 13.8902C8.25628 14.0366 8.49372 14.0366 8.64017 13.8902L11 11.5303L13.3598 13.8902C13.5063 14.0366 13.7437 14.0366 13.8902 13.8902C14.0366 13.7437 14.0366 13.5063 13.8902 13.3598L11.5303 11L13.8902 8.64017Z" fill="black"/>
</g>
<defs>
<filter id="filter0_dd_11095_49784" x="0" y="0" width="22" height="23" filterUnits="userSpaceOnUse" color-interpolation-filters="sRGB">
<feFlood flood-opacity="0" result="BackgroundImageFix"/>
<feColorMatrix in="SourceAlpha" type="matrix" values="0 0 0 0 0 0 0 0 0 0 0 0 0 0 0 0 0 0 127 0" result="hardAlpha"/>
<feOffset dy="1"/>
<feGaussianBlur stdDeviation="0.5"/>
<feComposite in2="hardAlpha" operator="out"/>
<feColorMatrix type="matrix" values="0 0 0 0 0 0 0 0 0 0 0 0 0 0 0 0 0 0 0.05 0"/>
<feBlend mode="normal" in2="BackgroundImageFix" result="effect1_dropShadow_11095_49784"/>
<feColorMatrix in="SourceAlpha" type="matrix" values="0 0 0 0 0 0 0 0 0 0 0 0 0 0 0 0 0 0 127 0" result="hardAlpha"/>
<feOffset/>
<feGaussianBlur stdDeviation="0.5"/>
<feComposite in2="hardAlpha" operator="out"/>
<feColorMatrix type="matrix" values="0 0 0 0 0 0 0 0 0 0 0 0 0 0 0 0 0 0 0.15 0"/>
<feBlend mode="normal" in2="effect1_dropShadow_11095_49784" result="effect2_dropShadow_11095_49784"/>
<feBlend mode="normal" in="SourceGraphic" in2="effect2_dropShadow_11095_49784" result="shape"/>
</filter>
</defs>
</svg>
