<svg width="12" height="12" viewBox="0 0 12 12" fill="none" xmlns="http://www.w3.org/2000/svg">
<circle cx="6" cy="6" r="5" fill="white"/>
<path fill-rule="evenodd" clip-rule="evenodd" d="M11 6C11 8.76143 8.76143 11 6 11C3.23858 11 1 8.76143 1 6C1 3.23858 3.23858 1 6 1C8.76143 1 11 3.23858 11 6ZM4.19262 4.19262C4.40183 3.98341 4.74103 3.98341 4.95024 4.19262L6 5.24239L7.04976 4.19262C7.25897 3.98341 7.59817 3.98341 7.80738 4.19262C8.01659 4.40183 8.01659 4.74103 7.80738 4.95024L6.75761 6L7.80738 7.04976C8.01659 7.25897 8.01659 7.59817 7.80738 7.80738C7.59817 8.01659 7.25897 8.01659 7.04976 7.80738L6 6.75761L4.95024 7.80738C4.74103 8.01659 4.40183 8.01659 4.19262 7.80738C3.98341 7.59817 3.98341 7.25897 4.19262 7.04976L5.24239 6L4.19262 4.95024C3.98341 4.74103 3.98341 4.40183 4.19262 4.19262Z" fill="#0C0C0E" fill-opacity="0.6"/>
</svg>
