<svg width="40" height="40" viewBox="0 0 40 40" xmlns="http://www.w3.org/2000/svg">
<g clip-path="url(#clip0_4219_20222)">
<rect x="4" y="4" width="32" height="32" fill="#0C0C0E" fill-opacity="0.05" style="fill:#0C0C0E;fill:color(display-p3 0.0471 0.0471 0.0549);fill-opacity:0.05;"/>
</g>
<path id="x-path" fill-rule="evenodd" clip-rule="evenodd" d="M24.8169 16.0669C25.061 15.8229 25.061 15.4271 24.8169 15.1831C24.5729 14.939 24.1771 14.939 23.9331 15.1831L20 19.1161L16.0669 15.1831C15.8229 14.939 15.4271 14.939 15.1831 15.1831C14.939 15.4271 14.939 15.8229 15.1831 16.0669L19.1161 20L15.1831 23.9331C14.939 24.1771 14.939 24.5729 15.1831 24.8169C15.4271 25.061 15.8229 25.061 16.0669 24.8169L20 20.8839L23.9331 24.8169C24.1771 25.061 24.5729 25.061 24.8169 24.8169C25.061 24.5729 25.061 24.1771 24.8169 23.9331L20.8839 20L24.8169 16.0669Z"/>
<defs>
<clipPath id="clip0_4219_20222">
<rect x="4" y="4" width="32" height="32" rx="16" fill="white" style="fill:white;fill-opacity:1;"/>
</clipPath>
</defs>
</svg>
