<svg width="14" height="14" viewBox="0 0 14 14" fill="none" xmlns="http://www.w3.org/2000/svg">
<path fill-rule="evenodd" clip-rule="evenodd" d="M7.00001 12.8337C10.2217 12.8337 12.8333 10.222 12.8333 7.00033C12.8333 3.77867 10.2217 1.16699 7.00001 1.16699C3.77835 1.16699 1.16667 3.77867 1.16667 7.00033C1.16667 10.222 3.77835 12.8337 7.00001 12.8337ZM7.52084 4.91699C7.52084 4.62934 7.28766 4.39616 7.00001 4.39616C6.71236 4.39616 6.47917 4.62934 6.47917 4.91699V7.00033C6.47917 7.12217 6.52189 7.24015 6.59989 7.33376L8.68322 9.83374C8.86737 10.0547 9.19579 10.0846 9.41677 9.90041C9.63776 9.71633 9.66759 9.38788 9.48346 9.16689L7.52084 6.81176V4.91699Z" fill="#000" fill-opacity="0.6"/>
</svg>
