<svg width="24" height="24" viewBox="0 0 24 24" fill="none" xmlns="http://www.w3.org/2000/svg">
<g clip-path="url(#clip0_6014_73101)">
<circle cx="12" cy="12" r="8" fill="white"/>
<path d="M11.4697 11.3181L12 11.8485L12.5303 11.3181L14.21 9.63852C14.2518 9.59669 14.3196 9.59669 14.3615 9.63852C14.4033 9.68036 14.4033 9.74821 14.3615 9.79005L12.6819 11.4697L12.1515 12L12.6819 12.5303L14.3615 14.21C14.4033 14.2518 14.4033 14.3196 14.3615 14.3615C14.3196 14.4033 14.2518 14.4033 14.21 14.3615L12.5303 12.6819L12 12.1515L11.4697 12.6819L9.79005 14.3615C9.74821 14.4033 9.68036 14.4033 9.63852 14.3615C9.59669 14.3196 9.59669 14.2518 9.63852 14.21L11.3181 12.5303L11.8485 12L11.3181 11.4697L9.63852 9.79005C9.59669 9.74821 9.59669 9.68036 9.63852 9.63852C9.68036 9.59669 9.74821 9.59669 9.79005 9.63852L11.4697 11.3181ZM12 20.75C16.8325 20.75 20.75 16.8325 20.75 12C20.75 7.16751 16.8325 3.25 12 3.25C7.16751 3.25 3.25 7.16751 3.25 12C3.25 16.8325 7.16751 20.75 12 20.75Z" fill="#ff0" stroke="#000" stroke-width="1.5"/>
</g>
<defs>
<clipPath id="clip0_6014_73101">
<rect width="19.2" height="19.2" fill="white" transform="translate(2.39999 2.40039)"/>
</clipPath>
</defs>
</svg>
