<svg width="41" height="40" viewBox="0 0 41 40" fill="none" xmlns="http://www.w3.org/2000/svg">
<rect x="0.166016" width="40" height="40" rx="20" fill="#FFF3E0"/>
<rect x="0.666016" y="0.5" width="39" height="39" rx="19.5" stroke="#0C0C0E" stroke-opacity="0.05"/>
<path fill-rule="evenodd" clip-rule="evenodd" d="M20.166 10C14.6433 10 10.166 14.4773 10.166 20C10.166 25.5227 14.6433 30 20.166 30C25.6887 30 30.166 25.5227 30.166 20C30.166 14.4773 25.6887 10 20.166 10Z" fill="#FF9400"/>
<path fill-rule="evenodd" clip-rule="evenodd" d="M22.2042 17.2627L20.9553 14.8547C20.6233 14.2151 19.7086 14.2151 19.3766 14.8547L18.1277 17.2627L15.4797 17.7844C14.8028 17.9178 14.5291 18.7378 14.9904 19.2511L16.8682 21.3391L16.5233 24.1338C16.4362 24.8378 17.1677 25.3547 17.8024 25.0382L20.1659 23.8578L22.5295 25.0378C23.1637 25.3542 23.8953 24.8373 23.8086 24.1333L23.4637 21.3387L25.3415 19.2502C25.8028 18.7373 25.5291 17.9169 24.8526 17.7836L22.2037 17.2622L22.2042 17.2627Z" fill="#FFCA7F"/>
</svg>
