<svg width="25" height="24" viewBox="0 0 25 24" fill="none" xmlns="http://www.w3.org/2000/svg">
<path fill-rule="evenodd" clip-rule="evenodd" d="M6.76122 4.42105C6.61143 4.42105 6.46778 4.48056 6.36186 4.58647C6.25595 4.69239 6.19644 4.83604 6.19644 4.98583V19.0142C6.19644 19.164 6.25595 19.3076 6.36186 19.4135C6.46778 19.5194 6.61143 19.5789 6.76122 19.5789H18.239C18.3887 19.5789 18.5324 19.5194 18.6383 19.4135C18.7442 19.3076 18.8037 19.164 18.8037 19.0142V10.3814L12.8434 4.42105H6.76122ZM5.35703 3.58164C5.72944 3.20922 6.23455 3 6.76122 3H13.1377C13.3262 3 13.5069 3.07486 13.6402 3.20811L20.0167 9.58463C20.1499 9.71788 20.2248 9.8986 20.2248 10.087V19.0142C20.2248 19.5408 20.0156 20.0459 19.6431 20.4184C19.2707 20.7908 18.7656 21 18.239 21H6.76122C6.23455 21 5.72944 20.7908 5.35703 20.4184C4.98461 20.0459 4.77539 19.5408 4.77539 19.0142V4.98583C4.77539 4.45915 4.98461 3.95405 5.35703 3.58164Z" fill="#0C0C0E"/>
<path fill-rule="evenodd" clip-rule="evenodd" d="M8.60107 8.8116C8.60107 8.41919 8.91919 8.10107 9.3116 8.10107H11.8622C12.2546 8.10107 12.5727 8.41919 12.5727 8.8116C12.5727 9.20401 12.2546 9.52213 11.8622 9.52213H9.3116C8.91919 9.52213 8.60107 9.20401 8.60107 8.8116Z" fill="#107ED9"/>
<path fill-rule="evenodd" clip-rule="evenodd" d="M8.60107 12.6378C8.60107 12.2454 8.91919 11.9272 9.3116 11.9272H15.6881C16.0805 11.9272 16.3986 12.2454 16.3986 12.6378C16.3986 13.0302 16.0805 13.3483 15.6881 13.3483H9.3116C8.91919 13.3483 8.60107 13.0302 8.60107 12.6378Z" fill="#107ED9"/>
<path fill-rule="evenodd" clip-rule="evenodd" d="M8.60107 16.4635C8.60107 16.071 8.91919 15.7529 9.3116 15.7529H15.6881C16.0805 15.7529 16.3986 16.071 16.3986 16.4635C16.3986 16.8559 16.0805 17.174 15.6881 17.174H9.3116C8.91919 17.174 8.60107 16.8559 8.60107 16.4635Z" fill="#107ED9"/>
</svg>
