<svg width="48" height="48" viewBox="0 0 48 48" fill="none" xmlns="http://www.w3.org/2000/svg">
<path d="M23.3078 38.2154H13.8002C12.1848 38.2154 11.2617 37.477 10.6617 36.3693C10.4771 36.0462 10.3848 35.677 10.3848 35.3077V33.877H22.8002C22.6155 33.877 22.5694 35.0308 22.5232 35.1693C22.5232 36.277 22.8463 37.2462 23.3078 38.2154Z" fill="#FF8800"/>
<path d="M28.1538 6.46143L33.2769 12.046H28.1538V6.46143Z" fill="#FF8800"/>
<path d="M33.2769 27.923V12.046L33.2307 11.9999L28.1077 6.46143H13.5692C11.6769 6.46143 10.1538 7.9845 10.1538 9.87681V32.0307V34.7999C10.1538 36.6922 11.6769 38.2153 13.5692 38.2153H23.5846" stroke="#0000FF" stroke-width="1.125" stroke-miterlimit="10" stroke-linecap="round" stroke-linejoin="round"/>
<path d="M28.1538 6.46143V12.046H33.2769" stroke="#0000FF" stroke-width="1.125" stroke-miterlimit="10" stroke-linecap="round" stroke-linejoin="round"/>
<path d="M14.123 14.4004H25.2461" stroke="#0000FF" stroke-width="1.125" stroke-miterlimit="10" stroke-linecap="round" stroke-linejoin="round"/>
<path d="M14.123 18.3232H21" stroke="#0000FF" stroke-width="1.125" stroke-miterlimit="10" stroke-linecap="round" stroke-linejoin="round"/>
<path d="M13.9844 25.2922C14.769 24.1384 16.0151 22.3384 16.569 22.523C17.2613 22.7076 16.7998 25.1076 17.169 25.2C17.5844 25.2461 18.4613 23.0307 19.1536 23.0307C19.7998 23.0307 19.4305 25.2461 20.1228 25.3384C20.5382 25.3846 21.2305 24.8307 22.3844 21.3691" stroke="#FF8800" stroke-width="1.125" stroke-miterlimit="10" stroke-linecap="round" stroke-linejoin="round"/>
<path d="M37.3845 34.5692C37.3845 38.6307 34.0614 41.9538 29.9999 41.9538C28.246 41.9538 26.6768 41.3538 25.3845 40.3384C24.646 39.7846 24.046 39.0461 23.5845 38.2153C22.9845 37.1538 22.6152 35.9076 22.6152 34.5692C22.6152 33.6923 22.7537 32.8153 23.0768 32.0307C24.0922 29.2153 26.8152 27.1846 29.9999 27.1846C31.1537 27.1846 32.2614 27.4615 33.2768 27.923C35.7229 29.123 37.3845 31.6615 37.3845 34.5692Z" stroke="#0000FF" stroke-width="1.125" stroke-miterlimit="10" stroke-linecap="round" stroke-linejoin="round"/>
<path d="M30.0459 29.4922V35.6768" stroke="#0000FF" stroke-width="1.125" stroke-miterlimit="10" stroke-linecap="round" stroke-linejoin="round"/>
<path d="M24.7382 35.2616C25.1205 35.2616 25.4305 34.9516 25.4305 34.5693C25.4305 34.1869 25.1205 33.877 24.7382 33.877C24.3559 33.877 24.0459 34.1869 24.0459 34.5693C24.0459 34.9516 24.3559 35.2616 24.7382 35.2616Z" fill="#0000FF"/>
<path d="M35.3075 35.2616C35.6899 35.2616 35.9998 34.9516 35.9998 34.5693C35.9998 34.1869 35.6899 33.877 35.3075 33.877C34.9252 33.877 34.6152 34.1869 34.6152 34.5693C34.6152 34.9516 34.9252 35.2616 35.3075 35.2616Z" fill="#0000FF"/>
<path d="M30.0463 40.5692C30.4287 40.5692 30.7386 40.2593 30.7386 39.8769C30.7386 39.4945 30.4287 39.1846 30.0463 39.1846C29.664 39.1846 29.354 39.4945 29.354 39.8769C29.354 40.2593 29.664 40.5692 30.0463 40.5692Z" fill="#0000FF"/>
<path d="M28.8921 34.5693H32.4921" stroke="#0000FF" stroke-width="1.125" stroke-miterlimit="10" stroke-linecap="round" stroke-linejoin="round"/>
</svg>
