<svg width="16" height="16" viewBox="0 0 16 16" fill="none" xmlns="http://www.w3.org/2000/svg">
<path d="M8.00004 14.6666C4.32226 14.6666 1.33337 11.6778 1.33337 7.99998C1.33337 4.3222 4.32226 1.33331 8.00004 1.33331C11.6778 1.33331 14.6667 4.3222 14.6667 7.99998C14.6667 11.6778 11.6778 14.6666 8.00004 14.6666ZM8.00004 2.28331C4.85004 2.28331 2.28337 4.84998 2.28337 7.99998C2.28337 11.15 4.84449 13.7166 8.00004 13.7166C11.1556 13.7166 13.7167 11.1555 13.7167 7.99998C13.7167 4.84442 11.15 2.28331 8.00004 2.28331Z" fill="#0C0C0E"/>
<path d="M8.00004 14.3333C4.50636 14.3333 1.66671 11.4937 1.66671 7.99998C1.66671 4.5063 4.50636 1.66665 8.00004 1.66665C11.4937 1.66665 14.3334 4.5063 14.3334 7.99998C14.3334 11.4937 11.4937 14.3333 8.00004 14.3333ZM8.00004 1.94998C4.66595 1.94998 1.95004 4.66588 1.95004 7.99998C1.95004 11.3339 4.66018 14.05 8.00004 14.05C11.3397 14.05 14.05 11.3396 14.05 7.99998C14.05 4.66012 11.3339 1.94998 8.00004 1.94998Z" stroke="#0C0C0E" stroke-opacity="0.6" stroke-width="0.666667"/>
<path d="M7.99998 9.58885C7.73886 9.58885 7.5222 9.37774 7.5222 9.11107V7.99996C7.5222 7.73885 7.73331 7.52218 7.99998 7.52218C8.23331 7.52218 8.46664 7.44996 8.66109 7.32218C8.85553 7.18885 9.01109 7.00552 9.09998 6.78885C9.18886 6.57218 9.21664 6.33329 9.16664 6.09996C9.1222 5.86663 9.00553 5.66107 8.83886 5.48885C8.6722 5.32218 8.46109 5.21107 8.22775 5.16107C7.99442 5.11107 7.75553 5.13885 7.53886 5.22774C7.3222 5.31663 7.13331 5.47218 7.00553 5.66663C6.87775 5.86107 6.80553 6.09441 6.80553 6.32774C6.80553 6.58885 6.59442 6.80552 6.32775 6.80552C6.06109 6.80552 5.84998 6.59441 5.84998 6.32774C5.84998 5.89996 5.9722 5.48885 6.21109 5.13885C6.44998 4.78329 6.77775 4.51107 7.1722 4.34996C7.56664 4.18885 7.99442 4.14441 8.41109 4.22774C8.82775 4.31107 9.20553 4.51107 9.51109 4.81663C9.81109 5.11663 10.0166 5.49441 10.1 5.91107C10.1833 6.32774 10.1389 6.75552 9.97775 7.14996C9.81664 7.54441 9.53886 7.87774 9.18886 8.11107C8.96664 8.25552 8.72775 8.36107 8.4722 8.41663V9.10552C8.4722 9.36663 8.26109 9.58329 7.99442 9.58329L7.99998 9.58885Z" fill="#0C0C0E"/>
<path d="M7.99442 9.24996H7.96018C7.89987 9.23271 7.85553 9.17724 7.85553 9.11107V7.99996C7.85553 7.92042 7.91992 7.85552 7.99998 7.85552C8.30055 7.85552 8.59719 7.76304 8.84415 7.60075L8.84418 7.60081L8.8496 7.59709C9.09255 7.43049 9.2926 7.19755 9.40836 6.91537C9.52009 6.64305 9.55753 6.33719 9.49337 6.03385C9.43458 5.72956 9.28283 5.46829 9.0784 5.25704L9.07843 5.25701L9.07457 5.25315C8.8599 5.03848 8.59011 4.89782 8.2976 4.83514C7.99304 4.76988 7.68578 4.80717 7.41235 4.91935C7.13383 5.03361 6.89182 5.2327 6.72696 5.48357C6.56468 5.73052 6.4722 6.02716 6.4722 6.32774C6.4722 6.40728 6.40781 6.47218 6.32775 6.47218C6.24518 6.47218 6.18331 6.41031 6.18331 6.32774C6.18331 5.96415 6.28689 5.61907 6.4864 5.32676L6.48641 5.32677L6.48777 5.32475C6.69112 5.02208 6.96733 4.79371 7.29824 4.65855C7.634 4.5214 7.99529 4.48451 8.34571 4.5546C8.69833 4.62512 9.01671 4.79365 9.27538 5.05233C9.52999 5.30693 9.703 5.62587 9.77312 5.97644C9.8432 6.32687 9.80631 6.68816 9.66917 7.02392C9.53418 7.35442 9.30092 7.6353 9.00556 7.83265C8.81336 7.95734 8.61216 8.04508 8.40139 8.0909L8.13886 8.14797V8.41663V9.10552C8.13886 9.18506 8.07447 9.24996 7.99442 9.24996Z" stroke="#0C0C0E" stroke-opacity="0.6" stroke-width="0.666667"/>
<path d="M7.99994 11.8111C7.58327 11.8111 7.24438 11.4722 7.24438 11.0555C7.24438 10.6389 7.58327 10.3 7.99994 10.3C8.26105 10.3 8.47772 10.5111 8.47772 10.7778C8.47772 10.8833 8.44438 10.9778 8.38883 11.0555C8.44438 11.1333 8.47772 11.2278 8.47772 11.3333C8.47772 11.5944 8.26661 11.8111 7.99994 11.8111Z" fill="#0C0C0E"/>
<path d="M8.11758 10.8618L7.97919 11.0555L8.11758 11.2493C8.13472 11.2733 8.14438 11.3005 8.14438 11.3333C8.14438 11.4129 8.07999 11.4778 7.99994 11.4778C7.76737 11.4778 7.57772 11.2881 7.57772 11.0555C7.57772 10.823 7.76737 10.6333 7.99994 10.6333C8.07949 10.6333 8.14438 10.6977 8.14438 10.7778C8.14438 10.8106 8.13472 10.8378 8.11758 10.8618Z" stroke="#0C0C0E" stroke-opacity="0.6" stroke-width="0.666667"/>
<path d="M7.99987 11.8111C7.73876 11.8111 7.52209 11.6 7.52209 11.3333C7.52209 11.2278 7.55543 11.1333 7.61098 11.0555C7.55543 10.9778 7.52209 10.8833 7.52209 10.7778C7.52209 10.5167 7.73321 10.3 7.99987 10.3C8.41654 10.3 8.75543 10.6389 8.75543 11.0555C8.75543 11.4722 8.41654 11.8111 7.99987 11.8111Z" fill="#0C0C0E"/>
<path d="M7.88223 11.2493L8.02062 11.0555L7.88223 10.8618C7.86509 10.8378 7.85543 10.8106 7.85543 10.7778C7.85543 10.6982 7.91982 10.6333 7.99987 10.6333C8.23244 10.6333 8.42209 10.823 8.42209 11.0555C8.42209 11.2881 8.23244 11.4778 7.99987 11.4778C7.92033 11.4778 7.85543 11.4134 7.85543 11.3333C7.85543 11.3005 7.86509 11.2733 7.88223 11.2493Z" stroke="#0C0C0E" stroke-opacity="0.6" stroke-width="0.666667"/>
</svg>
