<svg width="16" height="18" viewBox="0 0 16 18" fill="none" xmlns="http://www.w3.org/2000/svg">
<path fill-rule="evenodd" clip-rule="evenodd" d="M2.94368 0L13.6891 5.44216e-08C14.2319 5.44216e-08 14.7525 0.215626 15.1363 0.599443C15.5201 0.983259 15.7357 1.50383 15.7357 2.04662V12.16C15.7357 12.7028 15.5201 13.2234 15.1363 13.6072C14.7525 13.991 14.2319 14.2067 13.6891 14.2067H2.94368C2.64821 14.2067 2.36485 14.324 2.15592 14.533C1.96251 14.7264 1.84756 14.9836 1.83155 15.2551V15.2699C1.83155 15.2885 1.8309 15.3069 1.82963 15.3252C1.83081 15.6191 1.94805 15.9006 2.15592 16.1085C2.36485 16.3174 2.64821 16.4348 2.94368 16.4348H14.9531C15.3853 16.4348 15.7357 16.7852 15.7357 17.2174C15.7357 17.6496 15.3853 18 14.9531 18H2.94368C2.23309 18 1.55161 17.7177 1.04915 17.2153C0.546684 16.7128 0.264404 16.0313 0.264404 15.3207C0.264404 15.2867 0.26505 15.2528 0.266335 15.219V2.62843C0.266335 2.62152 0.266427 2.61462 0.266609 2.60771C0.28509 1.90997 0.575191 1.247 1.07515 0.75995C1.57511 0.272896 2.2457 0.000229169 2.94368 0ZM1.83155 12.8832C2.17741 12.7254 2.55622 12.6414 2.94368 12.6414H13.6891C13.8168 12.6414 13.9392 12.5907 14.0295 12.5004C14.1198 12.4102 14.1705 12.2877 14.1705 12.16V2.04662C14.1705 1.91895 14.1198 1.7965 14.0295 1.70622C13.9392 1.61594 13.8168 1.56522 13.6891 1.56522H2.94394C2.94385 1.56522 2.94402 1.56522 2.94394 1.56522C2.6539 1.56538 2.37512 1.67871 2.16736 1.8811C1.96169 2.08146 1.84146 2.35344 1.83155 2.64017V12.8832Z" fill="#0C0C0E" fill-opacity="0.6"/>
<path fill-rule="evenodd" clip-rule="evenodd" d="M13.6891 12.6416C14.1213 12.6416 14.4717 12.992 14.4717 13.4242V17.2175C14.4717 17.6498 14.1213 18.0002 13.6891 18.0002C13.2569 18.0002 12.9065 17.6498 12.9065 17.2175V13.4242C12.9065 12.992 13.2569 12.6416 13.6891 12.6416Z" fill="#0C0C0E" fill-opacity="0.6"/>
<path fill-rule="evenodd" clip-rule="evenodd" d="M5.68341 2.45828C6.05935 2.40897 6.43979 2.50697 6.74513 2.73177C6.77682 2.7551 6.8067 2.78078 6.83453 2.80861L7.85913 3.83321C7.88695 3.86103 7.91264 3.89092 7.93597 3.92261C8.16077 4.22794 8.25877 4.60839 8.20946 4.98433C8.16522 5.32166 8.00546 5.63192 7.75931 5.86334L9.10652 7.20738C9.33831 6.96133 9.64892 6.80184 9.98649 6.75803C10.3624 6.70924 10.7426 6.80769 11.0476 7.0328C11.0789 7.05589 11.1084 7.08127 11.136 7.10875L12.1606 8.13206C12.1885 8.15998 12.2143 8.18999 12.2377 8.22181C12.4625 8.52714 12.5605 8.90759 12.5112 9.28353C12.4642 9.64222 12.2865 9.97029 12.0133 10.2055L11.7411 10.4788C11.3329 10.9459 10.7885 11.2738 10.1842 11.4161C9.56952 11.5609 8.92468 11.5062 8.34314 11.26C8.29561 11.2399 8.25082 11.2154 8.20914 11.1872C6.38326 10.0842 4.85489 8.55098 3.75768 6.72112C3.73843 6.68901 3.72151 6.65557 3.70705 6.62104C3.46351 6.03968 3.41035 5.39614 3.55517 4.78269C3.69763 4.17922 4.0245 3.63537 4.48999 3.22651L4.76141 2.9562C4.99665 2.68297 5.32472 2.50532 5.68341 2.45828ZM5.87177 4.05941L5.57582 4.35416C5.56234 4.36758 5.54837 4.38051 5.53395 4.39292C5.30679 4.58834 5.14736 4.85068 5.07851 5.14232C5.01357 5.41738 5.03237 5.70516 5.13185 5.96887C6.0926 7.55192 7.42133 8.87972 9.00513 9.83938C9.26675 9.93814 9.55232 9.95691 9.82533 9.8926C10.1164 9.82402 10.3782 9.66454 10.5726 9.43725C10.5854 9.42223 10.5988 9.4077 10.6128 9.39369L10.91 9.09525L10.1754 8.36154C9.94363 8.60755 9.6331 8.76702 9.29563 8.81088C8.92037 8.85965 8.54076 8.76168 8.23595 8.53741C8.20444 8.51423 8.17472 8.48872 8.14703 8.46109L6.50715 6.82508C6.47929 6.79728 6.45357 6.76743 6.4302 6.73577C6.2051 6.43077 6.10664 6.05054 6.15543 5.67461C6.19931 5.33652 6.35923 5.02547 6.60593 4.79356L5.87177 4.05941ZM10.2508 8.27496C10.2506 8.27519 10.2504 8.27542 10.2502 8.27564L10.2508 8.27496Z" fill="#0C0C0E" fill-opacity="0.6"/>
</svg>
