<svg width="21" height="20" viewBox="0 0 21 20" fill="none" xmlns="http://www.w3.org/2000/svg">
<path fill-rule="evenodd" clip-rule="evenodd" d="M7.73616 2.98469C8.04651 2.67435 8.46742 2.5 8.90632 2.5H14.7515C15.1903 2.5 15.6113 2.67433 15.9217 2.98474L15.5029 3.40338L15.9217 2.98474C16.2319 3.29502 16.4063 3.7159 16.4063 4.15486V13.1883C16.4063 13.6272 16.2319 14.0481 15.9216 14.3584C15.6113 14.6687 15.1904 14.8431 14.7515 14.8431H13.1573C12.8303 14.8431 12.5652 14.578 12.5652 14.251C12.5652 13.924 12.8303 13.6589 13.1573 13.6589H14.7515C14.8762 13.6589 14.996 13.6093 15.0843 13.5211C15.1725 13.4328 15.2221 13.313 15.2221 13.1883V4.15486C15.2221 4.03009 15.1725 3.91034 15.0842 3.82202C14.996 3.73382 14.8763 3.68421 14.7515 3.68421H8.90632C8.7815 3.68421 8.6618 3.73379 8.57353 3.82205C8.57353 3.82206 8.57352 3.82206 8.57352 3.82206M8.57352 3.82206C8.48526 3.91033 8.43568 4.03004 8.43568 4.15486V5.74899C8.43568 6.076 8.17058 6.34109 7.84357 6.34109C7.51656 6.34109 7.25146 6.076 7.25146 5.74899V4.15486C7.25146 3.71595 7.42582 3.29504 7.73615 2.9847L7.73616 2.98469" fill="white"/>
<path fill-rule="evenodd" clip-rule="evenodd" d="M6.2491 6.3411C5.98917 6.3411 5.77845 6.55182 5.77845 6.81175V15.8452C5.77845 16.1051 5.98916 16.3158 6.2491 16.3158H12.0942C12.3542 16.3158 12.5649 16.1051 12.5649 15.8452V6.81175C12.5649 6.55182 12.3542 6.3411 12.0942 6.3411H6.2491ZM4.59424 6.81175C4.59424 5.8978 5.33515 5.15689 6.2491 5.15689H12.0942C13.0082 5.15689 13.7491 5.8978 13.7491 6.81175V15.8452C13.7491 16.7591 13.0082 17.5 12.0942 17.5H6.2491C5.33516 17.5 4.59424 16.7591 4.59424 15.8452V6.81175Z" fill="white"/>
</svg>
