<svg width="24" height="24" viewBox="0 0 24 24" fill="none" xmlns="http://www.w3.org/2000/svg">
<path fill-rule="evenodd" clip-rule="evenodd" d="M8.68296 3.58163C9.05537 3.20922 9.56047 3 10.0871 3H17.1013C17.6279 3 18.1331 3.20919 18.5056 3.58168L18.0031 4.08405L18.5056 3.58169C18.8778 3.95403 19.0872 4.45908 19.0872 4.98583V15.8259C19.0872 16.3526 18.8779 16.8578 18.5055 17.2301C18.1332 17.6024 17.628 17.8117 17.1013 17.8117H15.1884C14.796 17.8117 14.4778 17.4936 14.4778 17.1012C14.4778 16.7088 14.796 16.3907 15.1884 16.3907H17.1013C17.2511 16.3907 17.3948 16.3312 17.5007 16.2253C17.6066 16.1194 17.6661 15.9757 17.6661 15.8259V4.98583C17.6661 4.83611 17.6066 4.69241 17.5006 4.58642C17.3948 4.48058 17.2511 4.42105 17.1013 4.42105H10.0871C9.93737 4.42105 9.79372 4.48055 9.6878 4.58646C9.68779 4.58647 9.68779 4.58647 9.68778 4.58648M9.68778 4.58648C9.58187 4.6924 9.52237 4.83605 9.52237 4.98583V6.89879C9.52237 7.2912 9.20426 7.60931 8.81184 7.60931C8.41943 7.60931 8.10132 7.2912 8.10132 6.89879V4.98583C8.10132 4.45914 8.31055 3.95405 8.68294 3.58165L8.68296 3.58163" fill="#ff0"/>
<path fill-rule="evenodd" clip-rule="evenodd" d="M6.89867 7.60953C6.58676 7.60953 6.33389 7.86239 6.33389 8.17431V19.0144C6.33389 19.3263 6.58675 19.5792 6.89867 19.5792H13.9128C14.2248 19.5792 14.4776 19.3263 14.4776 19.0144V8.17431C14.4776 7.86239 14.2248 7.60953 13.9128 7.60953H6.89867ZM4.91284 8.17431C4.91284 7.07757 5.80193 6.18848 6.89867 6.18848H13.9128C15.0096 6.18848 15.8987 7.07757 15.8987 8.17431V19.0144C15.8987 20.1112 15.0096 21.0002 13.9128 21.0002H6.89867C5.80194 21.0002 4.91284 20.1112 4.91284 19.0144V8.17431Z" fill="#000"/>
</svg>
