<svg width="20" height="23" viewBox="0 0 20 23" fill="none" xmlns="http://www.w3.org/2000/svg">
<circle cx="4" cy="4" r="3.5" stroke="#111827" stroke-opacity="0.25"/>
<path d="M4.50001 10C4.50001 9.72386 4.27615 9.5 4.00001 9.5C3.72386 9.5 3.50001 9.72386 3.50001 10L4.50001 10ZM20 20L15 17.1132L15 22.8868L20 20ZM3.50001 10.75C3.50001 11.0261 3.72386 11.25 4.00001 11.25C4.27615 11.25 4.50001 11.0261 4.50001 10.75L3.50001 10.75ZM4.50001 12.25C4.50001 11.9739 4.27615 11.75 4.00001 11.75C3.72386 11.75 3.50001 11.9739 3.50001 12.25L4.50001 12.25ZM3.50001 13.75C3.50001 14.0261 3.72386 14.25 4.00001 14.25C4.27615 14.25 4.50001 14.0261 4.50001 13.75L3.50001 13.75ZM4.50001 15.25C4.50001 14.9739 4.27615 14.75 4.00001 14.75C3.72386 14.75 3.50001 14.9739 3.50001 15.25L4.50001 15.25ZM3.58565 16.8777C3.63924 17.1486 3.90228 17.3247 4.17318 17.2711C4.44407 17.2176 4.62023 16.9545 4.56663 16.6836L3.58565 16.8777ZM5.08923 17.9443C4.9356 17.7148 4.62505 17.6534 4.39558 17.807C4.16612 17.9606 4.10464 18.2712 4.25826 18.5006L5.08923 17.9443ZM5.49938 19.7417C5.72885 19.8954 6.0394 19.8339 6.19303 19.6044C6.34665 19.375 6.28517 19.0644 6.0557 18.9108L5.49938 19.7417ZM7.31639 19.4334C7.0455 19.3798 6.78245 19.5559 6.72886 19.8268C6.67527 20.0977 6.85143 20.3608 7.12232 20.4144L7.31639 19.4334ZM9 20.5C9.27615 20.5 9.5 20.2761 9.5 20C9.5 19.7239 9.27615 19.5 9 19.5L9 20.5ZM11 19.5C10.7239 19.5 10.5 19.7239 10.5 20C10.5 20.2761 10.7239 20.5 11 20.5L11 19.5ZM13 20.5C13.2761 20.5 13.5 20.2761 13.5 20C13.5 19.7239 13.2761 19.5 13 19.5L13 20.5ZM15 19.5C14.7239 19.5 14.5 19.7239 14.5 20C14.5 20.2761 14.7239 20.5 15 20.5L15 19.5ZM17 20.5C17.2761 20.5 17.5 20.2761 17.5 20C17.5 19.7239 17.2761 19.5 17 19.5L17 20.5ZM19 19.5C18.7239 19.5 18.5 19.7239 18.5 20C18.5 20.2761 18.7239 20.5 19 20.5L19 19.5ZM3.50001 10L3.50001 10.75L4.50001 10.75L4.50001 10L3.50001 10ZM3.50001 12.25L3.50001 13.75L4.50001 13.75L4.50001 12.25L3.50001 12.25ZM3.50001 15.25L3.50001 16L4.50001 16L4.50001 15.25L3.50001 15.25ZM3.50001 16C3.50001 16.2999 3.52941 16.5934 3.58565 16.8777L4.56663 16.6836C4.52297 16.4629 4.50001 16.2344 4.50001 16L3.50001 16ZM4.25826 18.5006C4.58665 18.9911 5.00887 19.4134 5.49938 19.7417L6.0557 18.9108C5.67381 18.6551 5.3449 18.3262 5.08923 17.9443L4.25826 18.5006ZM7.12232 20.4144C7.40659 20.4706 7.70011 20.5 8 20.5L8 19.5C7.76562 19.5 7.53709 19.477 7.31639 19.4334L7.12232 20.4144ZM8 20.5L9 20.5L9 19.5L8 19.5L8 20.5ZM11 20.5L13 20.5L13 19.5L11 19.5L11 20.5ZM15 20.5L17 20.5L17 19.5L15 19.5L15 20.5Z" fill="#111827" fill-opacity="0.25"/>
</svg>
