<svg width="24" height="24" viewBox="0 0 24 24" fill="none" xmlns="http://www.w3.org/2000/svg">
<path fill-rule="evenodd" clip-rule="evenodd" d="M12.6377 3C13.0301 3 13.3482 3.31811 13.3482 3.71053V9.37652H19.0142C19.4066 9.37652 19.7247 9.69463 19.7247 10.087C19.7247 10.4795 19.4066 10.7976 19.0142 10.7976H12.6377C12.2452 10.7976 11.9271 10.4795 11.9271 10.087V3.71053C11.9271 3.31811 12.2452 3 12.6377 3Z" fill="#ff0"/>
<path fill-rule="evenodd" clip-rule="evenodd" d="M6.26116 4.42105C6.11137 4.42105 5.96772 4.48056 5.8618 4.58647C5.75589 4.69239 5.69638 4.83604 5.69638 4.98583V19.0142C5.69638 19.164 5.75589 19.3076 5.8618 19.4135C5.96772 19.5194 6.11137 19.5789 6.26116 19.5789H17.7389C17.8887 19.5789 18.0323 19.5194 18.1382 19.4135C18.2442 19.3076 18.3037 19.164 18.3037 19.0142V10.3814L12.3434 4.42105H6.26116ZM4.85697 3.58164C5.22938 3.20922 5.73448 3 6.26116 3H12.6377C12.8261 3 13.0068 3.07486 13.1401 3.20811L19.5166 9.58463C19.6499 9.71788 19.7247 9.8986 19.7247 10.087V19.0142C19.7247 19.5408 19.5155 20.0459 19.1431 20.4184C18.7707 20.7908 18.2656 21 17.7389 21H6.26116C5.73448 21 5.22938 20.7908 4.85697 20.4184C4.48455 20.0459 4.27533 19.5408 4.27533 19.0142V4.98583C4.27533 4.45915 4.48455 3.95405 4.85697 3.58164Z" fill="#000"/>
</svg>
