<svg width="24" height="24" viewBox="0 0 24 24" fill="none" xmlns="http://www.w3.org/2000/svg">
<rect width="24" height="24" rx="12" fill="white"/>
<path fill-rule="evenodd" clip-rule="evenodd" d="M7.66475 6.91475C7.88442 6.69508 8.24058 6.69508 8.46025 6.91475L12 10.4545L15.5398 6.91475C15.7594 6.69508 16.1156 6.69508 16.3352 6.91475C16.5549 7.13442 16.5549 7.49058 16.3352 7.71025L12.6144 11.4311C12.5362 11.5123 12.4426 11.5772 12.339 11.622C12.232 11.6684 12.1166 11.6923 12 11.6923C11.8834 11.6923 11.768 11.6684 11.661 11.622C11.5574 11.5772 11.4638 11.5123 11.3856 11.4311L7.66475 7.71025C7.44508 7.49058 7.44508 7.13442 7.66475 6.91475Z" fill="#0C0C0E"/>
<path fill-rule="evenodd" clip-rule="evenodd" d="M7.66475 12.9148C7.88442 12.6951 8.24058 12.6951 8.46025 12.9148L12 16.4545L15.5398 12.9148C15.7594 12.6951 16.1156 12.6951 16.3352 12.9148C16.5549 13.1344 16.5549 13.4906 16.3352 13.7102L12.6144 17.4311C12.5362 17.5123 12.4426 17.5772 12.339 17.622C12.232 17.6684 12.1166 17.6923 12 17.6923C11.8834 17.6923 11.768 17.6684 11.661 17.622C11.5574 17.5772 11.4638 17.5123 11.3856 17.4311L7.66475 13.7102C7.44508 13.4906 7.44508 13.1344 7.66475 12.9148Z" fill="#0C0C0E"/>
</svg>
