<svg width="25" height="24" viewBox="0 0 25 24" fill="none" xmlns="http://www.w3.org/2000/svg">
<path fill-rule="evenodd" clip-rule="evenodd" d="M3.87718 15.7531C4.26959 15.7531 4.58771 16.0712 4.58771 16.4636V17.7389C4.58771 18.2269 4.78157 18.6949 5.12665 19.04C5.47174 19.3851 5.93977 19.579 6.42779 19.579H17.9055C18.3935 19.579 18.8616 19.3851 19.2066 19.04C19.5517 18.6949 19.7456 18.2269 19.7456 17.7389V16.4636C19.7456 16.0712 20.0637 15.7531 20.4561 15.7531C20.8485 15.7531 21.1666 16.0712 21.1666 16.4636V17.7389C21.1666 18.6038 20.8231 19.4333 20.2115 20.0448C19.5999 20.6564 18.7704 21 17.9055 21H6.42779C5.56288 21 4.7334 20.6564 4.12182 20.0448C3.51024 19.4333 3.16666 18.6038 3.16666 17.7389V16.4636C3.16666 16.0712 3.48477 15.7531 3.87718 15.7531Z" fill="#000"/>
<path fill-rule="evenodd" clip-rule="evenodd" d="M7.87832 10.1852C8.17626 9.92985 8.62482 9.96435 8.8802 10.2623L12.1666 14.0965L15.4531 10.2623C15.7084 9.96435 16.157 9.92985 16.4549 10.1852C16.7529 10.4406 16.7874 10.8892 16.532 11.1871L12.7061 15.6507C12.5711 15.8081 12.3741 15.8988 12.1666 15.8988C11.9592 15.8988 11.7621 15.8081 11.6272 15.6507L7.80126 11.1871C7.54588 10.8892 7.58038 10.4406 7.87832 10.1852Z" fill="#ff0"/>
<path fill-rule="evenodd" clip-rule="evenodd" d="M12.1666 3C12.559 3 12.8771 3.31811 12.8771 3.71053V15.1882C12.8771 15.5807 12.559 15.8988 12.1666 15.8988C11.7742 15.8988 11.4561 15.5807 11.4561 15.1882V3.71053C11.4561 3.31811 11.7742 3 12.1666 3Z" fill="#ff0"/>
</svg>
