<svg width="24" height="24" viewBox="0 0 24 24" fill="none" xmlns="http://www.w3.org/2000/svg">
<path d="M15.1859 6C15.0146 6 14.8451 6.03422 14.6872 6.10064C14.5304 6.16666 14.3882 6.26316 14.2689 6.38453L7.20839 13.4108C7.15597 13.4629 7.11795 13.5278 7.09801 13.599L6.01808 17.4559C5.97633 17.6049 6.01825 17.765 6.12772 17.8745C6.2372 17.9839 6.39721 18.0259 6.5463 17.9841L10.4032 16.9042C10.4744 16.8842 10.5392 16.8462 10.5914 16.7938L17.6175 9.73337L17.6187 9.73221C17.7386 9.61293 17.8339 9.47115 17.8989 9.31499C17.9642 9.15833 17.9978 8.99029 17.9978 8.82057C17.9978 8.65085 17.9642 8.48281 17.8989 8.32614C17.8339 8.16998 17.7386 8.02819 17.6187 7.90892L17.6175 7.90777L16.1037 6.38543C15.9844 6.26363 15.8418 6.16682 15.6845 6.10064C15.5267 6.03422 15.3571 6 15.1859 6Z" fill="#0C0C0E" fill-opacity="0.6"/>
</svg>
