<svg width="24" height="24" viewBox="0 0 24 24" fill="none" xmlns="http://www.w3.org/2000/svg">
<path fill-rule="evenodd" clip-rule="evenodd" d="M3.71053 15.4342C4.10294 15.4342 4.42105 15.7523 4.42105 16.1447V19.1052C4.42105 19.3669 4.63313 19.5789 4.89473 19.5789H7.85526C8.24767 19.5789 8.56579 19.8971 8.56579 20.2895C8.56579 20.6819 8.24767 21 7.85526 21H4.89473C3.84831 21 3 20.1517 3 19.1052V16.1447C3 15.7523 3.31811 15.4342 3.71053 15.4342Z" fill="#0C0C0E"/>
<path fill-rule="evenodd" clip-rule="evenodd" d="M20.2893 15.4342C20.6818 15.4342 20.9999 15.7523 20.9999 16.1447V19.1052C20.9999 20.1517 20.1516 21 19.1051 21H16.1446C15.7522 21 15.4341 20.6819 15.4341 20.2895C15.4341 19.8971 15.7522 19.5789 16.1446 19.5789H19.1051C19.3668 19.5789 19.5788 19.3669 19.5788 19.1052V16.1447C19.5788 15.7523 19.8969 15.4342 20.2893 15.4342Z" fill="#0C0C0E"/>
<path fill-rule="evenodd" clip-rule="evenodd" d="M15.4341 3.71053C15.4341 3.31811 15.7522 3 16.1446 3H19.1051C20.1516 3 20.9999 3.84831 20.9999 4.89473V7.85526C20.9999 8.24767 20.6818 8.56579 20.2893 8.56579C19.8969 8.56579 19.5788 8.24767 19.5788 7.85526V4.89473C19.5788 4.63313 19.3668 4.42105 19.1051 4.42105H16.1446C15.7522 4.42105 15.4341 4.10294 15.4341 3.71053Z" fill="#0C0C0E"/>
<path fill-rule="evenodd" clip-rule="evenodd" d="M4.89473 4.42105C4.63313 4.42105 4.42105 4.63313 4.42105 4.89473V7.85526C4.42105 8.24767 4.10294 8.56579 3.71053 8.56579C3.31811 8.56579 3 8.24767 3 7.85526V4.89473C3 3.8483 3.8483 3 4.89473 3H7.85526C8.24767 3 8.56579 3.31811 8.56579 3.71053C8.56579 4.10294 8.24767 4.42105 7.85526 4.42105H4.89473Z" fill="#0C0C0E"/>
<path fill-rule="evenodd" clip-rule="evenodd" d="M3 12C3 11.6076 3.31811 11.2895 3.71053 11.2895H20.2895C20.6819 11.2895 21 11.6076 21 12C21 12.3924 20.6819 12.7105 20.2895 12.7105H3.71053C3.31811 12.7105 3 12.3924 3 12Z" fill="#107ED9"/>
</svg>
