<svg width="24" height="24" viewBox="0 0 24 24" fill="none" xmlns="http://www.w3.org/2000/svg">
<path fill-rule="evenodd" clip-rule="evenodd" d="M16.7403 4.42105C16.6651 4.42105 16.5906 4.43608 16.5213 4.46526C16.4519 4.49443 16.3891 4.53717 16.3365 4.59095L16.3298 4.59789L14.8697 6.05076L17.9527 9.1337L19.4056 7.67371L19.4089 7.67043C19.4618 7.61793 19.5038 7.55548 19.5325 7.48666C19.5611 7.41785 19.5759 7.34404 19.5759 7.2695C19.5759 7.19495 19.5611 7.12114 19.5325 7.05233C19.5038 6.98352 19.4618 6.92106 19.4089 6.86857L19.4054 6.8651L17.144 4.59097C17.0914 4.53719 17.0287 4.49443 16.9593 4.46526C16.89 4.43608 16.8155 4.42105 16.7403 4.42105ZM16.9503 10.141L13.8624 7.05315L6.32679 14.5522L9.45121 17.6766L16.9503 10.141ZM8.09096 18.326L5.67737 15.9125L4.73876 19.2647L8.09096 18.326ZM15.9701 3.15545C16.2139 3.05285 16.4758 3 16.7403 3C17.0048 3 17.2667 3.05285 17.5105 3.15545C17.7533 3.25764 17.9734 3.40712 18.1579 3.59518C18.1586 3.59594 18.1594 3.5967 18.1601 3.59746L20.4096 5.85962C20.4102 5.86024 20.4108 5.86086 20.4114 5.86148C20.5967 6.04569 20.7437 6.26466 20.8442 6.50583C20.945 6.74781 20.9969 7.00736 20.9969 7.2695C20.9969 7.53164 20.945 7.79118 20.8442 8.03317C20.7437 8.2744 20.5966 8.49342 20.4113 8.67766C20.4107 8.67823 20.4101 8.6788 20.4096 8.67937L9.95607 19.1839C9.86959 19.2708 9.76208 19.3338 9.64401 19.3669L3.90554 20.9737C3.65835 21.0429 3.39305 20.9734 3.21154 20.7919C3.03003 20.6104 2.96054 20.3451 3.02975 20.0979L4.63652 14.3594C4.66958 14.2413 4.73263 14.1338 4.81954 14.0473L15.3243 3.5936C15.5084 3.40628 15.7279 3.25735 15.9701 3.15545Z" fill="#0000FF"/>
</svg>
