<svg width="24" height="24" viewBox="0 0 24 24" fill="none" xmlns="http://www.w3.org/2000/svg">
<path fill-rule="evenodd" clip-rule="evenodd" d="M13.5941 12.7106C13.3597 12.7106 13.135 12.8037 12.9693 12.9694C12.8036 13.1351 12.7105 13.3599 12.7105 13.5942V20.2896C12.7105 20.682 12.3924 21.0001 12 21.0001C11.6076 21.0001 11.2894 20.682 11.2894 20.2896V13.5942C11.2894 12.983 11.5322 12.3968 11.9645 11.9646C12.3967 11.5324 12.9829 11.2896 13.5941 11.2896C14.2053 11.2896 14.7915 11.5324 15.2237 11.9646C15.6559 12.3968 15.8988 12.983 15.8988 13.5942V16.3908H17.7388C18.6037 16.3908 19.4332 16.7344 20.0448 17.3459C20.6564 17.9575 21 18.787 21 19.6519V20.2896C21 20.682 20.6819 21.0001 20.2894 21.0001C19.897 21.0001 19.5789 20.682 19.5789 20.2896V19.6519C19.5789 19.1639 19.3851 18.6959 19.04 18.3508C18.6949 18.0057 18.2269 17.8118 17.7388 17.8118H15.1882C14.7958 17.8118 14.4777 17.4937 14.4777 17.1013V13.5942C14.4777 13.3599 14.3846 13.1351 14.2189 12.9694C14.0532 12.8037 13.8284 12.7106 13.5941 12.7106Z" fill="#ff0"/>
<path d="M4.34816 4.98575C4.70032 4.98575 4.98581 4.70027 4.98581 4.3481C4.98581 3.99594 4.70032 3.71045 4.34816 3.71045C3.99599 3.71045 3.71051 3.99594 3.71051 4.3481C3.71051 4.70027 3.99599 4.98575 4.34816 4.98575Z" fill="#000"/>
<path fill-rule="evenodd" clip-rule="evenodd" d="M4.34818 4.42105C4.38843 4.42105 4.42105 4.38843 4.42105 4.34818C4.42105 4.30793 4.38843 4.27531 4.34818 4.27531C4.30793 4.27531 4.27531 4.30793 4.27531 4.34818C4.27531 4.38843 4.30793 4.42105 4.34818 4.42105ZM3 4.34818C3 3.6036 3.6036 3 4.34818 3C5.09276 3 5.69636 3.6036 5.69636 4.34818C5.69636 5.09276 5.09276 5.69636 4.34818 5.69636C3.6036 5.69636 3 5.09276 3 4.34818Z" fill="#000"/>
<path d="M9.44945 4.98575C9.80162 4.98575 10.0871 4.70027 10.0871 4.3481C10.0871 3.99594 9.80162 3.71045 9.44945 3.71045C9.09728 3.71045 8.8118 3.99594 8.8118 4.3481C8.8118 4.70027 9.09728 4.98575 9.44945 4.98575Z" fill="#000"/>
<path fill-rule="evenodd" clip-rule="evenodd" d="M9.44942 4.42105C9.48967 4.42105 9.5223 4.38843 9.5223 4.34818C9.5223 4.30793 9.48967 4.27531 9.44942 4.27531C9.40917 4.27531 9.37655 4.30793 9.37655 4.34818C9.37655 4.38843 9.40917 4.42105 9.44942 4.42105ZM8.10124 4.34818C8.10124 3.6036 8.70484 3 9.44942 3C10.194 3 10.7976 3.6036 10.7976 4.34818C10.7976 5.09276 10.194 5.69636 9.44942 5.69636C8.70484 5.69636 8.10124 5.09276 8.10124 4.34818Z" fill="#000"/>
<path d="M14.5506 4.98575C14.9028 4.98575 15.1882 4.70027 15.1882 4.3481C15.1882 3.99594 14.9028 3.71045 14.5506 3.71045C14.1984 3.71045 13.9129 3.99594 13.9129 4.3481C13.9129 4.70027 14.1984 4.98575 14.5506 4.98575Z" fill="#000"/>
<path fill-rule="evenodd" clip-rule="evenodd" d="M14.5506 4.42105C14.5908 4.42105 14.6234 4.38843 14.6234 4.34818C14.6234 4.30793 14.5908 4.27531 14.5506 4.27531C14.5103 4.27531 14.4777 4.30793 14.4777 4.34818C14.4777 4.38843 14.5103 4.42105 14.5506 4.42105ZM13.2024 4.34818C13.2024 3.6036 13.806 3 14.5506 3C15.2951 3 15.8987 3.6036 15.8987 4.34818C15.8987 5.09276 15.2951 5.69636 14.5506 5.69636C13.806 5.69636 13.2024 5.09276 13.2024 4.34818Z" fill="#000"/>
<path d="M4.34816 9.44938C4.70032 9.44938 4.98581 9.16389 4.98581 8.81172C4.98581 8.45956 4.70032 8.17407 4.34816 8.17407C3.99599 8.17407 3.71051 8.45956 3.71051 8.81172C3.71051 9.16389 3.99599 9.44938 4.34816 9.44938Z" fill="#000"/>
<path fill-rule="evenodd" clip-rule="evenodd" d="M4.34818 8.88468C4.38843 8.88468 4.42105 8.85205 4.42105 8.8118C4.42105 8.77156 4.38843 8.73893 4.34818 8.73893C4.30793 8.73893 4.27531 8.77156 4.27531 8.8118C4.27531 8.85205 4.30793 8.88468 4.34818 8.88468ZM3 8.8118C3 8.06722 3.6036 7.46362 4.34818 7.46362C5.09276 7.46362 5.69636 8.06722 5.69636 8.8118C5.69636 9.55638 5.09276 10.16 4.34818 10.16C3.6036 10.16 3 9.55638 3 8.8118Z" fill="#000"/>
<path d="M9.44945 9.44938C9.80162 9.44938 10.0871 9.16389 10.0871 8.81172C10.0871 8.45956 9.80162 8.17407 9.44945 8.17407C9.09728 8.17407 8.8118 8.45956 8.8118 8.81172C8.8118 9.16389 9.09728 9.44938 9.44945 9.44938Z" fill="#000"/>
<path fill-rule="evenodd" clip-rule="evenodd" d="M9.44942 8.88468C9.48967 8.88468 9.5223 8.85205 9.5223 8.8118C9.5223 8.77156 9.48967 8.73893 9.44942 8.73893C9.40917 8.73893 9.37655 8.77156 9.37655 8.8118C9.37655 8.85205 9.40917 8.88468 9.44942 8.88468ZM8.10124 8.8118C8.10124 8.06722 8.70484 7.46362 9.44942 7.46362C10.194 7.46362 10.7976 8.06722 10.7976 8.8118C10.7976 9.55638 10.194 10.16 9.44942 10.16C8.70484 10.16 8.10124 9.55638 8.10124 8.8118Z" fill="#000"/>
<path d="M14.5506 9.44938C14.9028 9.44938 15.1882 9.16389 15.1882 8.81172C15.1882 8.45956 14.9028 8.17407 14.5506 8.17407C14.1984 8.17407 13.9129 8.45956 13.9129 8.81172C13.9129 9.16389 14.1984 9.44938 14.5506 9.44938Z" fill="#000"/>
<path fill-rule="evenodd" clip-rule="evenodd" d="M14.5506 8.88468C14.5908 8.88468 14.6234 8.85205 14.6234 8.8118C14.6234 8.77156 14.5908 8.73893 14.5506 8.73893C14.5103 8.73893 14.4777 8.77156 14.4777 8.8118C14.4777 8.85205 14.5103 8.88468 14.5506 8.88468ZM13.2024 8.8118C13.2024 8.06722 13.806 7.46362 14.5506 7.46362C15.2951 7.46362 15.8987 8.06722 15.8987 8.8118C15.8987 9.55638 15.2951 10.16 14.5506 10.16C13.806 10.16 13.2024 9.55638 13.2024 8.8118Z" fill="#000"/>
<path d="M4.34816 13.913C4.70032 13.913 4.98581 13.6275 4.98581 13.2753C4.98581 12.9232 4.70032 12.6377 4.34816 12.6377C3.99599 12.6377 3.71051 12.9232 3.71051 13.2753C3.71051 13.6275 3.99599 13.913 4.34816 13.913Z" fill="#000"/>
<path fill-rule="evenodd" clip-rule="evenodd" d="M4.34818 13.3483C4.38843 13.3483 4.42105 13.3157 4.42105 13.2754C4.42105 13.2352 4.38843 13.2026 4.34818 13.2026C4.30793 13.2026 4.27531 13.2352 4.27531 13.2754C4.27531 13.3157 4.30793 13.3483 4.34818 13.3483ZM3 13.2754C3 12.5308 3.6036 11.9272 4.34818 11.9272C5.09276 11.9272 5.69636 12.5308 5.69636 13.2754C5.69636 14.02 5.09276 14.6236 4.34818 14.6236C3.6036 14.6236 3 14.02 3 13.2754Z" fill="#000"/>
<path d="M9.44945 13.913C9.28033 13.913 9.11815 13.8458 8.99856 13.7262C8.87898 13.6067 8.8118 13.4445 8.8118 13.2753C8.8118 13.1062 8.87898 12.944 8.99856 12.8245C9.11815 12.7049 9.28033 12.6377 9.44945 12.6377V13.913Z" fill="#000"/>
<path fill-rule="evenodd" clip-rule="evenodd" d="M9.44942 13.3483C9.46875 13.3483 9.48729 13.3406 9.50095 13.327C9.51462 13.3133 9.5223 13.2948 9.5223 13.2754C9.5223 13.2561 9.51462 13.2376 9.50095 13.2239C9.48728 13.2102 9.46875 13.2026 9.44942 13.2026V13.3483ZM8.49611 12.3221C8.74895 12.0693 9.09186 11.9272 9.44942 11.9272C9.84184 11.9272 10.1599 12.2454 10.1599 12.6378V13.9131C10.1599 14.3055 9.84184 14.6236 9.44942 14.6236C9.09186 14.6236 8.74895 14.4816 8.49611 14.2287C8.24328 13.9759 8.10124 13.633 8.10124 13.2754C8.10124 12.9179 8.24328 12.575 8.49611 12.3221Z" fill="#000"/>
</svg>
