<svg width="24" height="24" viewBox="0 0 24 24" fill="none" xmlns="http://www.w3.org/2000/svg">
<path fill-rule="evenodd" clip-rule="evenodd" d="M3 7.73194C3 6.10206 4.32127 4.78076 5.95117 4.78076H14.0698C15.6997 4.78076 17.021 6.10205 17.021 7.73194V9.35755L18.1235 8.64879L18.1235 8.64877C19.366 7.85013 21 8.74214 21 10.2192V15.3823C21 16.8594 19.3659 17.7513 18.1236 16.9527L18.1235 16.9527L17.021 16.244V16.268C17.021 17.8979 15.6997 19.2192 14.0698 19.2192H5.95117C4.32127 19.2192 3 17.8979 3 16.268V7.73194ZM5.95117 6.34598C5.18573 6.34598 4.56522 6.96649 4.56522 7.73194V16.268C4.56522 17.0335 5.18576 17.654 5.95117 17.654H14.0698C14.8353 17.654 15.4558 17.0335 15.4558 16.268V14.8105C15.4558 14.5242 15.6121 14.2608 15.8634 14.1236C16.1147 13.9864 16.4208 13.9974 16.6616 14.1522L18.9699 15.6361C18.9699 15.6361 18.9699 15.6361 18.9699 15.6361C19.1708 15.7652 19.4348 15.6209 19.4348 15.3823V10.2192C19.4348 9.98057 19.1708 9.83635 18.9699 9.96541C18.9699 9.96542 18.9699 9.96542 18.9699 9.96543L16.6616 11.4493C16.4208 11.6041 16.1147 11.6151 15.8634 11.4779C15.6121 11.3407 15.4558 11.0773 15.4558 10.791V7.73194C15.4558 6.9665 14.8353 6.34598 14.0698 6.34598H5.95117Z" fill="#000"/>
<path fill-rule="evenodd" clip-rule="evenodd" d="M8.4585 9.00819C8.4585 8.57597 8.80888 8.22559 9.2411 8.22559H12.5106C12.9428 8.22559 13.2932 8.57597 13.2932 9.00819V12.2777C13.2932 12.7099 12.9428 13.0603 12.5106 13.0603C12.0783 13.0603 11.728 12.7099 11.728 12.2777V9.7908H9.2411C8.80888 9.7908 8.4585 9.44042 8.4585 9.00819Z" fill="#ff0"/>
<path fill-rule="evenodd" clip-rule="evenodd" d="M13.0664 8.45334C13.3721 8.75897 13.3721 9.25449 13.0664 9.56012L7.82159 14.8049C7.51596 15.1106 7.02044 15.1106 6.71482 14.8049C6.40919 14.4993 6.40919 14.0038 6.71482 13.6982L11.9597 8.45334C12.2653 8.14771 12.7608 8.14771 13.0664 8.45334Z" fill="#ff0"/>
</svg>
