<svg width="24" height="24" viewBox="0 0 24 24" fill="none" xmlns="http://www.w3.org/2000/svg">
    <path fill-rule="evenodd" clip-rule="evenodd" d="M20.2894 15.7529C20.6818 15.7529 20.9999 16.071 20.9999 16.4635V19.0141C20.9999 19.5407 20.7907 20.0458 20.4183 20.4183C20.0458 20.7907 19.5407 20.9999 19.0141 20.9999H16.4635C16.071 20.9999 15.7529 20.6818 15.7529 20.2894C15.7529 19.897 16.071 19.5788 16.4635 19.5788H19.0141C19.1639 19.5788 19.3075 19.5193 19.4134 19.4134C19.5193 19.3075 19.5788 19.1639 19.5788 19.0141V16.4635C19.5788 16.071 19.897 15.7529 20.2894 15.7529Z" fill="#000"/>
    <path fill-rule="evenodd" clip-rule="evenodd" d="M15.7529 3.71053C15.7529 3.31811 16.071 3 16.4635 3H19.0141C19.5407 3 20.0458 3.20922 20.4183 3.58164C20.7907 3.95405 20.9999 4.45915 20.9999 4.98583V7.53644C20.9999 7.92885 20.6818 8.24696 20.2894 8.24696C19.897 8.24696 19.5788 7.92885 19.5788 7.53644V4.98583C19.5788 4.83604 19.5193 4.69239 19.4134 4.58647C19.3075 4.48056 19.1639 4.42105 19.0141 4.42105H16.4635C16.071 4.42105 15.7529 4.10294 15.7529 3.71053Z" fill="#000"/>
    <path fill-rule="evenodd" clip-rule="evenodd" d="M4.98583 4.42105C4.83604 4.42105 4.69239 4.48056 4.58647 4.58647C4.48056 4.69239 4.42105 4.83604 4.42105 4.98583V7.53644C4.42105 7.92885 4.10294 8.24696 3.71053 8.24696C3.31811 8.24696 3 7.92885 3 7.53644V4.98583C3 4.45916 3.20922 3.95405 3.58164 3.58164C3.95405 3.20922 4.45916 3 4.98583 3H7.53644C7.92885 3 8.24696 3.31811 8.24696 3.71053C8.24696 4.10294 7.92885 4.42105 7.53644 4.42105H4.98583Z" fill="#000"/>
    <path fill-rule="evenodd" clip-rule="evenodd" d="M3.71053 15.7529C4.10294 15.7529 4.42105 16.071 4.42105 16.4635V19.0141C4.42105 19.1639 4.48056 19.3075 4.58647 19.4134C4.69239 19.5193 4.83604 19.5788 4.98583 19.5788H7.53644C7.92885 19.5788 8.24696 19.897 8.24696 20.2894C8.24696 20.6818 7.92885 20.9999 7.53644 20.9999H4.98583C4.45915 20.9999 3.95405 20.7907 3.58164 20.4183C3.20922 20.0458 3 19.5407 3 19.0141V16.4635C3 16.071 3.31811 15.7529 3.71053 15.7529Z" fill="#000"/>
    <path fill-rule="evenodd" clip-rule="evenodd" d="M8.17415 6.82568C8.56656 6.82568 8.88468 7.1438 8.88468 7.53621V10.0868C8.88468 10.4792 8.56656 10.7973 8.17415 10.7973C7.78174 10.7973 7.46362 10.4792 7.46362 10.0868V7.53621C7.46362 7.1438 7.78174 6.82568 8.17415 6.82568Z" fill="#ff0"/>
    <path fill-rule="evenodd" clip-rule="evenodd" d="M15.826 6.82568C16.2184 6.82568 16.5365 7.1438 16.5365 7.53621V10.0868C16.5365 10.4792 16.2184 10.7973 15.826 10.7973C15.4336 10.7973 15.1155 10.4792 15.1155 10.0868V7.53621C15.1155 7.1438 15.4336 6.82568 15.826 6.82568Z" fill="#ff0"/>
    <path fill-rule="evenodd" clip-rule="evenodd" d="M11.9999 8.10107C12.3924 8.10107 12.7105 8.41919 12.7105 8.8116V13.2752C12.7105 13.6676 12.3924 13.9857 11.9999 13.9857H10.087C9.69458 13.9857 9.37646 13.6676 9.37646 13.2752C9.37646 12.8828 9.69458 12.5646 10.087 12.5646H11.2894V8.8116C11.2894 8.41919 11.6075 8.10107 11.9999 8.10107Z" fill="#ff0"/>
    <path fill-rule="evenodd" clip-rule="evenodd" d="M8.29669 15.3364C8.56694 15.0519 9.01667 15.0403 9.30119 15.3106C10.0295 16.0024 10.9956 16.3881 12.0001 16.3881C13.0046 16.3881 13.9707 16.0024 14.699 15.3106C14.9835 15.0403 15.4333 15.0519 15.7035 15.3364C15.9738 15.6209 15.9622 16.0707 15.6777 16.3409C14.6853 17.2836 13.3688 17.8092 12.0001 17.8092C10.6314 17.8092 9.31489 17.2836 8.3225 16.3409C8.03799 16.0707 8.02643 15.6209 8.29669 15.3364Z" fill="#ff0"/>
</svg>
