<svg width="16" height="16" viewBox="0 0 16 16" fill="none" xmlns="http://www.w3.org/2000/svg">
<circle cx="7.99967" cy="8.00065" r="6.66667" fill="white"/>
<path fill-rule="evenodd" clip-rule="evenodd" d="M14.6663 8.00065C14.6663 11.6826 11.6816 14.6673 7.99967 14.6673C4.31778 14.6673 1.33301 11.6826 1.33301 8.00065C1.33301 4.31876 4.31778 1.33398 7.99967 1.33398C11.6816 1.33398 14.6663 4.31876 14.6663 8.00065ZM5.58984 5.59081C5.86878 5.31187 6.32105 5.31187 6.59999 5.59081L7.99967 6.9905L9.39936 5.59081C9.6783 5.31187 10.1306 5.31187 10.4095 5.59081C10.6885 5.86976 10.6885 6.32202 10.4095 6.60097L9.00983 8.00065L10.4095 9.40034C10.6885 9.67928 10.6885 10.1315 10.4095 10.4105C10.1306 10.6894 9.6783 10.6894 9.39936 10.4105L7.99967 9.0108L6.59999 10.4105C6.32105 10.6894 5.86878 10.6894 5.58984 10.4105C5.31089 10.1315 5.31089 9.67928 5.58984 9.40034L6.98952 8.00065L5.58984 6.60097C5.31089 6.32202 5.31089 5.86976 5.58984 5.59081Z" fill="#C21D00"/>
</svg>
