<svg width="25" height="24" viewBox="0 0 25 24" fill="none" xmlns="http://www.w3.org/2000/svg">
<path fill-rule="evenodd" clip-rule="evenodd" d="M14.2463 3.03528C14.5737 3.13696 14.7968 3.43986 14.7968 3.78266V9.32109H18.4389C18.7296 9.32109 18.9963 9.48214 19.1316 9.73935C19.2669 9.99656 19.2485 10.3076 19.0838 10.5471L12.1307 20.6607C11.9365 20.9432 11.581 21.0664 11.2537 20.9647C10.9263 20.863 10.7032 20.5601 10.7032 20.2173V14.6789H7.06108C6.77045 14.6789 6.50376 14.5179 6.36846 14.2606C6.23316 14.0034 6.25153 13.6924 6.41618 13.4529L13.3693 3.33929C13.5635 3.05681 13.919 2.9336 14.2463 3.03528ZM8.54883 13.1137H11.4858C11.918 13.1137 12.2684 13.4641 12.2684 13.8963V17.6976L16.9512 10.8863H14.0142C13.582 10.8863 13.2316 10.5359 13.2316 10.1037V6.3024L8.54883 13.1137Z" fill="#000"/>
</svg>
