<svg width="25" height="24" viewBox="0 0 25 24" fill="none" xmlns="http://www.w3.org/2000/svg">
<path fill-rule="evenodd" clip-rule="evenodd" d="M14.8831 3.03672C15.2081 3.13987 15.4289 3.44163 15.4289 3.78266V8.68899H18.439C18.7313 8.68899 18.9993 8.85198 19.1338 9.11158C19.2683 9.37119 19.2469 9.68413 19.0783 9.92298L15.6776 14.7396C15.4283 15.0927 14.9399 15.1768 14.5869 14.9275C14.2338 14.6783 14.1496 14.1899 14.3989 13.8368L16.9284 10.2542H14.6463C14.2141 10.2542 13.8637 9.90382 13.8637 9.4716V6.24879L11.1012 10.1631C10.852 10.5162 10.3637 10.6004 10.0105 10.3512C9.65741 10.102 9.57318 9.61367 9.82241 9.26054L14.0069 3.3314C14.2036 3.05277 14.558 2.93356 14.8831 3.03672Z" fill="#000"/>
<path fill-rule="evenodd" clip-rule="evenodd" d="M3.97928 3.22928C4.28491 2.92365 4.78042 2.92365 5.08605 3.22928L21.5208 19.664C21.8264 19.9696 21.8264 20.4651 21.5208 20.7708C21.2151 21.0764 20.7196 21.0764 20.414 20.7708L3.97928 4.33605C3.67365 4.03042 3.67365 3.53491 3.97928 3.22928Z" fill="#ff0"/>
<path fill-rule="evenodd" clip-rule="evenodd" d="M9.29458 11.3604C9.64784 11.6094 9.73232 12.0977 9.48327 12.451L8.57039 13.7458H10.8537C11.286 13.7458 11.6363 14.0962 11.6363 14.5284V17.7494L12.3001 16.8081C12.5492 16.4549 13.0374 16.3705 13.3907 16.6195C13.7439 16.8686 13.8283 17.3569 13.5793 17.7101L11.4933 20.6684C11.2968 20.9471 10.9423 21.0665 10.6172 20.9634C10.292 20.8603 10.0711 20.5585 10.0711 20.2174V15.311H7.06111C6.76883 15.311 6.5009 15.1482 6.36635 14.8887C6.23181 14.6292 6.25307 14.3164 6.42148 14.0775L8.20402 11.5491C8.45306 11.1958 8.94133 11.1113 9.29458 11.3604Z" fill="#000"/>
</svg>
