<svg width="41" height="40" viewBox="0 0 41 40" fill="none" xmlns="http://www.w3.org/2000/svg">
<rect x="0.833008" width="40" height="40" rx="20" fill="#FFF9E1"/>
<rect x="1.33301" y="0.5" width="39" height="39" rx="19.5" stroke="#0C0C0E" stroke-opacity="0.05"/>
<path d="M23.5298 11.096C22.075 11.0126 19.5927 10.926 17.1453 11.1048C16.7473 11.1339 16.3659 11.2762 16.046 11.5147C15.7261 11.7532 15.4809 12.0781 15.3392 12.4512C14.1053 15.6947 13.5173 18.6863 13.2666 20.2715C13.1096 21.2659 13.8323 22.1527 14.8263 22.2206C15.6758 22.279 16.9237 22.3398 18.3801 22.3319C18.2252 23.5925 18.0635 25.2746 17.9026 27.0839C17.7592 28.7048 19.7083 29.6794 20.8684 28.4363C23.8469 25.2448 26.5775 21.6958 28.0745 19.6732C28.8985 18.5608 28.173 17.0042 26.7662 16.9676C25.9731 16.9477 25.1797 16.9414 24.3864 16.9489C24.6633 15.742 24.9136 14.4305 25.1436 13.1647C25.3304 12.1369 24.5942 11.1572 23.5298 11.096Z" fill="#FFC509"/>
</svg>
