<svg width="24" height="24" viewBox="0 0 24 24" fill="none" xmlns="http://www.w3.org/2000/svg">
<path fill-rule="evenodd" clip-rule="evenodd" d="M19.0142 18.3036C19.3261 18.3036 19.579 18.0507 19.579 17.7388V9.44933C19.579 9.13741 19.3261 8.88455 19.0142 8.88455L8.17412 8.88455C7.8622 8.88455 7.60934 9.13741 7.60934 9.44933L7.60934 17.7388C7.60934 18.0507 7.8622 18.3036 8.17412 18.3036H19.0142ZM21 17.7388C21 18.8355 20.1109 19.7246 19.0142 19.7246H8.17412C7.07738 19.7246 6.18829 18.8355 6.18829 17.7388L6.18829 9.44933C6.18829 8.35259 7.07738 7.4635 8.17412 7.4635L19.0142 7.4635C20.1109 7.4635 21 8.35259 21 9.44933V17.7388Z" fill="#000"/>
<path fill-rule="evenodd" clip-rule="evenodd" d="M4.98583 5.69644C4.83604 5.69644 4.69238 5.75594 4.58647 5.86186C4.48055 5.96778 4.42105 6.11143 4.42105 6.26122V15.826C4.42105 16.2184 4.10294 16.5365 3.71052 16.5365C3.31811 16.5365 3 16.2184 3 15.826V6.26122C3 5.73454 3.20922 5.22944 3.58163 4.85703C3.95405 4.48461 4.45915 4.27539 4.98583 4.27539H16.4635C16.8559 4.27539 17.1741 4.5935 17.1741 4.98592C17.1741 5.37833 16.8559 5.69644 16.4635 5.69644H4.98583Z" fill="#ff0"/>
<path fill-rule="evenodd" clip-rule="evenodd" d="M13.8423 13.9592C13.7706 13.9284 13.6933 13.9127 13.6153 13.9133C13.5373 13.9138 13.4603 13.9305 13.3891 13.9622C13.3178 13.994 13.254 14.0402 13.2015 14.0979L13.1919 14.1083L8.17992 19.4007C7.9101 19.6857 7.46039 19.6979 7.17546 19.4281C6.89053 19.1583 6.87829 18.7086 7.14811 18.4236L12.1557 13.1357C12.3393 12.9356 12.562 12.7752 12.8101 12.6645C13.0605 12.5528 13.3314 12.4941 13.6057 12.4922C13.8799 12.4904 14.1516 12.5453 14.4035 12.6537C14.6543 12.7615 14.8801 12.9198 15.0669 13.1188L20.1022 18.3962C20.373 18.6801 20.3625 19.1299 20.0786 19.4008C19.7946 19.6716 19.3449 19.6611 19.074 19.3772L14.0317 14.0923C13.9784 14.0353 13.9139 13.99 13.8423 13.9592Z" fill="#000"/>
</svg>
