<svg width="24" height="24" viewBox="0 0 24 24" fill="none" xmlns="http://www.w3.org/2000/svg">
<g clip-path="url(#clip0_1713_424)">
<path d="M2 2H22V22H2V2Z" fill="#012169"/>
<path d="M22 2V4.5L14.5781 12L22 19.3047V22H19.3828L11.9219 14.6562L4.65625 22H2V19.3438L9.26562 12.0391L2 4.89062V2H4.42188L11.9219 9.34375L19.1875 2H22Z" fill="white"/>
<path d="M9.1875 14.6562L9.61719 15.9844L3.64062 22H2V21.8828L9.1875 14.6562ZM14.0312 14.1875L16.1406 14.5L22 20.2422V22L14.0312 14.1875ZM22 2L14.5 9.65625L14.3438 7.9375L20.2031 2H22ZM2 2.03906L9.53906 9.42188L7.23438 9.10938L2 3.91406V2.03906Z" fill="#C8102E"/>
<path d="M8.875 2V22H15.125V2H8.875ZM2 8.875V15.125H22V8.875H2Z" fill="white"/>
<path d="M2 10.125V13.875H22V10.125H2ZM10.125 2V22H13.875V2H10.125Z" fill="#C8102E"/>
</g>
<defs>
<clipPath id="clip0_1713_424">
<rect x="2" y="2" width="20" height="20" rx="10" fill="white"/>
</clipPath>
</defs>
</svg>
