<svg width="24" height="24" viewBox="0 0 24 24" fill="none" xmlns="http://www.w3.org/2000/svg">
<path fill-rule="evenodd" clip-rule="evenodd" d="M4.98582 7.60952C4.67391 7.60952 4.42105 7.86238 4.42105 8.1743V12.0002C4.42105 12.3121 4.67391 12.565 4.98582 12.565H19.0141C19.326 12.565 19.5789 12.3121 19.5789 12.0002V8.1743C19.5789 7.86238 19.326 7.60952 19.0141 7.60952H4.98582ZM3 8.1743C3 7.07756 3.88908 6.18848 4.98582 6.18848H19.0141C20.1109 6.18848 20.9999 7.07756 20.9999 8.1743V12.0002C20.9999 13.0969 20.1109 13.986 19.0141 13.986H4.98582C3.88908 13.986 3 13.0969 3 12.0002V8.1743Z" fill="#0C0C0E"/>
<path fill-rule="evenodd" clip-rule="evenodd" d="M4.98591 12.5649C5.37833 12.5649 5.69644 12.8831 5.69644 13.2755V19.0143C5.69644 19.1641 5.75594 19.3078 5.86186 19.4137C5.96777 19.5196 6.11143 19.5791 6.26121 19.5791H17.7389C17.8887 19.5791 18.0324 19.5196 18.1383 19.4137C18.2442 19.3078 18.3037 19.1641 18.3037 19.0143V13.2755C18.3037 12.8831 18.6218 12.5649 19.0142 12.5649C19.4066 12.5649 19.7247 12.8831 19.7247 13.2755V19.0143C19.7247 19.541 19.5155 20.0461 19.1431 20.4185C18.7707 20.7909 18.2656 21.0001 17.7389 21.0001H6.26121C5.73454 21.0001 5.22944 20.7909 4.85702 20.4185C4.48461 20.0461 4.27539 19.541 4.27539 19.0143V13.2755C4.27539 12.8831 4.5935 12.5649 4.98591 12.5649Z" fill="#0C0C0E"/>
<path fill-rule="evenodd" clip-rule="evenodd" d="M12.0001 6.18848C12.3925 6.18848 12.7106 6.50659 12.7106 6.899V20.2896C12.7106 20.6821 12.3925 21.0002 12.0001 21.0002C11.6077 21.0002 11.2896 20.6821 11.2896 20.2896V6.899C11.2896 6.50659 11.6077 6.18848 12.0001 6.18848Z" fill="#0C0C0E"/>
<path fill-rule="evenodd" clip-rule="evenodd" d="M7.62808 3.25568C7.8793 2.95422 8.32733 2.91349 8.62879 3.1647L11.9998 5.9739L15.3709 3.1647C15.6723 2.91349 16.1203 2.95422 16.3716 3.25568C16.6228 3.55713 16.582 4.00517 16.2806 4.25638L12.4547 7.44463C12.1912 7.66421 11.8084 7.66421 11.545 7.44463L7.71905 4.25638C7.4176 4.00517 7.37687 3.55713 7.62808 3.25568Z" fill="#0C0C0E"/>
</svg>
