<svg width="24" height="24" viewBox="0 0 24 24" fill="none" xmlns="http://www.w3.org/2000/svg">
<path fill-rule="evenodd" clip-rule="evenodd" d="M2 11.9999C2 11.5639 2.35346 11.2104 2.78947 11.2104H21.2105C21.6465 11.2104 22 11.5639 22 11.9999C22 12.4359 21.6465 12.7894 21.2105 12.7894H2.78947C2.35346 12.7894 2 12.4359 2 11.9999Z" fill="#ff0"/>
<path fill-rule="evenodd" clip-rule="evenodd" d="M12 3.57895C7.34918 3.57895 3.57895 7.34918 3.57895 12C3.57895 16.6508 7.34918 20.4211 12 20.4211C16.6508 20.4211 20.4211 16.6508 20.4211 12C20.4211 7.34918 16.6508 3.57895 12 3.57895ZM2 12C2 6.47715 6.47715 2 12 2C17.5228 2 22 6.47715 22 12C22 17.5228 17.5228 22 12 22C6.47715 22 2 17.5228 2 12Z" fill="#000"/>
<path fill-rule="evenodd" clip-rule="evenodd" d="M12 2C12.2376 2 12.4626 2.10703 12.6125 2.29138C14.846 5.03803 16.1482 8.42381 16.3309 11.9593L15.5425 12L16.3309 12.0407C16.1482 15.5762 14.846 18.962 12.6125 21.7086C12.4626 21.893 12.2376 22 12 22C11.7623 22 11.5374 21.893 11.3874 21.7086C9.15389 18.962 7.85167 15.5762 7.66902 12.0407C7.66762 12.0136 7.66762 11.9864 7.66902 11.9593C7.85167 8.42381 9.15389 5.03803 11.3874 2.29138C11.5374 2.10703 11.7623 2 12 2ZM14.7519 12C14.597 9.15184 13.6397 6.41254 12 4.09461C10.3602 6.41254 9.40287 9.15184 9.24802 12C9.40287 14.8482 10.3602 17.5875 12 19.9054C13.6397 17.5875 14.597 14.8482 14.7519 12Z" fill="#000"/>
</svg>
