<svg width="32" height="32" viewBox="0 0 32 32" fill="none" xmlns="http://www.w3.org/2000/svg">
<rect width="32" height="32" rx="16" fill="#FFF8E5"/>
<path d="M10.75 6.5H21.25V9.25C21.25 10.82 20.56 12.23 19.467 13.192C21.3393 13.9759 22.8928 15.3678 23.877 17.143L24.092 17.531C23.0572 17.4188 22.0118 17.6025 21.0772 18.0609C20.1427 18.5192 19.3574 19.2334 18.8126 20.1203C18.2678 21.0072 17.9859 22.0306 17.9996 23.0714C18.0133 24.1122 18.322 25.1277 18.89 26H11C9.93913 26 8.92172 25.5786 8.17157 24.8284C7.42143 24.0783 7 23.0609 7 22V21.5C6.99949 19.7237 7.5246 17.9871 8.50919 16.5087C9.49378 15.0303 10.8938 13.8763 12.533 13.192C11.9723 12.6998 11.5232 12.0934 11.2157 11.4136C10.9082 10.7338 10.7494 9.99613 10.75 9.25V6.5Z" fill="#FFB800"/>
<path d="M27 22V20H20V22H27ZM27 26V24H20V26H27Z" fill="#FFB800"/>
</svg>
