<svg width="24" height="24" viewBox="0 0 24 24" fill="none" xmlns="http://www.w3.org/2000/svg">
<path fill-rule="evenodd" clip-rule="evenodd" d="M14.49 7.50004C14.49 7.10792 14.8079 6.79004 15.2 6.79004H20.3C20.6921 6.79004 21.01 7.10792 21.01 7.50004V12.7381C21.01 13.1303 20.6921 13.4481 20.3 13.4481C19.9079 13.4481 19.59 13.1303 19.59 12.7381V9.19821L13.1987 15.5054C12.9315 15.7691 12.5052 15.7792 12.2258 15.5285L8.82146 12.4733L4.19704 17.007C3.91704 17.2815 3.46751 17.2771 3.193 16.9971C2.91849 16.7171 2.92294 16.2676 3.20294 15.993L8.30295 10.993C8.57038 10.7309 8.99548 10.7215 9.27421 10.9716L12.6769 14.0253L18.5697 8.21004H15.2C14.8079 8.21004 14.49 7.89216 14.49 7.50004Z" fill="#000"/>
</svg>
