<svg width="48" height="48" viewBox="0 0 48 48" fill="none" xmlns="http://www.w3.org/2000/svg">
<path d="M27.2412 14.3723L33.4411 8.31186C33.9474 7.80555 34.7661 7.80555 35.2724 8.31186C35.5244 8.56386 35.6528 8.89478 35.6509 9.22755C35.6509 9.55847 35.5249 9.89124 35.2724 10.1432L29.5849 15.8308" stroke="#0000FF" stroke-width="1.125" stroke-linecap="round" stroke-linejoin="round"/>
<path d="M26.9929 16.3664L27.753 10.258C27.753 9.54258 27.1733 8.96289 26.4579 8.96289C25.7425 8.96289 25.1098 9.45766 24.9049 10.1841L22.5381 19.2141L29.2101 25.8861L35.415 20.9869C35.9209 20.481 35.9209 19.6614 35.415 19.1555C34.9092 18.6497 34.0895 18.6497 33.5836 19.1555L33.2462 19.4929" stroke="#0000FF" stroke-width="1.125" stroke-linecap="round" stroke-linejoin="round"/>
<path d="M29.584 15.8305L31.4804 13.9341C31.9863 13.4282 32.806 13.4282 33.3118 13.9341C33.8177 14.4399 33.8177 15.2596 33.3118 15.7655L31.4154 17.6619" stroke="#0000FF" stroke-width="1.125" stroke-linecap="round" stroke-linejoin="round"/>
<path d="M31.4155 17.6618L32.3312 16.7461C32.8371 16.2402 33.6568 16.2402 34.1626 16.7461C34.6684 17.2519 34.6684 18.0716 34.1626 18.5775L33.2469 19.4932" stroke="#0000FF" stroke-width="1.125" stroke-linecap="round" stroke-linejoin="round"/>
<path d="M29.2083 25.8846L22.5386 19.2148L20.0106 21.7428L26.6804 28.4126L29.2083 25.8846Z" fill="#FF8800" stroke="#0000FF" stroke-width="1.125" stroke-linecap="round" stroke-linejoin="round"/>
<path d="M17.6719 38.0738L10.3496 30.751L20.011 21.7427L26.6807 28.4124L17.6719 38.0738Z" stroke="#0000FF" stroke-width="1.125" stroke-linecap="round" stroke-linejoin="round"/>
<path d="M13.0308 20.984C15.9996 20.984 18.4064 18.5773 18.4064 15.6084C18.4064 12.6396 15.9996 10.2329 13.0308 10.2329C10.062 10.2329 7.65527 12.6396 7.65527 15.6084C7.65527 18.5773 10.062 20.984 13.0308 20.984Z" fill="#FF8800"/>
<path d="M11.0166 15.7997L12.2263 16.9517L15.0486 14.2642" stroke="white" stroke-width="1.125" stroke-linecap="round" stroke-linejoin="round"/>
<path d="M25.7007 33.9118C26.4788 32.8018 27.7001 31.966 28.9665 31.7398C32.3404 31.1375 35.5061 34.4255 34.9153 37.7656C34.313 41.1723 29.1018 40.6572 29.8259 37.1453C30.0156 36.2255 30.6202 35.4404 31.3176 34.8118C33.7162 32.6495 37.4842 31.9849 40.3444 33.6243" stroke="#FF8800" stroke-width="1.125" stroke-linecap="round" stroke-linejoin="round"/>
<path d="M35.2315 29.1554C35.6126 29.1554 35.9215 28.8465 35.9215 28.4654C35.9215 28.0843 35.6126 27.7754 35.2315 27.7754C34.8504 27.7754 34.5415 28.0843 34.5415 28.4654C34.5415 28.8465 34.8504 29.1554 35.2315 29.1554Z" fill="#0000FF" stroke="#0000FF" stroke-width="1.125" stroke-linecap="round" stroke-linejoin="round"/>
<path d="M11.0162 25.1935C11.3972 25.1935 11.7062 24.8846 11.7062 24.5035C11.7062 24.1224 11.3972 23.8135 11.0162 23.8135C10.6351 23.8135 10.3262 24.1224 10.3262 24.5035C10.3262 24.8846 10.6351 25.1935 11.0162 25.1935Z" fill="#0000FF" stroke="#0000FF" stroke-width="1.125" stroke-linecap="round" stroke-linejoin="round"/>
<path d="M25.7497 38.0736C26.0041 38.0736 26.2103 37.8674 26.2103 37.613C26.2103 37.3586 26.0041 37.1523 25.7497 37.1523C25.4953 37.1523 25.2891 37.3586 25.2891 37.613C25.2891 37.8674 25.4953 38.0736 25.7497 38.0736Z" fill="#0000FF" stroke="#0000FF" stroke-width="1.125" stroke-linecap="round" stroke-linejoin="round"/>
</svg>
