<svg width="32" height="32" viewBox="0 0 32 32" fill="none" xmlns="http://www.w3.org/2000/svg">
<path d="M28.9921 12.9152V14.7072C28.0321 13.9392 26.8801 13.4145 25.6257 13.2096V12.9152C25.6257 7.65445 21.3377 3.36641 16.0641 3.36641C10.8033 3.36641 6.51534 7.65445 6.51534 12.9152V13.184C5.26088 13.3632 4.10893 13.8624 3.14893 14.6048V12.9152C3.14893 5.79844 8.94729 0 16.0641 0C23.1937 0 28.9921 5.79844 28.9921 12.9152ZM9.63391 25.2322V15.7671C9.63391 14.9971 9.00976 14.373 8.23983 14.373H7.61443C4.23078 14.373 1.48779 17.116 1.48779 20.4996C1.48779 23.8833 4.23078 26.6263 7.61443 26.6263H8.23983C9.00976 26.6263 9.63391 26.0021 9.63391 25.2322ZM23.7604 26.6263H24.3858C27.7694 26.6263 30.5124 23.8833 30.5124 20.4996C30.5124 17.116 27.7694 14.373 24.3858 14.373H23.7604C22.9904 14.373 22.3663 14.9972 22.3663 15.7671V25.2322C22.3663 26.0021 22.9904 26.6263 23.7604 26.6263ZM15.9233 28.608H12.9409C12.2369 28.608 11.6225 29.0432 11.3793 29.6577H9.90729C8.40971 29.6577 7.09128 28.9152 6.28487 27.776C5.68331 27.6736 5.09448 27.4816 4.5569 27.2256C5.36331 29.3888 7.46253 30.9377 9.90729 30.9377H11.3793C11.6225 31.5648 12.2369 32 12.9409 32H15.9233C16.8577 32 17.6257 31.232 17.6257 30.2977C17.6257 29.3632 16.8577 28.608 15.9233 28.608Z" fill="#0000FF"/>
</svg>
