<svg width="24" height="24" viewBox="0 0 24 24" fill="none" xmlns="http://www.w3.org/2000/svg">
<path fill-rule="evenodd" clip-rule="evenodd" d="M4.36998 5.05237C6.42566 3.09024 9.1591 1.99686 12.0009 2.00001L12 2.78908V2.00001C12.0003 2.00001 12.0006 2.00001 12.0009 2.00001C13.9784 2.00018 15.9114 2.58665 17.5557 3.68529C19.2001 4.7841 20.4819 6.34587 21.2387 8.17311C21.9956 10.0004 22.1936 12.011 21.8078 13.9508C21.4219 15.8906 20.4695 17.6724 19.071 19.0709C17.6725 20.4694 15.8907 21.4218 13.9509 21.8077C12.0111 22.1935 10.0005 21.9955 8.17323 21.2386C6.34598 20.4817 4.78421 19.2 3.68541 17.5556C2.58661 15.9111 2.00012 13.9777 2.00012 11.9999C2.00012 11.5639 2.35358 11.2104 2.78959 11.2104C3.2256 11.2104 3.57905 11.5639 3.57905 11.9999C3.57905 13.6654 4.07294 15.2935 4.99824 16.6783C5.92355 18.0632 7.23873 19.1425 8.77746 19.7799C10.3162 20.4172 12.0094 20.584 13.6429 20.2591C15.2764 19.9341 16.7769 19.1321 17.9545 17.9544C19.1322 16.7767 19.9343 15.2763 20.2592 13.6428C20.5841 12.0092 20.4173 10.3161 19.78 8.77734C19.1426 7.23861 18.0633 5.92344 16.6785 4.99813C15.2936 4.07282 13.6655 3.57894 12 3.57894L11.9991 3.57894C9.564 3.57624 7.22169 4.51317 5.46017 6.19453C5.14477 6.49558 4.64504 6.48394 4.34399 6.16854C4.04295 5.85315 4.05458 5.35342 4.36998 5.05237Z" fill="#0C0C0E"/>
<path fill-rule="evenodd" clip-rule="evenodd" d="M5.81505 2.02376C6.23804 2.12951 6.49522 2.55813 6.38947 2.98113L5.87245 5.04921L7.94053 5.56623C8.36353 5.67198 8.6207 6.10061 8.51496 6.5236C8.40921 6.94659 7.98058 7.20377 7.55759 7.09802L4.72361 6.38953C4.30061 6.28378 4.04344 5.85515 4.14919 5.43216L4.85768 2.59818C4.96343 2.17519 5.39206 1.91801 5.81505 2.02376Z" fill="#0C0C0E"/>
<path fill-rule="evenodd" clip-rule="evenodd" d="M12 6.25098C12.436 6.25098 12.7895 6.60443 12.7895 7.04044V12.7084C12.7895 13.0074 12.6205 13.2808 12.3531 13.4145L8.66888 15.2566C8.2789 15.4516 7.80469 15.2935 7.6097 14.9036C7.41471 14.5136 7.57278 14.0394 7.96276 13.8444L11.2105 12.2205V7.04044C11.2105 6.60443 11.564 6.25098 12 6.25098Z" fill="#107ED9"/>
</svg>
