<svg width="24" height="24" viewBox="0 0 24 24" fill="none" xmlns="http://www.w3.org/2000/svg">
<path fill-rule="evenodd" clip-rule="evenodd" d="M11.4976 3.20811C11.7751 2.93063 12.2249 2.93063 12.5024 3.20811L20.7919 11.4976C21.0694 11.7751 21.0694 12.2249 20.7919 12.5024C20.5144 12.7799 20.0645 12.7799 19.7871 12.5024L12 4.71536L4.21294 12.5024C3.93547 12.7799 3.48559 12.7799 3.20811 12.5024C2.93063 12.2249 2.93063 11.7751 3.20811 11.4976L11.4976 3.20811Z" fill="#000"/>
<path fill-rule="evenodd" clip-rule="evenodd" d="M6.26106 13.2026C6.65348 13.2026 6.97159 13.5208 6.97159 13.9132V19.5792H17.0283V13.9132C17.0283 13.5208 17.3464 13.2026 17.7388 13.2026C18.1312 13.2026 18.4493 13.5208 18.4493 13.9132V20.2897C18.4493 20.6821 18.1312 21.0002 17.7388 21.0002H6.26106C5.86865 21.0002 5.55054 20.6821 5.55054 20.2897V13.9132C5.55054 13.5208 5.86865 13.2026 6.26106 13.2026Z" fill="#000"/>
</svg>
