<svg width="56" height="56" viewBox="0 0 56 56" fill="none" xmlns="http://www.w3.org/2000/svg">
<rect width="56" height="56" rx="28" fill="#F3F4F6"/>
<path fill-rule="evenodd" clip-rule="evenodd" d="M11.3337 18.4762C11.3337 17.1612 12.3997 16.0952 13.7147 16.0952H42.2861C43.6011 16.0952 44.6671 17.1612 44.6671 18.4762V37.5238C44.6671 38.8388 43.6011 39.9047 42.2861 39.9047H13.7147C12.3997 39.9047 11.3337 38.8388 11.3337 37.5238V18.4762ZM25.6195 24.4285C25.6195 26.401 24.0205 28 22.048 28C20.0756 28 18.4766 26.401 18.4766 24.4285C18.4766 22.4561 20.0756 20.8571 22.048 20.8571C24.0205 20.8571 25.6195 22.4561 25.6195 24.4285ZM15.0162 33.4814C16.7577 31.5761 19.2632 30.3809 22.048 30.3809C24.8326 30.3809 27.3382 31.5761 29.0797 33.4814C29.6982 34.1582 29.1505 35.1428 28.2337 35.1428H15.8622C14.9453 35.1428 14.3977 34.1582 15.0162 33.4814ZM32.4646 24.4286C32.4646 23.6068 33.1309 22.9405 33.9527 22.9405H38.7147C39.5364 22.9405 40.2028 23.6068 40.2028 24.4286C40.2028 25.2505 39.5364 25.9167 38.7147 25.9167H33.9527C33.1309 25.9167 32.4646 25.2505 32.4646 24.4286ZM33.9527 30.0834C33.1309 30.0834 32.4646 30.7496 32.4646 31.5715C32.4646 32.3933 33.1309 33.0596 33.9527 33.0596H38.7147C39.5364 33.0596 40.2028 32.3933 40.2028 31.5715C40.2028 30.7496 39.5364 30.0834 38.7147 30.0834H33.9527Z" fill="url(#paint0_linear_13484_52334)"/>
<defs>
<linearGradient id="paint0_linear_13484_52334" x1="21.7877" y1="71.3673" x2="74.1541" y2="43.2693" gradientUnits="userSpaceOnUse">
<stop stop-color="#0700FB"/>
<stop offset="0.139576" stop-color="#1B00F0"/>
<stop offset="0.3" stop-color="#3C00DE"/>
<stop offset="0.409572" stop-color="#6900C5"/>
<stop offset="0.511558" stop-color="#A300A5"/>
<stop offset="0.61" stop-color="#D71279"/>
<stop offset="0.701125" stop-color="#F46A1F"/>
<stop offset="0.773041" stop-color="#FFB000"/>
<stop offset="1" stop-color="#FFB800"/>
</linearGradient>
</defs>
</svg>
