<svg width="24" height="24" viewBox="0 0 24 24" fill="none" xmlns="http://www.w3.org/2000/svg">
<path fill-rule="evenodd" clip-rule="evenodd" d="M4.00526 6.08139C3.76982 6.08139 3.57895 6.27226 3.57895 6.5077V17.4923C3.57895 17.7278 3.76981 17.9186 4.00526 17.9186H19.9947C20.2302 17.9186 20.4211 17.7278 20.4211 17.4923V6.5077C20.4211 6.27226 20.2302 6.08139 19.9947 6.08139H4.00526ZM2 6.5077C2 5.40023 2.89779 4.50244 4.00526 4.50244H19.9947C21.1022 4.50244 22 5.40023 22 6.5077V17.4923C22 18.5998 21.1022 19.4976 19.9947 19.4976H4.00526C2.89779 19.4976 2 18.5998 2 17.4923V6.5077Z" fill="#0C0C0E"/>
<path fill-rule="evenodd" clip-rule="evenodd" d="M14.5537 10.4125C14.5537 9.97651 14.9072 9.62305 15.3432 9.62305H18.1585C18.5946 9.62305 18.948 9.97651 18.948 10.4125C18.948 10.8485 18.5946 11.202 18.1585 11.202H15.3432C14.9072 11.202 14.5537 10.8485 14.5537 10.4125Z" fill="#0000F5"/>
<path fill-rule="evenodd" clip-rule="evenodd" d="M14.5537 13.2026C14.5537 12.7665 14.9072 12.4131 15.3432 12.4131H18.1585C18.5946 12.4131 18.948 12.7665 18.948 13.2026C18.948 13.6386 18.5946 13.992 18.1585 13.992H15.3432C14.9072 13.992 14.5537 13.6386 14.5537 13.2026Z" fill="#0000F5"/>
<path fill-rule="evenodd" clip-rule="evenodd" d="M6.26123 10.8772C6.26123 9.1571 7.65563 7.7627 9.37572 7.7627C11.0958 7.7627 12.4902 9.1571 12.4902 10.8772C12.4902 12.1637 11.7104 13.2662 10.6008 13.7413L10.6008 13.7413C10.2238 13.9027 9.80912 13.9917 9.37572 13.9917C7.65564 13.9917 6.26123 12.5973 6.26123 10.8772ZM9.37572 9.34164C8.52766 9.34164 7.84018 10.0291 7.84018 10.8772C7.84018 11.7252 8.52766 12.4127 9.37572 12.4127C9.59157 12.4127 9.79508 12.3686 9.97934 12.2898L10.2823 12.9973L9.97934 12.2898C9.97934 12.2898 9.97934 12.2898 9.97934 12.2898C10.5288 12.0545 10.9113 11.5096 10.9113 10.8772C10.9113 10.0291 10.2238 9.34164 9.37572 9.34164Z" fill="#0C0C0E"/>
<path fill-rule="evenodd" clip-rule="evenodd" d="M9.37653 13.993C8.82571 13.993 8.27625 14.1567 7.77985 14.4798C7.28219 14.8038 6.8517 15.2795 6.54017 15.872C6.33726 16.2579 5.85992 16.4063 5.47399 16.2034C5.08807 16.0005 4.93971 15.5232 5.14261 15.1372C5.56999 14.3244 6.17794 13.6386 6.91849 13.1565C7.6603 12.6737 8.50715 12.4141 9.37653 12.4141C10.2459 12.4141 11.0928 12.6737 11.8346 13.1565C12.5751 13.6386 13.1831 14.3244 13.6105 15.1372C13.8134 15.5232 13.665 16.0005 13.2791 16.2034C12.8931 16.4063 12.4158 16.2579 12.2129 15.872C11.9014 15.2795 11.4709 14.8038 10.9732 14.4798C10.4768 14.1567 9.92734 13.993 9.37653 13.993Z" fill="#0C0C0E"/>
</svg>
