<svg width="24" height="25" viewBox="0 0 24 25" fill="none" xmlns="http://www.w3.org/2000/svg">
<path fill-rule="evenodd" clip-rule="evenodd" d="M15.8256 12.2454L12.0152 21.1403C11.8607 21.501 11.443 21.6682 11.0823 21.5137C10.7216 21.3592 10.5544 20.9415 10.709 20.5808L14.7123 11.2354C14.8042 11.017 14.9584 10.8304 15.1556 10.699C15.354 10.5667 15.5871 10.4961 15.8256 10.4961C16.0641 10.4961 16.2972 10.5667 16.4956 10.699C16.6928 10.8304 16.847 11.017 16.9389 11.2355L20.9422 20.5808C21.0967 20.9415 20.9296 21.3592 20.5689 21.5137C20.2082 21.6682 19.7905 21.501 19.636 21.1403L15.8256 12.2454Z" fill="#0000F5"/>
<path fill-rule="evenodd" clip-rule="evenodd" d="M12.4497 16.6646C12.4497 16.2722 12.7678 15.9541 13.1602 15.9541H18.4909C18.8834 15.9541 19.2015 16.2722 19.2015 16.6646C19.2015 17.057 18.8834 17.3751 18.4909 17.3751H13.1602C12.7678 17.3751 12.4497 17.057 12.4497 16.6646Z" fill="#0000F5"/>
<path fill-rule="evenodd" clip-rule="evenodd" d="M3 6.83259C3 6.44018 3.31811 6.12207 3.71052 6.12207H15.1881C15.5805 6.12207 15.8987 6.44018 15.8987 6.83259C15.8987 7.225 15.5805 7.54311 15.1881 7.54311H3.71052C3.31811 7.54311 3 7.225 3 6.83259Z" fill="#0C0C0E"/>
<path fill-rule="evenodd" clip-rule="evenodd" d="M9.44929 3.57129C9.8417 3.57129 10.1598 3.8894 10.1598 4.28181V6.83239C10.1598 7.2248 9.8417 7.54291 9.44929 7.54291C9.05688 7.54291 8.73877 7.2248 8.73877 6.83239V4.28181C8.73877 3.8894 9.05688 3.57129 9.44929 3.57129Z" fill="#0C0C0E"/>
<path fill-rule="evenodd" clip-rule="evenodd" d="M13.7378 6.29314C14.0357 6.54851 14.0702 6.99706 13.8148 7.295L6.16308 16.222C5.90771 16.52 5.45916 16.5545 5.16122 16.2991C4.86328 16.0437 4.82878 15.5952 5.08415 15.2972L12.7359 6.3702C12.9913 6.07226 13.4398 6.03776 13.7378 6.29314Z" fill="#0C0C0E"/>
<path fill-rule="evenodd" clip-rule="evenodd" d="M5.16141 6.29297C5.45944 6.0377 5.90798 6.07237 6.16325 6.3704L11.1879 12.2367C11.4432 12.5348 11.4085 12.9833 11.1105 13.2386C10.8124 13.4938 10.3639 13.4592 10.1086 13.1611L5.08399 7.29481C4.82872 6.99678 4.86338 6.54824 5.16141 6.29297Z" fill="#0C0C0E"/>
</svg>
