<svg width="25" height="24" viewBox="0 0 25 24" fill="none" xmlns="http://www.w3.org/2000/svg">
<path fill-rule="evenodd" clip-rule="evenodd" d="M19.2642 18.3036C19.5761 18.3036 19.829 18.0508 19.829 17.7388V9.44939C19.829 9.13747 19.5761 8.88461 19.2642 8.88461L8.42412 8.88461C8.1122 8.88461 7.85934 9.13747 7.85934 9.44939L7.85934 17.7388C7.85934 18.0508 8.1122 18.3036 8.42412 18.3036H19.2642ZM21.25 17.7388C21.25 18.8356 20.3609 19.7247 19.2642 19.7247H8.42412C7.32738 19.7247 6.43829 18.8356 6.43829 17.7388L6.43829 9.44939C6.43829 8.35265 7.32738 7.46356 8.42412 7.46356L19.2642 7.46356C20.3609 7.46356 21.25 8.35265 21.25 9.44939V17.7388Z" fill="#000"/>
<path fill-rule="evenodd" clip-rule="evenodd" d="M5.23583 5.69638C5.08604 5.69638 4.94238 5.75588 4.83647 5.8618C4.73055 5.96771 4.67105 6.11137 4.67105 6.26116V15.8259C4.67105 16.2183 4.35294 16.5364 3.96052 16.5364C3.56811 16.5364 3.25 16.2183 3.25 15.8259V6.26116C3.25 5.73448 3.45922 5.22938 3.83163 4.85696C4.20405 4.48455 4.70915 4.27533 5.23583 4.27533H16.7135C17.1059 4.27533 17.4241 4.59344 17.4241 4.98585C17.4241 5.37827 17.1059 5.69638 16.7135 5.69638H5.23583Z" fill="#FF0"/>
<path fill-rule="evenodd" clip-rule="evenodd" d="M14.0923 13.9592C14.0206 13.9284 13.9433 13.9127 13.8653 13.9133C13.7873 13.9138 13.7103 13.9305 13.6391 13.9622C13.5678 13.994 13.504 14.0402 13.4515 14.0979L13.4419 14.1083L8.42992 19.4007C8.1601 19.6857 7.71039 19.6979 7.42546 19.4281C7.14053 19.1583 7.12829 18.7086 7.39811 18.4236L12.4057 13.1357C12.5893 12.9356 12.812 12.7752 13.0601 12.6645C13.3105 12.5528 13.5814 12.4941 13.8557 12.4922C14.1299 12.4904 14.4016 12.5453 14.6535 12.6537C14.9043 12.7615 15.1301 12.9198 15.3169 13.1188L20.3522 18.3962C20.623 18.6801 20.6125 19.1299 20.3286 19.4008C20.0446 19.6716 19.5949 19.6611 19.324 19.3772L14.2817 14.0923C14.2284 14.0353 14.1639 13.99 14.0923 13.9592Z" fill="#000"/>
</svg>
