<svg width="20" height="16" viewBox="0 0 20 16" fill="none" xmlns="http://www.w3.org/2000/svg">
<g id="Group">
<path id="Vector 1 (Stroke)" fill-rule="evenodd" clip-rule="evenodd" d="M10 1.54163C10.3452 1.54163 10.625 1.82145 10.625 2.16663V4.66663C10.625 5.0118 10.3452 5.29162 10 5.29162C9.65482 5.29162 9.375 5.0118 9.375 4.66663V2.16663C9.375 1.82145 9.65482 1.54163 10 1.54163Z" fill="#0000F5"/>
<path id="Vector 2 (Stroke)" fill-rule="evenodd" clip-rule="evenodd" d="M2.05752 5.05859C2.30125 4.81416 2.69698 4.8136 2.9414 5.05733L4.71169 6.82257C4.95612 7.0663 4.95668 7.46203 4.71295 7.70645C4.46922 7.95088 4.07349 7.95144 3.82907 7.70771L2.05878 5.94247C1.81436 5.69874 1.81379 5.30301 2.05752 5.05859Z" fill="#0000F5"/>
<path id="Vector 3 (Stroke)" fill-rule="evenodd" clip-rule="evenodd" d="M18.046 5.05859C17.8023 4.81416 17.4065 4.8136 17.1621 5.05733L15.3918 6.82257C15.1474 7.0663 15.1468 7.46203 15.3906 7.70645C15.6343 7.95088 16.03 7.95144 16.2744 7.70771L18.0447 5.94247C18.2892 5.69874 18.2897 5.30301 18.046 5.05859Z" fill="#0000F5"/>
<g id="Group_2">
<path id="Vector (Stroke)" fill-rule="evenodd" clip-rule="evenodd" d="M12.5251 7.85499C12.8353 8.09872 12.8892 8.54775 12.6454 8.85795L8.0621 14.6913C7.81838 15.0015 7.36934 15.0554 7.05915 14.8116C6.74895 14.5679 6.69507 14.1189 6.93879 13.8087L11.5221 7.97535C11.7658 7.66515 12.2149 7.61127 12.5251 7.85499Z" fill="#0000F5"/>
<path id="Vector (Stroke)_2" fill-rule="evenodd" clip-rule="evenodd" d="M5.28142 2.04037C6.7329 1.26356 8.35372 0.857117 10 0.857117C11.6463 0.857117 13.2671 1.26356 14.7186 2.04037C16.1701 2.81718 17.4073 3.94033 18.3205 5.31011C19.2337 6.6799 19.7946 8.25396 19.9534 9.89256C20.1122 11.5312 19.864 13.1836 19.2308 14.7033C19.1199 14.9694 18.8598 15.1428 18.5714 15.1428H1.42857C1.14022 15.1428 0.88014 14.9694 0.769233 14.7033C0.136049 13.1836 -0.112163 11.5312 0.0466296 9.89256C0.205422 8.25396 0.766308 6.6799 1.6795 5.31011C2.59269 3.94033 3.82994 2.81718 5.28142 2.04037ZM10 2.28569C8.5889 2.28569 7.19963 2.63407 5.9555 3.29991C4.71138 3.96574 3.65088 4.92844 2.86814 6.10254C2.08541 7.27665 1.60465 8.62583 1.46854 10.0304C1.3476 11.2783 1.5021 12.5357 1.91878 13.7143H18.0812C18.4979 12.5357 18.6524 11.2783 18.5315 10.0304C18.3954 8.62583 17.9146 7.27665 17.1319 6.10254C16.3491 4.92844 15.2886 3.96574 14.0445 3.29991C12.8004 2.63407 11.4111 2.28569 10 2.28569Z" fill="#0C0C0E"/>
</g>
</g>
</svg>
