<svg width="24" height="24" viewBox="0 0 24 24" fill="none" xmlns="http://www.w3.org/2000/svg">
<path fill-rule="evenodd" clip-rule="evenodd" d="M5.62348 4.42105C4.9594 4.42105 4.42105 4.9594 4.42105 5.62348C4.42105 6.28757 4.9594 6.82591 5.62348 6.82591C6.28757 6.82591 6.82591 6.28757 6.82591 5.62348C6.82591 4.9594 6.28757 4.42105 5.62348 4.42105ZM3 5.62348C3 4.17457 4.17457 3 5.62348 3C7.07239 3 8.24696 4.17457 8.24696 5.62348C8.24696 7.07239 7.07239 8.24696 5.62348 8.24696C4.17457 8.24696 3 7.07239 3 5.62348Z" fill="#0C0C0E"/>
<path fill-rule="evenodd" clip-rule="evenodd" d="M5.62348 10.798C4.9594 10.798 4.42105 11.3364 4.42105 12.0004C4.42105 12.6645 4.9594 13.2029 5.62348 13.2029C6.28757 13.2029 6.82591 12.6645 6.82591 12.0004C6.82591 11.3364 6.28757 10.798 5.62348 10.798ZM3 12.0004C3 10.5515 4.17457 9.37695 5.62348 9.37695C7.07239 9.37695 8.24696 10.5515 8.24696 12.0004C8.24696 13.4493 7.07239 14.6239 5.62348 14.6239C4.17457 14.6239 3 13.4493 3 12.0004Z" fill="#FF7300"/>
<path fill-rule="evenodd" clip-rule="evenodd" d="M11.9999 4.42105C11.3359 4.42105 10.7975 4.9594 10.7975 5.62348C10.7975 6.28757 11.3359 6.82591 11.9999 6.82591C12.664 6.82591 13.2024 6.28757 13.2024 5.62348C13.2024 4.9594 12.664 4.42105 11.9999 4.42105ZM9.37646 5.62348C9.37646 4.17457 10.551 3 11.9999 3C13.4489 3 14.6234 4.17457 14.6234 5.62348C14.6234 7.07239 13.4489 8.24696 11.9999 8.24696C10.551 8.24696 9.37646 7.07239 9.37646 5.62348Z" fill="#0C0C0E"/>
<path fill-rule="evenodd" clip-rule="evenodd" d="M11.9999 10.798C11.3359 10.798 10.7975 11.3364 10.7975 12.0004C10.7975 12.6645 11.3359 13.2029 11.9999 13.2029C12.664 13.2029 13.2024 12.6645 13.2024 12.0004C13.2024 11.3364 12.664 10.798 11.9999 10.798ZM9.37646 12.0004C9.37646 10.5515 10.551 9.37695 11.9999 9.37695C13.4489 9.37695 14.6234 10.5515 14.6234 12.0004C14.6234 13.4493 13.4489 14.6239 11.9999 14.6239C10.551 14.6239 9.37646 13.4493 9.37646 12.0004Z" fill="#FF7300"/>
<path fill-rule="evenodd" clip-rule="evenodd" d="M11.9999 17.175C11.3359 17.175 10.7975 17.7133 10.7975 18.3774C10.7975 19.0415 11.3359 19.5798 11.9999 19.5798C12.664 19.5798 13.2024 19.0415 13.2024 18.3774C13.2024 17.7133 12.664 17.175 11.9999 17.175ZM9.37646 18.3774C9.37646 16.9285 10.551 15.7539 11.9999 15.7539C13.4489 15.7539 14.6234 16.9285 14.6234 18.3774C14.6234 19.8263 13.4489 21.0009 11.9999 21.0009C10.551 21.0009 9.37646 19.8263 9.37646 18.3774Z" fill="#0C0C0E"/>
<path fill-rule="evenodd" clip-rule="evenodd" d="M18.3764 4.42105C17.7123 4.42105 17.174 4.9594 17.174 5.62348C17.174 6.28757 17.7123 6.82591 18.3764 6.82591C19.0405 6.82591 19.5788 6.28757 19.5788 5.62348C19.5788 4.9594 19.0405 4.42105 18.3764 4.42105ZM15.7529 5.62348C15.7529 4.17457 16.9275 3 18.3764 3C19.8253 3 20.9999 4.17457 20.9999 5.62348C20.9999 7.07239 19.8253 8.24696 18.3764 8.24696C16.9275 8.24696 15.7529 7.07239 15.7529 5.62348Z" fill="#0C0C0E"/>
<path fill-rule="evenodd" clip-rule="evenodd" d="M18.3764 10.798C17.7123 10.798 17.174 11.3364 17.174 12.0004C17.174 12.6645 17.7123 13.2029 18.3764 13.2029C19.0405 13.2029 19.5788 12.6645 19.5788 12.0004C19.5788 11.3364 19.0405 10.798 18.3764 10.798ZM15.7529 12.0004C15.7529 10.5515 16.9275 9.37695 18.3764 9.37695C19.8253 9.37695 20.9999 10.5515 20.9999 12.0004C20.9999 13.4493 19.8253 14.6239 18.3764 14.6239C16.9275 14.6239 15.7529 13.4493 15.7529 12.0004Z" fill="#FF7300"/>
<path fill-rule="evenodd" clip-rule="evenodd" d="M5.62348 17.175C4.9594 17.175 4.42105 17.7133 4.42105 18.3774C4.42105 19.0415 4.9594 19.5798 5.62348 19.5798C6.28757 19.5798 6.82591 19.0415 6.82591 18.3774C6.82591 17.7133 6.28757 17.175 5.62348 17.175ZM3 18.3774C3 16.9285 4.17457 15.7539 5.62348 15.7539C7.07239 15.7539 8.24696 16.9285 8.24696 18.3774C8.24696 19.8263 7.07239 21.0009 5.62348 21.0009C4.17457 21.0009 3 19.8263 3 18.3774Z" fill="#0C0C0E"/>
<path fill-rule="evenodd" clip-rule="evenodd" d="M18.3764 17.175C17.7123 17.175 17.174 17.7133 17.174 18.3774C17.174 19.0415 17.7123 19.5798 18.3764 19.5798C19.0405 19.5798 19.5788 19.0415 19.5788 18.3774C19.5788 17.7133 19.0405 17.175 18.3764 17.175ZM15.7529 18.3774C15.7529 16.9285 16.9275 15.7539 18.3764 15.7539C19.8253 15.7539 20.9999 16.9285 20.9999 18.3774C20.9999 19.8263 19.8253 21.0009 18.3764 21.0009C16.9275 21.0009 15.7529 19.8263 15.7529 18.3774Z" fill="#0C0C0E"/>
</svg>
