<svg width="24" height="24" viewBox="0 0 24 24" fill="none" xmlns="http://www.w3.org/2000/svg">
<path fill-rule="evenodd" clip-rule="evenodd" d="M9.19189 8.85067C9.19189 5.61943 11.8113 3 15.0426 3C18.2737 3 20.8932 5.61943 20.8932 8.85067C20.8932 12.0819 18.2737 14.7013 15.0426 14.7013C11.8113 14.7013 9.19189 12.0819 9.19189 8.85067ZM15.0426 4.4525C12.6135 4.4525 10.6444 6.42163 10.6444 8.85067C10.6444 11.2797 12.6135 13.2488 15.0426 13.2488C17.4716 13.2488 19.4407 11.2797 19.4407 8.85067C19.4407 6.42163 17.4716 4.4525 15.0426 4.4525Z" fill="#000"/>
<path d="M13.3237 8.12048C13.3237 7.61276 13.7353 7.20117 14.243 7.20117H15.7139C16.2216 7.20117 16.6332 7.61276 16.6332 8.12048V9.59136C16.6332 10.0991 16.2216 10.5107 15.7139 10.5107H14.243C13.7353 10.5107 13.3237 10.0991 13.3237 9.59136V8.12048Z" fill="#000"/>
<path fill-rule="evenodd" clip-rule="evenodd" d="M3.83294 11.8608C3.43184 11.8608 3.10669 12.186 3.10669 12.5871C3.10669 12.9882 3.43184 13.3133 3.83294 13.3133H7.2555C7.74243 13.3133 8.20941 13.5068 8.55373 13.8511L10.0452 15.3426C10.2922 15.5896 10.2922 15.9902 10.0452 16.2372C9.79818 16.4842 9.39764 16.4842 9.15061 16.2372L8.18979 15.2763C7.90618 14.9927 7.44634 14.9927 7.16272 15.2763C6.8791 15.5599 6.87909 16.0198 7.16271 16.3034L8.12355 17.2642C8.67589 17.8166 9.46102 17.9942 10.1631 17.7972H15.7899C16.5681 17.7972 17.1989 18.4281 17.1989 19.2061C17.1989 19.3947 17.046 19.5475 16.8576 19.5475H8.60392C8.1745 19.5475 7.75857 19.3969 7.42856 19.1219L7.42854 19.1219L4.29789 16.5131C3.98975 16.2563 3.53181 16.2979 3.27503 16.6061C3.01826 16.9142 3.0599 17.3721 3.36803 17.6289L6.4987 20.2378L6.49872 20.2378C7.08964 20.7302 7.83456 21 8.60392 21H16.8576C17.8483 21 18.6514 20.1968 18.6514 19.2061C18.6514 17.6258 17.3702 16.3447 15.7899 16.3447H11.6082C11.8005 15.6453 11.6219 14.8651 11.0723 14.3155L9.58079 12.824C8.96408 12.2073 8.12766 11.8608 7.2555 11.8608H3.83294Z" fill="#000"/>
</svg>
