<svg width="24" height="24" viewBox="0 0 24 24" fill="none" xmlns="http://www.w3.org/2000/svg">
<path fill-rule="evenodd" clip-rule="evenodd" d="M12 3.57895C10.5182 3.57895 9.09711 4.16758 8.04934 5.21535C7.00156 6.26313 6.41293 7.68422 6.41293 9.16599C6.41293 9.86315 6.74379 10.9219 7.33653 12.2055C7.91532 13.4589 8.69389 14.8237 9.48261 16.0953C10.2697 17.3642 11.058 18.5262 11.6503 19.3718C11.7765 19.5521 11.8937 19.7177 12 19.8669C12.1062 19.7177 12.2234 19.5521 12.3497 19.3718C12.9419 18.5262 13.7303 17.3642 14.5173 16.0953C15.3061 14.8237 16.0846 13.4589 16.6634 12.2055C17.2562 10.9219 17.587 9.86315 17.587 9.16599C17.587 7.68422 16.9984 6.26313 15.9506 5.21535C14.9028 4.16758 13.4818 3.57895 12 3.57895ZM12 21.2105C11.368 21.6837 11.3679 21.6836 11.3679 21.6835L11.3627 21.6765L11.3482 21.6571L11.2933 21.583C11.2455 21.5183 11.1759 21.4236 11.0875 21.302C10.9108 21.059 10.6589 20.7087 10.357 20.2776C9.75367 19.4162 8.94789 18.2287 8.14082 16.9275C7.33541 15.629 6.51985 14.2032 5.90304 12.8674C5.30019 11.5619 4.83398 10.233 4.83398 9.16599C4.83398 7.26545 5.58897 5.44275 6.93285 4.09887C8.27674 2.75499 10.0994 2 12 2C13.9005 2 15.7232 2.75499 17.0671 4.09887C18.411 5.44275 19.166 7.26545 19.166 9.16599C19.166 10.233 18.6998 11.5619 18.0969 12.8674C17.4801 14.2032 16.6645 15.629 15.8591 16.9275C15.0521 18.2287 14.2463 19.4162 13.643 20.2776C13.341 20.7087 13.0892 21.059 12.9125 21.302C12.8241 21.4236 12.7544 21.5183 12.7066 21.583L12.6517 21.6571L12.6373 21.6765L12.6324 21.6831C12.6323 21.6832 12.6319 21.6837 12 21.2105ZM12 21.2105L12.6324 21.6831C12.4833 21.8822 12.2487 22 12 22C11.7513 22 11.5169 21.8826 11.3679 21.6835L12 21.2105Z" fill="#000"/>
<path fill-rule="evenodd" clip-rule="evenodd" d="M11.9999 7.82992C11.2621 7.82992 10.6639 8.42809 10.6639 9.16596C10.6639 9.90383 11.2621 10.502 11.9999 10.502C12.7378 10.502 13.336 9.90383 13.336 9.16596C13.336 8.42809 12.7378 7.82992 11.9999 7.82992ZM9.08496 9.16596C9.08496 7.55606 10.39 6.25098 11.9999 6.25098C13.6098 6.25098 14.9149 7.55606 14.9149 9.16596C14.9149 10.7759 13.6098 12.0809 11.9999 12.0809C10.39 12.0809 9.08496 10.7759 9.08496 9.16596Z" fill="#ff0"/>
</svg>
