<svg width="32" height="32" viewBox="0 0 32 32" fill="none" xmlns="http://www.w3.org/2000/svg">
<rect width="32" height="32" rx="16" fill="#FFF8E5"/>
<path d="M16 6C21.523 6 26 10.477 26 16C26 21.523 21.523 26 16 26C10.477 26 6 21.523 6 16C6 10.477 10.477 6 16 6ZM15.293 12.464L12.464 15.293C12.2765 15.4805 12.1712 15.7348 12.1712 16C12.1712 16.2652 12.2765 16.5195 12.464 16.707L15.293 19.536C15.4805 19.7235 15.7348 19.8288 16 19.8288C16.2652 19.8288 16.5195 19.7235 16.707 19.536L19.536 16.707C19.7235 16.5195 19.8288 16.2652 19.8288 16C19.8288 15.7348 19.7235 15.4805 19.536 15.293L16.707 12.464C16.5195 12.2765 16.2652 12.1712 16 12.1712C15.7348 12.1712 15.4805 12.2765 15.293 12.464Z" fill="#FFB800"/>
</svg>
