<svg width="24" height="24" viewBox="0 0 24 24" fill="none" xmlns="http://www.w3.org/2000/svg">
<path fill-rule="evenodd" clip-rule="evenodd" d="M2.18892 5.82003C2.47193 5.48834 2.97023 5.44888 3.30192 5.73189L11.6013 12.8132C11.7136 12.9056 11.8545 12.9562 12 12.9562C12.1455 12.9562 12.2864 12.9056 12.3987 12.8132L20.6981 5.73189C21.0298 5.44888 21.5281 5.48834 21.8111 5.82003C22.0941 6.15171 22.0546 6.65002 21.7229 6.93302L13.4122 14.0241C13.0157 14.3544 12.516 14.5352 12 14.5352C11.484 14.5352 10.9843 14.3543 10.5879 14.0241L10.5807 14.0181L2.27706 6.93302C1.94537 6.65002 1.90591 6.15171 2.18892 5.82003Z" fill="#ff0"/>
<path fill-rule="evenodd" clip-rule="evenodd" d="M4.20647 5.35043C3.8599 5.35043 3.57894 5.63138 3.57894 5.97796V18.0225C3.57894 18.369 3.8599 18.65 4.20647 18.65H19.7935C20.1401 18.65 20.421 18.369 20.421 18.0225V5.97796C20.421 5.63138 20.1401 5.35043 19.7935 5.35043H4.20647ZM2 5.97796C2 4.75936 2.98787 3.77148 4.20647 3.77148H19.7935C21.0121 3.77148 22 4.75936 22 5.97796V18.0225C22 19.2411 21.0121 20.2289 19.7935 20.2289H4.20647C2.98787 20.2289 2 19.2411 2 18.0225V5.97796Z" fill="#000"/>
</svg>
