<svg width="16" height="16" viewBox="0 0 16 16" fill="none" xmlns="http://www.w3.org/2000/svg">
<path fill-rule="evenodd" clip-rule="evenodd" d="M4.6926 8.0541C4.72249 8.0541 4.74672 8.02987 4.74672 7.99998C4.74672 7.97009 4.72249 7.94586 4.6926 7.94586C4.66271 7.94586 4.63848 7.97009 4.63848 7.99998C4.63848 8.02987 4.66271 8.0541 4.6926 8.0541ZM3.69409 7.99998C3.69409 7.44851 4.14114 7.00146 4.6926 7.00146C5.24406 7.00146 5.69111 7.44851 5.69111 7.99998C5.69111 8.55144 5.24406 8.99849 4.6926 8.99849C4.14114 8.99849 3.69409 8.55144 3.69409 7.99998Z" fill="#0C0C0E"/>
<path fill-rule="evenodd" clip-rule="evenodd" d="M7.76194 8.0541C7.79183 8.0541 7.81606 8.02987 7.81606 7.99998C7.81606 7.97009 7.79183 7.94586 7.76194 7.94586C7.73205 7.94586 7.70782 7.97009 7.70782 7.99998C7.70782 8.02987 7.73205 8.0541 7.76194 8.0541ZM6.76343 7.99998C6.76343 7.44851 7.21048 7.00146 7.76194 7.00146C8.3134 7.00146 8.76045 7.44851 8.76045 7.99998C8.76045 8.55144 8.3134 8.99849 7.76194 8.99849C7.21048 8.99849 6.76343 8.55144 6.76343 7.99998Z" fill="#0C0C0E"/>
<path fill-rule="evenodd" clip-rule="evenodd" d="M10.8313 8.0541C10.8612 8.0541 10.8854 8.02987 10.8854 7.99998C10.8854 7.97009 10.8612 7.94586 10.8313 7.94586C10.8014 7.94586 10.7772 7.97009 10.7772 7.99998C10.7772 8.02987 10.8014 8.0541 10.8313 8.0541ZM9.83276 7.99998C9.83276 7.44851 10.2798 7.00146 10.8313 7.00146C11.3827 7.00146 11.8298 7.44851 11.8298 7.99998C11.8298 8.55144 11.3827 8.99849 10.8313 8.99849C10.2798 8.99849 9.83276 8.55144 9.83276 7.99998Z" fill="#0000F5"/>
<path fill-rule="evenodd" clip-rule="evenodd" d="M7.99795 1.33521C9.00094 1.33464 9.99113 1.56045 10.8947 1.99582C11.7983 2.4312 12.592 3.06493 13.2167 3.84977C13.8413 4.6346 14.2807 5.55029 14.5021 6.52859C14.7236 7.50688 14.7214 8.52254 14.4956 9.49986C14.2699 10.4772 13.8265 11.391 13.1985 12.1731C12.5705 12.9552 11.774 13.5854 10.8685 14.0169C9.96298 14.4483 8.97176 14.6698 7.96873 14.6648C7.02429 14.6601 6.09232 14.4548 5.23435 14.0632L1.95323 14.6565C1.76682 14.6902 1.57668 14.6212 1.45536 14.4757C1.33404 14.3302 1.30026 14.1307 1.36691 13.9534L2.30391 11.4605C1.72688 10.5107 1.39575 9.43024 1.34272 8.31726C1.28535 7.11305 1.55567 5.91582 2.12492 4.85309C2.69416 3.79037 3.54099 2.90195 4.57523 2.28245C5.60942 1.66298 6.79227 1.33561 7.9978 1.33521M7.99842 2.38784L7.99811 1.86047L7.99827 2.38784C6.9831 2.38815 5.98702 2.66382 5.11613 3.18547C4.24524 3.70713 3.53215 4.45524 3.05282 5.35012C2.57348 6.245 2.34585 7.25314 2.39416 8.26716C2.44248 9.28118 2.76493 10.2631 3.32718 11.1084C3.4209 11.2493 3.44116 11.4266 3.38162 11.585L2.67853 13.4557L5.21295 12.9974C5.32323 12.9774 5.43699 12.9932 5.53768 13.0424C6.29654 13.4133 7.12932 13.608 7.97394 13.6122C8.81856 13.6164 9.65323 13.4299 10.4157 13.0666C11.1782 12.7033 11.8489 12.1726 12.3777 11.514C12.9066 10.8554 13.2799 10.086 13.47 9.26299C13.6601 8.44002 13.6619 7.58477 13.4755 6.76099C13.289 5.9372 12.919 5.16613 12.393 4.50525C11.8671 3.84438 11.1987 3.31073 10.4378 2.94411C9.6769 2.57749 8.84305 2.38734 7.99842 2.38784Z" fill="#0C0C0E"/>
</svg>
