<svg width="24" height="24" viewBox="0 0 24 24" fill="none" xmlns="http://www.w3.org/2000/svg">
<path fill-rule="evenodd" clip-rule="evenodd" d="M4.97325 13.1885C5.36637 13.1885 5.68508 13.5072 5.68508 13.9003V15.1046H12.5658V13.9003C12.5658 13.5072 12.8845 13.1885 13.2776 13.1885C13.6707 13.1885 13.9894 13.5072 13.9894 13.9003V15.8112C13.9894 15.8129 13.9894 15.8147 13.9894 15.8164C13.9894 15.8182 13.9894 15.8199 13.9894 15.8217V19.5764H18.315V13.9003C18.315 13.5072 18.6336 13.1885 19.0268 13.1885C19.4199 13.1885 19.7386 13.5072 19.7386 13.9003V19.6494C19.7386 20.0076 19.5963 20.3512 19.343 20.6044C19.0897 20.8577 18.7461 21 18.388 21H13.2776H5.61205C5.25385 21 4.91034 20.8577 4.65705 20.6044C4.40377 20.3512 4.26147 20.0076 4.26147 19.6494V15.8164V13.9003C4.26147 13.5072 4.58013 13.1885 4.97325 13.1885ZM5.68508 16.5282V19.5764H12.5658V16.5282H5.68508Z" fill="#000"/>
<path fill-rule="evenodd" clip-rule="evenodd" d="M6.08111 4.57529C6.13048 4.48279 6.2268 4.42503 6.33164 4.42503H17.6683C17.7732 4.42503 17.8695 4.48279 17.9189 4.57529L19.1069 6.80066H4.89314L6.08111 4.57529ZM4.44139 8.22426V9.69165C4.44139 9.84851 4.56854 9.97566 4.7254 9.97566H19.2746C19.4315 9.97566 19.5586 9.84851 19.5586 9.69165V8.22426H4.44139ZM6.33164 3C5.70072 3 5.12111 3.34761 4.82398 3.9042L3.13377 7.07041C3.05668 7.21482 3.01636 7.37599 3.01636 7.53969V9.69165C3.01636 10.6355 3.78152 11.4007 4.7254 11.4007H19.2746C20.2185 11.4007 20.9837 10.6355 20.9837 9.69165V7.53969C20.9837 7.37599 20.9433 7.21482 20.8663 7.07041L19.176 3.9042C18.8789 3.34761 18.2993 3 17.6683 3H6.33164Z" fill="#000"/>
</svg>
