<svg width="24" height="24" viewBox="0 0 24 24" fill="none" xmlns="http://www.w3.org/2000/svg">
<path fill-rule="evenodd" clip-rule="evenodd" d="M12.332 5.26316C11.7417 5.26316 11.2632 5.74169 11.2632 6.33198C11.2632 6.92228 11.7417 7.40081 12.332 7.40081C12.9223 7.40081 13.4008 6.92228 13.4008 6.33198C13.4008 5.74169 12.9223 5.26316 12.332 5.26316ZM10 6.33198C10 5.04406 11.0441 4 12.332 4C13.6199 4 14.664 5.04406 14.664 6.33198C14.664 7.6199 13.6199 8.66397 12.332 8.66397C11.0441 8.66397 10 7.6199 10 6.33198Z" fill="#000"/>
<path fill-rule="evenodd" clip-rule="evenodd" d="M12.332 10.9311C11.7417 10.9311 11.2632 11.4097 11.2632 12C11.2632 12.5902 11.7417 13.0688 12.332 13.0688C12.9223 13.0688 13.4008 12.5902 13.4008 12C13.4008 11.4097 12.9223 10.9311 12.332 10.9311ZM10 12C10 10.712 11.0441 9.66797 12.332 9.66797C13.6199 9.66797 14.664 10.712 14.664 12C14.664 13.2879 13.6199 14.3319 12.332 14.3319C11.0441 14.3319 10 13.2879 10 12Z" fill="#000"/>
<path fill-rule="evenodd" clip-rule="evenodd" d="M12.332 16.5991C11.7417 16.5991 11.2632 17.0776 11.2632 17.6679C11.2632 18.2582 11.7417 18.7367 12.332 18.7367C12.9223 18.7367 13.4008 18.2582 13.4008 17.6679C13.4008 17.0776 12.9223 16.5991 12.332 16.5991ZM10 17.6679C10 16.38 11.0441 15.3359 12.332 15.3359C13.6199 15.3359 14.664 16.38 14.664 17.6679C14.664 18.9558 13.6199 19.9999 12.332 19.9999C11.0441 19.9999 10 18.9558 10 17.6679Z" fill="#000"/>
</svg>
