<svg width="48" height="48" viewBox="0 0 48 48" fill="none" xmlns="http://www.w3.org/2000/svg">
<g id="Bill-Paid">
<path id="Vector" d="M12.5886 15.3118H7.48785V9.55373C7.48785 8.15808 8.61951 7.02643 10.0152 7.02643H10.0613C11.457 7.02643 12.5886 8.15808 12.5886 9.55373V15.3118Z" fill="#FF8800" stroke="#0000FF" stroke-width="1.13"/>
<path id="Vector_2" d="M10.0151 6.96924H32.2151C33.7382 6.96924 35.0305 8.21539 35.0305 9.78462V31.7077M30.4151 35.0308L28.1536 37.8L25.9382 35.1231L23.7228 37.7539L21.5536 35.1231L19.3844 37.7539L17.169 35.0769L14.9998 37.7077L12.6459 34.8923V13.4308" stroke="#0000FF" stroke-width="1.13" stroke-miterlimit="10" stroke-linecap="round" stroke-linejoin="round"/>
<path id="Vector_3" d="M17.4 12.5076H28.9846" stroke="#0000FF" stroke-width="1.13" stroke-miterlimit="10" stroke-linecap="round" stroke-linejoin="round"/>
<path id="Vector_4" d="M17.4 20.2615H28.9846" stroke="#0000FF" stroke-width="1.13" stroke-miterlimit="10" stroke-linecap="round" stroke-linejoin="round"/>
<path id="Vector_5" d="M17.4 16.3845H24.3231" stroke="#0000FF" stroke-width="1.13" stroke-miterlimit="10" stroke-linecap="round" stroke-linejoin="round"/>
<path id="Vector_6" fill-rule="evenodd" clip-rule="evenodd" d="M40.6154 35.7692C40.6154 38.8535 38.1151 41.3538 35.0308 41.3538C31.9465 41.3538 29.4462 38.8535 29.4462 35.7692C29.4462 32.6849 31.9465 30.1846 35.0308 30.1846C38.1151 30.1846 40.6154 32.6849 40.6154 35.7692ZM37.711 34.4802C37.8912 34.2999 37.8912 34.0077 37.711 33.8274C37.5308 33.6472 37.2385 33.6472 37.0583 33.8274L34.1539 36.7319L32.9571 35.5351C32.7769 35.3549 32.4847 35.3549 32.3044 35.5351C32.1242 35.7154 32.1242 36.0076 32.3044 36.1878L33.8275 37.7109C33.914 37.7975 34.0315 37.8461 34.1539 37.8461C34.2763 37.8461 34.3937 37.7975 34.4802 37.7109L37.711 34.4802Z" fill="#FF8800"/>
<path id="Vector_7" d="M17.4 27.6924C18.1846 26.5386 19.4308 24.7386 19.9846 24.877C20.6769 25.0616 20.2154 27.5078 20.6308 27.5539C21.0461 27.6001 21.9231 25.3386 22.6615 25.3386C23.3077 25.3386 22.9385 27.6001 23.6769 27.6462C24.0923 27.6924 24.7846 27.1386 25.9385 23.6309" stroke="#0000FF" stroke-width="1.13" stroke-miterlimit="10" stroke-linecap="round" stroke-linejoin="round"/>
</g>
</svg>
