<svg width="41" height="40" viewBox="0 0 41 40" fill="none" xmlns="http://www.w3.org/2000/svg">
<rect x="0.5" width="40" height="40" rx="20" fill="#E4F3FE"/>
<rect x="0.75" y="0.25" width="39.5" height="39.5" rx="19.75" stroke="#0C0C0E" stroke-opacity="0.1" stroke-width="0.5"/>
<path d="M25.5507 9.27245C26.7267 9.39701 27.6507 10.3024 27.8024 11.5104C28.0178 13.2252 28.2648 16.0521 28.2648 20C28.2648 23.7416 28.1415 26.4764 28.0268 28.2118C27.9381 29.5535 26.9404 30.6096 25.641 30.7363C24.2912 30.8678 22.4501 31 20.5001 31C18.55 31 16.7089 30.8678 15.3591 30.7363C14.0597 30.6096 13.062 29.5535 12.9733 28.2118C12.8586 26.4764 12.7354 23.7416 12.7354 20C12.7354 16.2584 12.8586 13.5236 12.9733 11.7883C13.062 10.4465 14.0597 9.39034 15.3591 9.26369C16.7089 9.13214 18.55 9 20.5001 9C22.4934 9 24.282 9.13808 25.5507 9.27245Z" fill="#004FA8"/>
<path fill-rule="evenodd" clip-rule="evenodd" d="M28.0706 27.5C28.056 27.7535 28.0413 27.9907 28.0266 28.2118C27.9379 29.5535 26.9403 30.6096 25.6408 30.7363C24.2911 30.8678 22.4499 31 20.4999 31C18.5499 31 16.7087 30.8678 15.359 30.7363C14.0595 30.6096 13.0619 29.5535 12.9732 28.2118C12.9586 27.9907 12.9438 27.7535 12.9292 27.5H28.0706Z" fill="#65BBFA"/>
<path fill-rule="evenodd" clip-rule="evenodd" d="M27.9154 12.5H12.9292C12.9438 12.2465 12.9586 12.0093 12.9732 11.7883C13.0619 10.4465 14.0595 9.39034 15.359 9.26369C16.7087 9.13214 18.5499 9 20.4999 9C22.4932 9 24.2818 9.13808 25.5505 9.27245C26.7266 9.39701 27.6506 10.3024 27.8023 11.5104C27.8395 11.807 27.8777 12.1368 27.9154 12.5Z" fill="#65BBFA"/>
<path d="M19.9781 22.1492C20.3898 22.1492 20.6871 22.0808 20.87 21.9439C21.0606 21.807 21.1559 21.6393 21.1559 21.4409C21.1559 21.2629 21.0835 21.1192 20.9387 21.0097C20.7938 20.9002 20.5766 20.8044 20.2869 20.7223L19.658 20.5375C19.3455 20.4485 19.0634 20.3527 18.8118 20.25C18.5603 20.1474 18.3468 20.0242 18.1715 19.8805C17.9962 19.7367 17.859 19.5656 17.7599 19.3672C17.6608 19.1687 17.6112 18.9326 17.6112 18.6588C17.6112 18.1935 17.7713 17.8068 18.0915 17.4988C18.4117 17.1908 18.869 16.9855 19.4636 16.8829V16.438C19.4636 16.2243 19.6081 16.0361 19.8145 16.015C19.9115 16.0052 20.0088 16 20.1039 16C20.386 16 20.588 16.0445 20.71 16.1335C20.8395 16.2224 20.9043 16.3833 20.9043 16.616V16.8418C21.3922 16.8897 21.7886 16.9958 22.0935 17.16C22.3984 17.3175 22.5509 17.5262 22.5509 17.7862C22.5509 17.974 22.4691 18.1393 22.341 18.2761C22.2243 18.4009 22.0376 18.3937 21.8821 18.3278C21.749 18.2713 21.5946 18.2208 21.4189 18.1764C21.1292 18.0942 20.8129 18.0531 20.4698 18.0531C20.0887 18.0531 19.8028 18.1113 19.6123 18.2277C19.4293 18.3372 19.3378 18.4809 19.3378 18.6588C19.3378 18.8025 19.3988 18.9189 19.5208 19.0079C19.6504 19.0968 19.8448 19.179 20.1039 19.2542L20.7442 19.4288C21.4303 19.6204 21.9563 19.8736 22.3222 20.1885C22.6957 20.5033 22.8825 20.9276 22.8825 21.4614C22.8825 21.9336 22.7148 22.334 22.3794 22.6625C22.044 22.9841 21.5523 23.1997 20.9043 23.3092V23.7438C20.9043 23.9575 20.7599 24.1457 20.5534 24.1668C20.4565 24.1766 20.3592 24.1818 20.264 24.1818C19.982 24.1818 19.7762 24.1373 19.6466 24.0484C19.5246 23.9594 19.4636 23.7985 19.4636 23.5659V23.3605C18.9071 23.3058 18.4536 23.186 18.1029 23.0013C17.7599 22.8096 17.5884 22.5701 17.5884 22.2826C17.5884 22.0448 17.7199 21.8512 17.9093 21.7052C18.0405 21.6041 18.2186 21.6291 18.3603 21.7135C18.5166 21.8065 18.6975 21.8936 18.9033 21.9747C19.2159 22.091 19.5742 22.1492 19.9781 22.1492Z" fill="white"/>
</svg>
