<svg width="24" height="24" viewBox="0 0 24 24" fill="none" xmlns="http://www.w3.org/2000/svg">
<path fill-rule="evenodd" clip-rule="evenodd" d="M13.4543 8.28035C13.4543 8.67276 13.1362 8.99088 12.7438 8.99088L6.7924 8.99088C6.39999 8.99088 6.08188 8.67276 6.08188 8.28035C6.08188 7.88794 6.39999 7.56982 6.7924 7.56982L12.7438 7.56982C13.1362 7.56982 13.4543 7.88794 13.4543 8.28035Z" fill="#ff0"/>
<path fill-rule="evenodd" clip-rule="evenodd" d="M10.4788 11.2559C10.4788 11.6483 10.1606 11.9665 9.76823 11.9665L6.79253 11.9665C6.40011 11.9665 6.082 11.6483 6.082 11.2559C6.082 10.8635 6.40011 10.5454 6.79253 10.5454L9.76823 10.5454C10.1606 10.5454 10.4788 10.8635 10.4788 11.2559Z" fill="#ff0"/>
<path fill-rule="evenodd" clip-rule="evenodd" d="M8.99072 14.232C8.99072 14.6244 8.67261 14.9425 8.2802 14.9425L6.79234 14.9425C6.39993 14.9425 6.08182 14.6244 6.08182 14.232C6.08182 13.8396 6.39993 13.5215 6.79234 13.5215L8.2802 13.5215C8.67261 13.5215 8.99072 13.8396 8.99072 14.232Z" fill="#ff0"/>
<path fill-rule="evenodd" clip-rule="evenodd" d="M3.95516 3.95516C4.56674 3.34358 5.39623 3 6.26113 3H18.3765C19.0723 3 19.7396 3.2764 20.2316 3.7684C20.7236 4.2604 21 4.92769 21 5.62348V10.087C21 10.4795 20.6819 10.7976 20.2895 10.7976H17.1741V20.2895C17.1741 20.5455 17.0364 20.7817 16.8136 20.9078C16.5909 21.0339 16.3175 21.0304 16.098 20.8987L13.2753 19.2051L10.4526 20.8987C10.2276 21.0338 9.94649 21.0338 9.72148 20.8987L6.89879 19.2051L4.07609 20.8987C3.85659 21.0304 3.58321 21.0339 3.36045 20.9078C3.13769 20.7817 3 20.5455 3 20.2895V6.26113C3 5.39623 3.34358 4.56674 3.95516 3.95516ZM17.1741 9.37652H19.5789V5.62348C19.5789 5.30458 19.4523 4.99873 19.2268 4.77324C19.0013 4.54774 18.6954 4.42105 18.3765 4.42105C18.0576 4.42105 17.7518 4.54774 17.5263 4.77324C17.3008 4.99873 17.1741 5.30458 17.1741 5.62348V9.37652ZM16.0448 4.42105C15.8548 4.7895 15.753 5.20124 15.753 5.62348V19.0345L13.6409 17.7672C13.4159 17.6322 13.1348 17.6322 12.9097 17.7672L10.087 19.4609L7.26435 17.7672C7.03934 17.6322 6.75823 17.6322 6.53322 17.7672L4.42105 19.0345V6.26113C4.42105 5.77311 4.61492 5.30508 4.96 4.96C5.30508 4.61492 5.77311 4.42105 6.26113 4.42105H16.0448Z" fill="#000"/>
</svg>
