<svg width="40" height="40" viewBox="0 0 40 40" fill="none" xmlns="http://www.w3.org/2000/svg">
<rect width="40" height="40" rx="20" fill="#FFF3E0"/>
<path fill-rule="evenodd" clip-rule="evenodd" d="M30.4711 16.6205C30.1415 16.5189 29.7914 16.4643 29.4286 16.4643H23.904C23.7645 15.3542 23.0404 14.3893 21.9884 13.9535C20.814 13.4671 19.4622 13.736 18.5634 14.6348L15.4205 17.7777C14.1932 19.005 14.1932 20.995 15.4205 22.2223L18.5634 25.3652C19.4622 26.264 20.814 26.5329 21.9884 26.0465C23.0404 25.6108 23.7645 24.6458 23.904 23.5357H29.4286C29.7914 23.5357 30.1415 23.481 30.4711 23.3795C29.0451 27.8012 24.8961 31 20 31C13.9249 31 9 26.0751 9 20C9 13.9249 13.9249 9 20 9C24.8961 9 29.0451 12.1988 30.4711 16.6205Z" fill="#FFCA7F"/>
<path fill-rule="evenodd" clip-rule="evenodd" d="M21.9642 16.8573C21.9642 16.3806 21.6771 15.9509 21.2367 15.7685C20.7963 15.586 20.2894 15.6869 19.9523 16.0239L16.8094 19.1668C16.3492 19.6271 16.3492 20.3733 16.8094 20.8335L19.9523 23.9764C20.2894 24.3135 20.7963 24.4143 21.2367 24.2319C21.6771 24.0495 21.9642 23.6197 21.9642 23.143V21.5716H29.4285C30.2964 21.5716 30.9999 20.8681 30.9999 20.0002C30.9999 19.1323 30.2964 18.4287 29.4285 18.4287H21.9642V16.8573Z" fill="#F97802"/>
<rect x="0.25" y="0.25" width="39.5" height="39.5" rx="19.75" stroke="#111827" stroke-opacity="0.1" stroke-width="0.5"/>
</svg>
