<svg width="40" height="40" viewBox="0 0 40 40" fill="none" xmlns="http://www.w3.org/2000/svg">
    <rect width="40" height="40" rx="20" fill="#DAF0EC"/>
    <path fill-rule="evenodd" clip-rule="evenodd" d="M30.2397 15.9737L28.9009 14.6348C28.002 13.736 26.6503 13.4671 25.4758 13.9535C24.4239 14.3893 23.6998 15.3542 23.5603 16.4643H18.0357C16.083 16.4643 14.5 18.0472 14.5 20C14.5 21.9527 16.083 23.5357 18.0357 23.5357H23.5603C23.6998 24.6458 24.4239 25.6108 25.4758 26.0465C26.6503 26.5329 28.002 26.264 28.9009 25.3652L30.2397 24.0263C28.633 28.1098 24.654 31 20 31C13.9249 31 9 26.0751 9 20C9 13.9249 13.9249 9 20 9C24.654 9 28.633 11.8902 30.2397 15.9737Z" fill="#6AC1AF"/>
    <path fill-rule="evenodd" clip-rule="evenodd" d="M25.4999 16.8572C25.4999 16.3805 25.787 15.9507 26.2275 15.7683C26.6678 15.5859 27.1748 15.6867 27.5118 16.0238L30.6547 19.1666C31.115 19.6269 31.115 20.3731 30.6547 20.8334L27.5118 23.9763C27.1748 24.3133 26.6678 24.4142 26.2275 24.2317C25.787 24.0493 25.4999 23.6196 25.4999 23.1429V21.5714H18.0357C17.1678 21.5714 16.4642 20.8679 16.4642 20C16.4642 19.1321 17.1678 18.4286 18.0357 18.4286H25.4999V16.8572Z" fill="#008267"/>
    <rect x="0.25" y="0.25" width="39.5" height="39.5" rx="19.75" stroke="#111827" stroke-opacity="0.05" stroke-width="0.5"/>
</svg>
