<svg width="41" height="40" viewBox="0 0 41 40" fill="none" xmlns="http://www.w3.org/2000/svg">
<rect x="0.5" width="40" height="40" rx="20" fill="#FFF8E5"/>
<rect x="0.75" y="0.25" width="39.5" height="39.5" rx="19.75" stroke="#111827" stroke-opacity="0.05" stroke-width="0.5"/>
<path d="M10.3464 26.3492C10.4598 27.6885 11.4049 28.6745 12.6019 28.761C14.1899 28.8757 16.7711 29 20.5 29C24.2288 29 26.81 28.8757 28.398 28.761C29.5951 28.6745 30.5402 27.6885 30.6535 26.3492C30.7715 24.9543 30.8846 22.8691 30.8846 20C30.8846 17.1309 30.7715 15.0457 30.6535 13.6508C30.5402 12.3115 29.5951 11.3255 28.398 11.2391C26.81 11.1243 24.2288 11 20.5 11C16.7711 11 14.1899 11.1243 12.6019 11.2391C11.4049 11.3255 10.4598 12.3115 10.3464 13.6508C10.2284 15.0457 10.1154 17.1309 10.1154 20C10.1154 22.8691 10.2284 24.9543 10.3464 26.3492Z" fill="#FFBB00"/>
<path d="M23.7353 22.6809C23.2176 22.7098 22.8715 23.1402 22.8627 23.7215C22.8604 23.872 22.859 24.0429 22.859 24.2357C22.859 24.4333 22.8605 24.6078 22.8629 24.7607C22.8718 25.3333 23.2104 25.7581 23.7204 25.7883C24.0637 25.8087 24.5457 25.8239 25.2191 25.8239C25.8829 25.8239 26.3607 25.8097 26.703 25.7905C27.2207 25.7616 27.5668 25.3312 27.5756 24.7499C27.5779 24.5993 27.5793 24.4285 27.5793 24.2357C27.5793 24.0429 27.5779 23.872 27.5756 23.7215C27.5668 23.1402 27.2207 22.7098 26.703 22.6809C26.3607 22.6617 25.8829 22.6475 25.2191 22.6475C24.5554 22.6475 24.0776 22.6617 23.7353 22.6809Z" fill="#FFF1CC"/>
<path fill-rule="evenodd" clip-rule="evenodd" d="M10.1154 20.0163C11.269 20.0514 14.5789 20.1328 20.5 20.1328C26.421 20.1328 29.731 20.0514 30.8846 20.0163C30.8846 20.011 30.8846 20.0058 30.8846 20.0005C30.8846 18.3211 30.8458 16.9102 30.79 15.7492C29.6626 15.7141 26.4177 15.6328 20.5 15.6328C14.5822 15.6328 11.3373 15.7141 10.2099 15.7492C10.1541 16.9102 10.1154 18.3211 10.1154 20.0005C10.1154 20.0058 10.1154 20.011 10.1154 20.0163Z" fill="#FFF1CC"/>
</svg>
