<svg width="24" height="24" viewBox="0 0 24 24" fill="none" xmlns="http://www.w3.org/2000/svg">
<path fill-rule="evenodd" clip-rule="evenodd" d="M5.56641 20.3419C5.56641 19.9785 5.86104 19.6838 6.22449 19.6838H17.7748C18.1383 19.6838 18.4329 19.9785 18.4329 20.3419C18.4329 20.7054 18.1383 21 17.7748 21H6.22449C5.86104 21 5.56641 20.7054 5.56641 20.3419Z" fill="#0000F5"/>
<path fill-rule="evenodd" clip-rule="evenodd" d="M4.2832 17.1334C4.2832 16.77 4.57784 16.4753 4.94129 16.4753H19.0584C19.4218 16.4753 19.7165 16.77 19.7165 17.1334C19.7165 17.4969 19.4218 17.7915 19.0584 17.7915H4.94129C4.57784 17.7915 4.2832 17.4969 4.2832 17.1334Z" fill="#0000F5"/>
<path fill-rule="evenodd" clip-rule="evenodd" d="M4.94146 4.31617C4.59612 4.31617 4.31617 4.59612 4.31617 4.94146V12.6417C4.31617 12.987 4.59612 13.267 4.94146 13.267H19.0585C19.4039 13.267 19.6838 12.987 19.6838 12.6417V4.94146C19.6838 4.59612 19.4039 4.31617 19.0585 4.31617H4.94146ZM3 4.94146C3 3.86922 3.86922 3 4.94146 3H19.0585C20.1308 3 21 3.86922 21 4.94146V12.6417C21 13.7139 20.1308 14.5831 19.0585 14.5831H4.94146C3.86922 14.5831 3 13.7139 3 12.6417V4.94146Z" fill="#0C0C0E"/>
<path fill-rule="evenodd" clip-rule="evenodd" d="M12.0001 7.52466C11.3004 7.52466 10.7332 8.09191 10.7332 8.79164C10.7332 9.49137 11.3004 10.0586 12.0001 10.0586C12.6999 10.0586 13.2671 9.49137 13.2671 8.79164C13.2671 8.09191 12.6999 7.52466 12.0001 7.52466ZM9.41699 8.79164C9.41699 7.36501 10.5735 6.2085 12.0001 6.2085C13.4268 6.2085 14.5833 7.36501 14.5833 8.79164C14.5833 10.2183 13.4268 11.3748 12.0001 11.3748C10.5735 11.3748 9.41699 10.2183 9.41699 8.79164Z" fill="#0C0C0E"/>
</svg>
