<svg width="24" height="24" viewBox="0 0 24 24" fill="none" xmlns="http://www.w3.org/2000/svg">
<path d="M17.0854 13.8468C20.6022 13.8468 23.1073 12.6103 23.1073 9.91243C23.1073 6.94162 21.5978 4.95037 18.5949 3.48905L19.7832 1.96351C19.8349 1.86475 19.8608 1.75448 19.8582 1.64303C19.8556 1.53158 19.8248 1.4226 19.7686 1.32631C19.7126 1.23001 19.6327 1.14956 19.537 1.09249C19.4413 1.03542 19.3326 1.00359 19.2212 1H14.9496C14.8404 1.00485 14.7342 1.0368 14.6404 1.09299C14.5466 1.14918 14.4683 1.22782 14.4126 1.32183C14.3568 1.41584 14.3253 1.52226 14.3209 1.63148C14.3166 1.7407 14.3395 1.84929 14.3876 1.94745L15.5759 3.55329C12.573 5.01461 11.0635 6.94162 11.0635 9.91243C11.0635 12.6103 13.5686 13.8468 17.0854 13.8468Z" fill="#FF9380"/>
<path fill-rule="evenodd" clip-rule="evenodd" d="M17.0282 5.36768C17.2975 5.36768 17.5158 5.5683 17.5158 5.81579V6.48779C17.7332 6.52924 17.9391 6.60044 18.1179 6.70494C18.4371 6.89148 18.6862 7.19981 18.6862 7.60827C18.6862 7.85576 18.4679 8.05639 18.1985 8.05639C17.9292 8.05639 17.7109 7.85576 17.7109 7.60827C17.7109 7.5722 17.6986 7.52203 17.5945 7.46121C17.4804 7.39451 17.2851 7.3394 17.0282 7.3394C16.861 7.3394 16.7293 7.33972 16.6144 7.34891C16.499 7.35814 16.4366 7.37416 16.4042 7.38789C16.3847 7.39616 16.3825 7.39998 16.3796 7.4051L16.3789 7.40634C16.3702 7.42109 16.3454 7.47541 16.3454 7.60827C16.3454 7.70008 16.3844 7.78674 16.5357 7.90259C16.7031 8.03073 16.9398 8.14216 17.2462 8.28294L17.2712 8.29442C17.5456 8.42041 17.8815 8.57464 18.145 8.77642C18.4326 8.99666 18.6862 9.31331 18.6862 9.75924C18.6862 9.98488 18.6456 10.1994 18.536 10.3863C18.4212 10.5822 18.2509 10.7129 18.0603 10.7936C17.8811 10.8695 17.6913 10.8983 17.5265 10.9115C17.523 10.9117 17.5194 10.912 17.5158 10.9123V11.5517C17.5158 11.7992 17.2975 11.9998 17.0282 11.9998C16.7588 11.9998 16.5405 11.7992 16.5405 11.5517V10.89C16.3357 10.8584 16.1349 10.802 15.9567 10.7077C15.5988 10.5182 15.3701 10.1934 15.3701 9.75924C15.3701 9.51175 15.5884 9.31112 15.8578 9.31112C16.1271 9.31112 16.3454 9.51175 16.3454 9.75924C16.3454 9.82487 16.3606 9.85638 16.37 9.87103C16.3797 9.88624 16.3987 9.90738 16.4435 9.93109C16.5466 9.98564 16.7383 10.0281 17.0282 10.0281C17.1953 10.0281 17.327 10.0278 17.442 10.0186C17.5573 10.0094 17.6197 9.99335 17.6521 9.97962C17.6716 9.97135 17.6738 9.96753 17.6767 9.96241L17.6774 9.96117C17.6861 9.94642 17.7109 9.8921 17.7109 9.75924C17.7109 9.66743 17.6719 9.58077 17.5206 9.46492C17.3533 9.33678 17.1165 9.22535 16.8101 9.08457L16.7851 9.07309C16.5107 8.9471 16.1748 8.79287 15.9113 8.59109C15.6237 8.37085 15.3701 8.0542 15.3701 7.60827C15.3701 7.38263 15.4107 7.16808 15.5203 6.98118C15.6351 6.78532 15.8054 6.65462 15.996 6.57392C16.1752 6.49802 16.365 6.46923 16.5298 6.45605L16.5405 6.45521V5.81579C16.5405 5.5683 16.7588 5.36768 17.0282 5.36768Z" fill="#FFE9E5"/>
<path d="M3.9598 11.7593H1V18.1827L3.93618 21.1188C5.14079 22.3234 6.7746 23.0002 8.47818 23.0002H17.8614C19.1917 23.0002 20.2701 21.9217 20.2701 20.5915C20.2701 19.261 19.1917 18.1827 17.8614 18.1827H13.0438L8.50182 13.6406C7.29721 12.436 5.66339 11.7593 3.9598 11.7593Z" fill="#FF9380"/>
<path fill-rule="evenodd" clip-rule="evenodd" d="M11.0451 16.1832C11.3996 16.7192 11.3408 17.4483 10.8687 17.9204C10.3294 18.4596 9.45513 18.4596 8.91586 17.9204L6.58736 15.5918C6.19541 15.1999 5.55993 15.1999 5.16799 15.5918C4.77603 15.9838 4.77603 16.6192 5.16799 17.0111L7.49648 19.3396C8.81965 20.6628 10.9649 20.6628 12.2881 19.3396C12.6287 18.999 12.8816 18.604 13.0469 18.1826H13.0445L11.0451 16.1832Z" fill="#FFE9E5"/>
</svg>
