<svg width="25" height="24" viewBox="0 0 25 24" xmlns="http://www.w3.org/2000/svg">
    <path d="M17.3631 12.0001C17.3631 13.3151 18.4291 14.381 19.744 14.381C21.059 14.381 22.125 13.3151 22.125 12.0001C22.125 10.6851 21.059 9.61914 19.744 9.61914C18.4291 9.61914 17.3631 10.6851 17.3631 12.0001Z" fill="black"/>
    <path d="M9.74395 12.0001C9.74395 13.3151 10.8099 14.381 12.1249 14.381C13.4399 14.381 14.5059 13.3151 14.5059 12.0001C14.5059 10.6851 13.4399 9.61914 12.1249 9.61914C10.8099 9.61914 9.74395 10.6851 9.74395 12.0001Z" fill="#ff0"/>
    <path d="M2.12481 12.0001C2.12481 13.3151 3.1908 14.381 4.50577 14.381C5.82073 14.381 6.88672 13.3151 6.88672 12.0001C6.88672 10.6851 5.82073 9.61914 4.50577 9.61914C3.1908 9.61914 2.12481 10.6851 2.12481 12.0001Z" fill="black"/>
</svg>
