<svg width="24" height="24" viewBox="0 0 24 24" fill="none" xmlns="http://www.w3.org/2000/svg">
<path d="M12.0001 6.7619C13.3151 6.7619 14.381 5.69592 14.381 4.38095C14.381 3.06599 13.3151 2 12.0001 2C10.6851 2 9.61914 3.06599 9.61914 4.38095C9.61914 5.69592 10.6851 6.7619 12.0001 6.7619Z" fill="#000"/>
<path d="M12.0001 14.381C13.3151 14.381 14.381 13.3151 14.381 12.0001C14.381 10.6851 13.3151 9.61914 12.0001 9.61914C10.6851 9.61914 9.61914 10.6851 9.61914 12.0001C9.61914 13.3151 10.6851 14.381 12.0001 14.381Z" fill="#000"/>
<path d="M12.0001 22.0002C13.3151 22.0002 14.381 20.9342 14.381 19.6192C14.381 18.3043 13.3151 17.2383 12.0001 17.2383C10.6851 17.2383 9.61914 18.3043 9.61914 19.6192C9.61914 20.9342 10.6851 22.0002 12.0001 22.0002Z" fill="#000"/>
</svg>
