<svg width="21" height="20" viewBox="0 0 21 20" fill="none" xmlns="http://www.w3.org/2000/svg">
<path fill-rule="evenodd" clip-rule="evenodd" d="M4.05441 3.80434V7.76754H8.0176V3.80434H4.05441ZM2.75006 3.67893C2.75006 3.02782 3.27788 2.5 3.92899 2.5H8.14302C8.79413 2.5 9.32195 3.02782 9.32195 3.67893V7.89296C9.32195 8.54406 8.79413 9.07189 8.14302 9.07189H3.92899C3.27788 9.07189 2.75006 8.54406 2.75006 7.89296V3.67893Z" fill="#000" fill-opacity="0.6"/>
<path fill-rule="evenodd" clip-rule="evenodd" d="M12.4824 3.80434V7.76754H16.4456V3.80434H12.4824ZM11.1781 3.67893C11.1781 3.02782 11.7059 2.5 12.357 2.5H16.5711C17.2222 2.5 17.75 3.02782 17.75 3.67893V7.89296C17.75 8.54406 17.2222 9.07189 16.5711 9.07189H12.357C11.7059 9.07189 11.1781 8.54406 11.1781 7.89296V3.67893Z" fill="#000" fill-opacity="0.6"/>
<path fill-rule="evenodd" clip-rule="evenodd" d="M4.05441 12.2326V16.1958H8.0176V12.2326H4.05441ZM2.75006 12.1071C2.75006 11.456 3.27788 10.9282 3.92899 10.9282H8.14302C8.79413 10.9282 9.32195 11.456 9.32195 12.1071V16.3212C9.32195 16.9723 8.79413 17.5001 8.14302 17.5001H3.92899C3.27788 17.5001 2.75006 16.9723 2.75006 16.3212V12.1071Z" fill="#000" fill-opacity="0.6"/>
<path fill-rule="evenodd" clip-rule="evenodd" d="M12.0937 14.3522C12.4539 14.3522 12.7459 14.6442 12.7459 15.0043V15.9324H16.7028C17.063 15.9324 17.355 16.2244 17.355 16.5846C17.355 16.9448 17.063 17.2368 16.7028 17.2368H12.0937C11.7335 17.2368 11.4415 16.9448 11.4415 16.5846V15.0043C11.4415 14.6442 11.7335 14.3522 12.0937 14.3522Z" fill="#000" fill-opacity="0.6"/>
<path fill-rule="evenodd" clip-rule="evenodd" d="M12.0937 11.1917C12.4539 11.1917 12.7459 11.4836 12.7459 11.8438V12.7719H13.768V11.8438C13.768 11.4836 14.06 11.1917 14.4202 11.1917H16.7467C17.1069 11.1917 17.3989 11.4836 17.3989 11.8438V13.4241C17.3989 13.7843 17.1069 14.0763 16.7467 14.0763C16.3865 14.0763 16.0945 13.7843 16.0945 13.4241V12.496H15.0724V13.4241C15.0724 13.7843 14.7804 14.0763 14.4202 14.0763H12.0937C11.7335 14.0763 11.4415 13.7843 11.4415 13.4241V11.8438C11.4415 11.4836 11.7335 11.1917 12.0937 11.1917Z" fill="#000" fill-opacity="0.6"/>
<path d="M5.08783 5.21839C5.08783 5.00828 5.25816 4.83795 5.46826 4.83795H6.55104C6.76114 4.83795 6.93147 5.00828 6.93147 5.21839V6.30116C6.93147 6.51127 6.76114 6.68159 6.55104 6.68159H5.46826C5.25816 6.68159 5.08783 6.51127 5.08783 6.30116V5.21839Z" fill="#000" fill-opacity="0.6"/>
<path d="M5.08783 13.7607C5.08783 13.5506 5.25816 13.3802 5.46826 13.3802H6.55104C6.76114 13.3802 6.93147 13.5506 6.93147 13.7607V14.8435C6.93147 15.0536 6.76114 15.2239 6.55104 15.2239H5.46826C5.25816 15.2239 5.08783 15.0536 5.08783 14.8435V13.7607Z" fill="#000" fill-opacity="0.6"/>
<path d="M13.6301 5.21839C13.6301 5.00828 13.8004 4.83795 14.0105 4.83795H15.0933C15.3034 4.83795 15.4737 5.00828 15.4737 5.21839V6.30116C15.4737 6.51127 15.3034 6.68159 15.0933 6.68159H14.0105C13.8004 6.68159 13.6301 6.51127 13.6301 6.30116V5.21839Z" fill="#000" fill-opacity="0.6"/>
</svg>
