<svg width="44" height="42" viewBox="0 0 44 42" fill="none" xmlns="http://www.w3.org/2000/svg">
<path fill-rule="evenodd" clip-rule="evenodd" d="M6.9932 10.6182C6.5821 10.6182 6.24884 10.9515 6.24884 11.3626V30.5421C6.24884 30.9532 6.5821 31.2864 6.9932 31.2864H34.9113C35.3224 31.2864 35.6557 30.9532 35.6557 30.5421V11.3626C35.6557 10.9515 35.3224 10.6182 34.9113 10.6182H6.9932ZM3.49194 11.3626C3.49194 9.42889 5.05951 7.86133 6.9932 7.86133H34.9113C36.845 7.86133 38.4126 9.42889 38.4126 11.3626V30.5421C38.4126 32.4758 36.845 34.0433 34.9113 34.0433H6.9932C5.05951 34.0433 3.49194 32.4758 3.49194 30.5421V11.3626Z" fill="#000" stroke="white" stroke-width="0.52381" stroke-linecap="round" stroke-linejoin="round"/>
<path fill-rule="evenodd" clip-rule="evenodd" d="M25.4114 18.1802C25.4114 17.4189 26.0285 16.8018 26.7898 16.8018H31.7055C32.4668 16.8018 33.084 17.4189 33.084 18.1802C33.084 18.9415 32.4668 19.5586 31.7055 19.5586H26.7898C26.0285 19.5586 25.4114 18.9415 25.4114 18.1802Z" fill="#ff0" stroke="white" stroke-width="0.52381" stroke-linecap="round" stroke-linejoin="round"/>
<path fill-rule="evenodd" clip-rule="evenodd" d="M25.4114 23.0518C25.4114 22.2905 26.0285 21.6733 26.7898 21.6733H31.7055C32.4668 21.6733 33.084 22.2905 33.084 23.0518C33.084 23.8131 32.4668 24.4302 31.7055 24.4302H26.7898C26.0285 24.4302 25.4114 23.8131 25.4114 23.0518Z" fill="#ff0" stroke="white" stroke-width="0.52381" stroke-linecap="round" stroke-linejoin="round"/>
<path fill-rule="evenodd" clip-rule="evenodd" d="M10.9321 18.992C10.9321 15.9886 13.3668 13.554 16.3701 13.554C19.3735 13.554 21.8081 15.9886 21.8081 18.992C21.8081 21.2382 20.4465 23.1632 18.5092 23.9927L18.5092 23.9927C17.8508 24.2746 17.1269 24.4299 16.3701 24.4299C13.3668 24.4299 10.9321 21.9953 10.9321 18.992ZM16.3701 16.3108C14.8894 16.3108 13.689 17.5112 13.689 18.992C13.689 20.4727 14.8894 21.673 16.3701 21.673C16.747 21.673 17.1023 21.5961 17.4241 21.4583L17.953 22.6937L17.4241 21.4583C17.4241 21.4583 17.4241 21.4583 17.4241 21.4583C18.3834 21.0476 19.0512 20.0962 19.0512 18.992C19.0512 17.5112 17.8509 16.3108 16.3701 16.3108Z" fill="#ff0"/>
<path fill-rule="evenodd" clip-rule="evenodd" d="M16.3701 13.8158C13.5114 13.8158 11.194 16.1332 11.194 18.9919C11.194 21.8506 13.5114 24.168 16.3701 24.168C17.0901 24.168 17.7785 24.0203 18.4044 23.7526L18.406 23.7519C20.2506 22.9621 21.5462 21.1295 21.5462 18.9919C21.5462 16.1332 19.2288 13.8158 16.3701 13.8158ZM10.6702 18.9919C10.6702 15.8439 13.2221 13.292 16.3701 13.292C19.5181 13.292 22.07 15.8439 22.07 18.9919C22.07 21.3461 20.6431 23.3631 18.6139 24.2327L18.6122 24.2334C17.9219 24.529 17.1629 24.6918 16.3701 24.6918C13.2221 24.6918 10.6702 22.1399 10.6702 18.9919ZM13.4271 18.9919C13.4271 17.3665 14.7447 16.0489 16.3701 16.0489C17.9955 16.0489 19.3131 17.3665 19.3131 18.9919C19.3131 20.1114 18.6877 21.0874 17.7632 21.5852L18.1937 22.5906C18.2506 22.7236 18.189 22.8775 18.056 22.9344C17.9231 22.9914 17.7691 22.9297 17.7122 22.7968L17.2817 21.7913C16.9957 21.8843 16.6897 21.9349 16.3701 21.9349C14.7447 21.9349 13.4271 20.6173 13.4271 18.9919ZM17.3209 21.2175C17.0312 21.3416 16.7109 21.4111 16.3701 21.4111C15.034 21.4111 13.9509 20.328 13.9509 18.9919C13.9509 17.6558 15.034 16.5727 16.3701 16.5727C17.7062 16.5727 18.7893 17.6558 18.7893 18.9919C18.7893 19.9878 18.187 20.8466 17.3209 21.2175Z" fill="white"/>
<path fill-rule="evenodd" clip-rule="evenodd" d="M16.3715 24.4322C15.4098 24.4322 14.4504 24.718 13.5836 25.2822C12.7147 25.8478 11.9631 26.6784 11.4191 27.713C11.0648 28.3868 10.2314 28.6459 9.55755 28.2916C8.88372 27.9373 8.62467 27.1039 8.97895 26.43C9.72517 25.0107 10.7867 23.8133 12.0797 22.9717C13.3749 22.1286 14.8535 21.6753 16.3715 21.6753C17.8895 21.6753 19.3681 22.1286 20.6633 22.9717C21.9563 23.8133 23.0178 25.0107 23.7641 26.43C24.1183 27.1039 23.8593 27.9373 23.1855 28.2916C22.5116 28.6459 21.6782 28.3868 21.3239 27.713C20.78 26.6784 20.0283 25.8478 19.1593 25.2822C18.2926 24.718 17.3332 24.4322 16.3715 24.4322Z" fill="#ff0"/>
<path fill-rule="evenodd" clip-rule="evenodd" d="M16.3715 21.9374C14.9064 21.9374 13.4771 22.3748 12.2226 23.1914C10.9698 24.0068 9.93777 25.1693 9.21076 26.5521C8.92379 27.0979 9.13362 27.773 9.67943 28.06C10.2252 28.3469 10.9003 28.1371 11.1873 27.5913C11.7505 26.5202 12.5316 25.6547 13.4408 25.0629C14.3482 24.4722 15.3569 24.1705 16.3715 24.1705C17.386 24.1705 18.3948 24.4722 19.3022 25.0629C20.2114 25.6547 20.9925 26.5202 21.5557 27.5913C21.8427 28.1371 22.5178 28.3469 23.0636 28.06C23.6094 27.773 23.8192 27.0979 23.5322 26.5521C22.8052 25.1693 21.7731 24.0068 20.5204 23.1914C19.2659 22.3748 17.8366 21.9374 16.3715 21.9374ZM11.9368 22.7524C13.2727 21.8828 14.8007 21.4136 16.3715 21.4136C17.9423 21.4136 19.4703 21.8828 20.8062 22.7524C22.1395 23.6202 23.2304 24.8525 23.9959 26.3083C24.4175 27.1102 24.1092 28.102 23.3073 28.5236C22.5055 28.9452 21.5137 28.6369 21.0921 27.8351C20.5674 26.8371 19.8451 26.0413 19.0165 25.5019C18.1905 24.9642 17.2804 24.6943 16.3715 24.6943C15.4626 24.6943 14.5525 24.9642 13.7265 25.5019C12.8979 26.0413 12.1757 26.8371 11.6509 27.8351C11.2293 28.6369 10.2375 28.9452 9.43566 28.5236C8.6338 28.102 8.32553 27.1102 8.74713 26.3083C9.51256 24.8525 10.6035 23.6202 11.9368 22.7524Z" fill="white"/>
<rect x="27.238" y="25.1428" width="16.7619" height="16.7619" rx="8.38095" fill="white"/>
<circle cx="35.6189" cy="33.5237" r="6.98413" fill="white"/>
<path fill-rule="evenodd" clip-rule="evenodd" d="M42.603 33.5237C42.603 37.3809 39.4761 40.5078 35.6189 40.5078C31.7617 40.5078 28.6348 37.3809 28.6348 33.5237C28.6348 29.6665 31.7617 26.5396 35.6189 26.5396C39.4761 26.5396 42.603 29.6665 42.603 33.5237ZM33.0943 30.9991C33.3865 30.7069 33.8603 30.7069 34.1526 30.9991L35.6189 32.4654L37.0852 30.9991C37.3775 30.7069 37.8513 30.7069 38.1435 30.9991C38.4357 31.2913 38.4357 31.7651 38.1435 32.0573L36.6771 33.5237L38.1435 34.99C38.4357 35.2822 38.4357 35.756 38.1435 36.0483C37.8513 36.3405 37.3775 36.3405 37.0852 36.0483L35.6189 34.5819L34.1526 36.0483C33.8603 36.3405 33.3865 36.3405 33.0943 36.0483C32.8021 35.756 32.8021 35.2822 33.0943 34.99L34.5606 33.5237L33.0943 32.0573C32.8021 31.7651 32.8021 31.2913 33.0943 30.9991Z" fill="#FF2B05"/>
</svg>
