<svg width="40" height="41" viewBox="0 0 40 41" fill="none" xmlns="http://www.w3.org/2000/svg">
<rect y="0.00195312" width="40" height="40" rx="20" fill="#FFF8E5"/>
<path d="M12.8514 21.912V26.0231C12.8514 28.2206 14.6328 30.0019 16.8302 30.0019C19.0276 30.0019 20.809 28.2206 20.809 26.0231C20.809 25.3488 20.809 24.6984 20.809 24.6984L12.8514 21.912Z" fill="#FFA400"/>
<path d="M28.7743 10.0173C28.5508 9.98428 28.3229 10.0048 28.1089 10.077L11.4414 15.8756C11.0235 16.0217 10.6612 16.2937 10.4043 16.6542C10.1473 17.0147 10.0084 17.4459 10.0067 17.8886V19.4475L10.0071 19.4719C10.0218 19.9036 10.1668 20.3206 10.4228 20.6684C10.6789 21.0162 11.0342 21.2784 11.4419 21.4207L28.1023 27.2312L28.1089 27.2335C28.3229 27.3057 28.5508 27.3261 28.7743 27.2931C28.9976 27.2602 29.21 27.1748 29.394 27.0438C29.5779 26.9128 29.728 26.74 29.8323 26.5397C29.9366 26.3394 29.9918 26.1172 29.9934 25.8914V11.4243V11.419C29.9918 11.1932 29.9366 10.971 29.8323 10.7707C29.728 10.5704 29.5779 10.3977 29.394 10.2667C29.21 10.1357 28.9976 10.0502 28.7743 10.0173Z" fill="#FFC509"/>
<rect x="0.25" y="0.251953" width="39.5" height="39.5" rx="19.75" stroke="#111827" stroke-opacity="0.1" stroke-width="0.5"/>
</svg>
