<svg width="24" height="24" viewBox="0 0 24 24" fill="none" xmlns="http://www.w3.org/2000/svg">
<path fill-rule="evenodd" clip-rule="evenodd" d="M10.0994 21.1779C10.0994 20.7239 10.4674 20.356 10.9213 20.356H13.798C14.2519 20.356 14.6199 20.7239 14.6199 21.1779C14.6199 21.6318 14.2519 21.9998 13.798 21.9998H10.9213C10.4674 21.9998 10.0994 21.6318 10.0994 21.1779Z" fill="#000"/>
<path fill-rule="evenodd" clip-rule="evenodd" d="M11.9999 2C10.1144 2 8.30613 2.74902 6.97288 4.08227C5.63961 5.41554 4.89059 7.22382 4.89059 9.10933V15.4569C4.89059 15.9017 4.71389 16.3283 4.3994 16.6428C4.04256 16.9997 3.76206 17.1341 3.36981 17.1341C2.97262 17.1341 2.65063 17.456 2.65063 17.8532C2.65063 18.2504 2.97262 18.5724 3.36981 18.5724H20.6301C21.0273 18.5724 21.3493 18.2504 21.3493 17.8532C21.3493 17.456 21.0273 17.1341 20.6301 17.1341C20.2378 17.1341 19.9574 16.9998 19.6004 16.6428C19.286 16.3283 19.1093 15.9018 19.1093 15.4569V10.9518C19.1093 10.4913 18.5766 10.1996 18.1384 10.3409C17.8767 10.4252 17.671 10.6575 17.671 10.9325V15.4569C17.671 16.0559 17.8434 16.6371 18.1608 17.1341H5.839C6.15647 16.6371 6.32894 16.0559 6.32894 15.4569V9.10933C6.32894 7.6053 6.92642 6.16287 7.98995 5.09934C9.05345 4.03583 10.4959 3.43836 11.9999 3.43836C12.6363 3.43836 12.8944 3.40393 13.3255 3.54659C13.5743 3.62894 13.8486 3.57324 14.0443 3.39888C14.4095 3.07355 14.4405 2.41723 13.9791 2.25529C13.3925 2.04944 12.8262 2 11.9999 2Z" fill="#000"/>
<path d="M17.214 9.26391C18.8358 9.26391 20.1506 7.94913 20.1506 6.32727C20.1506 4.70541 18.8358 3.39062 17.214 3.39062C15.5921 3.39062 14.2773 4.70541 14.2773 6.32727C14.2773 7.94913 15.5921 9.26391 17.214 9.26391Z" fill="#ff0"/>
</svg>
