<svg width="24" height="24" viewBox="0 0 24 24" fill="none" xmlns="http://www.w3.org/2000/svg">
    <path fill-rule="evenodd" clip-rule="evenodd" d="M9.78467 21.2104C9.78467 20.7744 10.1381 20.4209 10.5741 20.4209H13.4262C13.8622 20.4209 14.2157 20.7744 14.2157 21.2104C14.2157 21.6464 13.8622 21.9998 13.4262 21.9998H10.5741C10.1381 21.9998 9.78467 21.6464 9.78467 21.2104Z" fill="#000"/>
    <path fill-rule="evenodd" clip-rule="evenodd" d="M6.96192 4.08683C8.29809 2.75066 10.1103 2 12 2C13.8896 2 15.7019 2.75066 17.038 4.08682C18.3742 5.423 19.1249 7.23524 19.1249 9.1249V15.4181C19.1249 15.8389 19.2921 16.2424 19.5895 16.5398C19.9336 16.8839 20.1932 17.0045 20.5562 17.0045C20.9922 17.0045 21.3457 17.3579 21.3457 17.7939C21.3457 18.2299 20.9922 18.5834 20.5562 18.5834H3.44377C3.00776 18.5834 2.6543 18.2299 2.6543 17.7939C2.6543 17.3579 3.00776 17.0045 3.44377 17.0045C3.8068 17.0045 4.06644 16.8839 4.41039 16.5398L4.41048 16.5397C4.70794 16.2423 4.87507 15.8389 4.87507 15.4181V9.1249C4.87507 7.23526 5.62573 5.42302 6.96192 4.08683ZM6.02782 17.0045C6.30463 16.5265 6.45401 15.98 6.45401 15.4181V9.1249C6.45401 7.65403 7.03832 6.24339 8.0784 5.20332C9.11846 4.16325 10.5291 3.57895 12 3.57895C13.4709 3.57895 14.8815 4.16325 15.9215 5.20331L15.9215 5.20333C16.9616 6.24341 17.546 7.65404 17.546 9.1249V15.4181C17.546 15.98 17.6954 16.5265 17.9721 17.0045H6.02782Z" fill="#000"/>
</svg>
