<svg width="24" height="24" viewBox="0 0 24 24" fill="none" xmlns="http://www.w3.org/2000/svg">
<path d="M10.6064 21H13.3933" stroke="#000" stroke-width="1.71429" stroke-linecap="round" stroke-linejoin="round"/>
<path fill-rule="evenodd" clip-rule="evenodd" d="M18.1905 11.8432C17.794 11.9456 17.3782 12 16.9498 12C14.216 12 11.9998 9.78381 11.9998 7.05C11.9998 5.52771 12.6869 4.16591 13.768 3.25789C13.1992 3.08835 12.6041 3 11.9998 3C10.3579 3 8.78333 3.65222 7.62237 4.81319C6.4614 5.97416 5.80917 7.54877 5.80917 9.19062V15.34C5.80917 15.9557 5.56459 16.5462 5.12922 16.9815C4.69387 17.4169 4.25485 17.6615 3.63916 17.6615H20.3605C19.7447 17.6615 19.3058 17.4169 18.8703 16.9815C18.435 16.5462 18.1905 15.9557 18.1905 15.34V11.8432Z" fill="#000"/>
<path d="M18.1905 11.8432H19.0476C19.0476 11.5781 18.925 11.328 18.7154 11.1656C18.5058 11.0033 18.2329 10.947 17.9763 11.0133L18.1905 11.8432ZM13.768 3.25789L14.3193 3.91423C14.5607 3.71147 14.6713 3.39255 14.6073 3.08385C14.5433 2.77516 14.315 2.52652 14.0129 2.43646L13.768 3.25789ZM7.62237 4.81319L7.01628 4.20709L7.62237 4.81319ZM5.12922 16.9815L4.52317 16.3754L4.52306 16.3755L5.12922 16.9815ZM3.63916 16.8044C3.16577 16.8044 2.78202 17.1881 2.78202 17.6615C2.78202 18.1349 3.16577 18.5186 3.63916 18.5186V16.8044ZM20.3605 18.5186C20.8339 18.5186 21.2176 18.1349 21.2176 17.6615C21.2176 17.1881 20.8339 16.8044 20.3605 16.8044V18.5186ZM18.8703 16.9815L19.4764 16.3754L19.4764 16.3754L18.8703 16.9815ZM16.9498 12.8571C17.4511 12.8571 17.9388 12.7934 18.4047 12.6732L17.9763 11.0133C17.6491 11.0977 17.3053 11.1429 16.9498 11.1429V12.8571ZM11.1426 7.05C11.1426 10.2572 13.7426 12.8571 16.9498 12.8571V11.1429C14.6893 11.1429 12.8569 9.31042 12.8569 7.05H11.1426ZM13.2167 2.60155C11.9501 3.66546 11.1426 5.26385 11.1426 7.05H12.8569C12.8569 5.79157 13.4238 4.66636 14.3193 3.91423L13.2167 2.60155ZM14.0129 2.43646C13.3653 2.24344 12.6877 2.14286 11.9998 2.14286V3.85714C12.5204 3.85714 13.0331 3.93326 13.5232 4.07932L14.0129 2.43646ZM11.9998 2.14286C10.1306 2.14286 8.33799 2.88539 7.01628 4.20709L8.22846 5.41928C9.22868 4.41906 10.5853 3.85714 11.9998 3.85714V2.14286ZM7.01628 4.20709C5.69456 5.52881 4.95203 7.32143 4.95203 9.19062H6.66631C6.66631 7.7761 7.22823 6.41951 8.22846 5.41928L7.01628 4.20709ZM4.95203 9.19062V15.34H6.66631V9.19062H4.95203ZM4.95203 15.34C4.95203 15.7284 4.79774 16.1008 4.52317 16.3754L5.73528 17.5876C6.33144 16.9915 6.66631 16.183 6.66631 15.34H4.95203ZM4.52306 16.3755C4.19801 16.7006 3.96489 16.8044 3.63916 16.8044V18.5186C4.54481 18.5186 5.18973 18.1333 5.73538 17.5875L4.52306 16.3755ZM3.63916 18.5186H20.3605V16.8044H3.63916V18.5186ZM20.3605 16.8044C20.0347 16.8044 19.8016 16.7006 19.4764 16.3754L18.2642 17.5876C18.8099 18.1333 19.4547 18.5186 20.3605 18.5186V16.8044ZM19.4764 16.3754C19.2019 16.1009 19.0476 15.7284 19.0476 15.34H17.3333C17.3333 16.183 17.6681 16.9915 18.2642 17.5876L19.4764 16.3754ZM19.0476 15.34V11.8432H17.3333V15.34H19.0476Z" fill="#000"/>
<path d="M16.8935 9.81768C18.4157 9.81768 19.6497 8.58366 19.6497 7.06143C19.6497 5.53919 18.4157 4.30518 16.8935 4.30518C15.3712 4.30518 14.1372 5.53919 14.1372 7.06143C14.1372 8.58366 15.3712 9.81768 16.8935 9.81768Z" fill="#ff0"/>
</svg>
