<svg width="24" height="24" viewBox="0 0 24 24" fill="none" xmlns="http://www.w3.org/2000/svg">
<path fill-rule="evenodd" clip-rule="evenodd" d="M16.6489 7.06723C17.0255 7.28701 17.1526 7.77045 16.9328 8.14702L12.3848 15.9396C12.3847 15.9398 12.3846 15.9399 12.3845 15.9401C12.2764 16.1258 12.1295 16.2862 11.9539 16.4101C11.7795 16.5332 11.5809 16.6176 11.3714 16.6576C11.159 16.6996 10.9399 16.6942 10.7298 16.6417C10.5201 16.5893 10.3246 16.4912 10.1571 16.3546L7.2558 14.0336C6.91533 13.7612 6.86012 13.2644 7.1325 12.9239C7.40488 12.5834 7.90169 12.5282 8.24216 12.8006L11.0688 15.062L15.5692 7.35113C15.7889 6.97456 16.2724 6.84745 16.6489 7.06723Z" fill="#000"/>
<path fill-rule="evenodd" clip-rule="evenodd" d="M12 3.57895C7.34918 3.57895 3.57895 7.34918 3.57895 12C3.57895 16.6508 7.34918 20.4211 12 20.4211C16.6508 20.4211 20.4211 16.6508 20.4211 12C20.4211 7.34918 16.6508 3.57895 12 3.57895ZM2 12C2 6.47715 6.47715 2 12 2C17.5228 2 22 6.47715 22 12C22 17.5228 17.5228 22 12 22C6.47715 22 2 17.5228 2 12Z" fill="#000"/>
</svg>
