<svg width="12" height="12" viewBox="0 0 12 12" fill="none" xmlns="http://www.w3.org/2000/svg">
<path fill-rule="evenodd" clip-rule="evenodd" d="M1 6C1 3.23858 3.23858 1 6 1C8.76146 1 11 3.23858 11 6C11 8.76146 8.76146 11 6 11C3.23858 11 1 8.76146 1 6ZM6 1.78947C3.67459 1.78947 1.78947 3.67459 1.78947 6C1.78947 8.32544 3.67459 10.2105 6 10.2105C8.32544 10.2105 10.2105 8.32544 10.2105 6C10.2105 3.67459 8.32544 1.78947 6 1.78947Z" fill="#ff0"/>
<path fill-rule="evenodd" clip-rule="evenodd" d="M5.25153 3.87448C5.25153 3.46082 5.58686 3.12549 6.00051 3.12549C6.41417 3.12549 6.7495 3.46082 6.7495 3.87448C6.7495 4.28813 6.41417 4.62346 6.00051 4.62346C5.58686 4.62346 5.25153 4.28813 5.25153 3.87448ZM4.89728 5.64571C4.89728 5.42771 5.07401 5.25098 5.29201 5.25098H6.00052C6.21852 5.25098 6.39525 5.42771 6.39525 5.64571V7.73074H7.06321C7.28122 7.73074 7.45795 7.90747 7.45795 8.12548C7.45795 8.34349 7.28122 8.52022 7.06321 8.52022H4.93771C4.7197 8.52022 4.54297 8.34349 4.54297 8.12548C4.54297 7.90747 4.7197 7.73074 4.93771 7.73074H5.60578V6.04045H5.29201C5.07401 6.04045 4.89728 5.86372 4.89728 5.64571Z" fill="#000"/>
</svg>
