<svg width="48" height="48" viewBox="0 0 48 48" fill="none" xmlns="http://www.w3.org/2000/svg">
<path d="M27.692 30.9229H9.23047V34.6152H27.692V30.9229Z" fill="#FF8800"/>
<path d="M17.5381 37.3847V40.1539C17.5381 41.677 18.7842 42.9232 20.3073 42.9232H32.3073C33.8304 42.9232 35.0765 41.677 35.0765 40.1539V26.3078V19.3847V14.3078M17.5381 24.4616V12.4616C17.5381 10.9385 18.7842 9.69238 20.3073 9.69238H26.3073H29.3073" stroke="#0000FF" stroke-width="1.13"/>
<path d="M25.3848 12.4614H27.2309" stroke="#0000FF" stroke-width="1.13" stroke-linecap="round"/>
<path fill-rule="evenodd" clip-rule="evenodd" d="M39.2302 10.6156C39.2302 13.6744 36.7506 16.1541 33.6918 16.1541C30.633 16.1541 28.1533 13.6744 28.1533 10.6156C28.1533 7.55681 30.633 5.07715 33.6918 5.07715C36.7506 5.07715 39.2302 7.55681 39.2302 10.6156ZM36.087 9.56519C36.2716 9.38944 36.2787 9.09729 36.1029 8.91267C35.9272 8.7281 35.635 8.72099 35.4504 8.89679L32.8628 11.3612L31.935 10.4678C31.7514 10.291 31.4592 10.2965 31.2824 10.4801C31.1056 10.6637 31.1111 10.9559 31.2947 11.1327L32.5409 12.3327C32.7189 12.5041 33.0004 12.5049 33.1793 12.3344L36.087 9.56519Z" fill="#FF8800"/>
<path d="M11.0766 24.4614H25.8459C26.8612 24.4614 27.692 25.2922 27.692 26.3076V35.5383C27.692 36.5537 26.8612 37.3845 25.8459 37.3845H11.0766C10.0612 37.3845 9.23047 36.5537 9.23047 35.5383V26.3076C9.23047 25.2922 10.0151 24.4614 11.0766 24.4614Z" stroke="#0000FF" stroke-width="1.13"/>
<path fill-rule="evenodd" clip-rule="evenodd" d="M23.5382 28.7079C23.3074 28.9386 22.9843 29.0309 22.6151 29.0309C21.8305 29.0309 21.2305 28.4309 21.2305 27.6463C21.2305 26.8617 21.8305 26.2617 22.6151 26.2617C22.9843 26.2617 23.3074 26.4002 23.5382 26.5848C23.7689 26.354 24.092 26.2617 24.4612 26.2617C25.2459 26.2617 25.8459 26.8617 25.8459 27.6463C25.8459 28.4309 25.2459 29.0309 24.4612 29.0309C24.092 29.0771 23.7689 28.9386 23.5382 28.7079Z" fill="#FF8800"/>
</svg>
