<svg width="24" height="24" viewBox="0 0 24 24" fill="none" xmlns="http://www.w3.org/2000/svg">
<path fill-rule="evenodd" clip-rule="evenodd" d="M4.20648 6.41293C3.8599 6.41293 3.57895 6.69389 3.57895 7.04046V16.9595C3.57895 17.3061 3.8599 17.587 4.20648 17.587H19.7935C20.1401 17.587 20.4211 17.3061 20.4211 16.9595V7.04046C20.4211 6.69389 20.1401 6.41293 19.7935 6.41293H4.20648ZM2 7.04046C2 5.82186 2.98787 4.83398 4.20648 4.83398H19.7935C21.0121 4.83398 22 5.82186 22 7.04046V16.9595C22 18.1781 21.0121 19.166 19.7935 19.166H4.20648C2.98787 19.166 2 18.1781 2 16.9595V7.04046Z" fill="#0C0C0E"/>
<path fill-rule="evenodd" clip-rule="evenodd" d="M12.0002 10.6639C11.2623 10.6639 10.6642 11.2621 10.6642 11.9999C10.6642 12.7378 11.2623 13.336 12.0002 13.336C12.7381 13.336 13.3362 12.7378 13.3362 11.9999C13.3362 11.2621 12.7381 10.6639 12.0002 10.6639ZM9.08521 11.9999C9.08521 10.39 10.3903 9.08496 12.0002 9.08496C13.6101 9.08496 14.9152 10.39 14.9152 11.9999C14.9152 13.6098 13.6101 14.9149 12.0002 14.9149C10.3903 14.9149 9.08521 13.6098 9.08521 11.9999Z" fill="#0000F5"/>
<path fill-rule="evenodd" clip-rule="evenodd" d="M5.54248 9.16643C5.54248 8.73041 5.89594 8.37695 6.33195 8.37695H7.04046C7.47647 8.37695 7.82993 8.73041 7.82993 9.16643C7.82993 9.60244 7.47647 9.9559 7.04046 9.9559H6.33195C5.89594 9.9559 5.54248 9.60244 5.54248 9.16643Z" fill="#0000F5"/>
<path fill-rule="evenodd" clip-rule="evenodd" d="M16.1702 14.8344C16.1702 14.3984 16.5236 14.0449 16.9596 14.0449H17.6681C18.1042 14.0449 18.4576 14.3984 18.4576 14.8344C18.4576 15.2704 18.1042 15.6239 17.6681 15.6239H16.9596C16.5236 15.6239 16.1702 15.2704 16.1702 14.8344Z" fill="#0000F5"/>
</svg>
