<svg width="12" height="12" viewBox="0 0 12 12" fill="none" xmlns="http://www.w3.org/2000/svg">
<path fill-rule="evenodd" clip-rule="evenodd" d="M8.37039 2.21053C8.33278 2.21053 8.29555 2.21804 8.26088 2.23263C8.22621 2.24722 8.19481 2.26858 8.16852 2.29548L8.16512 2.29895L7.4351 3.02538L8.97657 4.56685L9.70303 3.83685L9.70467 3.83521C9.73114 3.80897 9.75214 3.77774 9.76647 3.74333C9.78081 3.70893 9.78819 3.67202 9.78819 3.63475C9.78819 3.59747 9.78081 3.56057 9.76647 3.52616C9.75214 3.49176 9.73114 3.46053 9.70467 3.43428L9.70293 3.43255L8.57226 2.29549C8.54597 2.26859 8.51457 2.24722 8.4799 2.23263C8.44524 2.21804 8.408 2.21053 8.37039 2.21053ZM8.47538 5.07049L6.93146 3.52657L3.16364 7.2761L4.72585 8.83831L8.47538 5.07049ZM4.04572 9.16302L2.83893 7.95623L2.36962 9.63233L4.04572 9.16302ZM7.98529 1.57772C8.1072 1.52643 8.23813 1.5 8.37039 1.5C8.50265 1.5 8.63358 1.52643 8.75549 1.57772C8.87691 1.62882 8.98694 1.70356 9.07918 1.79759C9.07955 1.79797 9.07992 1.79835 9.0803 1.79873L10.205 2.92981C10.2053 2.93012 10.2056 2.93043 10.206 2.93074C10.2986 3.02285 10.3721 3.13233 10.4224 3.25291C10.4728 3.3739 10.4987 3.50368 10.4987 3.63475C10.4987 3.76582 10.4728 3.89559 10.4224 4.01658C10.3721 4.1372 10.2985 4.24671 10.2059 4.33883C10.2056 4.33912 10.2053 4.3394 10.205 4.33969L4.97828 9.59194C4.93504 9.63539 4.88128 9.66692 4.82225 9.68345L1.95301 10.4868C1.82942 10.5214 1.69677 10.4867 1.60602 10.3959C1.51526 10.3052 1.48051 10.1725 1.51512 10.0489L2.31851 7.1797C2.33504 7.12067 2.36656 7.06692 2.41001 7.02367L7.66238 1.7968C7.75446 1.70314 7.86422 1.62867 7.98529 1.57772Z" fill="white"/>
</svg>
