<svg width="41" height="40" viewBox="0 0 41 40" fill="none" xmlns="http://www.w3.org/2000/svg">
<rect x="0.5" width="40" height="40" rx="20" fill="#F3FCF7"/>
<rect x="1" y="0.5" width="39" height="39" rx="19.5" stroke="#0C0C0E" stroke-opacity="0.05"/>
<path d="M19.3697 15C18.3573 14.9987 17.3851 15.3957 16.6629 16.1052C16.2952 16.4648 16.0031 16.8943 15.8038 17.3686C15.6046 17.8428 15.5023 18.352 15.5029 18.8664C15.5029 19.272 15.7417 19.6892 16.2013 19.7592C16.3677 19.7848 16.5689 19.802 16.8049 19.8C17.0051 19.7988 17.205 19.7833 17.4029 19.7536C17.8577 19.6836 18.1029 19.2736 18.1029 18.8664C18.1029 18.5212 18.2409 18.2088 18.4649 17.98C18.5827 17.8595 18.7235 17.7637 18.8789 17.6985C19.0343 17.6332 19.2012 17.5997 19.3697 17.6C19.7761 17.6 20.1897 17.358 20.2597 16.9008C20.2893 16.7019 20.3038 16.5011 20.3029 16.3C20.3038 16.0989 20.2893 15.8981 20.2597 15.6992C20.1897 15.242 19.7757 15 19.3697 15Z" fill="#C9F3DE"/>
<path d="M18.9573 11C14.8405 11 11.5029 14.3376 11.5029 18.4544V18.6676C11.5029 19.1896 11.8157 19.7168 12.4009 19.7776C12.5337 19.7916 12.6829 19.8 12.8485 19.8C13.0141 19.8 13.1633 19.7916 13.2957 19.7776C13.8809 19.7168 14.1937 19.1896 14.1937 18.6676V18.4544C14.1937 15.8236 16.3265 13.6908 18.9577 13.6908H19.1705C19.6925 13.6908 20.2197 13.378 20.2805 12.7928C20.2945 12.6604 20.3029 12.5112 20.3029 12.3456C20.3029 12.18 20.2945 12.0308 20.2805 11.898C20.2197 11.3128 19.6925 11 19.1705 11H18.9573Z" fill="#C9F3DE"/>
<path d="M29.4961 16.2224C29.2729 23.3172 23.4517 29 16.3029 29C13.5697 29 11.5029 26.866 11.5029 24.1724C11.5029 23.8127 11.6108 23.4612 11.8125 23.1633C12.0142 22.8654 12.3005 22.6348 12.6345 22.5012L15.1005 21.5148C15.5003 21.3548 15.9382 21.3157 16.36 21.4022C16.7817 21.4888 17.1689 21.6972 17.4733 22.0016L18.7037 23.2324C18.7581 23.2868 18.8193 23.2932 18.8565 23.282C20.0188 22.9271 21.076 22.2921 21.9353 21.4328C22.7946 20.5735 23.4296 19.5162 23.7845 18.354C23.7961 18.3164 23.7897 18.2552 23.7353 18.2008L22.5045 16.9704C22.2001 16.6659 21.9917 16.2788 21.9052 15.857C21.8186 15.4352 21.8578 14.9974 22.0177 14.5976L23.0041 12.1316C23.1377 11.7976 23.3683 11.5112 23.6662 11.3095C23.9641 11.1078 24.3156 11 24.6753 11C27.6213 11 29.5417 13.3444 29.4961 16.2224Z" fill="#63DB9E"/>
</svg>
