<svg width="24" height="24" viewBox="0 0 24 24" fill="none" xmlns="http://www.w3.org/2000/svg">
<path fill-rule="evenodd" clip-rule="evenodd" d="M19.0179 3.60681C18.6284 3.22595 18.1052 3.0127 17.5604 3.0127C17.0156 3.0127 16.4924 3.22595 16.1028 3.60681L16.0971 3.61242L13.6747 6.03484C13.2939 6.42238 13.0805 6.94402 13.0805 7.48738C13.0805 8.03074 13.2939 8.55236 13.6747 8.93989L14.1815 8.44187L13.6828 8.94794C13.7431 9.00735 13.7909 9.07814 13.8236 9.15622C13.8563 9.23429 13.8731 9.31807 13.8731 9.40271C13.8731 9.48734 13.8563 9.57113 13.8236 9.6492C13.7909 9.72727 13.7431 9.79807 13.6828 9.85747L13.6791 9.86112L9.86454 13.6757C9.74074 13.7955 9.57514 13.8626 9.40274 13.8626C9.22925 13.8626 9.06265 13.7947 8.9386 13.6734L8.44197 14.1814L8.93992 13.6747C8.55239 13.2939 8.03077 13.0804 7.48741 13.0804C6.94405 13.0804 6.42243 13.2939 6.03489 13.6747L6.03316 13.6764L3.60241 16.0817L3.59412 16.0901C3.21325 16.4796 3 17.0028 3 17.5476C3 18.0924 3.21325 18.6156 3.59412 19.0052L3.60544 19.0165L4.17376 19.5722C4.94293 20.3495 5.95589 20.8391 7.04303 20.9586C8.13236 21.0785 9.22973 20.8196 10.1506 20.2255L9.76545 19.6284L10.1629 20.2174C14.1272 17.5423 17.5439 14.1345 20.2291 10.1771L20.2382 10.1633C20.8323 9.24243 21.0912 8.14506 20.9714 7.05573C20.8518 5.96859 20.3623 4.95563 19.585 4.18646L19.0293 3.61813L19.0179 3.60681ZM9.37436 19.0351C8.72901 19.4496 7.96091 19.63 7.19841 19.5461C6.43359 19.462 5.72106 19.1171 5.18062 18.5694L5.17161 18.5604L4.60566 18.007C4.48725 17.8835 4.42105 17.7189 4.42105 17.5476C4.42105 17.3757 4.4877 17.2106 4.60687 17.087L7.03096 14.6882C7.03121 14.688 7.03146 14.6878 7.03172 14.6875C7.15342 14.5683 7.31701 14.5015 7.48741 14.5015C7.65816 14.5015 7.82208 14.5686 7.94386 14.6882L8.44197 14.1814L7.94518 14.6895C8.33475 15.0704 8.85792 15.2837 9.40274 15.2837C9.94755 15.2837 10.4707 15.0704 10.8603 14.6895L10.866 14.6839L14.6823 10.8676C14.6816 10.8683 14.6809 10.869 14.6802 10.8696L14.1815 10.3636L14.6839 10.866L14.6823 10.8676C14.8758 10.6764 15.0295 10.4488 15.1345 10.1978C15.2399 9.94598 15.2942 9.67571 15.2942 9.40271C15.2942 9.12971 15.2399 8.85943 15.1345 8.6076C15.03 8.35801 14.8774 8.13148 14.6854 7.94092C14.5675 7.81944 14.5015 7.65677 14.5015 7.48738C14.5015 7.31747 14.5679 7.15432 14.6865 7.03272L17.0986 4.62064C17.2224 4.5008 17.388 4.43375 17.5604 4.43375C17.7317 4.43375 17.8963 4.49995 18.0198 4.61837L18.5732 5.1843L18.5821 5.19332C19.1298 5.73375 19.4747 6.44628 19.5589 7.2111C19.6427 7.97331 19.4625 8.74112 19.0484 9.38632C16.4669 13.1888 13.1835 16.4636 9.37436 19.0351Z" fill="#000"/>
</svg>
