<svg width="24" height="24" viewBox="0 0 24 24" fill="none" xmlns="http://www.w3.org/2000/svg">
<path fill-rule="evenodd" clip-rule="evenodd" d="M4.83398 4.20648C4.83398 2.98787 5.82187 2 7.04046 2H16.9595C18.1781 2 19.166 2.98788 19.166 4.20648V19.7935C19.166 21.0121 18.1781 22 16.9595 22H7.04046C5.82187 22 4.83398 21.0122 4.83398 19.7935V4.20648ZM7.04046 3.57895C6.69389 3.57895 6.41293 3.8599 6.41293 4.20648V19.7935C6.41293 20.1401 6.69388 20.4211 7.04046 20.4211H16.9595C17.3061 20.4211 17.587 20.1401 17.587 19.7935V4.20648C17.587 3.85989 17.3061 3.57895 16.9595 3.57895H7.04046Z" fill="#0C0C0E" fill-opacity="0.45"/>
<path fill-rule="evenodd" clip-rule="evenodd" d="M10.502 17.6684C10.502 17.2324 10.8554 16.8789 11.2914 16.8789H12.7084C13.1444 16.8789 13.4979 17.2324 13.4979 17.6684C13.4979 18.1044 13.1444 18.4579 12.7084 18.4579H11.2914C10.8554 18.4579 10.502 18.1044 10.502 17.6684Z" fill="#0C0C0E" fill-opacity="0.45"/>
</svg>
