<svg width="40" height="40" viewBox="0 0 40 40" fill="none" xmlns="http://www.w3.org/2000/svg">
<rect width="40" height="40" rx="20" fill="#F3FCF7"/>
<rect x="0.5" y="0.5" width="39" height="39" rx="19.5" stroke="#0C0C0E" stroke-opacity="0.05"/>
<path d="M18.8697 15C17.8573 14.9987 16.8851 15.3957 16.1629 16.1052C15.7952 16.4648 15.5031 16.8943 15.3038 17.3686C15.1046 17.8428 15.0023 18.352 15.0029 18.8664C15.0029 19.272 15.2417 19.6892 15.7013 19.7592C15.8677 19.7848 16.0689 19.802 16.3049 19.8C16.5051 19.7988 16.705 19.7833 16.9029 19.7536C17.3577 19.6836 17.6029 19.2736 17.6029 18.8664C17.6029 18.5212 17.7409 18.2088 17.9649 17.98C18.0827 17.8595 18.2235 17.7637 18.3789 17.6985C18.5343 17.6332 18.7012 17.5997 18.8697 17.6C19.2761 17.6 19.6897 17.358 19.7597 16.9008C19.7893 16.7019 19.8038 16.5011 19.8029 16.3C19.8038 16.0989 19.7893 15.8981 19.7597 15.6992C19.6897 15.242 19.2757 15 18.8697 15Z" fill="#C9F3DE"/>
<path d="M18.4573 11C14.3405 11 11.0029 14.3376 11.0029 18.4544V18.6676C11.0029 19.1896 11.3157 19.7168 11.9009 19.7776C12.0337 19.7916 12.1829 19.8 12.3485 19.8C12.5141 19.8 12.6633 19.7916 12.7957 19.7776C13.3809 19.7168 13.6937 19.1896 13.6937 18.6676V18.4544C13.6937 15.8236 15.8265 13.6908 18.4577 13.6908H18.6705C19.1925 13.6908 19.7197 13.378 19.7805 12.7928C19.7945 12.6604 19.8029 12.5112 19.8029 12.3456C19.8029 12.18 19.7945 12.0308 19.7805 11.898C19.7197 11.3128 19.1925 11 18.6705 11H18.4573Z" fill="#C9F3DE"/>
<path d="M28.9961 16.2224C28.7729 23.3172 22.9517 29 15.8029 29C13.0697 29 11.0029 26.866 11.0029 24.1724C11.0029 23.8127 11.1108 23.4612 11.3125 23.1633C11.5142 22.8654 11.8005 22.6348 12.1345 22.5012L14.6005 21.5148C15.0003 21.3548 15.4382 21.3157 15.86 21.4022C16.2817 21.4888 16.6689 21.6972 16.9733 22.0016L18.2037 23.2324C18.2581 23.2868 18.3193 23.2932 18.3565 23.282C19.5188 22.9271 20.576 22.2921 21.4353 21.4328C22.2946 20.5735 22.9296 19.5162 23.2845 18.354C23.2961 18.3164 23.2897 18.2552 23.2353 18.2008L22.0045 16.9704C21.7001 16.6659 21.4917 16.2788 21.4052 15.857C21.3186 15.4352 21.3578 14.9974 21.5177 14.5976L22.5041 12.1316C22.6377 11.7976 22.8683 11.5112 23.1662 11.3095C23.4641 11.1078 23.8156 11 24.1753 11C27.1213 11 29.0417 13.3444 28.9961 16.2224Z" fill="#63DB9E"/>
</svg>
