<svg width="24" height="24" viewBox="0 0 24 24" fill="none" xmlns="http://www.w3.org/2000/svg">
<path fill-rule="evenodd" clip-rule="evenodd" d="M18.1244 3.12932C18.5046 2.99067 18.9166 2.96281 19.3122 3.04912C19.7121 3.13637 20.0786 3.33662 20.3681 3.62608C20.6575 3.91553 20.8578 4.282 20.945 4.68194C21.0313 5.07757 21.0035 5.48949 20.8648 5.86976L16.3076 19.5287C16.3074 19.5292 16.3073 19.5297 16.3071 19.5302C16.1921 19.8778 15.9898 20.1901 15.7194 20.4371C15.4497 20.6835 15.1215 20.8566 14.7659 20.94C14.4102 21.0267 14.038 21.0193 13.6859 20.9187C13.3341 20.8182 13.0146 20.6281 12.7584 20.367L10.3514 17.971L7.83024 19.2747C7.60706 19.3901 7.33952 19.379 7.12661 19.2456C6.9137 19.1122 6.78708 18.8763 6.79359 18.6251L6.90035 14.5089L3.62528 11.2339C3.37774 10.9866 3.19551 10.6817 3.09496 10.3465C2.99523 10.0141 2.97897 9.66218 3.04759 9.32202C3.11646 8.95057 3.28256 8.60395 3.52903 8.31752C3.77731 8.02897 4.09815 7.81195 4.45839 7.68891L4.46317 7.68728L18.1244 3.12932ZM19.0093 4.43752C18.8752 4.40827 18.7356 4.41813 18.607 4.46593C18.5995 4.46872 18.5919 4.47138 18.5843 4.47391L4.91772 9.03368C4.91706 9.03391 4.91639 9.03413 4.91573 9.03436C4.79579 9.07572 4.68897 9.1482 4.6062 9.24439C4.52298 9.34111 4.46709 9.4583 4.44432 9.58385L4.44113 9.6003C4.41805 9.71243 4.42319 9.82853 4.45609 9.93818C4.48898 10.0478 4.5486 10.1476 4.62959 10.2285L8.12097 13.7199C8.25874 13.8576 8.33389 14.0459 8.32884 14.2407L8.24534 17.4602L10.159 16.4707C10.4333 16.3289 10.7678 16.3804 10.9866 16.5983L13.7716 19.3704C13.8556 19.4566 13.9606 19.5193 14.0763 19.5524C14.192 19.5854 14.3143 19.5877 14.4311 19.559L14.4399 19.5568C14.5596 19.529 14.6702 19.4709 14.7609 19.388C14.8517 19.305 14.9196 19.2002 14.9581 19.0835L14.9588 19.0812L19.5202 5.40978C19.5227 5.40219 19.5254 5.39464 19.5282 5.38715C19.576 5.25853 19.5859 5.11889 19.5566 4.98483C19.5274 4.85078 19.4602 4.72793 19.3632 4.63091C19.2662 4.53389 19.1434 4.46676 19.0093 4.43752Z" fill="#000"/>
<path fill-rule="evenodd" clip-rule="evenodd" d="M20.3322 3.62574C20.5835 3.92717 20.5428 4.37521 20.2414 4.62646L8.07343 14.7685C7.77199 15.0198 7.32396 14.9791 7.07271 14.6777C6.82146 14.3762 6.86214 13.9282 7.16358 13.6769L19.3315 3.53487C19.633 3.28362 20.081 3.3243 20.3322 3.62574Z" fill="#000" />
</svg>
