<svg width="24" height="24" viewBox="0 0 24 24" fill="none" xmlns="http://www.w3.org/2000/svg">
<path fill-rule="evenodd" clip-rule="evenodd" d="M6.261 10.0142C6.65342 10.0142 6.97153 10.3323 6.97153 10.7247V18.3036H17.0282V10.7247C17.0282 10.3323 17.3463 10.0142 17.7387 10.0142C18.1311 10.0142 18.4493 10.3323 18.4493 10.7247V19.0142C18.4493 19.4066 18.1311 19.7247 17.7387 19.7247H6.261C5.86859 19.7247 5.55048 19.4066 5.55048 19.0142V10.7247C5.55048 10.3323 5.86859 10.0142 6.261 10.0142Z" fill="#000"/>
<path fill-rule="evenodd" clip-rule="evenodd" d="M12 14.4778C12.3924 14.4778 12.7105 14.7959 12.7105 15.1883V19.0142C12.7105 19.4066 12.3924 19.7247 12 19.7247C11.6076 19.7247 11.2895 19.4066 11.2895 19.0142V15.1883C11.2895 14.7959 11.6076 14.4778 12 14.4778Z" fill="#000"/>
<path fill-rule="evenodd" clip-rule="evenodd" d="M11.4976 4.4835C11.7751 4.20602 12.2249 4.20602 12.5024 4.4835L20.7919 12.773C21.0694 13.0505 21.0694 13.5003 20.7919 13.7778C20.5144 14.0553 20.0645 14.0553 19.7871 13.7778L12 5.99075L4.21294 13.7778C3.93547 14.0553 3.48559 14.0553 3.20811 13.7778C2.93063 13.5003 2.93063 13.0505 3.20811 12.773L11.4976 4.4835Z" fill="#ff0"/>
</svg>
