<svg width="16" height="16" viewBox="0 0 16 16" fill="none" xmlns="http://www.w3.org/2000/svg">
<circle cx="7.99967" cy="8.00065" r="6.66667" fill="white"/>
<path fill-rule="evenodd" clip-rule="evenodd" d="M7.99967 14.6673C11.6816 14.6673 14.6663 11.6826 14.6663 8.00065C14.6663 4.31876 11.6816 1.33398 7.99967 1.33398C4.31778 1.33398 1.33301 4.31876 1.33301 8.00065C1.33301 11.6826 4.31778 14.6673 7.99967 14.6673ZM8.59491 5.6197C8.59491 5.29096 8.32842 5.02446 7.99967 5.02446C7.67093 5.02446 7.40444 5.29096 7.40444 5.6197V8.00065C7.40444 8.1399 7.45326 8.27474 7.5424 8.38172L9.92335 11.2388C10.1338 11.4914 10.5091 11.5255 10.7617 11.315C11.0142 11.1047 11.0483 10.7293 10.8379 10.4767L8.59491 7.78515V5.6197Z" fill="#996E00"/>
</svg>
