<svg width="24" height="24" viewBox="0 0 24 24" fill="none" xmlns="http://www.w3.org/2000/svg">
<path fill-rule="evenodd" clip-rule="evenodd" d="M8.53441 4.44128C8.68351 4.24248 8.9175 4.12549 9.16599 4.12549H14.834C15.0825 4.12549 15.3165 4.24248 15.4656 4.44128L17.3542 6.9595H19.7935C20.3787 6.9595 20.9399 7.19196 21.3537 7.60576C21.7675 8.01955 22 8.58078 22 9.16597V17.668C22 18.2532 21.7675 18.8144 21.3537 19.2282C20.9399 19.642 20.3787 19.8745 19.7935 19.8745H4.20648C3.62128 19.8745 3.06006 19.642 2.64626 19.2282C2.23247 18.8144 2 18.2532 2 17.668V9.16597C2 8.58078 2.23247 8.01955 2.64626 7.60576C3.06006 7.19196 3.62128 6.9595 4.20648 6.9595H6.64575L8.53441 4.44128ZM9.56073 5.70444L7.67206 8.22265C7.52297 8.42145 7.28898 8.53844 7.04049 8.53844H4.20648C4.04005 8.53844 3.88043 8.60456 3.76275 8.72224C3.64506 8.83993 3.57895 8.99954 3.57895 9.16597V17.668C3.57895 17.8344 3.64506 17.994 3.76275 18.1117C3.88043 18.2294 4.04005 18.2955 4.20648 18.2955H19.7935C19.96 18.2955 20.1196 18.2294 20.2373 18.1117C20.3549 17.994 20.4211 17.8344 20.4211 17.668V9.16597C20.4211 8.99954 20.3549 8.83993 20.2373 8.72224C20.1196 8.60456 19.96 8.53844 19.7935 8.53844H16.9595C16.711 8.53844 16.477 8.42145 16.3279 8.22265L14.4393 5.70444H9.56073Z" fill="black"/>
<path fill-rule="evenodd" clip-rule="evenodd" d="M12.0001 10.3099C10.6753 10.3099 9.60129 11.3839 9.60129 12.7087C9.60129 14.0335 10.6753 15.1075 12.0001 15.1075C13.3249 15.1075 14.3989 14.0335 14.3989 12.7087C14.3989 11.3839 13.3249 10.3099 12.0001 10.3099ZM8.02234 12.7087C8.02234 10.5118 9.80323 8.73096 12.0001 8.73096C14.1969 8.73096 15.9778 10.5118 15.9778 12.7087C15.9778 14.9055 14.1969 16.6864 12.0001 16.6864C9.80323 16.6864 8.02234 14.9055 8.02234 12.7087Z" fill="#ff0"/>
</svg>
