<svg width="24" height="24" viewBox="0 0 24 24" fill="none" xmlns="http://www.w3.org/2000/svg">
<path fill-rule="evenodd" clip-rule="evenodd" d="M6.26116 4.42105C5.94924 4.42105 5.69638 4.67391 5.69638 4.98583V19.0142C5.69638 19.3261 5.94924 19.5789 6.26116 19.5789H17.7389C18.0508 19.5789 18.3037 19.3261 18.3037 19.0142V4.98583C18.3037 4.67391 18.0508 4.42105 17.7389 4.42105H6.26116ZM4.27533 4.98583C4.27533 3.88909 5.16442 3 6.26116 3H17.7389C18.8356 3 19.7247 3.88909 19.7247 4.98583V19.0142C19.7247 20.1109 18.8356 21 17.7389 21H6.26116C5.16442 21 4.27533 20.1109 4.27533 19.0142V4.98583Z" fill="#000"/>
<path fill-rule="evenodd" clip-rule="evenodd" d="M4.27533 10.087C4.27533 9.69458 4.59344 9.37646 4.98586 9.37646H19.0142C19.4066 9.37646 19.7247 9.69458 19.7247 10.087C19.7247 10.4794 19.4066 10.7975 19.0142 10.7975H4.98586C4.59344 10.7975 4.27533 10.4794 4.27533 10.087Z" fill="#000"/>
<path d="M8.49298 12.6377C8.3038 12.6377 8.11888 12.6938 7.96159 12.7989C7.80429 12.904 7.6817 13.0534 7.60931 13.2281C7.53691 13.4029 7.51797 13.5952 7.55488 13.7808C7.59178 13.9663 7.68288 14.1367 7.81665 14.2705C7.95041 14.4043 8.12084 14.4954 8.30638 14.5323C8.49192 14.5692 8.68423 14.5502 8.85901 14.4778C9.03378 14.4054 9.18316 14.2829 9.28826 14.1256C9.39336 13.9683 9.44945 13.7833 9.44945 13.5942C9.44615 13.3415 9.34432 13.1002 9.16566 12.9215C8.98699 12.7428 8.74562 12.641 8.49298 12.6377Z" fill="#ff0"/>
<path d="M12 12.6377C11.8108 12.6377 11.6259 12.6938 11.4686 12.7989C11.3113 12.904 11.1887 13.0534 11.1163 13.2281C11.0439 13.4029 11.025 13.5952 11.0619 13.7808C11.0988 13.9663 11.1899 14.1367 11.3237 14.2705C11.4574 14.4043 11.6279 14.4954 11.8134 14.5323C11.9989 14.5692 12.1913 14.5502 12.366 14.4778C12.5408 14.4054 12.6902 14.2829 12.7953 14.1256C12.9004 13.9683 12.9565 13.7833 12.9565 13.5942C12.9532 13.3415 12.8513 13.1002 12.6727 12.9215C12.494 12.7428 12.2526 12.641 12 12.6377Z" fill="#ff0"/>
<path d="M15.5071 12.6377C15.318 12.6377 15.133 12.6938 14.9757 12.7989C14.8185 12.904 14.6959 13.0534 14.6235 13.2281C14.5511 13.4029 14.5321 13.5952 14.569 13.7808C14.6059 13.9663 14.697 14.1367 14.8308 14.2705C14.9646 14.4043 15.135 14.4954 15.3205 14.5323C15.5061 14.5692 15.6984 14.5502 15.8732 14.4778C16.0479 14.4054 16.1973 14.2829 16.3024 14.1256C16.4075 13.9683 16.4636 13.7833 16.4636 13.5942C16.4603 13.3415 16.3585 13.1002 16.1798 12.9215C16.0012 12.7428 15.7598 12.641 15.5071 12.6377Z" fill="#ff0"/>
<path d="M8.49298 15.8259C8.3038 15.8259 8.11888 15.882 7.96159 15.9871C7.80429 16.0922 7.6817 16.2416 7.60931 16.4164C7.53691 16.5912 7.51797 16.7835 7.55488 16.969C7.59178 17.1545 7.68288 17.325 7.81665 17.4587C7.95041 17.5925 8.12084 17.6836 8.30638 17.7205C8.49192 17.7574 8.68423 17.7385 8.85901 17.6661C9.03378 17.5937 9.18316 17.4711 9.28826 17.3138C9.39336 17.1565 9.44945 16.9716 9.44945 16.7824C9.44615 16.5298 9.34432 16.2884 9.16566 16.1097C8.98699 15.9311 8.74562 15.8292 8.49298 15.8259Z" fill="#ff0"/>
<path d="M12 15.8259C11.8108 15.8259 11.6259 15.882 11.4686 15.9871C11.3113 16.0922 11.1887 16.2416 11.1163 16.4164C11.0439 16.5912 11.025 16.7835 11.0619 16.969C11.0988 17.1545 11.1899 17.325 11.3237 17.4587C11.4574 17.5925 11.6279 17.6836 11.8134 17.7205C11.9989 17.7574 12.1913 17.7385 12.366 17.6661C12.5408 17.5937 12.6902 17.4711 12.7953 17.3138C12.9004 17.1565 12.9565 16.9716 12.9565 16.7824C12.9532 16.5298 12.8513 16.2884 12.6727 16.1097C12.494 15.9311 12.2526 15.8292 12 15.8259Z" fill="#ff0"/>
<path d="M15.5071 15.8259C15.318 15.8259 15.133 15.882 14.9757 15.9871C14.8185 16.0922 14.6959 16.2416 14.6235 16.4164C14.5511 16.5912 14.5321 16.7835 14.569 16.969C14.6059 17.1545 14.697 17.325 14.8308 17.4587C14.9646 17.5925 15.135 17.6836 15.3205 17.7205C15.5061 17.7574 15.6984 17.7385 15.8732 17.6661C16.0479 17.5937 16.1973 17.4711 16.3024 17.3138C16.4075 17.1565 16.4636 16.9716 16.4636 16.7824C16.4603 16.5298 16.3585 16.2884 16.1798 16.1097C16.0012 15.9311 15.7598 15.8292 15.5071 15.8259Z" fill="#ff0"/>
<path fill-rule="evenodd" clip-rule="evenodd" d="M13.8401 6.89876C13.8401 6.50635 14.1583 6.18823 14.5507 6.18823H15.826C16.2184 6.18823 16.5365 6.50635 16.5365 6.89876C16.5365 7.29117 16.2184 7.60928 15.826 7.60928H14.5507C14.1583 7.60928 13.8401 7.29117 13.8401 6.89876Z" fill="#000"/>
</svg>
