<svg width="24" height="24" viewBox="0 0 24 24" fill="none" xmlns="http://www.w3.org/2000/svg">
<path d="M9.42746 11.3481C7.29745 11.3481 5.57245 9.57671 5.57245 7.40662C5.57245 5.23653 7.29745 3.45752 9.42746 3.45752C11.5575 3.45752 13.2825 5.22886 13.2825 7.39895C13.2825 9.56904 11.55 11.3404 9.42746 11.3404V11.3481ZM9.42746 4.77644C8.00995 4.77644 6.85495 5.95734 6.85495 7.40662C6.85495 8.85591 8.00995 10.0368 9.42746 10.0368C10.845 10.0368 12 8.85591 12 7.40662C12 5.95734 10.845 4.77644 9.42746 4.77644Z" fill="#ff0"/>
<path d="M15.2175 20.5499H3.645C3.2925 20.5499 3 20.2585 3 19.8904V19.1773C3.0075 18.0577 3.3 16.9612 3.8325 15.995C4.365 15.0288 5.1375 14.2083 6.06001 13.6255C6.98251 13.0427 8.04751 12.7053 9.13501 12.6593C9.33751 12.6516 9.54001 12.6516 9.72002 12.6593C10.8 12.713 11.865 13.0504 12.7875 13.6332C13.71 14.216 14.4825 15.0288 15.015 15.995C15.5475 16.9612 15.84 18.0577 15.8475 19.1696V19.8904C15.8475 20.2508 15.5625 20.5499 15.2025 20.5499H15.2175ZM4.29 19.2309H14.5725V19.1773C14.565 18.2954 14.3325 17.4136 13.905 16.6468C13.4775 15.8723 12.8625 15.2205 12.12 14.7527C11.3775 14.285 10.53 14.0166 9.66002 13.9782C9.51001 13.9706 9.36751 13.9706 9.20251 13.9782C8.33251 14.0166 7.48501 14.285 6.74251 14.7527C6.00001 15.2205 5.38501 15.8723 4.9575 16.6468C4.53 17.4212 4.2975 18.3031 4.29 19.1849V19.2309Z" fill="#ff0"/>
<path d="M14.5726 11.3482C14.2201 11.3482 13.9276 11.0568 13.9276 10.6887C13.9276 10.3206 14.2126 10.0292 14.5726 10.0292C15.9901 10.0292 17.1451 8.84834 17.1451 7.39905C17.1451 5.94977 15.9901 4.76888 14.5726 4.76888C14.2201 4.76888 13.9276 4.47748 13.9276 4.10941C13.9276 3.74134 14.2126 3.44995 14.5726 3.44995C16.7026 3.44995 18.4276 5.2213 18.4276 7.39139C18.4276 9.56148 16.6951 11.3328 14.5726 11.3328V11.3482Z" fill="#000"/>
<path d="M20.355 20.5499H17.7825C17.43 20.5499 17.1375 20.2585 17.1375 19.8904C17.1375 19.5223 17.4225 19.231 17.7825 19.231H19.71V19.1773C19.7025 18.2954 19.47 17.4213 19.0425 16.6468C18.615 15.8723 18 15.2205 17.2575 14.7528C16.7775 14.4537 16.26 14.2313 15.7125 14.101C15.3675 14.0166 15.15 13.6639 15.2325 13.3111C15.315 12.9584 15.66 12.736 16.005 12.8204C16.695 12.9814 17.34 13.2575 17.94 13.6332C18.8625 14.216 19.635 15.0288 20.1675 15.995C20.7 16.9612 20.9925 18.0577 21 19.1696V19.8904C21 20.2508 20.715 20.5499 20.355 20.5499Z" fill="#000"/>
</svg>
