<svg width="32" height="32" viewBox="0 0 32 32" fill="none" xmlns="http://www.w3.org/2000/svg">
<rect width="32" height="32" rx="16" fill="#FFF8E5"/>
<path d="M16.987 9.74011C17.3713 9.52216 17.6725 9.18313 17.8438 8.77594C18.0151 8.36875 18.0467 7.91631 17.9338 7.48924C17.8209 7.06216 17.5697 6.6845 17.2196 6.41518C16.8694 6.14586 16.44 6.00004 15.9982 6.00049C15.5565 6.00094 15.1273 6.14762 14.7777 6.41766C14.4281 6.68769 14.1777 7.06586 14.0657 7.49316C13.9536 7.92046 13.9862 8.37284 14.1583 8.77968C14.3304 9.18652 14.6323 9.52494 15.017 9.74211L15.007 9.76011C14.352 11.1271 13.442 13.0851 12.037 13.8201C10.883 14.4231 9.22701 14.1201 7.99701 13.8941C7.97728 13.6144 7.87956 13.3459 7.71492 13.1189C7.55028 12.8919 7.32533 12.7157 7.06559 12.6101C6.80585 12.5045 6.52171 12.4738 6.24541 12.5216C5.96912 12.5693 5.71174 12.6935 5.50246 12.8801C5.29319 13.0667 5.1404 13.3082 5.06144 13.5772C4.98248 13.8463 4.98051 14.1321 5.05574 14.4022C5.13098 14.6723 5.28041 14.9159 5.48709 15.1053C5.69376 15.2948 5.94941 15.4226 6.22501 15.4741L9.17301 23.0841C9.39164 23.6483 9.77574 24.1332 10.2749 24.4751C10.7741 24.817 11.365 25 11.97 25.0001H20.03C20.6351 25 21.226 24.817 21.7251 24.4751C22.2243 24.1332 22.6084 23.6483 22.827 23.0841L25.774 15.4741C26.0479 15.4231 26.3022 15.2969 26.5083 15.1096C26.7145 14.9222 26.8644 14.6812 26.9413 14.4134C27.0182 14.1457 27.019 13.8618 26.9436 13.5936C26.8683 13.3254 26.7197 13.0835 26.5146 12.895C26.3095 12.7065 26.0559 12.5789 25.7824 12.5263C25.5088 12.4738 25.226 12.4985 24.9657 12.5977C24.7053 12.6968 24.4778 12.8665 24.3084 13.0877C24.1391 13.3089 24.0347 13.5729 24.007 13.8501C22.748 14.0131 21.125 14.2211 19.963 13.6141C18.586 12.8941 17.663 11.0711 16.987 9.74011Z" fill="#FFB800"/>
</svg>
