<svg width="24" height="24" viewBox="0 0 24 24" fill="none" xmlns="http://www.w3.org/2000/svg">
<path fill-rule="evenodd" clip-rule="evenodd" d="M8.17406 7.60953C7.86214 7.60953 7.60929 7.86239 7.60929 8.17431V10.7249C7.60929 11.0368 7.86214 11.2897 8.17406 11.2897H10.7247C11.0366 11.2897 11.2894 11.0368 11.2894 10.7249V8.17431C11.2894 7.86239 11.0366 7.60953 10.7247 7.60953H8.17406ZM6.18823 8.17431C6.18823 7.07756 7.07732 6.18848 8.17406 6.18848H10.7247C11.8214 6.18848 12.7105 7.07756 12.7105 8.17431V10.7249C12.7105 11.8217 11.8214 12.7107 10.7247 12.7107H8.17406C7.07732 12.7107 6.18823 11.8217 6.18823 10.7249V8.17431Z" fill="#ff0"/>
<path fill-rule="evenodd" clip-rule="evenodd" d="M3.58164 3.58164C3.95405 3.20922 4.45916 3 4.98583 3H6.89879C7.2912 3 7.60931 3.31811 7.60931 3.71053C7.60931 4.10294 7.2912 4.42105 6.89879 4.42105H4.98583C4.83604 4.42105 4.69239 4.48056 4.58647 4.58647C4.48056 4.69239 4.42105 4.83604 4.42105 4.98583V6.89879C4.42105 7.2912 4.10294 7.60931 3.71053 7.60931C3.31811 7.60931 3 7.2912 3 6.89879V4.98583C3 4.45916 3.20922 3.95405 3.58164 3.58164Z" fill="#000"/>
<path fill-rule="evenodd" clip-rule="evenodd" d="M16.3906 3.71053C16.3906 3.31811 16.7087 3 17.1012 3H19.0141C19.5408 3 20.0459 3.20922 20.4183 3.58164C20.7907 3.95405 20.9999 4.45915 20.9999 4.98583V6.89879C20.9999 7.2912 20.6818 7.60931 20.2894 7.60931C19.897 7.60931 19.5789 7.2912 19.5789 6.89879V4.98583C19.5789 4.83604 19.5194 4.69239 19.4135 4.58647C19.3075 4.48056 19.1639 4.42105 19.0141 4.42105H17.1012C16.7087 4.42105 16.3906 4.10294 16.3906 3.71053Z" fill="#000"/>
<path fill-rule="evenodd" clip-rule="evenodd" d="M3.71053 16.3906C4.10294 16.3906 4.42105 16.7087 4.42105 17.1012V19.0141C4.42105 19.1639 4.48056 19.3075 4.58647 19.4135C4.69239 19.5194 4.83604 19.5789 4.98583 19.5789H6.89879C7.2912 19.5789 7.60931 19.897 7.60931 20.2894C7.60931 20.6818 7.2912 20.9999 6.89879 20.9999H4.98583C4.45915 20.9999 3.95405 20.7907 3.58164 20.4183C3.20922 20.0459 3 19.5408 3 19.0141V17.1012C3 16.7087 3.31811 16.3906 3.71053 16.3906Z" fill="#000"/>
<path fill-rule="evenodd" clip-rule="evenodd" d="M20.2894 16.3906C20.6818 16.3906 20.9999 16.7087 20.9999 17.1012V19.0141C20.9999 19.5408 20.7907 20.0459 20.4183 20.4183C20.0459 20.7907 19.5408 20.9999 19.0141 20.9999H17.1012C16.7087 20.9999 16.3906 20.6818 16.3906 20.2894C16.3906 19.897 16.7087 19.5789 17.1012 19.5789H19.0141C19.1639 19.5789 19.3075 19.5194 19.4135 19.4135C19.5194 19.3075 19.5789 19.1639 19.5789 19.0141V17.1012C19.5789 16.7087 19.897 16.3906 20.2894 16.3906Z" fill="#000"/>
<path fill-rule="evenodd" clip-rule="evenodd" d="M6.89876 14.4775C7.29117 14.4775 7.60929 14.7957 7.60929 15.1881V16.3905H8.81171C9.20413 16.3905 9.52224 16.7086 9.52224 17.101C9.52224 17.4934 9.20413 17.8115 8.81171 17.8115H6.89876C6.50635 17.8115 6.18823 17.4934 6.18823 17.101V15.1881C6.18823 14.7957 6.50635 14.4775 6.89876 14.4775Z" fill="#ff0"/>
<path fill-rule="evenodd" clip-rule="evenodd" d="M9.37646 15.1881C9.37646 14.7957 9.69458 14.4775 10.087 14.4775H11.9999C12.3924 14.4775 12.7105 14.7957 12.7105 15.1881V17.101C12.7105 17.4934 12.3924 17.8115 11.9999 17.8115C11.6075 17.8115 11.2894 17.4934 11.2894 17.101V15.8986H10.087C9.69458 15.8986 9.37646 15.5805 9.37646 15.1881Z" fill="#ff0"/>
<path fill-rule="evenodd" clip-rule="evenodd" d="M15.1883 6.18848C15.5807 6.18848 15.8988 6.50659 15.8988 6.899V8.10143H17.1013C17.4937 8.10143 17.8118 8.41955 17.8118 8.81196C17.8118 9.20437 17.4937 9.52248 17.1013 9.52248H15.1883C14.7959 9.52248 14.4778 9.20437 14.4778 8.81196V6.899C14.4778 6.50659 14.7959 6.18848 15.1883 6.18848Z" fill="#ff0"/>
<path fill-rule="evenodd" clip-rule="evenodd" d="M14.4778 11.3624C14.4778 10.97 14.7959 10.6519 15.1883 10.6519H17.1013C17.4937 10.6519 17.8118 10.97 17.8118 11.3624V13.2753C17.8118 13.6678 17.4937 13.9859 17.1013 13.9859C16.7089 13.9859 16.3907 13.6678 16.3907 13.2753V12.0729H15.1883C14.7959 12.0729 14.4778 11.7548 14.4778 11.3624Z" fill="#ff0"/>
<path fill-rule="evenodd" clip-rule="evenodd" d="M15.1883 14.4775C15.5807 14.4775 15.8988 14.7957 15.8988 15.1881V16.3905H17.1013C17.4937 16.3905 17.8118 16.7086 17.8118 17.101C17.8118 17.4934 17.4937 17.8115 17.1013 17.8115H15.1883C14.7959 17.8115 14.4778 17.4934 14.4778 17.101V15.1881C14.4778 14.7957 14.7959 14.4775 15.1883 14.4775Z" fill="#ff0"/>
</svg>
