<svg width="24" height="24" viewBox="0 0 24 24" fill="none" xmlns="http://www.w3.org/2000/svg">
<path d="M12 22C6.48333 22 2 17.5167 2 12C2 6.48333 6.48333 2 12 2C17.5167 2 22 6.48333 22 12C22 17.5167 17.5167 22 12 22ZM12 3.425C7.275 3.425 3.425 7.275 3.425 12C3.425 16.725 7.26667 20.575 12 20.575C16.7333 20.575 20.575 16.7333 20.575 12C20.575 7.26667 16.725 3.425 12 3.425Z" fill="#000"/>
<path d="M11.9999 14.3827C11.6082 14.3827 11.2832 14.066 11.2832 13.666V11.9994C11.2832 11.6077 11.5999 11.2827 11.9999 11.2827C12.3499 11.2827 12.6999 11.1744 12.9916 10.9827C13.2832 10.7827 13.5166 10.5077 13.6499 10.1827C13.7832 9.85769 13.8249 9.49936 13.7499 9.14936C13.6832 8.79936 13.5082 8.49103 13.2582 8.2327C13.0082 7.9827 12.6916 7.81603 12.3416 7.74103C11.9916 7.66603 11.6332 7.7077 11.3082 7.84103C10.9832 7.97436 10.6999 8.2077 10.5082 8.49936C10.3166 8.79103 10.2082 9.14103 10.2082 9.49103C10.2082 9.8827 9.89157 10.2077 9.49157 10.2077C9.09157 10.2077 8.7749 9.89103 8.7749 9.49103C8.7749 8.84936 8.95824 8.2327 9.31657 7.7077C9.6749 7.17436 10.1666 6.76603 10.7582 6.52436C11.3499 6.2827 11.9916 6.21603 12.6166 6.34103C13.2416 6.46603 13.8082 6.76603 14.2666 7.22436C14.7166 7.67436 15.0249 8.24103 15.1499 8.86603C15.2749 9.49103 15.2082 10.1327 14.9666 10.7244C14.7249 11.316 14.3082 11.816 13.7832 12.166C13.4499 12.3827 13.0916 12.541 12.7082 12.6244V13.6577C12.7082 14.0494 12.3916 14.3744 11.9916 14.3744L11.9999 14.3827Z" fill="#ff0"/>
<path d="M12 17.7159C11.375 17.7159 10.8667 17.2076 10.8667 16.5826C10.8667 15.9576 11.375 15.4492 12 15.4492C12.3917 15.4492 12.7167 15.7659 12.7167 16.1659C12.7167 16.3242 12.6667 16.4659 12.5834 16.5826C12.6667 16.6992 12.7167 16.8409 12.7167 16.9992C12.7167 17.3909 12.4 17.7159 12 17.7159Z" fill="#000"/>
<path d="M11.9999 17.7159C11.6082 17.7159 11.2832 17.3992 11.2832 16.9992C11.2832 16.8409 11.3332 16.6992 11.4165 16.5826C11.3332 16.4659 11.2832 16.3242 11.2832 16.1659C11.2832 15.7742 11.5999 15.4492 11.9999 15.4492C12.6249 15.4492 13.1332 15.9576 13.1332 16.5826C13.1332 17.2076 12.6249 17.7159 11.9999 17.7159Z" fill="#ff0"/>
</svg>
