<svg width="20" height="20" viewBox="0 0 20 20" fill="none" xmlns="http://www.w3.org/2000/svg">
<path fill-rule="evenodd" clip-rule="evenodd" d="M7.80834 1.85936C8.06527 2.11629 8.06527 2.53284 7.80834 2.78977L5.32145 5.27666L7.80834 7.76355C8.06527 8.02047 8.06527 8.43703 7.80834 8.69395C7.55142 8.95088 7.13486 8.95088 6.87794 8.69395L3.92585 5.74186C3.66892 5.48494 3.66892 5.06838 3.92585 4.81146L6.87794 1.85936C7.13486 1.60244 7.55142 1.60244 7.80834 1.85936Z" fill="#0C0C0E"/>
<path fill-rule="evenodd" clip-rule="evenodd" d="M3.73312 5.27664C3.73312 4.91329 4.02767 4.61874 4.39101 4.61874H9.99999C11.3562 4.61874 12.682 5.02092 13.8097 5.77441C14.9374 6.52789 15.8163 7.59886 16.3353 8.85186C16.8543 10.1049 16.9901 11.4836 16.7255 12.8138C16.4609 14.144 15.8078 15.3659 14.8488 16.3249C13.8898 17.2839 12.668 17.937 11.3378 18.2016C10.0076 18.4662 8.62882 18.3304 7.37582 17.8113C6.12281 17.2923 5.05185 16.4134 4.29836 15.2857C3.54487 14.1581 3.1427 12.8323 3.1427 11.476C3.1427 11.1127 3.43725 10.8181 3.8006 10.8181C4.16394 10.8181 4.45849 11.1127 4.45849 11.476C4.45849 12.572 4.78349 13.6434 5.3924 14.5547C6.00131 15.466 6.86677 16.1763 7.87935 16.5957C8.89193 17.0151 10.0061 17.1249 11.0811 16.9111C12.156 16.6972 13.1434 16.1695 13.9184 15.3945C14.6934 14.6195 15.2212 13.6321 15.435 12.5571C15.6488 11.4822 15.5391 10.368 15.1197 9.35539C14.7002 8.34282 13.99 7.47735 13.0787 6.86844C12.1674 6.25954 11.096 5.93453 9.99999 5.93453H4.39101C4.02767 5.93453 3.73312 5.63998 3.73312 5.27664Z" fill="#0C0C0E"/>
</svg>
