<svg width="24" height="24" viewBox="0 0 24 24" fill="none" xmlns="http://www.w3.org/2000/svg">
<path fill-rule="evenodd" clip-rule="evenodd" d="M10.2473 10.2896C10.6739 10.2896 11.0197 10.643 11.0197 11.079V17.3972C11.0197 17.8332 10.6739 18.1867 10.2473 18.1867C9.82068 18.1867 9.47485 17.8332 9.47485 17.3972V11.079C9.47485 10.643 9.82068 10.2896 10.2473 10.2896Z" fill="#000"/>
<path fill-rule="evenodd" clip-rule="evenodd" d="M2.90918 7.04045C2.90918 6.60444 3.25501 6.25098 3.68161 6.25098H20.3186C20.7452 6.25098 21.091 6.60444 21.091 7.04045C21.091 7.47646 20.7452 7.82992 20.3186 7.82992H3.68161C3.25501 7.82992 2.90918 7.47646 2.90918 7.04045Z" fill="#000"/>
<path fill-rule="evenodd" clip-rule="evenodd" d="M4.98877 7.04045C4.98877 6.60444 5.3346 6.25098 5.7612 6.25098H18.2389C18.6655 6.25098 19.0113 6.60444 19.0113 7.04045V19.7935C19.0113 20.3787 18.7839 20.9399 18.379 21.3537C17.9742 21.7675 17.4251 21.9999 16.8525 21.9999H7.14761C6.57505 21.9999 6.02594 21.7675 5.62108 21.3537C5.21622 20.9399 4.98877 20.3787 4.98877 19.7935V7.04045ZM6.53363 7.82992V19.7935C6.53363 19.9599 6.59832 20.1195 6.71346 20.2372C6.82861 20.3549 6.98477 20.421 7.14761 20.421H16.8525C17.0153 20.421 17.1715 20.3549 17.2867 20.2372C17.4018 20.1195 17.4665 19.9599 17.4665 19.7935V7.82992H6.53363Z" fill="#000"/>
<path fill-rule="evenodd" clip-rule="evenodd" d="M12.0002 3.57894C11.2858 3.57894 10.6007 3.869 10.0955 4.38529C9.59037 4.90158 9.30658 5.60183 9.30658 6.33198V7.04048C9.30658 7.47649 8.96075 7.82995 8.53415 7.82995C8.10755 7.82995 7.76172 7.47649 7.76172 7.04048V6.33198C7.76172 5.18307 8.20827 4.08121 9.00314 3.26881C9.798 2.4564 10.8761 2 12.0002 2C13.1243 2 14.2024 2.4564 14.9972 3.26881C15.7921 4.08121 16.2386 5.18307 16.2386 6.33198V7.04048C16.2386 7.47649 15.8928 7.82995 15.4662 7.82995C15.0396 7.82995 14.6938 7.47649 14.6938 7.04048V6.33198C14.6938 5.60183 14.41 4.90158 13.9048 4.38529C13.3997 3.869 12.7146 3.57894 12.0002 3.57894Z" fill="#000"/>
<path fill-rule="evenodd" clip-rule="evenodd" d="M13.8518 10.2896C14.2784 10.2896 14.6242 10.643 14.6242 11.079V17.3972C14.6242 17.8332 14.2784 18.1867 13.8518 18.1867C13.4252 18.1867 13.0793 17.8332 13.0793 17.3972V11.079C13.0793 10.643 13.4252 10.2896 13.8518 10.2896Z" fill="#000"/>
</svg>
