<svg width="32" height="32" viewBox="0 0 32 32" fill="none" xmlns="http://www.w3.org/2000/svg">
<rect width="32" height="32" rx="16" fill="#FFF8E5"/>
<path d="M19.819 17.329L14.495 23.319C14.3073 23.5302 14.0771 23.6992 13.8194 23.8149C13.5617 23.9306 13.2824 23.9905 13 23.9905C12.7175 23.9905 12.4382 23.9306 12.1805 23.8149C11.9228 23.6992 11.6926 23.5302 11.505 23.319L6.18096 17.329C5.85539 16.9629 5.67554 16.49 5.67554 16C5.67554 15.51 5.85539 15.0371 6.18096 14.671L11.505 8.681C11.6926 8.46984 11.9228 8.30083 12.1805 8.1851C12.4382 8.06936 12.7175 8.00952 13 8.00952C13.2824 8.00952 13.5617 8.06936 13.8194 8.1851C14.0771 8.30083 14.3073 8.46984 14.495 8.681L19.819 14.671C20.1445 15.0371 20.3244 15.51 20.3244 16C20.3244 16.49 20.1445 16.9629 19.819 17.329Z" stroke="#FFB800" stroke-width="1.5" stroke-linecap="round" stroke-linejoin="round"/>
<path d="M16 10.375L17.505 8.68197C17.6926 8.47082 17.9229 8.30181 18.1806 8.18607C18.4382 8.07034 18.7175 8.0105 19 8.0105C19.2825 8.0105 19.5618 8.07034 19.8194 8.18607C20.0771 8.30181 20.3074 8.47082 20.495 8.68197L25.819 14.672C26.1443 15.038 26.324 15.5108 26.324 16.0005C26.324 16.4902 26.1443 16.9629 25.819 17.329L20.495 23.319C20.3074 23.5301 20.0771 23.6991 19.8194 23.8149C19.5618 23.9306 19.2825 23.9905 19 23.9905C18.7175 23.9905 18.4382 23.9306 18.1806 23.8149C17.9229 23.6991 17.6926 23.5301 17.505 23.319L16 21.624" stroke="#FFB800" stroke-width="1.5" stroke-linecap="round" stroke-linejoin="round"/>
</svg>
