<svg width="22" height="14" viewBox="0 0 22 14" fill="none" xmlns="http://www.w3.org/2000/svg">
<g id="Group">
<path id="Vector (Stroke)" fill-rule="evenodd" clip-rule="evenodd" d="M0.333374 7.00003C0.333374 6.42993 0.795531 5.96777 1.36563 5.96777H20.6344C21.2045 5.96777 21.6667 6.42993 21.6667 7.00003C21.6667 7.57013 21.2045 8.03229 20.6344 8.03229H1.36563C0.795531 8.03229 0.333374 7.57013 0.333374 7.00003Z" fill="#000"/>
<path id="Vector (Stroke)_2" fill-rule="evenodd" clip-rule="evenodd" d="M14.7169 1.08237C15.12 0.679249 15.7736 0.679249 16.1767 1.08237L21.3645 6.27012C21.7676 6.67324 21.7676 7.32683 21.3645 7.72995L16.1767 12.9177C15.7736 13.3208 15.12 13.3208 14.7169 12.9177C14.3138 12.5146 14.3138 11.861 14.7169 11.4579L19.1747 7.00003L14.7169 2.5422C14.3138 2.13908 14.3138 1.48549 14.7169 1.08237Z" fill="#000"/>
</g>
</svg>
