<svg width="48" height="48" viewBox="0 0 48 48" fill="none" xmlns="http://www.w3.org/2000/svg">
<path d="M30.0003 28.6616H18.9233V31.5232H30.0003V28.6616Z" fill="#FF8800"/>
<path d="M29.2152 8.76919C29.1229 6.18458 26.9998 4.15381 24.4614 4.15381C21.8767 4.15381 19.7998 6.18458 19.7075 8.76919H29.2152Z" fill="#FF8800"/>
<path d="M30.0003 31.9384H18.9233L19.708 8.76919C19.8003 6.18458 21.9233 4.15381 24.4618 4.15381C27.0464 4.15381 29.1233 6.18458 29.2156 8.76919L30.0003 31.9384Z" stroke="#0000FF" stroke-width="1.125" stroke-miterlimit="10" stroke-linecap="round" stroke-linejoin="round"/>
<path d="M18.923 31.9382H13.2461L14.0307 21.6459C14.2153 19.6613 15.7846 18.0459 17.723 18.0459H18.8769" stroke="#0000FF" stroke-width="1.125" stroke-miterlimit="10" stroke-linecap="round" stroke-linejoin="round"/>
<path d="M30 31.9382H35.6308L34.8462 21.6459C34.6615 19.6613 33.0923 18.0459 31.1538 18.0459H30" stroke="#0000FF" stroke-width="1.125" stroke-miterlimit="10" stroke-linecap="round" stroke-linejoin="round"/>
<path d="M24.4618 16.4772C25.7618 16.4772 26.8156 15.4233 26.8156 14.1234C26.8156 12.8234 25.7618 11.7695 24.4618 11.7695C23.1617 11.7695 22.1079 12.8234 22.1079 14.1234C22.1079 15.4233 23.1617 16.4772 24.4618 16.4772Z" stroke="#0000FF" stroke-width="1.125" stroke-miterlimit="10" stroke-linecap="round" stroke-linejoin="round"/>
<path d="M25.7999 24.5538L25.4306 33.2307C25.4306 33.7846 24.9691 34.2 24.4153 34.2C23.8614 34.2 23.446 33.7846 23.3999 33.2307L23.0307 24.5538C22.9845 23.7692 23.6306 23.123 24.3691 23.123C25.1999 23.1692 25.846 23.8154 25.7999 24.5538Z" fill="#FF8800"/>
<path d="M21.1387 32.585C21.1387 34.7542 22.5233 36.5542 24.4617 37.2003" stroke="#0000FF" stroke-width="1.125" stroke-miterlimit="10" stroke-linecap="round" stroke-linejoin="round"/>
<path d="M24.4614 37.2003C26.3999 36.5542 27.7845 34.708 27.7845 32.585" stroke="#0000FF" stroke-width="1.125" stroke-miterlimit="10" stroke-linecap="round" stroke-linejoin="round"/>
<path d="M8.76953 43.7077C8.76953 39.877 11.8618 36.7847 15.6926 36.7847C16.108 36.7847 16.5695 36.8308 16.9849 36.877" stroke="#0000FF" stroke-width="1.125" stroke-miterlimit="10" stroke-linecap="round" stroke-linejoin="round"/>
<path d="M15.6924 40.4306C15.6924 37.3844 18.1847 34.8921 21.2308 34.8921" stroke="#0000FF" stroke-width="1.125" stroke-miterlimit="10" stroke-linecap="round" stroke-linejoin="round"/>
<path d="M27.3691 39.9229C27.3691 37.1536 29.6307 34.8921 32.3999 34.8921C34.6153 34.8921 36.4614 36.3229 37.1538 38.3075" stroke="#0000FF" stroke-width="1.125" stroke-miterlimit="10" stroke-linecap="round" stroke-linejoin="round"/>
<path d="M34.0156 42.6C34.0156 40.1077 36.0002 38.123 38.4926 38.123C40.9849 38.123 42.9695 40.1077 42.9695 42.6" stroke="#0000FF" stroke-width="1.125" stroke-miterlimit="10" stroke-linecap="round" stroke-linejoin="round"/>
<path d="M11.6768 11.3076L14.0306 13.6153" stroke="#0000FF" stroke-width="1.125" stroke-miterlimit="10" stroke-linecap="round" stroke-linejoin="round"/>
<path d="M11.6768 13.6153L14.0306 11.3076" stroke="#0000FF" stroke-width="1.125" stroke-miterlimit="10" stroke-linecap="round" stroke-linejoin="round"/>
<path d="M38.6305 15.5998C38.0766 16.1537 37.1997 16.1537 36.6459 15.5998C36.092 15.046 36.092 14.1691 36.6459 13.6152" stroke="#0000FF" stroke-width="1.125" stroke-miterlimit="10" stroke-linecap="round" stroke-linejoin="round"/>
</svg>
