<svg width="21" height="20" viewBox="0 0 21 20" fill="none" xmlns="http://www.w3.org/2000/svg">
<path fill-rule="evenodd" clip-rule="evenodd" d="M3.84211 12.8618C4.16912 12.8618 4.43421 13.1269 4.43421 13.4539V15.921C4.43421 16.1391 4.61094 16.3158 4.82895 16.3158H7.29605C7.62306 16.3158 7.88816 16.5809 7.88816 16.9079C7.88816 17.2349 7.62306 17.5 7.29605 17.5H4.82895C3.95692 17.5 3.25 16.7931 3.25 15.921V13.4539C3.25 13.1269 3.51509 12.8618 3.84211 12.8618Z" fill="#000"/>
<path fill-rule="evenodd" clip-rule="evenodd" d="M17.6578 12.8618C17.9848 12.8618 18.2499 13.1269 18.2499 13.4539V15.921C18.2499 16.7931 17.5431 17.5 16.671 17.5H14.2039C13.8769 17.5 13.6118 17.2349 13.6118 16.9079C13.6118 16.5809 13.8769 16.3158 14.2039 16.3158H16.671C16.889 16.3158 17.0657 16.1391 17.0657 15.921V13.4539C17.0657 13.1269 17.3308 12.8618 17.6578 12.8618Z" fill="#000"/>
<path fill-rule="evenodd" clip-rule="evenodd" d="M13.6118 3.09211C13.6118 2.76509 13.8769 2.5 14.2039 2.5H16.671C17.5431 2.5 18.2499 3.20692 18.2499 4.07895V6.54605C18.2499 6.87306 17.9848 7.13816 17.6578 7.13816C17.3308 7.13816 17.0657 6.87306 17.0657 6.54605V4.07895C17.0657 3.86094 16.889 3.68421 16.671 3.68421H14.2039C13.8769 3.68421 13.6118 3.41912 13.6118 3.09211Z" fill="#000"/>
<path fill-rule="evenodd" clip-rule="evenodd" d="M4.82895 3.68421C4.61094 3.68421 4.43421 3.86094 4.43421 4.07895V6.54605C4.43421 6.87306 4.16912 7.13816 3.84211 7.13816C3.51509 7.13816 3.25 6.87306 3.25 6.54605V4.07895C3.25 3.20692 3.95692 2.5 4.82895 2.5H7.29605C7.62306 2.5 7.88816 2.76509 7.88816 3.09211C7.88816 3.41912 7.62306 3.68421 7.29605 3.68421H4.82895Z" fill="#000"/>
<path fill-rule="evenodd" clip-rule="evenodd" d="M3.25 10C3.25 9.67299 3.51509 9.4079 3.84211 9.4079H17.6579C17.9849 9.4079 18.25 9.67299 18.25 10C18.25 10.327 17.9849 10.5921 17.6579 10.5921H3.84211C3.51509 10.5921 3.25 10.327 3.25 10Z" fill="#000"/>
</svg>
