<svg width="16" height="36" viewBox="0 0 16 36" fill="none" xmlns="http://www.w3.org/2000/svg">
<rect width="16" height="36" rx="8" fill="#0000FF"/>
<path d="M5.34014 12.5178L7.99069 9.86721C8.00413 9.85197 8.02067 9.83976 8.0392 9.83139C8.05772 9.82303 8.07782 9.8187 8.09814 9.8187C8.11847 9.8187 8.13857 9.82303 8.15709 9.83139C8.17562 9.83976 8.19215 9.85197 8.2056 9.86721L10.8562 12.5178C10.9987 12.6445 11.1843 12.7118 11.3749 12.7059C11.5655 12.7 11.7466 12.6214 11.8811 12.4862C12.0155 12.351 12.0931 12.1694 12.0979 11.9788C12.1027 11.7882 12.0343 11.6029 11.9068 11.4611L9.04733 8.60163C8.7918 8.35716 8.45179 8.2207 8.09814 8.2207C7.7445 8.2207 7.40449 8.35716 7.14896 8.60163L4.28947 11.4611C4.16197 11.6029 4.09359 11.7882 4.09838 11.9788C4.10317 12.1694 4.18076 12.351 4.31521 12.4862C4.44967 12.6214 4.63079 12.7 4.8214 12.7059C5.012 12.7118 5.19762 12.6445 5.34014 12.5178Z" fill="white"/>
<path d="M10.6599 23.4705L8.00931 26.121C7.97976 26.1475 7.9415 26.1621 7.90186 26.1621C7.86221 26.1621 7.82395 26.1475 7.7944 26.121L5.14385 23.4705C5.00133 23.3438 4.81571 23.2765 4.62511 23.2823C4.43451 23.2882 4.25338 23.3668 4.11892 23.502C3.98447 23.6373 3.90688 23.8188 3.90209 24.0095C3.8973 24.2001 3.96568 24.3853 4.09318 24.5271L6.95267 27.3866C7.20452 27.6382 7.54591 27.7794 7.90186 27.7794C8.2578 27.7794 8.59919 27.6382 8.85104 27.3866L11.7105 24.5271C11.838 24.3853 11.9064 24.2001 11.9016 24.0095C11.8968 23.8188 11.8192 23.6373 11.6848 23.502C11.5503 23.3668 11.3692 23.2882 11.1786 23.2823C10.988 23.2765 10.8024 23.3438 10.6599 23.4705Z" fill="white"/>
</svg>
