<svg width="24" height="24" viewBox="0 0 24 24" fill="none" xmlns="http://www.w3.org/2000/svg">
<path fill-rule="evenodd" clip-rule="evenodd" d="M10.6227 4.42105C7.19761 4.42105 4.42105 7.19761 4.42105 10.6227C4.42105 14.0477 7.19761 16.8243 10.6227 16.8243C14.0477 16.8243 16.8243 14.0477 16.8243 10.6227C16.8243 7.19761 14.0477 4.42105 10.6227 4.42105ZM3 10.6227C3 6.41278 6.41278 3 10.6227 3C14.8325 3 18.2453 6.41278 18.2453 10.6227C18.2453 14.8325 14.8325 18.2453 10.6227 18.2453C6.41278 18.2453 3 14.8325 3 10.6227Z" fill="#000"/>
<path fill-rule="evenodd" clip-rule="evenodd" d="M15.0045 15.0045C15.282 14.727 15.7319 14.727 16.0093 15.0045L20.7917 19.7869C21.0692 20.0644 21.0692 20.5142 20.7917 20.7917C20.5142 21.0692 20.0644 21.0692 19.7869 20.7917L15.0045 16.0093C14.727 15.7319 14.727 15.282 15.0045 15.0045Z" fill="#000"/>
</svg>
