<svg width="16" height="16" viewBox="0 0 16 16" fill="none" xmlns="http://www.w3.org/2000/svg">
<path fill-rule="evenodd" clip-rule="evenodd" d="M12.1323 2.08418C12.3794 1.99398 12.647 1.97581 12.9042 2.03189C13.1638 2.08853 13.4017 2.21853 13.5896 2.40644C13.7774 2.59435 13.9075 2.83226 13.9641 3.09189C14.0202 3.34895 14.002 3.6166 13.9118 3.86364L10.8486 13.0448L10.8484 13.0454C10.7738 13.2712 10.6424 13.4741 10.4668 13.6345C10.2917 13.7945 10.0785 13.9069 9.84761 13.961C9.61669 14.0173 9.37509 14.0126 9.14653 13.9473C8.91817 13.882 8.71071 13.7585 8.54446 13.589L6.90113 11.9533L5.17489 12.8458C5.04029 12.9155 4.87892 12.9088 4.75051 12.8283C4.6221 12.7479 4.54572 12.6056 4.54965 12.4541L4.62042 9.72533L10.6586 5.33925C10.898 5.16537 10.9511 4.83038 10.7772 4.59102C10.6033 4.35165 10.2683 4.29856 10.029 4.47243L3.88835 8.93291L2.40583 7.45039L2.40578 7.45035L2.40568 7.45024C2.24512 7.2898 2.12693 7.092 2.06171 6.87459C1.99695 6.65873 1.98643 6.43027 2.03104 6.20941C2.07571 5.96813 2.18357 5.74297 2.34365 5.55693C2.50484 5.3696 2.71312 5.22872 2.94698 5.14885L2.94987 5.14786V5.14787L12.1323 2.08418Z" fill="#004FA8"/>
</svg>
