<svg width="32" height="32" viewBox="0 0 32 32" fill="none" xmlns="http://www.w3.org/2000/svg">
<rect width="32" height="32" rx="16" fill="#FFF8E5"/>
<path d="M13.3601 17.4099C13.2601 18.0199 13.1701 18.8799 13.2301 19.5099C13.2701 19.9099 12.9701 20.2599 12.5701 20.2999C11.9201 20.3699 11.1901 20.4099 10.3601 20.4099C9.53011 20.4099 8.80011 20.3699 8.15011 20.2999C7.75011 20.2599 7.44011 19.9099 7.48011 19.5099C7.54011 18.8799 7.46011 18.0199 7.35011 17.4099C7.11011 15.9999 6.11011 15.3299 5.54011 13.8199C6.95011 14.2699 9.02011 14.4099 10.3601 14.4099C11.7001 14.4099 13.7701 14.2699 15.1801 13.8199C14.6001 15.3299 13.6001 15.9999 13.3601 17.4099ZM12.2401 23.3799C12.215 23.5454 12.1338 23.6972 12.0101 23.8099L11.6601 24.1299C11.6301 24.1499 11.6101 24.1799 11.5901 24.1999L11.2201 24.6399C11.0801 24.8099 10.8601 24.9099 10.6301 24.9099H10.0801C9.97165 24.9123 9.86405 24.8902 9.76535 24.8452C9.66664 24.8001 9.57939 24.7334 9.51011 24.6499L9.14011 24.2099C9.12011 24.1799 9.09011 24.1599 9.07011 24.1399L8.72011 23.8199C8.59292 23.7099 8.51098 23.5568 8.49011 23.3899L8.11011 21.0599C8.89011 21.1299 9.75011 21.1599 10.3601 21.1599C10.9701 21.1599 11.8301 21.1299 12.6101 21.0599L12.2401 23.3799ZM15.6101 11.7799C15.6101 11.9999 15.5701 12.1899 15.5501 12.3899C15.5201 12.5799 15.4901 12.7399 15.4501 12.9199C14.6301 13.2699 12.9001 13.6699 10.3601 13.6699C7.82011 13.6699 6.09011 13.2799 5.27011 12.9299C5.23011 12.7499 5.19011 12.5899 5.17011 12.3999C5.15011 12.1999 5.11011 11.9999 5.11011 11.7899C5.11011 9.40991 7.47011 6.90991 10.3601 6.90991C13.2501 6.90991 15.6101 9.40991 15.6101 11.7799ZM21.9501 20.3799L22.1501 21.6099C22.1701 21.7099 22.2201 21.8099 22.3001 21.8799L22.5201 22.0799C22.5301 22.0899 22.5501 22.0999 22.5601 22.1199L22.7901 22.3899C22.8601 22.4999 23.0001 22.5599 23.1501 22.5599H23.5001C23.6501 22.5599 23.7901 22.4999 23.8801 22.3899L24.1201 22.1099C24.1301 22.0999 24.1401 22.0799 24.1601 22.0699L24.3801 21.8699C24.4601 21.7999 24.5201 21.6999 24.5301 21.5999L24.7701 20.1199C24.2801 20.1599 23.7301 20.1799 23.3401 20.1799C23.0301 20.1799 22.6301 20.1699 22.2301 20.1399C22.1401 20.2199 22.0501 20.3099 21.9501 20.3799ZM26.6701 14.2199C26.6701 12.8099 25.3601 11.3499 23.6801 11.1599C24.1401 11.8499 24.4101 12.6299 24.4101 13.3799C24.4101 13.5399 24.4001 13.6799 24.3801 13.7899C24.3801 13.8299 24.3701 13.8699 24.3701 13.9099C24.3601 13.9199 24.3601 13.9399 24.3601 13.9499C24.3501 14.0199 24.3301 14.0799 24.3201 14.1499V14.1599C24.3201 14.1899 24.3001 14.2799 24.2701 14.3899V14.3999C24.2001 14.6799 24.0701 15.1099 24.0401 15.1799C24.0101 15.2599 23.9701 15.3099 23.9401 15.3899C25.2201 15.3399 26.1301 15.1299 26.5801 14.9399C26.6001 14.8199 26.6201 14.7199 26.6401 14.5999C26.6501 14.4699 26.6801 14.3499 26.6701 14.2199ZM22.5301 19.6699C23.267 19.7099 24.0058 19.6932 24.7401 19.6199C24.8006 19.6149 24.8595 19.5979 24.9134 19.57C24.9673 19.5421 25.0152 19.5038 25.0542 19.4574C25.0933 19.4109 25.1227 19.3571 25.1409 19.2992C25.1591 19.2413 25.1656 19.1804 25.1601 19.1199C25.1201 18.7199 25.1801 18.1699 25.2401 17.7799C25.3901 16.8899 26.0301 16.4599 26.4001 15.4999C25.6201 15.7499 24.5301 15.8499 23.7001 15.8699C23.5601 16.1199 23.4201 16.3499 23.2801 16.5499C23.0001 16.9699 22.7801 17.2899 22.7101 17.7299C22.6401 18.1399 22.5801 18.7199 22.6201 19.1099C22.6401 19.3099 22.6001 19.4999 22.5301 19.6699ZM13.5501 20.9399L13.8301 22.6199C13.8501 22.7599 13.9201 22.8999 14.0301 22.9899L14.3301 23.2699C14.3501 23.2899 14.3701 23.2999 14.3901 23.3299L14.7101 23.7099C14.8101 23.8399 15.0001 23.9299 15.2001 23.9299H15.6701C15.8701 23.9299 16.0601 23.8499 16.1801 23.6999L16.5001 23.3199C16.5201 23.2999 16.5301 23.2799 16.5601 23.2599L16.8601 22.9799C16.9701 22.8899 17.0401 22.7499 17.0601 22.6099L17.3801 20.6099C16.7001 20.6699 15.9601 20.6999 15.4401 20.6999C15.0101 20.6999 14.4301 20.6799 13.8701 20.6399C13.8501 20.6499 13.8401 20.6699 13.8301 20.6899C13.7401 20.7799 13.6501 20.8699 13.5501 20.9399ZM19.9401 12.6199C19.9401 10.5799 17.9101 8.42991 15.4201 8.42991C15.4001 8.42991 15.3801 8.43991 15.3601 8.43991C16.1401 9.44991 16.6001 10.6399 16.6001 11.7799C16.6001 11.9999 16.5701 12.1799 16.5501 12.3299C16.5401 12.3799 16.5401 12.4399 16.5301 12.4899C16.5301 12.5099 16.5201 12.5299 16.5201 12.5499C16.5101 12.6499 16.4901 12.7299 16.4701 12.8199V12.8299C16.4701 12.8699 16.4501 12.9899 16.4101 13.1399V13.1499C16.3101 13.5299 16.1401 14.0899 16.1001 14.1899C16.1001 14.2099 16.0901 14.2199 16.0801 14.2399C17.9101 14.1799 19.1801 13.8799 19.8101 13.6099C19.8501 13.4499 19.8701 13.3099 19.9001 13.1499C19.9101 12.9699 19.9501 12.8099 19.9401 12.6199ZM17.3301 19.9699C17.6801 19.9399 17.9301 19.6299 17.9001 19.2899C17.8501 18.7399 17.9201 17.9999 18.0101 17.4799C18.2201 16.2699 19.0801 15.6899 19.5801 14.3899C18.4801 14.7399 16.9301 14.8699 15.7901 14.8899C15.5701 15.3299 15.3201 15.6999 15.1001 16.0299C14.7301 16.5799 14.4401 17.0099 14.3401 17.5899C14.2501 18.1399 14.1701 18.9199 14.2201 19.4299C14.2401 19.6199 14.2201 19.8199 14.1701 20.0099C14.5601 20.0299 14.9701 20.0499 15.4301 20.0499C16.1501 20.0499 16.7701 20.0099 17.3301 19.9699ZM23.6601 13.3899C23.6601 11.6099 21.8901 9.72991 19.7201 9.72991C20.0601 10.1499 20.3201 10.6199 20.5101 11.0999C20.5101 11.1199 20.5201 11.1399 20.5301 11.1599C20.6101 11.3899 20.6701 11.6099 20.7201 11.8399C20.7301 11.8799 20.7301 11.9099 20.7401 11.9499C20.7801 12.1699 20.8101 12.3999 20.8101 12.6299C20.8101 12.8099 20.7901 12.9699 20.7701 13.0999C20.7601 13.1499 20.7501 13.1899 20.7501 13.2399C20.7401 13.2599 20.7401 13.2699 20.7401 13.2899C20.7301 13.3699 20.7101 13.4499 20.7001 13.5199V13.5299C20.7101 13.5599 20.6801 13.6599 20.6501 13.7899V13.7999C20.5601 14.1199 20.4101 14.6099 20.3801 14.6899C20.3701 14.7199 20.3501 14.7499 20.3401 14.7799C21.9101 14.7199 22.9901 14.4599 23.5401 14.2299C23.5701 14.0899 23.6001 13.9699 23.6201 13.8299C23.6301 13.6799 23.6601 13.5399 23.6601 13.3899ZM18.6801 19.8199C19.0001 19.8399 19.3401 19.8599 19.7101 19.8599C20.3301 19.8599 20.8801 19.8299 21.3701 19.7799C21.6701 19.7499 21.9001 19.4899 21.8701 19.1899C21.8301 18.7099 21.8901 18.0699 21.9701 17.6099C22.1501 16.5499 22.9001 16.0399 23.3401 14.9099C22.3901 15.2099 21.0701 15.3199 20.0801 15.3399C19.8901 15.6799 19.6901 15.9899 19.5101 16.2599C19.2001 16.7399 18.9401 17.1099 18.8601 17.6099C18.7901 18.0799 18.7201 18.7499 18.7601 19.1899C18.7801 19.4099 18.7501 19.6199 18.6801 19.8199ZM18.0601 20.5699L18.3101 22.0999C18.3201 22.2199 18.3801 22.3399 18.4801 22.4199L18.7501 22.6599L18.8001 22.7099L19.0801 23.0199C19.1701 23.1399 19.3401 23.2199 19.5101 23.2199H19.9201C20.0901 23.2199 20.2501 23.1499 20.3601 23.0199L20.6401 22.6899L20.6901 22.6399L20.9501 22.3999C21.0401 22.3199 21.1001 22.1999 21.1201 22.0799L21.4001 20.3399C20.8101 20.3999 20.1701 20.4199 19.7101 20.4199C19.3301 20.4199 18.8101 20.4099 18.3101 20.3699C18.2401 20.4399 18.1501 20.5099 18.0601 20.5699Z" fill="#FFB800"/>
</svg>
