<svg width="24" height="24" viewBox="0 0 24 24" fill="none" xmlns="http://www.w3.org/2000/svg">
<path fill-rule="evenodd" clip-rule="evenodd" d="M9.43776 9.43776C10.1173 8.75822 11.0389 8.37646 11.9999 8.37646C12.7166 8.37646 13.4172 8.58898 14.013 8.98713C14.6089 9.38528 15.0734 9.95119 15.3476 10.6133C15.6219 11.2754 15.6936 12.004 15.5538 12.7069C15.414 13.4097 15.0689 14.0554 14.5621 14.5621C14.0554 15.0689 13.4097 15.414 12.7069 15.5538C12.004 15.6936 11.2754 15.6219 10.6133 15.3476C9.9512 15.0734 9.38528 14.6089 8.98713 14.013C8.58898 13.4172 8.37646 12.7166 8.37646 11.9999C8.37646 11.0389 8.75822 10.1173 9.43776 9.43776ZM11.9999 9.95541C11.4577 9.95541 10.9377 10.1708 10.5542 10.5542C10.1708 10.9377 9.95541 11.4577 9.95541 11.9999C9.95541 12.4043 10.0753 12.7996 10.3 13.1358C10.5246 13.4721 10.8439 13.7341 11.2175 13.8889C11.5911 14.0436 12.0022 14.0841 12.3988 14.0052C12.7954 13.9263 13.1597 13.7316 13.4456 13.4456C13.7316 13.1597 13.9263 12.7954 14.0052 12.3988C14.0841 12.0022 14.0436 11.5911 13.8888 11.2175C13.7341 10.8439 13.4721 10.5246 13.1358 10.3C12.7996 10.0753 12.4043 9.95541 11.9999 9.95541Z" fill="#000"/>
<path fill-rule="evenodd" clip-rule="evenodd" d="M11.4167 2.00001L11.419 2L12.5833 2C13.0278 2.00132 13.4615 2.13684 13.8276 2.38882C14.1936 2.64069 14.4751 2.99719 14.6351 3.41166C14.635 3.41149 14.6352 3.41182 14.6351 3.41166L15.1435 4.72401L16.7311 5.6374L18.1428 5.42205C18.5763 5.3632 19.0176 5.43468 19.4104 5.62719C19.8033 5.8197 20.1301 6.12467 20.3493 6.50333L20.3514 6.50709L20.9161 7.49522C21.1403 7.87885 21.2436 8.3213 21.2122 8.76465C21.1807 9.20874 21.0157 9.63291 20.7388 9.98144C20.7381 9.98226 20.7375 9.98308 20.7368 9.98391L19.8745 11.0826V12.9116L20.7652 14.0161C21.0433 14.3651 21.209 14.7902 21.2405 15.2354C21.2719 15.6787 21.1687 16.1212 20.9444 16.5048L20.3798 17.4929L20.3776 17.4967C20.1584 17.8753 19.8317 18.1803 19.4388 18.3728C19.0459 18.5653 18.6046 18.6367 18.1711 18.5778L18.1582 18.5761L16.7594 18.3626L15.1718 19.276L14.6636 20.5879C14.6636 20.5881 14.6637 20.5876 14.6636 20.5879C14.5036 21.0022 14.2219 21.3593 13.856 21.6112C13.4898 21.8632 13.0561 21.9987 12.6116 22H11.4167C10.9722 21.9987 10.5385 21.8632 10.1723 21.6112C9.80636 21.3593 9.52495 21.0029 9.3649 20.5885C9.36481 20.5883 9.36498 20.5887 9.3649 20.5885L8.85645 19.276L7.26889 18.3626L5.85718 18.578C5.42365 18.6368 4.98239 18.5653 4.58951 18.3728C4.19663 18.1803 3.86985 17.8753 3.65069 17.4967L3.64851 17.4929L3.08386 16.5047C2.8596 16.1211 2.75637 15.6787 2.78776 15.2354C2.81919 14.7913 2.98422 14.3672 3.2611 14.0186L4.12548 12.9174V11.0884L3.23477 9.98391C2.95667 9.63492 2.79093 9.20979 2.75942 8.76465C2.72803 8.32131 2.83126 7.87887 3.05553 7.49525L3.62234 6.50332C3.8415 6.12466 4.16829 5.8197 4.56117 5.62719C4.95405 5.43468 5.39529 5.36331 5.82883 5.42216L5.84171 5.42391L7.24312 5.63779L8.85739 4.72158L9.36464 3.41215C9.36459 3.41228 9.36469 3.41202 9.36464 3.41215C9.52468 2.99765 9.80629 2.64071 10.1723 2.38882C10.5385 2.13684 10.9722 2.00132 11.4167 2.00001ZM12.5795 3.57895H11.4204C11.2943 3.57951 11.1713 3.61804 11.0674 3.68953C10.9633 3.76119 10.8832 3.86263 10.8377 3.98057L10.228 5.55441C10.1623 5.72416 10.0399 5.86597 9.88156 5.95583L7.7844 7.14611C7.63017 7.23365 7.45096 7.2667 7.27566 7.23996L5.61131 6.98608C5.48967 6.97059 5.36611 6.99108 5.25593 7.04507C5.14472 7.09956 5.05213 7.18574 4.98981 7.29273L4.41947 8.29083C4.35515 8.40024 4.32546 8.52655 4.33442 8.65315C4.34334 8.77914 4.39007 8.89949 4.46848 8.99847C4.46886 8.99895 4.46924 8.99943 4.46962 8.99991L5.52949 10.3141C5.64269 10.4545 5.70443 10.6294 5.70443 10.8097V13.1903C5.70443 13.367 5.6451 13.5387 5.53596 13.6777L4.49797 15.0001C4.41888 15.0994 4.37172 15.2203 4.36276 15.3469C4.3538 15.4735 4.38343 15.5998 4.44775 15.7092L4.45269 15.7176L5.01727 16.7058C5.01756 16.7063 5.01784 16.7068 5.01813 16.7073C5.08045 16.8143 5.17305 16.9004 5.28427 16.9549C5.39445 17.0089 5.51801 17.0294 5.63965 17.0139L7.304 16.76C7.48087 16.7331 7.66167 16.767 7.81675 16.8562L9.88558 18.0465C10.042 18.1365 10.1629 18.2773 10.228 18.4456L10.8377 20.0194C10.8832 20.1374 10.9633 20.2388 11.0674 20.3105C11.1713 20.382 11.2943 20.4205 11.4204 20.4211H12.6079C12.734 20.4205 12.857 20.382 12.9608 20.3105C13.065 20.2388 13.145 20.1374 13.1906 20.0194L13.8002 18.4456C13.8654 18.2773 13.9863 18.1365 14.1427 18.0465L16.2115 16.8562C16.3666 16.767 16.5474 16.7331 16.7243 16.76L18.3886 17.0139C18.5103 17.0294 18.6338 17.0089 18.744 16.9549C18.8552 16.9004 18.9478 16.8143 19.0101 16.7073C19.0104 16.7068 19.0107 16.7063 19.011 16.7058L19.5805 15.7092C19.6448 15.5998 19.6745 15.4735 19.6655 15.3469C19.6566 15.2209 19.6099 15.1005 19.5315 15.0016C19.5311 15.0011 19.5307 15.0006 19.5303 15.0001L18.4705 13.6859C18.3573 13.5455 18.2955 13.3706 18.2955 13.1903V10.8097C18.2955 10.633 18.3548 10.4613 18.464 10.3223L19.502 8.99989C19.5811 8.90064 19.6282 8.77974 19.6372 8.65315C19.6461 8.52655 19.6165 8.40021 19.5522 8.2908L19.5473 8.28241L18.9827 7.29425C18.9824 7.29373 18.9821 7.29321 18.9818 7.2927C18.9195 7.18572 18.8269 7.09956 18.7157 7.04507C18.6055 6.99108 18.4819 6.97059 18.3603 6.98608L16.6959 7.23996C16.5191 7.26694 16.3383 7.23304 16.1832 7.14382L14.1144 5.95353C13.958 5.86354 13.8371 5.72268 13.7719 5.55442L13.1622 3.98057C13.1167 3.86263 13.0366 3.76119 12.9325 3.68953C12.8286 3.61804 12.7056 3.57951 12.5795 3.57895Z" fill="#000"/>
</svg>
