<svg width="25" height="24" viewBox="0 0 25 24" fill="none" xmlns="http://www.w3.org/2000/svg">
<path fill-rule="evenodd" clip-rule="evenodd" d="M14.2192 12.7105C13.9849 12.7105 13.7601 12.8036 13.5944 12.9693C13.4287 13.135 13.3356 13.3597 13.3356 13.5941V20.2894C13.3356 20.6819 13.0175 21 12.6251 21C12.2327 21 11.9146 20.6819 11.9146 20.2894V13.5941C11.9146 12.9829 12.1574 12.3967 12.5896 11.9644C13.0218 11.5322 13.608 11.2894 14.2192 11.2894C14.8304 11.2894 15.4166 11.5322 15.8489 11.9644C16.2811 12.3967 16.5239 12.9829 16.5239 13.5941V16.3907H18.364C19.2289 16.3907 20.0583 16.7342 20.6699 17.3458C21.2815 17.9574 21.6251 18.7869 21.6251 19.6518V20.2894C21.6251 20.6819 21.307 21 20.9146 21C20.5222 21 20.204 20.6819 20.204 20.2894V19.6518C20.204 19.1638 20.0102 18.6957 19.6651 18.3507C19.32 18.0056 18.852 17.8117 18.364 17.8117H15.8133C15.4209 17.8117 15.1028 17.4936 15.1028 17.1012V13.5941C15.1028 13.3597 15.0097 13.135 14.844 12.9693C14.6783 12.8036 14.4536 12.7105 14.2192 12.7105Z" fill="#ff0"/>
<path d="M4.9731 4.98588C5.32527 4.98588 5.61075 4.70039 5.61075 4.34822C5.61075 3.99606 5.32527 3.71057 4.9731 3.71057C4.62094 3.71057 4.33545 3.99606 4.33545 4.34822C4.33545 4.70039 4.62094 4.98588 4.9731 4.98588Z" fill="#000"/>
<path fill-rule="evenodd" clip-rule="evenodd" d="M4.97318 4.42105C5.01343 4.42105 5.04605 4.38843 5.04605 4.34818C5.04605 4.30793 5.01343 4.27531 4.97318 4.27531C4.93293 4.27531 4.90031 4.30793 4.90031 4.34818C4.90031 4.38843 4.93293 4.42105 4.97318 4.42105ZM3.625 4.34818C3.625 3.6036 4.2286 3 4.97318 3C5.71776 3 6.32136 3.6036 6.32136 4.34818C6.32136 5.09276 5.71776 5.69636 4.97318 5.69636C4.2286 5.69636 3.625 5.09276 3.625 4.34818Z" fill="#000"/>
<path d="M10.0747 4.98588C10.4268 4.98588 10.7123 4.70039 10.7123 4.34822C10.7123 3.99606 10.4268 3.71057 10.0747 3.71057C9.7225 3.71057 9.43701 3.99606 9.43701 4.34822C9.43701 4.70039 9.7225 4.98588 10.0747 4.98588Z" fill="#000"/>
<path fill-rule="evenodd" clip-rule="evenodd" d="M10.0743 4.42105C10.1145 4.42105 10.1471 4.38843 10.1471 4.34818C10.1471 4.30793 10.1145 4.27531 10.0743 4.27531C10.034 4.27531 10.0014 4.30793 10.0014 4.34818C10.0014 4.38843 10.034 4.42105 10.0743 4.42105ZM8.72607 4.34818C8.72607 3.6036 9.32967 3 10.0743 3C10.8188 3 11.4224 3.6036 11.4224 4.34818C11.4224 5.09276 10.8188 5.69636 10.0743 5.69636C9.32967 5.69636 8.72607 5.09276 8.72607 4.34818Z" fill="#000"/>
<path d="M15.1757 4.98588C15.5279 4.98588 15.8134 4.70039 15.8134 4.34822C15.8134 3.99606 15.5279 3.71057 15.1757 3.71057C14.8236 3.71057 14.5381 3.99606 14.5381 4.34822C14.5381 4.70039 14.8236 4.98588 15.1757 4.98588Z" fill="#000"/>
<path fill-rule="evenodd" clip-rule="evenodd" d="M15.1753 4.42105C15.2156 4.42105 15.2482 4.38843 15.2482 4.34818C15.2482 4.30793 15.2156 4.27531 15.1753 4.27531C15.1351 4.27531 15.1025 4.30793 15.1025 4.34818C15.1025 4.38843 15.1351 4.42105 15.1753 4.42105ZM13.8271 4.34818C13.8271 3.6036 14.4307 3 15.1753 3C15.9199 3 16.5235 3.6036 16.5235 4.34818C16.5235 5.09276 15.9199 5.69636 15.1753 5.69636C14.4307 5.69636 13.8271 5.09276 13.8271 4.34818Z" fill="#000"/>
<path d="M4.9731 9.44938C5.32527 9.44938 5.61075 9.16389 5.61075 8.81172C5.61075 8.45956 5.32527 8.17407 4.9731 8.17407C4.62094 8.17407 4.33545 8.45956 4.33545 8.81172C4.33545 9.16389 4.62094 9.44938 4.9731 9.44938Z" fill="#000"/>
<path fill-rule="evenodd" clip-rule="evenodd" d="M4.97318 8.88468C5.01343 8.88468 5.04605 8.85205 5.04605 8.8118C5.04605 8.77156 5.01343 8.73893 4.97318 8.73893C4.93293 8.73893 4.90031 8.77156 4.90031 8.8118C4.90031 8.85205 4.93293 8.88468 4.97318 8.88468ZM3.625 8.8118C3.625 8.06722 4.2286 7.46362 4.97318 7.46362C5.71776 7.46362 6.32136 8.06722 6.32136 8.8118C6.32136 9.55638 5.71776 10.16 4.97318 10.16C4.2286 10.16 3.625 9.55638 3.625 8.8118Z" fill="#000"/>
<path d="M10.0747 9.44938C10.4268 9.44938 10.7123 9.16389 10.7123 8.81172C10.7123 8.45956 10.4268 8.17407 10.0747 8.17407C9.7225 8.17407 9.43701 8.45956 9.43701 8.81172C9.43701 9.16389 9.7225 9.44938 10.0747 9.44938Z" fill="#000"/>
<path fill-rule="evenodd" clip-rule="evenodd" d="M10.0743 8.88468C10.1145 8.88468 10.1471 8.85205 10.1471 8.8118C10.1471 8.77156 10.1145 8.73893 10.0743 8.73893C10.034 8.73893 10.0014 8.77156 10.0014 8.8118C10.0014 8.85205 10.034 8.88468 10.0743 8.88468ZM8.72607 8.8118C8.72607 8.06722 9.32967 7.46362 10.0743 7.46362C10.8188 7.46362 11.4224 8.06722 11.4224 8.8118C11.4224 9.55638 10.8188 10.16 10.0743 10.16C9.32967 10.16 8.72607 9.55638 8.72607 8.8118Z" fill="#000"/>
<path d="M15.1757 9.44938C15.5279 9.44938 15.8134 9.16389 15.8134 8.81172C15.8134 8.45956 15.5279 8.17407 15.1757 8.17407C14.8236 8.17407 14.5381 8.45956 14.5381 8.81172C14.5381 9.16389 14.8236 9.44938 15.1757 9.44938Z" fill="#000"/>
<path fill-rule="evenodd" clip-rule="evenodd" d="M15.1753 8.88468C15.2156 8.88468 15.2482 8.85205 15.2482 8.8118C15.2482 8.77156 15.2156 8.73893 15.1753 8.73893C15.1351 8.73893 15.1025 8.77156 15.1025 8.8118C15.1025 8.85205 15.1351 8.88468 15.1753 8.88468ZM13.8271 8.8118C13.8271 8.06722 14.4307 7.46362 15.1753 7.46362C15.9199 7.46362 16.5235 8.06722 16.5235 8.8118C16.5235 9.55638 15.9199 10.16 15.1753 10.16C14.4307 10.16 13.8271 9.55638 13.8271 8.8118Z" fill="#000"/>
<path d="M4.9731 13.913C5.32527 13.913 5.61075 13.6275 5.61075 13.2753C5.61075 12.9232 5.32527 12.6377 4.9731 12.6377C4.62094 12.6377 4.33545 12.9232 4.33545 13.2753C4.33545 13.6275 4.62094 13.913 4.9731 13.913Z" fill="#000"/>
<path fill-rule="evenodd" clip-rule="evenodd" d="M4.97318 13.3483C5.01343 13.3483 5.04605 13.3157 5.04605 13.2754C5.04605 13.2352 5.01343 13.2026 4.97318 13.2026C4.93293 13.2026 4.90031 13.2352 4.90031 13.2754C4.90031 13.3157 4.93293 13.3483 4.97318 13.3483ZM3.625 13.2754C3.625 12.5308 4.2286 11.9272 4.97318 11.9272C5.71776 11.9272 6.32136 12.5308 6.32136 13.2754C6.32136 14.02 5.71776 14.6236 4.97318 14.6236C4.2286 14.6236 3.625 14.02 3.625 13.2754Z" fill="#000"/>
<path d="M10.0747 13.913C9.90555 13.913 9.74336 13.8458 9.62378 13.7262C9.50419 13.6067 9.43701 13.4445 9.43701 13.2753C9.43701 13.1062 9.50419 12.944 9.62378 12.8245C9.74336 12.7049 9.90555 12.6377 10.0747 12.6377V13.913Z" fill="#000"/>
<path fill-rule="evenodd" clip-rule="evenodd" d="M10.0743 13.3483C10.0936 13.3483 10.1121 13.3406 10.1258 13.327C10.1395 13.3133 10.1471 13.2948 10.1471 13.2754C10.1471 13.2561 10.1395 13.2376 10.1258 13.2239C10.1121 13.2102 10.0936 13.2026 10.0743 13.2026V13.3483ZM9.12095 12.3221C9.37378 12.0693 9.71669 11.9272 10.0743 11.9272C10.4667 11.9272 10.7848 12.2454 10.7848 12.6378V13.9131C10.7848 14.3055 10.4667 14.6236 10.0743 14.6236C9.7167 14.6236 9.37378 14.4816 9.12095 14.2287C8.86811 13.9759 8.72607 13.633 8.72607 13.2754C8.72607 12.9179 8.86811 12.575 9.12095 12.3221Z" fill="#000"/>
</svg>
