<svg width="24" height="24" viewBox="0 0 24 24" fill="none" xmlns="http://www.w3.org/2000/svg">
<path fill-rule="evenodd" clip-rule="evenodd" d="M6.57996 9.84098C5.38763 9.84098 4.42105 10.8076 4.42105 11.9999C4.42105 13.1922 5.38763 14.1588 6.57996 14.1588C7.77229 14.1588 8.73887 13.1922 8.73887 11.9999C8.73887 10.8076 7.77229 9.84098 6.57996 9.84098ZM3 11.9999C3 10.0227 4.6028 8.41992 6.57996 8.41992C8.55712 8.41992 10.1599 10.0227 10.1599 11.9999C10.1599 13.977 8.55712 15.5798 6.57996 15.5798C4.6028 15.5798 3 13.977 3 11.9999Z" fill="#000"/>
<path fill-rule="evenodd" clip-rule="evenodd" d="M15.4916 7.53632C15.6677 7.88699 15.5262 8.31404 15.1756 8.49016L9.46219 11.3596C9.11152 11.5357 8.68447 11.3942 8.50835 11.0435C8.33223 10.6929 8.47374 10.2658 8.82441 10.0897L14.5378 7.22027C14.8884 7.04415 15.3155 7.18565 15.4916 7.53632Z" fill="#000"/>
<path fill-rule="evenodd" clip-rule="evenodd" d="M8.50835 12.9562C8.68447 12.6056 9.11152 12.4641 9.46219 12.6402L15.1756 15.5096C15.5262 15.6857 15.6677 16.1128 15.4916 16.4635C15.3155 16.8141 14.8884 16.9556 14.5378 16.7795L8.82441 13.9101C8.47374 13.734 8.33223 13.3069 8.50835 12.9562Z" fill="#000"/>
<path fill-rule="evenodd" clip-rule="evenodd" d="M17.42 15.2609C16.2277 15.2609 15.2611 16.2275 15.2611 17.4198C15.2611 18.6121 16.2277 19.5787 17.42 19.5787C18.6124 19.5787 19.579 18.6121 19.579 17.4198C19.579 16.2275 18.6124 15.2609 17.42 15.2609ZM13.8401 17.4198C13.8401 15.4426 15.4429 13.8398 17.42 13.8398C19.3972 13.8398 21 15.4426 21 17.4198C21 19.397 19.3972 20.9998 17.42 20.9998C15.4429 20.9998 13.8401 19.397 13.8401 17.4198Z" fill="#ff0"/>
<path fill-rule="evenodd" clip-rule="evenodd" d="M17.42 4.42105C16.2277 4.42105 15.2611 5.38763 15.2611 6.57996C15.2611 7.77229 16.2277 8.73887 17.42 8.73887C18.6124 8.73887 19.579 7.77229 19.579 6.57996C19.579 5.38763 18.6124 4.42105 17.42 4.42105ZM13.8401 6.57996C13.8401 4.6028 15.4429 3 17.42 3C19.3972 3 21 4.6028 21 6.57996C21 8.55712 19.3972 10.1599 17.42 10.1599C15.4429 10.1599 13.8401 8.55712 13.8401 6.57996Z" fill="#ff0"/>
</svg>
