<svg width="24" height="24" viewBox="0 0 24 24" fill="none" xmlns="http://www.w3.org/2000/svg">
<path fill-rule="evenodd" clip-rule="evenodd" d="M3.53843 2.91326C3.35773 2.91326 3.18443 2.98504 3.05666 3.11281C2.92889 3.24059 2.85711 3.41388 2.85711 3.59458V8.08653C2.8595 10.8914 3.71063 13.63 5.2986 15.9421C6.88664 18.2543 9.13724 20.0319 11.7545 21.041C11.9123 21.1019 12.0874 21.102 12.2452 21.0411C14.8625 20.0319 17.1133 18.2543 18.7013 15.9421C20.2892 13.6301 21.1404 10.8917 21.1428 8.08689C21.1428 8.08665 21.1428 8.08712 21.1428 8.08689M21.1428 8.08689V3.59458C21.1428 3.41388 21.071 3.24059 20.9433 3.11281C20.8155 2.98504 20.6422 2.91326 20.4615 2.91326H3.53843M12.8624 22.6404C15.8024 21.5068 18.3305 19.51 20.1144 16.9126C21.8984 14.3152 22.8545 11.2387 22.8571 8.0876V3.59458C22.8571 2.95922 22.6047 2.34989 22.1555 1.90063C21.7062 1.45137 21.0969 1.19897 20.4615 1.19897H3.53843C2.90307 1.19897 2.29374 1.45137 1.84448 1.90063C1.39522 2.34989 1.14282 2.95923 1.14282 3.59458V8.08689C1.14543 11.238 2.10156 14.3152 3.8855 16.9126C5.66939 19.51 8.19754 21.5068 11.1375 22.6404C11.6925 22.8546 12.3074 22.8546 12.8624 22.6404Z" fill="#000"/>
<path fill-rule="evenodd" clip-rule="evenodd" d="M11.9999 7.52862C11.1988 7.52862 10.5494 8.17805 10.5494 8.97917C10.5494 9.78028 11.1988 10.4297 11.9999 10.4297C12.801 10.4297 13.4505 9.78028 13.4505 8.97917C13.4505 8.17805 12.801 7.52862 11.9999 7.52862ZM8.83508 8.97917C8.83508 7.23128 10.252 5.81433 11.9999 5.81433C13.7478 5.81433 15.1648 7.23128 15.1648 8.97917C15.1648 10.7271 13.7478 12.144 11.9999 12.144C10.252 12.144 8.83508 10.7271 8.83508 8.97917Z" fill="#ff0"/>
<path fill-rule="evenodd" clip-rule="evenodd" d="M12 10.4297C12.4734 10.4297 12.8571 10.8134 12.8571 11.2868V15.133C12.8571 15.6064 12.4734 15.9901 12 15.9901C11.5266 15.9901 11.1428 15.6064 11.1428 15.133V11.2868C11.1428 10.8134 11.5266 10.4297 12 10.4297Z" fill="#ff0"/>
</svg>
