<svg width="40" height="40" viewBox="0 0 40 40" fill="none" xmlns="http://www.w3.org/2000/svg">
<g clip-path="url(#clip0_2553_35327)">
<rect width="40" height="40" rx="10" fill="url(#paint0_radial_2553_35327)"/>
<path fill-rule="evenodd" clip-rule="evenodd" d="M14.8988 14.1467C14.4829 14.1467 14.1457 14.4838 14.1457 14.8997V18.3005C14.1457 18.7164 14.4829 19.0536 14.8988 19.0536H18.2996C18.7155 19.0536 19.0526 18.7164 19.0526 18.3005V14.8997C19.0526 14.4838 18.7155 14.1467 18.2996 14.1467H14.8988ZM12.251 14.8997C12.251 13.4374 13.4364 12.252 14.8988 12.252H18.2996C19.7619 12.252 20.9473 13.4374 20.9473 14.8997V18.3005C20.9473 19.7629 19.7619 20.9483 18.2996 20.9483H14.8988C13.4364 20.9483 12.251 19.7629 12.251 18.3005V14.8997Z" fill="#FFF9E1"/>
<path fill-rule="evenodd" clip-rule="evenodd" d="M8.77551 8.77551C9.27207 8.27896 9.94554 8 10.6478 8H13.1984C13.7216 8 14.1458 8.42415 14.1458 8.94737C14.1458 9.47059 13.7216 9.89474 13.1984 9.89474H10.6478C10.4481 9.89474 10.2565 9.97407 10.1153 10.1153C9.97407 10.2565 9.89474 10.4481 9.89474 10.6478V13.1984C9.89474 13.7216 9.47059 14.1458 8.94737 14.1458C8.42415 14.1458 8 13.7216 8 13.1984V10.6478C8 9.94554 8.27896 9.27207 8.77551 8.77551Z" fill="#FFF9E1"/>
<path fill-rule="evenodd" clip-rule="evenodd" d="M25.8542 8.94737C25.8542 8.42415 26.2784 8 26.8016 8H29.3522C30.0545 8 30.7279 8.27896 31.2245 8.77551C31.721 9.27207 32 9.94554 32 10.6478V13.1984C32 13.7216 31.5758 14.1458 31.0526 14.1458C30.5294 14.1458 30.1053 13.7216 30.1053 13.1984V10.6478C30.1053 10.4481 30.0259 10.2565 29.8847 10.1153C29.7435 9.97407 29.5519 9.89474 29.3522 9.89474H26.8016C26.2784 9.89474 25.8542 9.47059 25.8542 8.94737Z" fill="#FFF9E1"/>
<path fill-rule="evenodd" clip-rule="evenodd" d="M8.94737 25.8535C9.47059 25.8535 9.89474 26.2777 9.89474 26.8009V29.3515C9.89474 29.5512 9.97407 29.7427 10.1153 29.884C10.2565 30.0252 10.4481 30.1045 10.6478 30.1045H13.1984C13.7216 30.1045 14.1458 30.5287 14.1458 31.0519C14.1458 31.5751 13.7216 31.9993 13.1984 31.9993H10.6478C9.94554 31.9993 9.27207 31.7203 8.77551 31.2238C8.27896 30.7272 8 30.0537 8 29.3515V26.8009C8 26.2777 8.42415 25.8535 8.94737 25.8535Z" fill="#FFF9E1"/>
<path fill-rule="evenodd" clip-rule="evenodd" d="M31.0526 25.8535C31.5758 25.8535 32 26.2777 32 26.8009V29.3515C32 30.0537 31.721 30.7272 31.2245 31.2238C30.7279 31.7203 30.0545 31.9993 29.3522 31.9993H26.8016C26.2784 31.9993 25.8542 31.5751 25.8542 31.0519C25.8542 30.5287 26.2784 30.1045 26.8016 30.1045H29.3522C29.5519 30.1045 29.7435 30.0252 29.8847 29.884C30.0259 29.7427 30.1053 29.5512 30.1053 29.3515V26.8009C30.1053 26.2777 30.5294 25.8535 31.0526 25.8535Z" fill="#FFF9E1"/>
<path fill-rule="evenodd" clip-rule="evenodd" d="M13.1983 23.3027C13.7216 23.3027 14.1457 23.7269 14.1457 24.2501V25.8533H15.749C16.2722 25.8533 16.6963 26.2775 16.6963 26.8007C16.6963 27.3239 16.2722 27.7481 15.749 27.7481H13.1983C12.6751 27.7481 12.251 27.3239 12.251 26.8007V24.2501C12.251 23.7269 12.6751 23.3027 13.1983 23.3027Z" fill="#FFF9E1"/>
<path fill-rule="evenodd" clip-rule="evenodd" d="M16.502 24.2501C16.502 23.7269 16.9261 23.3027 17.4493 23.3027H19.9999C20.5231 23.3027 20.9473 23.7269 20.9473 24.2501V26.8007C20.9473 27.3239 20.5231 27.7481 19.9999 27.7481C19.4767 27.7481 19.0526 27.3239 19.0526 26.8007V25.1975H17.4493C16.9261 25.1975 16.502 24.7733 16.502 24.2501Z" fill="#FFF9E1"/>
<path fill-rule="evenodd" clip-rule="evenodd" d="M24.2511 12.252C24.7743 12.252 25.1984 12.6761 25.1984 13.1993V14.8026H26.8017C27.3249 14.8026 27.7491 15.2267 27.7491 15.7499C27.7491 16.2731 27.3249 16.6973 26.8017 16.6973H24.2511C23.7279 16.6973 23.3037 16.2731 23.3037 15.7499V13.1993C23.3037 12.6761 23.7279 12.252 24.2511 12.252Z" fill="#FFF9E1"/>
<path fill-rule="evenodd" clip-rule="evenodd" d="M23.3037 19.1505C23.3037 18.6273 23.7279 18.2031 24.2511 18.2031H26.8017C27.3249 18.2031 27.7491 18.6273 27.7491 19.1505V21.7011C27.7491 22.2243 27.3249 22.6485 26.8017 22.6485C26.2785 22.6485 25.8543 22.2243 25.8543 21.7011V20.0979H24.2511C23.7279 20.0979 23.3037 19.6737 23.3037 19.1505Z" fill="#FFF9E1"/>
<path fill-rule="evenodd" clip-rule="evenodd" d="M24.2511 23.3027C24.7743 23.3027 25.1984 23.7269 25.1984 24.2501V25.8533H26.8017C27.3249 25.8533 27.7491 26.2775 27.7491 26.8007C27.7491 27.3239 27.3249 27.7481 26.8017 27.7481H24.2511C23.7279 27.7481 23.3037 27.3239 23.3037 26.8007V24.2501C23.3037 23.7269 23.7279 23.3027 24.2511 23.3027Z" fill="#FFF9E1"/>
</g>
<defs>
<radialGradient id="paint0_radial_2553_35327" cx="0" cy="0" r="1" gradientUnits="userSpaceOnUse" gradientTransform="translate(19.9417) rotate(90) scale(40 28.2256)">
<stop stop-color="#1890EC"/>
<stop offset="1" stop-color="#4957E5"/>
</radialGradient>
<clipPath id="clip0_2553_35327">
<rect width="40" height="40" rx="10" fill="white"/>
</clipPath>
</defs>
</svg>
