<svg width="24" height="25" viewBox="0 0 24 25" fill="none" xmlns="http://www.w3.org/2000/svg">
<path fill-rule="evenodd" clip-rule="evenodd" d="M12.0003 21.857C11.4285 22.2851 11.4284 22.285 11.4284 22.2849L11.4281 22.2844L11.427 22.2831L11.4232 22.278L11.4087 22.2586L11.3535 22.184C11.3055 22.119 11.2354 22.0236 11.1464 21.9013C10.9684 21.6566 10.7148 21.3039 10.4108 20.8697C9.80308 20.002 8.99162 18.8061 8.17899 17.496C7.36786 16.1883 6.54756 14.754 5.92769 13.4116C5.32044 12.0966 4.85742 10.7707 4.85742 9.71415C4.85742 7.81975 5.60996 6.00293 6.94952 4.66339C8.28906 3.32384 10.1059 2.57129 12.0003 2.57129C13.8947 2.57129 15.7115 3.32384 17.051 4.66339C18.3906 6.00293 19.1431 7.81975 19.1431 9.71415C19.1431 10.7707 18.6801 12.0966 18.0729 13.4116C17.453 14.754 16.6327 16.1883 15.8216 17.496C15.0089 18.8061 14.1975 20.002 13.5898 20.8697C13.2857 21.3039 13.0321 21.6566 12.8542 21.9013C12.7652 22.0236 12.6951 22.119 12.6471 22.184L12.5919 22.2586L12.5774 22.278L12.5736 22.2831L12.5725 22.2844L12.5722 22.2849C12.5721 22.285 12.5721 22.2851 12.0003 21.857ZM12.0003 21.857L12.5721 22.2851C12.4372 22.4653 12.2253 22.5713 12.0003 22.5713C11.7753 22.5713 11.5634 22.4653 11.4285 22.2851L12.0003 21.857ZM14.3173 9.7141C14.3173 10.9938 13.2799 12.0311 12.0002 12.0311C10.7206 12.0311 9.68321 10.9938 9.68321 9.7141C9.68321 8.43445 10.7206 7.39708 12.0002 7.39708C13.2799 7.39708 14.3173 8.43445 14.3173 9.7141Z" fill="white"/>
</svg>
