<svg width="24" height="24" viewBox="0 0 24 24" fill="none" xmlns="http://www.w3.org/2000/svg">
<path d="M19.9122 1.71436H4.08798C3.45903 1.71623 2.85638 1.96691 2.41165 2.41165C1.96691 2.85638 1.71623 3.45903 1.71436 4.08798V8.83523C1.71623 9.46418 1.96691 10.0668 2.41165 10.5116C2.85638 10.9563 3.45903 11.207 4.08798 11.2089H4.87919V7.25282C4.66935 7.25282 4.4681 7.16946 4.31972 7.02108C4.17134 6.8727 4.08798 6.67145 4.08798 6.46161C4.08798 6.25177 4.17134 6.05052 4.31972 5.90214C4.4681 5.75376 4.66935 5.6704 4.87919 5.6704H19.121C19.3308 5.6704 19.532 5.75376 19.6804 5.90214C19.8288 6.05052 19.9122 6.25177 19.9122 6.46161C19.9122 6.67145 19.8288 6.8727 19.6804 7.02108C19.532 7.16946 19.3308 7.25282 19.121 7.25282V11.2089H19.9122C20.5411 11.207 21.1438 10.9563 21.5885 10.5116C22.0332 10.0668 22.2839 9.46418 22.2858 8.83523V4.08798C22.2839 3.45903 22.0332 2.85638 21.5885 2.41165C21.1438 1.96691 20.5411 1.71623 19.9122 1.71436Z" fill="#000"/>
<path fill-rule="evenodd" clip-rule="evenodd" d="M7.15921 21.5886C6.71447 21.1439 6.46379 20.5412 6.46191 19.9123V7.25293H17.5388V19.9123C17.537 20.5412 17.2863 21.1439 16.8415 21.5886C16.3968 22.0333 15.7942 22.284 15.1652 22.2859H8.83554C8.20659 22.284 7.60394 22.0333 7.15921 21.5886ZM12.5733 9.92996C12.5733 9.57512 12.2857 9.28747 11.9308 9.28747C11.576 9.28747 11.2883 9.57512 11.2883 9.92996V11.0307C11.2591 11.0326 11.23 11.0348 11.2012 11.0374C10.9616 11.0582 10.6913 11.1034 10.4382 11.22C10.1702 11.3436 9.93207 11.5427 9.77125 11.8411C9.61736 12.1267 9.55868 12.4578 9.55868 12.8126C9.55868 13.4989 9.91627 13.9881 10.3304 14.3332C10.7127 14.6518 11.2019 14.8963 11.6096 15.1L11.6096 15.1L11.6436 15.117C12.0942 15.3423 12.4531 15.5256 12.7088 15.7386C12.9434 15.9341 13.0182 16.0935 13.0182 16.2721C13.0182 16.4939 12.9803 16.5953 12.9594 16.634C12.9455 16.6599 12.9306 16.677 12.8858 16.6976C12.8262 16.7251 12.7238 16.752 12.5493 16.7672C12.3773 16.7822 12.1813 16.7828 11.9388 16.7828L11.9308 16.7828L11.9235 16.7828C11.4936 16.782 11.1966 16.7135 11.0278 16.6163C10.9518 16.5725 10.913 16.5295 10.8907 16.4916C10.8689 16.4544 10.8436 16.3897 10.8436 16.2721C10.8436 15.9173 10.556 15.6296 10.2012 15.6296C9.84633 15.6296 9.55868 15.9173 9.55868 16.2721C9.55868 16.9416 9.88089 17.4386 10.3864 17.7298C10.6588 17.8866 10.9702 17.9767 11.2883 18.0238V19.155C11.2883 19.5099 11.576 19.7975 11.9308 19.7975C12.2857 19.7975 12.5733 19.5099 12.5733 19.155V18.054C12.6026 18.0521 12.6318 18.0499 12.6607 18.0473C12.9003 18.0265 13.1705 17.9813 13.4236 17.8647C13.6917 17.7411 13.9298 17.542 14.0906 17.2436C14.2445 16.958 14.3032 16.6269 14.3032 16.2721C14.3032 15.5858 13.9456 15.0966 13.5315 14.7515C13.1492 14.4329 12.6599 14.1884 12.2522 13.9847L12.2183 13.9677C11.7676 13.7424 11.4087 13.5591 11.153 13.3461C10.9185 13.1506 10.8436 12.9912 10.8436 12.8126C10.8436 12.5908 10.8815 12.4894 10.9024 12.4507C10.9164 12.4248 10.9313 12.4077 10.976 12.3871C11.0357 12.3596 11.1381 12.3327 11.3126 12.3175C11.4816 12.3028 11.6736 12.3019 11.9103 12.3019C11.9171 12.3021 11.924 12.3022 11.9308 12.3022L11.9492 12.302C12.3309 12.3047 12.6285 12.3946 12.81 12.51C12.9811 12.6188 13.0182 12.7221 13.0182 12.8126C13.0182 13.1674 13.3059 13.4551 13.6607 13.4551C14.0155 13.4551 14.3032 13.1674 14.3032 12.8126C14.3032 12.1881 13.954 11.7148 13.4995 11.4257C13.2273 11.2526 12.9097 11.1375 12.5733 11.0748V9.92996Z" fill="#000"/>
</svg>
