<svg width="24" height="24" viewBox="0 0 24 24" fill="none" xmlns="http://www.w3.org/2000/svg">
<path d="M3.1011 19.738C3.20286 20.8912 4.10997 21.7445 5.26529 21.8181C6.66727 21.9073 8.87268 21.9996 12.0005 21.9996C15.1282 21.9996 17.3336 21.9073 18.7356 21.8181C19.891 21.7445 20.798 20.8912 20.8998 19.738C20.9991 18.6125 21.0914 16.9648 21.0914 14.7268C21.0914 9.87833 21.0914 7.80042 21.0914 7.80042C21.0914 7.80042 18.061 7.4541 12.0005 7.4541C5.93986 7.4541 2.90955 7.80042 2.90955 7.80042C2.90955 7.80042 2.90955 9.87833 2.90955 14.7268C2.90955 16.9648 3.00178 18.6125 3.1011 19.738Z" fill="#FA7E10"/>
<path d="M3.49614 3.80415C3.80397 2.98377 4.50622 2.38993 5.37686 2.29106C6.5865 2.15369 8.68141 2 12 2C15.3186 2 17.4135 2.15369 18.6231 2.29106C19.4938 2.38993 20.196 2.98377 20.5039 3.80415C22 7.7915 22 9.0335 22 9.0335C22 10.4208 20.8807 11.5455 19.5 11.5455C18.1193 11.5455 17 10.4208 17 9.0335C17 10.4208 15.8807 11.5455 14.5 11.5455C13.1193 11.5455 12 10.4208 12 9.0335C12 10.4208 10.8807 11.5455 9.5 11.5455C8.11927 11.5455 7 10.4208 7 9.0335C7 10.4208 5.88073 11.5455 4.5 11.5455C3.11929 11.5455 2 10.4208 2 9.0335C2 9.0335 2 7.7915 3.49614 3.80415Z" fill="#FFBF97"/>
<path fill-rule="evenodd" clip-rule="evenodd" d="M15.6097 21.9489C15.6258 21.3587 15.6366 20.6277 15.6366 19.7275C15.6366 18.1071 15.6018 17.0348 15.5633 16.345C15.5233 15.6264 15.102 15.0298 14.3935 14.9028C13.8596 14.8071 13.0885 14.7275 12.0003 14.7275C10.912 14.7275 10.1409 14.8071 9.60698 14.9028C8.89853 15.0298 8.47726 15.6264 8.43721 16.345C8.39876 17.0348 8.36389 18.1071 8.36389 19.7275C8.36389 20.6277 8.37466 21.3587 8.3908 21.9489C9.42144 21.9801 10.6212 22.0003 12.0003 22.0003C13.3793 22.0003 14.5791 21.9801 15.6097 21.9489Z" fill="#FFBF97"/>
</svg>
