<svg width="16" height="16" viewBox="0 0 16 16" fill="none" xmlns="http://www.w3.org/2000/svg">
    <path fill-rule="evenodd" clip-rule="evenodd" d="M8.00016 14.6668C11.6821 14.6668 14.6668 11.6821 14.6668 8.00016C14.6668 4.31827 11.6821 1.3335 8.00016 1.3335C4.31827 1.3335 1.3335 4.31827 1.3335 8.00016C1.3335 11.6821 4.31827 14.6668 8.00016 14.6668ZM11.3714 5.44315C11.5371 5.15923 11.4413 4.79473 11.1573 4.62903C10.8734 4.46332 10.5089 4.55915 10.3432 4.84308L7.35626 9.96094L5.51489 8.48784C5.25818 8.28248 4.8836 8.3241 4.67824 8.5808C4.47288 8.8375 4.5145 9.21208 4.7712 9.41744L6.72095 10.9772C6.84079 11.075 6.98072 11.1451 7.13077 11.1826C7.28118 11.2203 7.43802 11.2242 7.59008 11.1941C7.73986 11.1654 7.88182 11.105 8.00644 11.0171C8.13204 10.9284 8.23732 10.8134 8.31468 10.6805L11.3714 5.44315Z" fill="#1F8551"/>
</svg>
