<svg width="32" height="32" viewBox="0 0 32 32" fill="none" xmlns="http://www.w3.org/2000/svg">
<rect width="32" height="32" rx="16" fill="#FFF8E5"/>
<path d="M26 14.1001C26.1 13.6001 25.7 13.0001 25.2 13.0001L19.5 12.2001L16.9 7.00006C16.8 6.80006 16.7 6.70006 16.5 6.60006C16 6.30006 15.4 6.50006 15.1 7.00006L12.6 12.2001L6.9 13.0001C6.6 13.0001 6.4 13.1001 6.3 13.3001C5.9 13.7001 5.9 14.3001 6.3 14.7001L10.4 18.7001L9.4 24.4001C9.4 24.6001 9.4 24.8001 9.5 25.0001C9.8 25.5001 10.4 25.7001 10.9 25.4001L16 22.7001L21.1 25.4001C21.2 25.5001 21.4 25.5001 21.6 25.5001H21.8C22.3 25.4001 22.7 24.9001 22.6 24.3001L21.6 18.6001L25.7 14.6001C25.9 14.5001 26 14.3001 26 14.1001Z" fill="#FFB800"/>
</svg>
