<svg width="32" height="32" viewBox="0 0 32 32" fill="none" xmlns="http://www.w3.org/2000/svg">
<rect width="32" height="32" rx="16" fill="#FFF8E5"/>
<path fill-rule="evenodd" clip-rule="evenodd" d="M18.066 9.18005L16.56 10.8741L15.439 9.87705L16.944 8.18405C17.202 7.89392 17.5185 7.66171 17.8727 7.5027C18.2269 7.34369 18.6107 7.26147 18.999 7.26147C19.3872 7.26147 19.7711 7.34369 20.1253 7.5027C20.4795 7.66171 20.796 7.89392 21.054 8.18405L26.378 14.1741C26.8251 14.6774 27.0721 15.3273 27.0721 16.0006C27.0721 16.6738 26.8251 17.3237 26.378 17.8271M26.378 17.8271L21.054 23.8171C20.796 24.1072 20.4795 24.3394 20.1253 24.4984C19.7711 24.6574 19.3872 24.7396 18.999 24.7396C18.6107 24.7396 18.2269 24.6574 17.8727 24.4984C17.5185 24.3394 17.202 24.1072 16.944 23.8171L15.439 22.1241L16.559 21.1271L18.065 22.8201C18.1822 22.9519 18.3261 23.0574 18.4871 23.1297C18.6481 23.2019 18.8225 23.2393 18.999 23.2393C19.1754 23.2393 19.3499 23.2019 19.5109 23.1297C19.6718 23.0574 19.8157 22.9519 19.933 22.8201L25.257 16.8301C25.4601 16.6013 25.5723 16.306 25.5723 16.0001C25.5723 15.6941 25.4601 15.3988 25.257 15.1701L19.933 9.18005C19.8157 9.0482 19.6718 8.94268 19.5109 8.87042C19.3499 8.79816 19.1754 8.7608 18.999 8.7608C18.8225 8.7608 18.6481 8.79816 18.4871 8.87042C18.3261 8.94268 18.1822 9.0482 18.065 9.18005" fill="#FFB800"/>
<path d="M10.945 8.18405C11.203 7.89392 11.5195 7.66171 11.8737 7.5027C12.2279 7.34369 12.6118 7.26147 13 7.26147C13.3883 7.26147 13.7721 7.34369 14.1263 7.5027C14.4805 7.66171 14.797 7.89392 15.055 8.18405L20.38 14.1741C20.8272 14.6774 21.0742 15.3273 21.0742 16.0006C21.0742 16.6738 20.8272 17.3237 20.38 17.8271L15.056 23.8171C14.798 24.1073 14.4814 24.3397 14.1272 24.4988C13.7729 24.6579 13.3889 24.7402 13.0005 24.7402C12.6121 24.7402 12.2282 24.6579 11.8739 24.4988C11.5196 24.3397 11.203 24.1073 10.945 23.8171L5.62102 17.8271C5.17356 17.3237 4.92639 16.6736 4.92639 16.0001C4.92639 15.3265 5.17356 14.6764 5.62102 14.1731L10.945 8.18405Z" fill="#FFB800"/>
</svg>
