<svg width="24" height="24" viewBox="0 0 24 24" fill="none" xmlns="http://www.w3.org/2000/svg">
<path fill-rule="evenodd" clip-rule="evenodd" d="M4.22192 11.9998C4.22192 7.70405 7.70429 4.22168 12 4.22168C16.2957 4.22168 19.7781 7.70405 19.7781 11.9998C19.7781 16.2955 16.2957 19.7778 12 19.7778C7.70429 19.7778 4.22192 16.2955 4.22192 11.9998ZM12 5.93168C8.6487 5.93168 5.93192 8.64845 5.93192 11.9998C5.93192 15.3511 8.6487 18.0678 12 18.0678C15.3513 18.0678 18.0681 15.3511 18.0681 11.9998C18.0681 8.64845 15.3513 5.93168 12 5.93168Z" fill="#0000F5"/>
<path fill-rule="evenodd" clip-rule="evenodd" d="M10.376 11.9997C10.376 11.1027 11.1032 10.3755 12.0002 10.3755C12.8972 10.3755 13.6244 11.1027 13.6244 11.9997C13.6244 12.8968 12.8972 13.624 12.0002 13.624C11.1032 13.624 10.376 12.8968 10.376 11.9997ZM12.0002 12.0855C12.0476 12.0855 12.086 12.0471 12.086 11.9997C12.086 11.9523 12.0476 11.9139 12.0002 11.9139C11.9528 11.9139 11.9144 11.9523 11.9144 11.9997C11.9144 12.0471 11.9528 12.0855 12.0002 12.0855Z" fill="black"/>
<path fill-rule="evenodd" clip-rule="evenodd" d="M12 1.14502C12.4722 1.14502 12.855 1.52782 12.855 2.00002V5.07694C12.855 5.54915 12.4722 5.93194 12 5.93194C11.5278 5.93194 11.145 5.54915 11.145 5.07694V2.00002C11.145 1.52782 11.5278 1.14502 12 1.14502Z" fill="#0000F5"/>
<path fill-rule="evenodd" clip-rule="evenodd" d="M12 18.0684C12.4722 18.0684 12.855 18.4512 12.855 18.9234V22.0003C12.855 22.4725 12.4722 22.8553 12 22.8553C11.5278 22.8553 11.145 22.4725 11.145 22.0003V18.9234C11.145 18.4512 11.5278 18.0684 12 18.0684Z" fill="#0000F5"/>
<path fill-rule="evenodd" clip-rule="evenodd" d="M18.0681 12C18.0681 11.5278 18.4509 11.145 18.9231 11.145H22C22.4722 11.145 22.855 11.5278 22.855 12C22.855 12.4722 22.4722 12.855 22 12.855H18.9231C18.4509 12.855 18.0681 12.4722 18.0681 12Z" fill="#0000F5"/>
<path fill-rule="evenodd" clip-rule="evenodd" d="M1.14502 12C1.14502 11.5278 1.52782 11.145 2.00002 11.145H5.07694C5.54915 11.145 5.93194 11.5278 5.93194 12C5.93194 12.4722 5.54915 12.855 5.07694 12.855H2.00002C1.52782 12.855 1.14502 12.4722 1.14502 12Z" fill="#0000F5"/>
</svg>
