<svg width="22" height="24" viewBox="0 0 22 24" fill="none" xmlns="http://www.w3.org/2000/svg">
<path fill-rule="evenodd" clip-rule="evenodd" d="M11.8502 0C12.3734 0 12.7976 0.424151 12.7976 0.947368V8.50202H20.3522C20.8754 8.50202 21.2996 8.92618 21.2996 9.44939C21.2996 9.97261 20.8754 10.3968 20.3522 10.3968H11.8502C11.327 10.3968 10.9028 9.97261 10.9028 9.44939V0.947368C10.9028 0.424151 11.327 0 11.8502 0Z" fill="#0000F5"/>
<path fill-rule="evenodd" clip-rule="evenodd" d="M3.34821 1.89474C3.14849 1.89474 2.95696 1.97407 2.81574 2.1153C2.67451 2.25652 2.59518 2.44806 2.59518 2.64777V21.3522C2.59518 21.5519 2.67451 21.7435 2.81574 21.8847C2.95696 22.0259 3.1485 22.1053 3.34821 22.1053H18.6519C18.8516 22.1053 19.0431 22.0259 19.1843 21.8847C19.3256 21.7435 19.4049 21.5519 19.4049 21.3522V9.8418L11.4578 1.89474H3.34821ZM1.47595 0.775515C1.97251 0.278961 2.64598 0 3.34821 0H11.8502C12.1015 0 12.3425 0.0998117 12.5201 0.277478L21.0222 8.7795C21.1998 8.95717 21.2996 9.19814 21.2996 9.44939V21.3522C21.2996 22.0545 21.0207 22.7279 20.5241 23.2245C20.0276 23.721 19.3541 24 18.6519 24H3.34821C2.64598 24 1.97251 23.721 1.47595 23.2245C0.9794 22.7279 0.700439 22.0545 0.700439 21.3522V2.64777C0.700439 1.94554 0.9794 1.27207 1.47595 0.775515Z" fill="#0C0C0E"/>
</svg>
