<svg width="20" height="20" viewBox="0 0 20 20" fill="none" xmlns="http://www.w3.org/2000/svg">
<path fill-rule="evenodd" clip-rule="evenodd" d="M2.36986 3.05237C4.42554 1.09024 7.15898 -0.00313837 10.0008 6.76652e-06L9.9999 0.789076V6.27244e-06C10.0002 6.27244e-06 10.0005 6.76652e-06 10.0008 6.76652e-06C11.9783 0.000179367 13.9113 0.586652 15.5555 1.68529C17.2 2.7841 18.4817 4.34587 19.2386 6.17311C19.9955 8.00035 20.1935 10.011 19.8077 11.9508C19.4218 13.8906 18.4694 15.6724 17.0709 17.0709C15.6724 18.4694 13.8906 19.4218 11.9508 19.8077C10.011 20.1935 8.00035 19.9955 6.1731 19.2386C4.34586 18.4817 2.78409 17.2 1.68529 15.5556C0.586484 13.9111 0 11.9777 0 9.99991C0 9.5639 0.353456 9.21044 0.789466 9.21044C1.22548 9.21044 1.57893 9.5639 1.57893 9.99991C1.57893 11.6654 2.07281 13.2935 2.99812 14.6783C3.92343 16.0632 5.23861 17.1425 6.77734 17.7799C8.31607 18.4172 10.0092 18.584 11.6428 18.2591C13.2763 17.9341 14.7767 17.1321 15.9544 15.9544C17.1321 14.7767 17.9341 13.2763 18.2591 11.6428C18.584 10.0092 18.4172 8.31607 17.7799 6.77734C17.1425 5.23861 16.0632 3.92344 14.6783 2.99813C13.2935 2.07282 11.6654 1.57894 9.9999 1.57894L9.99903 1.57894C7.56388 1.57624 5.22157 2.51317 3.46004 4.19453C3.14464 4.49558 2.64492 4.48394 2.34387 4.16854C2.04283 3.85315 2.05446 3.35342 2.36986 3.05237Z" fill="#0C0C0E"/>
<path fill-rule="evenodd" clip-rule="evenodd" d="M3.81462 0.0237582C4.23761 0.129506 4.49479 0.558135 4.38904 0.981127L3.87202 3.04921L5.94011 3.56623C6.3631 3.67198 6.62028 4.10061 6.51453 4.5236C6.40878 4.94659 5.98015 5.20377 5.55716 5.09802L2.72318 4.38953C2.30019 4.28378 2.04301 3.85515 2.14876 3.43216L2.85725 0.598179C2.963 0.175187 3.39163 -0.0819898 3.81462 0.0237582Z" fill="#0C0C0E"/>
<path fill-rule="evenodd" clip-rule="evenodd" d="M10.0002 4.25098C10.4362 4.25098 10.7896 4.60443 10.7896 5.04044V10.7084C10.7896 11.0074 10.6207 11.2808 10.3532 11.4145L6.66907 13.2566C6.27909 13.4516 5.80488 13.2935 5.60989 12.9036C5.4149 12.5136 5.57297 12.0394 5.96295 11.8444L9.21071 10.2205V5.04044C9.21071 4.60443 9.56417 4.25098 10.0002 4.25098Z" fill="#0000F5"/>
</svg>
