<svg width="41" height="40" viewBox="0 0 41 40" fill="none" xmlns="http://www.w3.org/2000/svg">
<rect x="0.833008" width="40" height="40" rx="20" fill="#F5E4F2"/>
<rect x="1.33301" y="0.5" width="39" height="39" rx="19.5" stroke="#0C0C0E" stroke-opacity="0.05"/>
<path fill-rule="evenodd" clip-rule="evenodd" d="M21.0734 16.5756C20.9462 16.7384 20.7778 16.9036 20.5598 17.0292C20.3563 17.1444 20.1322 17.2189 19.9002 17.2484C19.3342 17.3252 18.8914 16.9264 18.667 16.4884C18.2278 15.6316 17.4262 14.0176 16.769 12.4268C16.581 11.9708 16.695 11.4088 17.1582 11.1412C17.6234 10.8728 18.1694 11.0592 18.4678 11.4532C19.5006 12.818 20.499 14.3076 21.0278 15.1132C21.3002 15.5292 21.4294 16.12 21.0734 16.5756Z" fill="#D58FCC"/>
<path fill-rule="evenodd" clip-rule="evenodd" d="M20.6411 16.5756C20.7687 16.7384 20.9367 16.9036 21.1547 17.0292C21.3759 17.1572 21.6067 17.2204 21.8143 17.2484C22.3803 17.3252 22.8231 16.9264 23.0475 16.4884C23.4867 15.6316 24.2883 14.0176 24.9455 12.4268C25.1335 11.9708 25.0195 11.4088 24.5563 11.1412C24.0911 10.8728 23.5451 11.0592 23.2467 11.4532C22.2139 12.818 21.2155 14.3076 20.6867 15.1132C20.4143 15.5292 20.2851 16.12 20.6411 16.5756Z" fill="#D58FCC"/>
<path d="M20.833 14.1848C24.0246 14.1848 26.1862 14.2896 27.465 14.3808C28.593 14.4616 29.503 15.3072 29.617 16.4532C29.7234 17.5212 29.833 19.2012 29.833 21.5848C29.833 23.9684 29.7234 25.6484 29.617 26.7164C29.503 27.8624 28.593 28.7084 27.465 28.7884C26.1862 28.8804 24.0246 28.9848 20.833 28.9848C17.6414 28.9848 15.4798 28.88 14.201 28.7888C13.0726 28.708 12.163 27.8624 12.049 26.7164C11.9426 25.6484 11.833 23.9684 11.833 21.5848C11.833 19.2012 11.9426 17.5212 12.049 16.4532C12.163 15.3072 13.0726 14.4612 14.201 14.3812C15.4802 14.2888 17.6418 14.1848 20.833 14.1848Z" fill="#A6179B"/>
<path d="M20.8326 15.7849C23.9978 15.7849 25.9142 15.9049 26.7982 15.9797C27.0967 16.0027 27.3783 16.1275 27.5958 16.3332C27.8134 16.5389 27.9537 16.813 27.9934 17.1097C28.093 17.8505 28.2326 19.2965 28.2326 21.5849C28.2326 23.8733 28.093 25.3193 27.9934 26.0601C27.9537 26.3569 27.8134 26.631 27.5958 26.8367C27.3783 27.0423 27.0967 27.1671 26.7982 27.1901C25.9142 27.2649 23.9982 27.3849 20.8326 27.3849C17.6674 27.3849 15.751 27.2649 14.867 27.1901C14.5685 27.1671 14.287 27.0423 14.0694 26.8367C13.8519 26.631 13.7115 26.3569 13.6718 26.0601C13.5726 25.3193 13.4326 23.8733 13.4326 21.5849C13.4326 19.2965 13.5722 17.8505 13.6718 17.1097C13.7115 16.813 13.8519 16.5389 14.0694 16.3332C14.287 16.1275 14.5685 16.0027 14.867 15.9797C15.751 15.9049 17.667 15.7849 20.8326 15.7849Z" fill="#D58FCC"/>
</svg>
