<svg width="24" height="25" viewBox="0 0 24 25" fill="none" xmlns="http://www.w3.org/2000/svg">
<rect y="0.00195312" width="24" height="24" rx="12" fill="#ff0"/>
<circle cx="12" cy="12.002" r="10" fill="#ff0"/>
<path fill-rule="evenodd" clip-rule="evenodd" d="M12 22.002C17.5229 22.002 22 17.5248 22 12.002C22 6.47911 17.5229 2.00195 12 2.00195C6.47716 2.00195 2 6.47911 2 12.002C2 17.5248 6.47716 22.002 12 22.002ZM9.85714 15.3948C9.36403 15.3948 8.96429 15.7946 8.96429 16.2877C8.96429 16.7808 9.36403 17.1805 9.85714 17.1805H12H14.1429C14.636 17.1805 15.0357 16.7808 15.0357 16.2877C15.0357 15.7946 14.636 15.3948 14.1429 15.3948H12.8929V11.2877C12.8929 10.7946 12.4931 10.3948 12 10.3948H10.5714C10.0783 10.3948 9.67857 10.7946 9.67857 11.2877C9.67857 11.7808 10.0783 12.1805 10.5714 12.1805H11.1071V15.3948H9.85714ZM13.4286 7.71624C13.4286 8.50521 12.789 9.14481 12 9.14481C11.211 9.14481 10.5714 8.50521 10.5714 7.71624C10.5714 6.92727 11.211 6.28767 12 6.28767C12.789 6.28767 13.4286 6.92727 13.4286 7.71624Z" fill="#000"/>
</svg>
