<svg width="24" height="24" viewBox="0 0 24 24" fill="none" xmlns="http://www.w3.org/2000/svg">
    <path fill-rule="evenodd" clip-rule="evenodd" d="M16.8506 4.60727C17.1759 4.31691 17.675 4.34521 17.9653 4.67047C19.2736 6.13594 19.9966 8.03169 19.9965 9.99613C19.9965 9.99614 19.9965 9.99611 19.9965 9.99613V14.0033C19.9965 15.0534 19.7896 16.0932 19.3878 17.0634C18.9859 18.0336 18.3969 18.9151 17.6543 19.6577C16.9118 20.4002 16.0303 20.9892 15.0601 21.3911C14.0899 21.793 13.05 21.9998 11.9999 21.9998C11.5639 21.9998 11.2104 21.6463 11.2104 21.2103C11.2104 20.7743 11.5639 20.4208 11.9999 20.4208C12.8427 20.4208 13.6772 20.2548 14.4558 19.9323C15.2344 19.6098 15.9419 19.1371 16.5378 18.5412C17.1338 17.9452 17.6065 17.2378 17.929 16.4592C18.2515 15.6805 18.4175 14.846 18.4175 14.0033V9.99613C18.4176 8.41956 17.8374 6.89808 16.7874 5.72197C16.4971 5.3967 16.5254 4.89763 16.8506 4.60727Z" fill="#000"/>
    <path fill-rule="evenodd" clip-rule="evenodd" d="M4.79289 10.8066C5.22891 10.8066 5.58237 11.1601 5.58237 11.5961V14.0033C5.58194 15.2666 5.9544 16.5023 6.65307 17.5549C7.35175 18.6074 8.34555 19.4304 9.50993 19.9206C9.91179 20.0897 10.1004 20.5526 9.93124 20.9545C9.76207 21.3564 9.29916 21.545 8.8973 21.3758C7.44644 20.765 6.20813 19.7396 5.33755 18.4281C4.46703 17.1166 4.00294 15.5774 4.00342 14.0033C4.00342 14.0032 4.00342 14.0034 4.00342 14.0033V11.5961C4.00342 11.1601 4.35688 10.8066 4.79289 10.8066Z" fill="#000"/>
    <path fill-rule="evenodd" clip-rule="evenodd" d="M9.93051 2.27247C11.979 1.7236 14.1616 2.01096 15.9983 3.07132C16.3759 3.28932 16.5053 3.77215 16.2872 4.14976C16.0692 4.52736 15.5864 4.65674 15.2088 4.43873C13.7348 3.58775 11.9832 3.35713 10.3391 3.79762C8.69514 4.23811 7.29343 5.31362 6.44238 6.78757L6.4419 6.7884C6.09226 7.39225 5.84557 8.05009 5.71195 8.73495C5.62845 9.16289 5.21384 9.44212 4.78589 9.35862C4.35795 9.27512 4.07872 8.86051 4.16222 8.43257C4.32937 7.57589 4.63793 6.75301 5.07524 5.99764C6.1357 4.16126 7.88216 2.82129 9.93051 2.27247Z" fill="#000"/>
    <path fill-rule="evenodd" clip-rule="evenodd" d="M12.6647 7.76613C12.2538 7.66453 11.8253 7.65645 11.4108 7.74249C10.9839 7.83112 10.566 7.55689 10.4773 7.12998C10.3887 6.70306 10.6629 6.28514 11.0898 6.19651C11.7357 6.06243 12.4034 6.07502 13.0437 6.23335C13.684 6.39168 14.2806 6.69171 14.7896 7.11132C15.2985 7.53093 15.7067 8.05941 15.9842 8.65781C16.2609 9.25459 16.4006 9.90573 16.3929 10.5635V12.8793C16.3929 13.3153 16.0394 13.6688 15.6034 13.6688C15.1674 13.6688 14.8139 13.3153 14.8139 12.8793V10.5484C14.8194 10.1252 14.7298 9.70606 14.5518 9.32204C14.3737 8.93802 14.1117 8.59886 13.7851 8.32957C13.4585 8.06029 13.0756 7.86774 12.6647 7.76613Z" fill="#ff0"/>
    <path fill-rule="evenodd" clip-rule="evenodd" d="M8.99233 8.39026C9.39388 8.56019 9.58164 9.02345 9.41171 9.42499C9.26055 9.78221 9.18369 10.1665 9.18584 10.5544L9.18586 10.5587L9.18585 13.4542C9.1767 14.0274 9.34275 14.5897 9.66197 15.066C9.98119 15.5422 10.4382 15.9095 10.972 16.1188C11.5057 16.3282 12.0906 16.3695 12.6485 16.2373C13.2063 16.105 13.7105 15.8056 14.0935 15.379C14.3847 15.0545 14.8839 15.0276 15.2083 15.3189C15.5328 15.6102 15.5597 16.1093 15.2684 16.4338C14.6705 17.0998 13.8835 17.5672 13.0126 17.7736C12.1418 17.9801 11.2287 17.9156 10.3955 17.5888C9.56227 17.262 8.84876 16.6885 8.35043 15.9451C7.85333 15.2035 7.594 14.3281 7.6069 13.4356V10.5608C7.60388 9.95936 7.7232 9.36356 7.95761 8.80964C8.12753 8.4081 8.59079 8.22034 8.99233 8.39026Z" fill="#ff0"/>
    <path fill-rule="evenodd" clip-rule="evenodd" d="M11.9999 9.92773C12.4359 9.92773 12.7894 10.2812 12.7894 10.7172V13.1244C12.7894 13.5604 12.4359 13.9138 11.9999 13.9138C11.5639 13.9138 11.2104 13.5604 11.2104 13.1244V10.7172C11.2104 10.2812 11.5639 9.92773 11.9999 9.92773Z" fill="#000"/>
</svg>
