<svg width="24" height="24" viewBox="0 0 24 24" fill="none" xmlns="http://www.w3.org/2000/svg">
<path fill-rule="evenodd" clip-rule="evenodd" d="M16.3136 4.44374C16.3132 4.4441 16.3129 4.44445 16.3125 4.44481L13.787 6.99999C13.6101 7.17893 13.3401 7.22782 13.1117 7.12225L7.86906 4.69878C7.76392 4.64808 7.64954 4.61939 7.53291 4.61462C7.41628 4.60985 7.29991 4.62903 7.19098 4.67097C7.08205 4.71291 6.98286 4.77672 6.89954 4.85847C6.81622 4.94022 6.75054 5.03818 6.70654 5.14629C6.69911 5.16455 6.69078 5.18242 6.68158 5.19985C6.58287 5.38695 6.55887 5.60454 6.61444 5.80865C6.66997 6.01263 6.80083 6.18793 6.98058 6.29918C6.98046 6.29911 6.9807 6.29925 6.98058 6.29918L10.9893 8.76762C11.1449 8.86341 11.248 9.02512 11.2693 9.20656C11.2906 9.38799 11.2277 9.56919 11.0985 9.69836L9.63696 11.1599C9.52498 11.2719 9.37309 11.3348 9.21471 11.3348H6.97159C6.77105 11.3567 6.58493 11.4505 6.448 11.5993C6.30621 11.7534 6.22752 11.9552 6.22752 12.1646C6.22752 12.374 6.30621 12.5757 6.448 12.7298C6.58493 12.8786 6.77105 12.9725 6.97159 12.9944H8.37533C8.70513 12.9944 8.97248 13.2617 8.97248 13.5915V14.9953C8.99439 15.1958 9.08825 15.3819 9.23705 15.5189C9.39114 15.6606 9.59288 15.7393 9.80228 15.7393C10.0117 15.7393 10.2134 15.6606 10.3675 15.5189C10.5163 15.3819 10.6102 15.1958 10.6321 14.9953V12.7521C10.6321 12.5938 10.695 12.4419 10.807 12.3299L12.2685 10.8684C12.3977 10.7392 12.5789 10.6763 12.7603 10.6975C12.9417 10.7188 13.1034 10.822 13.1992 10.9775L15.6675 14.9859C15.6674 14.9858 15.6675 14.9861 15.6675 14.9859C15.7787 15.1656 15.9543 15.2969 16.1582 15.3524C16.3623 15.408 16.5799 15.384 16.767 15.2853C16.7831 15.2768 16.7997 15.269 16.8165 15.262C16.921 15.2186 17.0157 15.1546 17.0949 15.0739C17.1742 14.9932 17.2365 14.8974 17.278 14.7922C17.3196 14.687 17.3396 14.5745 17.3368 14.4614C17.334 14.3488 17.3088 14.2378 17.2625 14.1351C17.2623 14.1347 17.2621 14.1343 17.262 14.1339L14.8437 8.85324C14.7393 8.6252 14.7885 8.35621 14.9669 8.1799L17.522 5.65432C17.5224 5.65397 17.5227 5.65362 17.5231 5.65327C17.6828 5.49298 17.7725 5.2759 17.7725 5.04957C17.7725 4.82274 17.6824 4.6052 17.522 4.44481C17.3616 4.28442 17.1441 4.19431 16.9173 4.19431C16.691 4.19431 16.4739 4.28402 16.3136 4.44374ZM15.468 3.6003C15.8524 3.21594 16.3737 3 16.9173 3C17.4609 3 17.9822 3.21594 18.3665 3.6003C18.7509 3.98467 18.9669 4.50599 18.9669 5.04957C18.9669 5.59315 18.7509 6.11446 18.3665 6.49883L18.3641 6.50129L16.1035 8.7357L18.3501 13.6416C18.4627 13.8905 18.5241 14.1593 18.5308 14.4323C18.5374 14.7053 18.4892 14.9769 18.3889 15.2309C18.2886 15.4849 18.1383 15.7161 17.9469 15.9109C17.7619 16.0992 17.5422 16.2497 17.3 16.3542C16.8507 16.5835 16.3318 16.6375 15.8445 16.5048C15.3483 16.3697 14.922 16.0513 14.6516 15.6139L14.651 15.613L12.5786 12.2473L11.8264 12.9995V15.0234C11.8264 15.04 11.8257 15.0565 11.8243 15.073C11.7821 15.5802 11.5508 16.053 11.1762 16.3977C10.8017 16.7424 10.3113 16.9337 9.80228 16.9337C9.29329 16.9337 8.80289 16.7424 8.42834 16.3977C8.05379 16.053 7.82246 15.5802 7.78023 15.073C7.77886 15.0565 7.77817 15.04 7.77817 15.0234V14.1887H6.94344C6.9269 14.1887 6.91037 14.188 6.89389 14.1866C6.38665 14.1444 5.91382 13.9131 5.56916 13.5385C5.2245 13.164 5.0332 12.6736 5.0332 12.1646C5.0332 11.6556 5.2245 11.1652 5.56916 10.7906C5.91382 10.4161 6.38665 10.1848 6.89389 10.1425C6.91037 10.1412 6.9269 10.1405 6.94344 10.1405H8.96736L9.71953 9.3883L6.35294 7.31527C5.91556 7.04489 5.59715 6.61853 5.46207 6.12239C5.32959 5.63577 5.38316 5.11761 5.61166 4.66881C5.71697 4.42037 5.87035 4.19509 6.06309 4.00598C6.26287 3.80997 6.50068 3.65696 6.76187 3.5564C7.02306 3.45585 7.30208 3.40987 7.58172 3.42131C7.85961 3.43267 8.13225 3.5005 8.38305 3.62063L13.2323 5.86225L15.4656 3.60277L15.468 3.6003Z" fill="#0C0C0E"/>
<path fill-rule="evenodd" clip-rule="evenodd" d="M4.15186 20.3175C4.15186 19.9406 4.45741 19.635 4.83432 19.635H19.1661C19.543 19.635 19.8485 19.9406 19.8485 20.3175C19.8485 20.6944 19.543 21 19.1661 21H4.83432C4.45741 21 4.15186 20.6944 4.15186 20.3175Z" fill="#0000F5"/>
</svg>
