<svg width="25" height="24" viewBox="0 0 25 24" fill="none" xmlns="http://www.w3.org/2000/svg">
<path fill-rule="evenodd" clip-rule="evenodd" d="M7.20696 10.664C6.86039 10.664 6.57944 10.945 6.57944 11.2916V19.7936C6.57944 20.1401 6.86039 20.4211 7.20696 20.4211H18.543C18.8895 20.4211 19.1705 20.1401 19.1705 19.7936V11.2916C19.1705 10.945 18.8895 10.664 18.543 10.664H7.20696ZM5.00049 11.2916C5.00049 10.073 5.98836 9.08508 7.20696 9.08508H18.543C19.7616 9.08508 20.7495 10.073 20.7495 11.2916V19.7936C20.7495 21.0122 19.7616 22 18.543 22H7.20696C5.98836 22 5.00049 21.0122 5.00049 19.7936V11.2916Z" fill="#000"/>
<path fill-rule="evenodd" clip-rule="evenodd" d="M12.8732 2.00005C13.6294 1.99692 14.3786 2.14526 15.0766 2.43632C15.7751 2.7276 16.4081 3.15591 16.9383 3.69595C17.2438 4.00708 17.2392 4.50693 16.928 4.81239C16.6169 5.11785 16.1171 5.11325 15.8116 4.80212C15.4292 4.41262 14.9726 4.10371 14.4688 3.89363C13.9651 3.68355 13.4243 3.57656 12.8785 3.57899L12.875 3.579C11.769 3.579 10.7083 4.01834 9.9263 4.80037C9.14427 5.5824 8.70492 6.64307 8.70492 7.74903V9.87453C8.70492 10.3105 8.35147 10.664 7.91545 10.664C7.47944 10.664 7.12598 10.3105 7.12598 9.87453V7.74903C7.12598 6.2243 7.73167 4.76203 8.80981 3.68388C9.88754 2.60615 11.3491 2.00051 12.8732 2.00005Z" fill="#000"/>
<path fill-rule="evenodd" clip-rule="evenodd" d="M12.8749 15.6235C12.9196 15.6235 12.9559 15.5873 12.9559 15.5425C12.9559 15.4978 12.9196 15.4616 12.8749 15.4616C12.8302 15.4616 12.794 15.4978 12.794 15.5425C12.794 15.5873 12.8302 15.6235 12.8749 15.6235ZM11.377 15.5425C11.377 14.7152 12.0476 14.0446 12.8749 14.0446C13.7022 14.0446 14.3729 14.7152 14.3729 15.5425C14.3729 16.3698 13.7022 17.0405 12.8749 17.0405C12.0476 17.0405 11.377 16.3698 11.377 15.5425Z" fill="#ff0"/>
</svg>
