<svg width="24" height="24" viewBox="0 0 24 24" fill="none" xmlns="http://www.w3.org/2000/svg">
<path fill-rule="evenodd" clip-rule="evenodd" d="M3.0625 4.20648C3.0625 2.98787 4.05037 2 5.26898 2H10.2285C10.6645 2 11.018 2.35346 11.018 2.78947C11.018 3.22549 10.6645 3.57895 10.2285 3.57895H5.26898C4.9224 3.57895 4.64145 3.8599 4.64145 4.20648V19.7935C4.64145 20.1401 4.92239 20.4211 5.26898 20.4211H15.188C15.5346 20.4211 15.8155 20.1401 15.8155 19.7935V12.7895C15.8155 12.3535 16.169 12 16.605 12C17.041 12 17.3945 12.3535 17.3945 12.7895V19.7935C17.3945 21.0122 16.4066 22 15.188 22H5.26898C4.05038 22 3.0625 21.0122 3.0625 19.7935V4.20648Z" fill="#000"/>
<path fill-rule="evenodd" clip-rule="evenodd" d="M8.73047 17.6684C8.73047 17.2324 9.08393 16.8789 9.51994 16.8789H10.9369C11.373 16.8789 11.7264 17.2324 11.7264 17.6684C11.7264 18.1044 11.373 18.4579 10.9369 18.4579H9.51994C9.08393 18.4579 8.73047 18.1044 8.73047 17.6684Z" fill="#000"/>
<path fill-rule="evenodd" clip-rule="evenodd" d="M12.517 2.52399C12.8064 2.2346 13.2756 2.2346 13.565 2.52399L20.4764 9.43534C20.7657 9.72473 20.7657 10.1939 20.4764 10.4833C20.187 10.7727 19.7178 10.7727 19.4284 10.4833L12.517 3.57197C12.2276 3.28258 12.2276 2.81338 12.517 2.52399Z" fill="#ff0"/>
<path fill-rule="evenodd" clip-rule="evenodd" d="M12.4068 10.4835C12.1174 10.1941 12.1174 9.72487 12.4068 9.43548L19.3181 2.52414C19.6075 2.23475 20.0767 2.23475 20.3661 2.52414C20.6555 2.81353 20.6555 3.28272 20.3661 3.57211L13.4548 10.4835C13.1654 10.7729 12.6962 10.7729 12.4068 10.4835Z" fill="#ff0"/>
</svg>
