<svg width="40" height="40" viewBox="0 0 40 40" fill="none" xmlns="http://www.w3.org/2000/svg">
<rect width="40" height="40" rx="20" fill="#F3F4F6"/>
<path fill-rule="evenodd" clip-rule="evenodd" d="M20.0005 12.9823C18.2443 12.9823 16.8207 14.406 16.8207 16.1621C16.8207 17.9183 18.2443 19.3419 20.0005 19.3419C21.7567 19.3419 23.1803 17.9183 23.1803 16.1621C23.1803 14.406 21.7567 12.9823 20.0005 12.9823ZM15.5049 16.1621C15.5049 13.6793 17.5176 11.6665 20.0005 11.6665C22.4834 11.6665 24.4961 13.6793 24.4961 16.1621C24.4961 18.645 22.4834 20.6577 20.0005 20.6577C17.5176 20.6577 15.5049 18.645 15.5049 16.1621Z" fill="#1D1D1F" fill-opacity="0.6"/>
<path fill-rule="evenodd" clip-rule="evenodd" d="M15.0962 23.2925C16.5204 22.2536 18.2376 21.6938 20.0004 21.6938C21.7632 21.6938 23.4804 22.2536 24.9046 23.2925C26.3287 24.3314 27.3861 25.7957 27.9244 27.4742C27.9886 27.6744 27.9533 27.8931 27.8295 28.0629C27.7056 28.2326 27.5081 28.333 27.298 28.333H12.7028C12.4927 28.333 12.2952 28.2326 12.1713 28.0629C12.0475 27.8931 12.0122 27.6744 12.0764 27.4742C12.6147 25.7957 13.6721 24.3314 15.0962 23.2925ZM20.0004 23.0096C18.5163 23.0096 17.0706 23.4809 15.8717 24.3555C14.9227 25.0478 14.1671 25.9644 13.6686 27.0172H26.3322C25.8337 25.9644 25.0781 25.0478 24.1291 24.3555C22.9302 23.4809 21.4845 23.0096 20.0004 23.0096Z" fill="#1D1D1F" fill-opacity="0.6"/>
</svg>
