<svg width="24" height="24" viewBox="0 0 24 24" fill="none" xmlns="http://www.w3.org/2000/svg">
    <path d="M9.42752 11.3481C7.29751 11.3481 5.57251 9.57671 5.57251 7.40662C5.57251 5.23653 7.29751 3.45752 9.42752 3.45752C11.5575 3.45752 13.2825 5.22886 13.2825 7.39895C13.2825 9.56904 11.55 11.3404 9.42752 11.3404V11.3481ZM9.42752 4.77644C8.01001 4.77644 6.85501 5.95734 6.85501 7.40662C6.85501 8.85591 8.01001 10.0368 9.42752 10.0368C10.845 10.0368 12 8.85591 12 7.40662C12 5.95734 10.845 4.77644 9.42752 4.77644V4.77644Z" fill="#ff0"/>
    <path d="M15.2175 20.5501H3.645C3.2925 20.5501 3 20.2587 3 19.8906V19.1775C3.0075 18.0579 3.3 16.9614 3.8325 15.9952C4.365 15.029 5.1375 14.2085 6.06001 13.6257C6.98251 13.043 8.04751 12.7056 9.13501 12.6596C9.33751 12.6519 9.54001 12.6519 9.72001 12.6596C10.8 12.7132 11.865 13.0506 12.7875 13.6334C13.71 14.2162 14.4825 15.029 15.015 15.9952C15.5475 16.9614 15.84 18.0579 15.8475 19.1698V19.8906C15.8475 20.251 15.5625 20.5501 15.2025 20.5501H15.2175ZM4.29 19.2312H14.5725V19.1775C14.565 18.2957 14.3325 17.4138 13.905 16.647C13.4775 15.8725 12.8625 15.2207 12.12 14.753C11.3775 14.2852 10.53 14.0168 9.66001 13.9785C9.51001 13.9708 9.36751 13.9708 9.20251 13.9785C8.33251 14.0168 7.48501 14.2852 6.74251 14.753C6.00001 15.2207 5.38501 15.8725 4.9575 16.647C4.53 17.4215 4.2975 18.3033 4.29 19.1852V19.2312V19.2312Z" fill="#ff0"/>
    <path d="M14.5725 11.3484C14.22 11.3484 13.9275 11.057 13.9275 10.6889C13.9275 10.3209 14.2125 10.0295 14.5725 10.0295C15.99 10.0295 17.145 8.84858 17.145 7.3993C17.145 5.95002 15.99 4.76912 14.5725 4.76912C14.22 4.76912 13.9275 4.47773 13.9275 4.10966C13.9275 3.74159 14.2125 3.4502 14.5725 3.4502C16.7025 3.4502 18.4275 5.22154 18.4275 7.39163C18.4275 9.56172 16.695 11.3331 14.5725 11.3331V11.3484Z" fill="#000"/>
    <path d="M20.3551 20.5501H17.7826C17.4301 20.5501 17.1376 20.2587 17.1376 19.8907C17.1376 19.5226 17.4226 19.2312 17.7826 19.2312H19.7101V19.1775C19.7026 18.2957 19.4701 17.4215 19.0426 16.647C18.6151 15.8725 18.0001 15.2208 17.2576 14.753C16.7776 14.4539 16.2601 14.2316 15.7126 14.1012C15.3676 14.0169 15.1501 13.6641 15.2326 13.3114C15.3151 12.9586 15.6601 12.7363 16.0051 12.8206C16.6951 12.9817 17.3401 13.2577 17.9401 13.6334C18.8626 14.2162 19.6351 15.0291 20.1676 15.9952C20.7001 16.9614 20.9926 18.058 21.0001 19.1699V19.8907C21.0001 20.2511 20.7151 20.5501 20.3551 20.5501V20.5501Z" fill="#000"/>
</svg>
