<svg width="56" height="56" viewBox="0 0 56 56" fill="none" xmlns="http://www.w3.org/2000/svg">
<rect width="56" height="56" rx="28" fill="#F3F4F6"/>
<path fill-rule="evenodd" clip-rule="evenodd" d="M44.6671 27.9999C44.6671 32.4687 42.9083 36.5266 40.0454 39.5194C37.0216 42.6802 32.7664 44.6528 28.0501 44.6666H28.0004H27.9507C23.2345 44.6528 18.9791 42.6802 15.9555 39.5194C13.0925 36.5266 11.3337 32.4687 11.3337 27.9999C11.3337 18.7952 18.7957 11.3333 28.0004 11.3333C37.2052 11.3333 44.6671 18.7952 44.6671 27.9999ZM38.1023 36.3333C35.7006 33.4248 32.0669 31.5713 28.0004 31.5713C23.9339 31.5713 20.3003 33.4248 17.8984 36.3333C20.3003 39.2416 23.9339 41.0952 28.0004 41.0952C32.0669 41.0952 35.7006 39.2416 38.1023 36.3333ZM28.0007 29.1903C31.2881 29.1903 33.9531 26.5253 33.9531 23.2379C33.9531 19.9505 31.2881 17.2856 28.0007 17.2856C24.7133 17.2856 22.0483 19.9505 22.0483 23.2379C22.0483 26.5253 24.7133 29.1903 28.0007 29.1903Z" fill="url(#paint0_linear_13484_52347)"/>
<defs>
<linearGradient id="paint0_linear_13484_52347" x1="21.7877" y1="88.7142" x2="80.5927" y2="66.1765" gradientUnits="userSpaceOnUse">
<stop stop-color="#0700FB"/>
<stop offset="0.139576" stop-color="#1B00F0"/>
<stop offset="0.3" stop-color="#3C00DE"/>
<stop offset="0.409572" stop-color="#6900C5"/>
<stop offset="0.511558" stop-color="#A300A5"/>
<stop offset="0.61" stop-color="#D71279"/>
<stop offset="0.701125" stop-color="#F46A1F"/>
<stop offset="0.773041" stop-color="#FFB000"/>
<stop offset="1" stop-color="#FFB800"/>
</linearGradient>
</defs>
</svg>
