<svg width="24" height="24" viewBox="0 0 24 24" fill="none" xmlns="http://www.w3.org/2000/svg">
<path fill-rule="evenodd" clip-rule="evenodd" d="M12 7.12143C10.4795 7.12143 9.24692 8.354 9.24692 9.87446C9.24692 11.3949 10.4795 12.6275 12 12.6275C13.5204 12.6275 14.753 11.3949 14.753 9.87446C14.753 8.354 13.5204 7.12143 12 7.12143ZM7.66797 9.87446C7.66797 7.48198 9.60746 5.54248 12 5.54248C14.3924 5.54248 16.3319 7.48198 16.3319 9.87446C16.3319 12.267 14.3924 14.2064 12 14.2064C9.60746 14.2064 7.66797 12.267 7.66797 9.87446Z" fill="#107ED9"/>
<path fill-rule="evenodd" clip-rule="evenodd" d="M12.0004 16.334C10.9204 16.334 9.85861 16.6118 8.91705 17.1407C7.97549 17.6696 7.18582 18.4318 6.62395 19.3541C6.39711 19.7265 5.91136 19.8444 5.539 19.6176C5.16665 19.3907 5.04869 18.905 5.27553 18.5326C5.97832 17.379 6.96604 16.4256 8.14375 15.7641C9.32146 15.1025 10.6495 14.755 12.0004 14.755C13.3512 14.755 14.6792 15.1025 15.857 15.7641C17.0347 16.4256 18.0224 17.379 18.7252 18.5326C18.952 18.905 18.8341 19.3907 18.4617 19.6176C18.0893 19.8444 17.6036 19.7265 17.3767 19.3541C16.8149 18.4318 16.0252 17.6696 15.0836 17.1407C14.1421 16.6118 13.0803 16.334 12.0004 16.334Z" fill="#107ED9"/>
<path fill-rule="evenodd" clip-rule="evenodd" d="M12 3.57895C7.34918 3.57895 3.57895 7.34918 3.57895 12C3.57895 16.6508 7.34918 20.4211 12 20.4211C16.6508 20.4211 20.4211 16.6508 20.4211 12C20.4211 7.34918 16.6508 3.57895 12 3.57895ZM2 12C2 6.47715 6.47715 2 12 2C17.5228 2 22 6.47715 22 12C22 17.5228 17.5228 22 12 22C6.47715 22 2 17.5228 2 12Z" fill="#0C0C0E"/>
</svg>
