<svg width="24" height="24" viewBox="0 0 24 24" fill="none" xmlns="http://www.w3.org/2000/svg">
<g clip-path="url(#clip0_1713_431)">
<path fill-rule="evenodd" clip-rule="evenodd" d="M2 2H40.0004V3.53848H2V2ZM2 5.07695H40.0004V6.61543H2V5.07695ZM2 8.15391H40.0004V9.69238H2V8.15391ZM2 11.2309H40.0004V12.7693H2V11.2309ZM2 14.3078H40.0004V15.8463H2V14.3078ZM2 17.3848H40.0004V18.9232H2V17.3848ZM2 20.4617H40.0004V22.0002H2V20.4617Z" fill="#BD3D44"/>
<path fill-rule="evenodd" clip-rule="evenodd" d="M2 3.53857H40.0004V5.07705H2V3.53857ZM2 6.61553H40.0004V8.154H2V6.61553ZM2 9.69248H40.0004V11.231H2V9.69248ZM2 12.7694H40.0004V14.3079H2V12.7694ZM2 15.8464H40.0004V17.3849H2V15.8464ZM2 18.9233H40.0004V20.4618H2V18.9233Z" fill="white"/>
<path fill-rule="evenodd" clip-rule="evenodd" d="M2 2H17.2002V12.7693H2V2Z" fill="#192F5D"/>
<path fill-rule="evenodd" clip-rule="evenodd" d="M3.26158 2.46143L3.41541 2.89217H3.84619L3.49232 3.15373L3.6308 3.56912L3.26158 3.30756L2.9231 3.56912L3.06158 3.15373L2.69232 2.89217H3.15392L3.26158 2.46143ZM5.80006 2.46143L5.93853 2.89217H6.38467L6.01545 3.15373L6.16928 3.56912L5.80006 3.30756L5.43084 3.56912L5.58467 3.15373L5.21545 2.89217H5.66158L5.80006 2.46143ZM8.33853 2.46143L8.47701 2.89217H8.92314L8.55392 3.15373L8.70779 3.56912L8.33853 3.30756L7.96931 3.56912L8.12314 3.15373L7.75392 2.89217H8.2001L8.33853 2.46143ZM10.8617 2.46143L11.0155 2.89217H11.4463L11.0924 3.15373L11.2309 3.56912L10.8617 3.30756L10.5078 3.56912L10.6463 3.15373L10.277 2.89217H10.7386L10.8617 2.46143ZM13.4001 2.46143L13.5386 2.89217H13.9847L13.6155 3.15373L13.7694 3.56912L13.3847 3.30756L13.0309 3.56912L13.1694 3.15373L12.8001 2.89217H13.2463L13.4001 2.46143ZM15.9386 2.46143L16.0771 2.89217H16.5232L16.154 3.15373L16.3078 3.56912L15.9386 3.30756L15.5694 3.56912L15.7232 3.15373L15.354 2.89217H15.8001L15.9386 2.46143ZM4.53849 3.53834L4.67697 3.96912H5.12314L4.75388 4.23064L4.90775 4.64603L4.53849 4.38451L4.16927 4.64603L4.3231 4.23064L3.95388 3.96912H4.40006L4.53849 3.53834ZM7.06162 3.53834L7.21545 3.96912H7.64623L7.29236 4.23064L7.43084 4.64603L7.06162 4.38451L6.70775 4.64603L6.84623 4.23064L6.47697 3.96912H6.93853L7.06162 3.53834ZM9.60009 3.53834L9.73857 3.96912H10.1847L9.81549 4.23064L9.96931 4.64603L9.60009 4.38451L9.23084 4.64603L9.38471 4.23064L9.01549 3.96912H9.46162L9.60009 3.53834ZM12.1386 3.53834L12.277 3.96912H12.7232L12.354 4.23064L12.5078 4.64603L12.1386 4.38451L11.7694 4.64603L11.9232 4.23064L11.554 3.96912H12.0001L12.1386 3.53834ZM14.6617 3.53834L14.8155 3.96912H15.2309L14.877 4.23064L15.0155 4.64603L14.6463 4.38451L14.2924 4.64603L14.4309 4.23064L14.0617 3.96912H14.5232L14.6617 3.53834ZM3.27693 4.61529L3.40002 5.04604H3.86158L3.49232 5.3076L3.6308 5.72299L3.26158 5.46143L2.9231 5.72299L3.06158 5.3076L2.69232 5.04604H3.15392L3.27693 4.61529ZM5.80006 4.61529L5.93853 5.04604H6.38467L6.03084 5.3076L6.16928 5.72299L5.80006 5.46143L5.44619 5.72299L5.58467 5.3076L5.21545 5.04604H5.66158L5.80006 4.61529ZM8.33853 4.61529L8.47701 5.04604H8.92314L8.55392 5.3076L8.70779 5.72299L8.33853 5.46143L7.96931 5.72299L8.12314 5.3076L7.75392 5.04604H8.2001L8.33853 4.61529ZM10.8617 4.61529L11.0155 5.04604H11.4463L11.0924 5.3076L11.2309 5.72299L10.8617 5.46143L10.5078 5.72299L10.6463 5.3076L10.277 5.04604H10.7386L10.8617 4.61529ZM13.4001 4.61529L13.5386 5.04604H13.9847L13.6309 5.3076L13.7694 5.72299L13.4001 5.46143L13.0463 5.72299L13.1847 5.3076L12.8155 5.04604H13.2617L13.4001 4.61529ZM15.9386 4.61529L16.0771 5.04604H16.5232L16.154 5.3076L16.3078 5.72299L15.9386 5.46143L15.5694 5.72299L15.7232 5.3076L15.354 5.04604H15.8001L15.9386 4.61529ZM4.53849 5.69217L4.67697 6.12295H5.12314L4.75388 6.38447L4.90775 6.79986L4.53849 6.53834L4.16927 6.79986L4.3231 6.38447L3.95388 6.12295H4.40006L4.53849 5.69217ZM7.06162 5.69217L7.21545 6.12295H7.64623L7.29236 6.38447L7.43084 6.79986L7.06162 6.53834L6.70775 6.79986L6.84623 6.38447L6.47697 6.12295H6.93853L7.06162 5.69217ZM9.60009 5.69217L9.73857 6.12295H10.1847L9.83088 6.38447L9.96931 6.79986L9.60009 6.53834L9.24623 6.79986L9.38471 6.38447L9.01549 6.12295H9.46162L9.60009 5.69217ZM12.1386 5.69217L12.277 6.12295H12.7232L12.354 6.38447L12.5078 6.7999L12.1386 6.53838L11.7694 6.7999L11.9232 6.38451L11.554 6.12299H12.0001L12.1386 5.69217ZM14.6617 5.69217L14.8155 6.12295H15.2309L14.877 6.38447L15.0155 6.79986L14.6463 6.53834L14.2924 6.79986L14.4309 6.38447L14.0617 6.12295H14.5232L14.6617 5.69217ZM3.27693 6.76912L3.40002 7.19986H3.86158L3.49232 7.46143L3.6308 7.87682L3.26158 7.61525L2.9231 7.87682L3.06158 7.46143L2.69232 7.19986H3.15392L3.27693 6.76912ZM5.80006 6.76912L5.93853 7.19986H6.38467L6.03084 7.46143L6.16928 7.87682L5.80006 7.61525L5.44619 7.87682L5.58467 7.46143L5.21545 7.19986H5.66158L5.80006 6.76912ZM8.33853 6.76912L8.47701 7.19986H8.92314L8.55392 7.46143L8.70779 7.87682L8.33853 7.61525L7.96931 7.87682L8.12314 7.46143L7.75392 7.19986H8.2001L8.33853 6.76912ZM10.8617 6.76912L11.0155 7.19986H11.4463L11.0924 7.46143L11.2309 7.87682L10.8617 7.61525L10.5078 7.87682L10.6463 7.46143L10.277 7.19986H10.7386L10.8617 6.76912ZM13.4001 6.76912L13.5386 7.19986H13.9847L13.6309 7.46143L13.7694 7.87682L13.4001 7.61525L13.0463 7.87682L13.1847 7.46143L12.8155 7.19986H13.2617L13.4001 6.76912ZM15.9386 6.76912L16.0771 7.19986H16.5232L16.154 7.46143L16.3078 7.87682L15.9386 7.61525L15.5694 7.87682L15.7232 7.46143L15.354 7.19986H15.8001L15.9386 6.76912ZM4.53849 7.84604L4.67697 8.27682H5.12314L4.75388 8.53834L4.90775 8.95373L4.53849 8.69221L4.16927 8.95373L4.3231 8.53834L3.95388 8.27682H4.40006L4.53849 7.84604ZM7.06162 7.84604L7.21545 8.27682H7.64623L7.29236 8.53834L7.43084 8.95373L7.06162 8.69221L6.70775 8.95373L6.84623 8.53834L6.47697 8.27682H6.93853L7.06162 7.84604ZM9.60009 7.84604L9.73857 8.27682H10.1847L9.83088 8.53834L9.96931 8.95373L9.60009 8.69221L9.24623 8.95373L9.38471 8.53834L9.01549 8.27682H9.46162L9.60009 7.84604ZM12.1386 7.84604L12.277 8.27682H12.7232L12.354 8.53834L12.5078 8.95377L12.1386 8.69225L11.7694 8.95377L11.9232 8.53838L11.554 8.27686H12.0001L12.1386 7.84604ZM14.6617 7.84604L14.8155 8.27682H15.2309L14.877 8.53834L15.0155 8.95373L14.6463 8.69221L14.2924 8.95373L14.4309 8.53834L14.0617 8.27682H14.5232L14.6617 7.84604ZM3.27693 8.92299L3.40002 9.35373H3.86158L3.49232 9.61529L3.6308 10.0307L3.26158 9.76912L2.9231 10.0307L3.06158 9.61529L2.69232 9.35373H3.15392L3.27693 8.92299ZM5.80006 8.92299L5.93853 9.35373H6.38467L6.03084 9.61529L6.16928 10.0307L5.80006 9.76912L5.44619 10.0307L5.58467 9.61529L5.21545 9.35373H5.66158L5.80006 8.92299ZM8.33853 8.92299L8.47701 9.35373H8.92314L8.55392 9.61529L8.70779 10.0307L8.33853 9.76912L7.96931 10.0307L8.12314 9.61529L7.75392 9.35373H8.2001L8.33853 8.92299ZM10.8617 8.92299L11.0155 9.35373H11.4463L11.0924 9.61529L11.2309 10.0307L10.8617 9.76912L10.5078 10.0307L10.6463 9.61529L10.277 9.35373H10.7386L10.8617 8.92299ZM13.4001 8.92299L13.5386 9.35373H13.9847L13.6309 9.61529L13.7694 10.0307L13.4001 9.76912L13.0463 10.0307L13.1847 9.61529L12.8155 9.35373H13.2617L13.4001 8.92299ZM15.9386 8.92299L16.0771 9.35373H16.5232L16.154 9.61529L16.3078 10.0307L15.9386 9.76912L15.5694 10.0307L15.7232 9.61529L15.354 9.35373H15.8001L15.9386 8.92299ZM4.53849 9.99994L4.67697 10.4307H5.12314L4.75388 10.6922L4.90775 11.1076L4.53849 10.8461L4.16927 11.1076L4.3231 10.6922L3.95388 10.4307H4.40006L4.53849 9.99994ZM7.06162 9.99994L7.21545 10.4307H7.64623L7.29236 10.6922L7.43084 11.1076L7.06162 10.8461L6.70775 11.1076L6.84623 10.6922L6.47697 10.4307H6.93853L7.06162 9.99994ZM9.60009 9.99994L9.73857 10.4307H10.1847L9.83088 10.6922L9.96931 11.1076L9.60009 10.8461L9.24623 11.1076L9.38471 10.6922L9.01549 10.4307H9.46162L9.60009 9.99994ZM12.1386 9.99994L12.277 10.4307H12.7232L12.354 10.6922L12.5078 11.1077L12.1386 10.8462L11.7694 11.1077L11.9232 10.6923L11.554 10.4308H12.0001L12.1386 9.99994ZM14.6617 9.99994L14.8155 10.4307H15.2309L14.877 10.6922L15.0155 11.1076L14.6463 10.8461L14.2924 11.1076L14.4309 10.6922L14.0617 10.4307H14.5232L14.6617 9.99994ZM3.27693 11.0769L3.40002 11.5076H3.86158L3.49232 11.7692L3.6308 12.1846L3.26158 11.923L2.9231 12.1846L3.06158 11.7692L2.69232 11.5076H3.15392L3.27693 11.0769ZM5.80006 11.0769L5.93853 11.5076H6.38467L6.03084 11.7692L6.16928 12.1846L5.80006 11.923L5.44619 12.1846L5.58467 11.7692L5.21545 11.5076H5.66158L5.80006 11.0769ZM8.33853 11.0769L8.47701 11.5076H8.92314L8.55392 11.7692L8.70779 12.1846L8.33853 11.923L7.96931 12.1846L8.12314 11.7692L7.75392 11.5076H8.2001L8.33853 11.0769ZM10.8617 11.0769L11.0155 11.5076H11.4463L11.0924 11.7692L11.2309 12.1846L10.8617 11.923L10.5078 12.1846L10.6463 11.7692L10.277 11.5076H10.7386L10.8617 11.0769ZM13.4001 11.0769L13.5386 11.5076H13.9847L13.6309 11.7692L13.7694 12.1846L13.4001 11.923L13.0463 12.1846L13.1847 11.7692L12.8155 11.5076H13.2617L13.4001 11.0769ZM15.9386 11.0769L16.0771 11.5076H16.5232L16.154 11.7692L16.3078 12.1846L15.9386 11.923L15.5694 12.1846L15.7232 11.7692L15.354 11.5076H15.8001L15.9386 11.0769Z" fill="white"/>
</g>
<defs>
<clipPath id="clip0_1713_431">
<rect x="2" y="2" width="20" height="20" rx="10" fill="white"/>
</clipPath>
</defs>
</svg>
