<svg width="24" height="24" viewBox="0 0 24 24" fill="none" xmlns="http://www.w3.org/2000/svg">
<path fill-rule="evenodd" clip-rule="evenodd" d="M6.26113 4.42105C6.11134 4.42105 5.96769 4.48056 5.86177 4.58647C5.75586 4.69239 5.69636 4.83604 5.69636 4.98583V19.0142C5.69636 19.164 5.75586 19.3076 5.86177 19.4135C5.96769 19.5194 6.11134 19.5789 6.26113 19.5789H17.7389C17.8887 19.5789 18.0323 19.5194 18.1382 19.4135C18.2441 19.3076 18.3036 19.164 18.3036 19.0142V10.3814L12.3433 4.42105H6.26113ZM4.85694 3.58164C5.22935 3.20922 5.73446 3 6.26113 3H12.6377C12.8261 3 13.0068 3.07486 13.1401 3.20811L19.5166 9.58463C19.6498 9.71788 19.7247 9.8986 19.7247 10.087V19.0142C19.7247 19.5408 19.5155 20.0459 19.1431 20.4184C18.7706 20.7908 18.2655 21 17.7389 21H6.26113C5.73446 21 5.22935 20.7908 4.85694 20.4184C4.48452 20.0459 4.2753 19.5408 4.2753 19.0142V4.98583C4.2753 4.45915 4.48452 3.95405 4.85694 3.58164Z" fill="black"/>
<path fill-rule="evenodd" clip-rule="evenodd" d="M8.10119 8.8116C8.10119 8.41919 8.4193 8.10107 8.81172 8.10107H11.3623C11.7547 8.10107 12.0729 8.41919 12.0729 8.8116C12.0729 9.20401 11.7547 9.52213 11.3623 9.52213H8.81172C8.4193 9.52213 8.10119 9.20401 8.10119 8.8116Z" fill="#ff0"/>
<path fill-rule="evenodd" clip-rule="evenodd" d="M8.10119 12.6375C8.10119 12.2451 8.4193 11.927 8.81172 11.927H15.1882C15.5806 11.927 15.8988 12.2451 15.8988 12.6375C15.8988 13.0299 15.5806 13.3481 15.1882 13.3481H8.81172C8.4193 13.3481 8.10119 13.0299 8.10119 12.6375Z" fill="#ff0"/>
<path fill-rule="evenodd" clip-rule="evenodd" d="M8.10119 16.4637C8.10119 16.0713 8.4193 15.7532 8.81172 15.7532H15.1882C15.5806 15.7532 15.8988 16.0713 15.8988 16.4637C15.8988 16.8561 15.5806 17.1742 15.1882 17.1742H8.81172C8.4193 17.1742 8.10119 16.8561 8.10119 16.4637Z" fill="#ff0"/>
</svg>
