<svg width="24" height="24" viewBox="0 0 24 24" fill="none" xmlns="http://www.w3.org/2000/svg">
<path fill-rule="evenodd" clip-rule="evenodd" d="M20.7708 3.22922C21.0764 3.53485 21.0764 4.03037 20.7708 4.336L4.336 20.7708C4.03037 21.0764 3.53485 21.0764 3.22922 20.7708C2.92359 20.4652 2.92359 19.9696 3.22922 19.664L19.664 3.22922C19.9696 2.92359 20.4652 2.92359 20.7708 3.22922Z" fill="#000"/>
<path fill-rule="evenodd" clip-rule="evenodd" d="M5.4958 9.28859C5.87966 8.90473 6.40027 8.68909 6.94312 8.68909H8.83945C9.27167 8.68909 9.62205 9.03947 9.62205 9.4717V14.5286C9.62205 14.9608 9.27167 15.3112 8.83945 15.3112H6.94312C6.40027 15.3112 5.87966 15.0955 5.4958 14.7117C5.11195 14.3278 4.8963 13.8072 4.8963 13.2643V10.7359C4.8963 10.1931 5.11195 9.67244 5.4958 9.28859ZM6.94312 10.2543C6.81539 10.2543 6.6929 10.305 6.60258 10.3954C6.51226 10.4857 6.46152 10.6082 6.46152 10.7359V13.2643C6.46152 13.3921 6.51226 13.5146 6.60258 13.6049C6.6929 13.6952 6.81539 13.7459 6.94312 13.7459H8.05684V10.2543H6.94312Z" fill="#000"/>
<path fill-rule="evenodd" clip-rule="evenodd" d="M14.3891 4.91863C14.7486 4.88987 15.1092 4.95658 15.4346 5.11199L15.4494 5.11928C15.787 5.28937 16.0708 5.54961 16.2695 5.87115C16.4683 6.19269 16.574 6.56297 16.5752 6.94095L16.5752 6.94332L16.5752 8.20754C16.5752 8.63976 16.2248 8.99015 15.7926 8.99015C15.3604 8.99015 15.01 8.63976 15.01 8.20754V6.94481C15.0095 6.85618 14.9847 6.76939 14.9381 6.69398C14.8928 6.62067 14.8286 6.5609 14.7525 6.52086C14.6779 6.48679 14.5958 6.47232 14.514 6.47886C14.4307 6.48552 14.3506 6.51373 14.2816 6.56068L9.29306 10.1095C8.94087 10.36 8.45225 10.2776 8.2017 9.92541C7.95115 9.57322 8.03355 9.0846 8.38574 8.83405L13.3877 5.27568C13.6842 5.07052 14.0297 4.94738 14.3891 4.91863Z" fill="#000"/>
<path fill-rule="evenodd" clip-rule="evenodd" d="M15.7926 11.2174C16.2248 11.2174 16.5752 11.5678 16.5752 12V17.0569L16.575 17.0742C16.5664 17.461 16.4484 17.8373 16.2347 18.1598C16.0227 18.4796 15.725 18.7334 15.3758 18.8921C15.0526 19.0447 14.695 19.1101 14.3386 19.0816C13.9792 19.0528 13.6337 18.9296 13.3372 18.7245L13.3259 18.7165L11.1262 17.1362C10.7751 16.884 10.695 16.395 10.9472 16.044C11.1994 15.693 11.6884 15.6128 12.0394 15.865L14.2322 17.4403C14.301 17.4868 14.3806 17.5147 14.4634 17.5213C14.548 17.5281 14.6329 17.5124 14.7094 17.4758L14.726 17.4681C14.8091 17.4308 14.8798 17.3708 14.9301 17.2949C14.9792 17.2209 15.0068 17.1348 15.01 17.0461V12C15.01 11.5678 15.3604 11.2174 15.7926 11.2174Z" fill="#000"/>
<path fill-rule="evenodd" clip-rule="evenodd" d="M8.20553 14.0693C8.45903 13.7192 8.94833 13.6409 9.29841 13.8944L9.66503 14.1599C10.0151 14.4134 10.0934 14.9027 9.83989 15.2528C9.58638 15.6028 9.09709 15.6811 8.74701 15.4276L8.38039 15.1621C8.03031 14.9086 7.95203 14.4193 8.20553 14.0693Z" fill="black"/>
</svg>
