<svg width="24" height="24" viewBox="0 0 24 24" fill="none" xmlns="http://www.w3.org/2000/svg">
<path fill-rule="evenodd" clip-rule="evenodd" d="M3.59936 9.2893C3.98312 8.90554 4.50361 8.68994 5.04633 8.68994H6.94192C7.37414 8.68994 7.72453 9.04033 7.72453 9.47255V14.5275C7.72453 14.9597 7.37414 15.3101 6.94192 15.3101H5.04633C4.50361 15.3101 3.98312 15.0945 3.59936 14.7107C3.2156 14.3269 3 13.8064 3 13.2637V10.7363C3 10.1936 3.2156 9.67306 3.59936 9.2893ZM5.04633 10.2552C4.91873 10.2552 4.79636 10.3058 4.70613 10.3961C4.6159 10.4863 4.56521 10.6087 4.56521 10.7363V13.2637C4.56521 13.3913 4.6159 13.5137 4.70613 13.6039C4.79636 13.6942 4.91873 13.7448 5.04633 13.7448H6.15932V10.2552H5.04633Z" fill="#000"/>
<path fill-rule="evenodd" clip-rule="evenodd" d="M12.5527 4.92082C12.9121 4.89208 13.2726 4.95876 13.5979 5.11414C13.6162 5.12287 13.6341 5.13231 13.6517 5.14244C13.9701 5.32612 14.2331 5.59219 14.4132 5.91266C14.5915 6.2301 14.6819 6.58932 14.6751 6.95323V17.0548L14.6749 17.0722C14.6663 17.4589 14.5483 17.8351 14.3346 18.1575C14.1227 18.4773 13.8251 18.7309 13.4759 18.8897C13.1528 19.0422 12.7953 19.1076 12.439 19.0791C12.0797 19.0503 11.7343 18.9272 11.4379 18.722L11.4264 18.714L6.48525 15.1629C6.13427 14.9107 6.05422 14.4217 6.30646 14.0707C6.5587 13.7197 7.04771 13.6396 7.3987 13.8919L12.3328 17.4379C12.4015 17.4843 12.4811 17.5122 12.5638 17.5188C12.6483 17.5256 12.7331 17.5099 12.8096 17.4734L12.8262 17.4657C12.9091 17.4284 12.9798 17.3684 13.0301 17.2926C13.0791 17.2187 13.1067 17.1327 13.1099 17.0441V6.94504L13.1101 6.9264C13.1121 6.84 13.0909 6.75464 13.0486 6.6793C13.0112 6.61282 12.9587 6.5563 12.8954 6.51425C12.8265 6.48653 12.7519 6.4751 12.6776 6.48105C12.5938 6.48775 12.5132 6.51628 12.4439 6.56378L7.39184 10.1129C7.03817 10.3613 6.55005 10.276 6.30159 9.92236C6.05314 9.56868 6.13843 9.08056 6.4921 8.83211L11.5516 5.27783C11.848 5.07272 12.1934 4.94957 12.5527 4.92082Z" fill="#000"/>
<path fill-rule="evenodd" clip-rule="evenodd" d="M18.4485 7.60561C18.7815 7.33012 19.2749 7.37679 19.5503 7.70984C20.5503 8.9187 21.0645 10.4562 20.9934 12.0231C20.9703 13.7187 20.4951 15.3775 19.6168 16.8282C19.3929 17.1979 18.9117 17.3162 18.542 17.0923C18.1722 16.8685 18.054 16.3873 18.2778 16.0175C19.0139 14.8019 19.4112 13.4114 19.4285 11.9903C19.4286 11.9811 19.4289 11.9718 19.4293 11.9626C19.4856 10.7803 19.0987 9.61953 18.3443 8.70746C18.0688 8.37441 18.1154 7.88109 18.4485 7.60561Z" fill="#000"/>
<path fill-rule="evenodd" clip-rule="evenodd" d="M15.921 9.50124C16.2541 9.22575 16.7474 9.27242 17.0229 9.60547C17.5785 10.2772 17.8673 11.1296 17.835 11.9999C17.8673 12.8702 17.5785 13.7225 17.0229 14.3943C16.7474 14.7273 16.2541 14.774 15.921 14.4985C15.588 14.223 15.5413 13.7297 15.8168 13.3967C16.1319 13.0157 16.2935 12.5309 16.27 12.0371C16.2688 12.0123 16.2688 11.9875 16.27 11.9626C16.2935 11.4688 16.1319 10.984 15.8168 10.6031C15.5413 10.27 15.588 9.77672 15.921 9.50124Z" fill="#000"/>
</svg>
