<svg width="41" height="40" viewBox="0 0 41 40" fill="none" xmlns="http://www.w3.org/2000/svg">
<rect x="0.5" width="40" height="40" rx="20" fill="#E4F3FE"/>
<rect x="1" y="0.5" width="39" height="39" rx="19.5" stroke="#0C0C0E" stroke-opacity="0.05"/>
<path fill-rule="evenodd" clip-rule="evenodd" d="M19.0729 10.6486C19.2508 10.4449 19.4701 10.2816 19.7163 10.1698C19.9625 10.0579 20.2298 10 20.5002 10C20.7706 10 21.0379 10.0579 21.284 10.1698C21.5302 10.2816 21.7496 10.4449 21.9274 10.6486C22.8786 11.7195 24.3968 13.5789 25.6801 15.8395C26.9584 18.0914 28.0384 20.801 28.0384 23.5582C28.0384 27.2232 24.5466 30 20.5002 30C16.4537 30 12.9619 27.2232 12.9619 23.5582C12.9619 20.801 14.0419 18.0914 15.3202 15.8395C16.604 13.5789 18.1217 11.7195 19.0729 10.6486Z" fill="#1D9EFA"/>
<path fill-rule="evenodd" clip-rule="evenodd" d="M25.5253 22.4618C25.5253 22.2195 25.4291 21.9871 25.2577 21.8157C25.0864 21.6444 24.8539 21.5481 24.6116 21.5481C24.3693 21.5481 24.1369 21.6444 23.9655 21.8157C23.7941 21.9871 23.6979 22.2195 23.6979 22.4618C23.6979 23.1888 23.4091 23.8861 22.895 24.4001C22.3809 24.9142 21.6837 25.203 20.9567 25.203C20.7144 25.203 20.482 25.2993 20.3106 25.4706C20.1392 25.642 20.043 25.8744 20.043 26.1167C20.043 26.3591 20.1392 26.5915 20.3106 26.7628C20.482 26.9342 20.7144 27.0305 20.9567 27.0305C23.48 27.0305 25.5253 24.9851 25.5253 22.4618Z" fill="#92CFFC"/>
</svg>
