<svg width="41" height="40" viewBox="0 0 41 40" fill="none" xmlns="http://www.w3.org/2000/svg">
<rect x="0.166016" width="40" height="40" rx="20" fill="#F0E5F9"/>
<rect x="0.666016" y="0.5" width="39" height="39" rx="19.5" stroke="#0C0C0E" stroke-opacity="0.05"/>
<path d="M20.166 10C14.6433 10 10.166 14.4773 10.166 20C10.166 25.5227 14.6433 30 20.166 30C25.6887 30 30.166 25.5227 30.166 20C30.166 14.4773 25.6887 10 20.166 10Z" fill="#7508CE"/>
<path fill-rule="evenodd" clip-rule="evenodd" d="M17.0952 23.7778C17.2921 25.1413 17.5912 26.3622 17.9628 27.3671C18.309 28.3031 18.705 29.0173 19.1116 29.4849C19.3276 29.7329 19.5294 29.8938 19.7139 29.9902C18.9978 29.9586 18.2872 29.85 17.5943 29.6662C17.261 29.14 16.9668 28.5178 16.7121 27.8293C16.2868 26.6787 15.9565 25.2987 15.749 23.7778H10.9036C10.7266 23.3442 10.5804 22.8986 10.4663 22.4444H15.6014C15.5328 21.6314 15.4987 20.8159 15.4992 20C15.4992 19.164 15.5348 18.3458 15.6019 17.5555H10.4668C10.5819 17.0978 10.7281 16.6524 10.9041 16.2222H15.7499C15.9583 14.7013 16.2894 13.3213 16.7156 12.1707C16.9708 11.4818 17.2654 10.8591 17.5992 10.3324C18.2914 10.1493 19.0012 10.0411 19.7165 10.0098C19.533 10.1062 19.3316 10.2671 19.1156 10.5151C18.7094 10.9831 18.3125 11.6973 17.9659 12.6333C17.5939 13.6387 17.2939 14.8591 17.0961 16.2222H23.2352C23.0374 14.8591 22.7374 13.6387 22.3654 12.6333C22.0188 11.6973 21.6223 10.9831 21.2156 10.5151C21.0001 10.2671 20.7988 10.1062 20.6148 10.0098C21.3436 10.0422 22.0521 10.152 22.7321 10.3324C23.0659 10.8591 23.361 11.4813 23.6161 12.1707C24.0419 13.3213 24.373 14.7013 24.5814 16.2222H29.4281C29.6036 16.6524 29.7503 17.0978 29.8654 17.5555H24.7294C24.797 18.3458 24.8325 19.164 24.8325 20C24.8325 20.836 24.797 21.6547 24.7299 22.4444H29.865C29.7509 22.8986 29.6047 23.3442 29.4276 23.7778H24.5828C24.3748 25.2987 24.045 26.6787 23.6196 27.8293C23.365 28.5178 23.0703 29.1404 22.737 29.6662C22.0441 29.85 21.3335 29.9586 20.6174 29.9902C20.8023 29.8933 21.0041 29.7324 21.2196 29.4849C21.6263 29.0173 22.0228 28.3031 22.369 27.3671C22.7405 26.3622 23.0392 25.1413 23.2361 23.7778H17.0952ZM23.4992 20C23.4992 19.1582 23.4614 18.3395 23.3908 17.5555H16.9405C16.8681 18.3683 16.832 19.184 16.8325 20C16.8321 20.816 16.8679 21.6316 16.9401 22.4444H23.3916C23.4638 21.6316 23.4997 20.816 23.4992 20Z" fill="#BB94E7"/>
</svg>
