<svg width="24" height="24" viewBox="0 0 24 24" fill="none" xmlns="http://www.w3.org/2000/svg">
<path fill-rule="evenodd" clip-rule="evenodd" d="M12 11.9272C12.3924 11.9272 12.7105 12.2454 12.7105 12.6378V20.2896C12.7105 20.682 12.3924 21.0001 12 21.0001C11.6076 21.0001 11.2895 20.682 11.2895 20.2896V12.6378C11.2895 12.2454 11.6076 11.9272 12 11.9272Z" fill="#000"/>
<path fill-rule="evenodd" clip-rule="evenodd" d="M8.3094 16.5987C8.58687 16.3213 9.03675 16.3213 9.31423 16.5987L12.0001 19.2846L14.6859 16.5987C14.9634 16.3213 15.4133 16.3213 15.6907 16.5987C15.9682 16.8762 15.9682 17.3261 15.6907 17.6036L12.5025 20.7918C12.225 21.0693 11.7751 21.0693 11.4977 20.7918L8.3094 17.6036C8.03192 17.3261 8.03192 16.8762 8.3094 16.5987Z" fill="#000"/>
<path fill-rule="evenodd" clip-rule="evenodd" d="M4.42105 8.17433C4.42105 8.48624 4.67391 8.7391 4.98583 8.7391H19.0142C19.3261 8.7391 19.5789 8.48624 19.5789 8.17433V4.98607C19.5789 4.67415 19.3261 4.42129 19.0142 4.42129L4.98583 4.42129C4.67391 4.42129 4.42105 4.67415 4.42105 4.98607V8.17433ZM4.98583 10.1602C3.88909 10.1602 3 9.27107 3 8.17433L3 4.98607C3 3.88932 3.88909 3.00024 4.98583 3.00024L19.0142 3.00024C20.1109 3.00024 21 3.88932 21 4.98607V8.17433C21 9.27107 20.1109 10.1602 19.0142 10.1602L4.98583 10.1602Z" fill="#0C0C0E"/>
</svg>
