<svg width="48" height="48" viewBox="0 0 48 48" fill="none" xmlns="http://www.w3.org/2000/svg">
<path d="M35.0304 28.1076V28.6615C35.0304 29.8615 34.015 30.8769 32.815 30.8769H9.59966C8.35351 30.8769 7.38428 29.8615 7.38428 28.6615V16.4769C7.38428 15.2769 8.39966 14.2615 9.59966 14.2615H10.292V25.8922C10.292 27.0922 11.3074 28.1076 12.5074 28.1076H35.0304Z" fill="#FF8800"/>
<path d="M31.4766 11.4923H12.5535C11.3074 11.4923 10.3381 12.5077 10.3381 13.7077V14.2615V25.8923C10.3381 27.0923 11.3535 28.1077 12.5535 28.1077H35.0766H35.7689C37.0151 28.1077 37.9843 27.0923 38.0304 25.8923V15.7385" stroke="#0000FF" stroke-width="1.13" stroke-miterlimit="10" stroke-linecap="round" stroke-linejoin="round"/>
<path d="M12.5077 18.0461V15.9692C13.7538 15.9692 14.8154 14.9538 14.8154 13.7076H16.9384" stroke="#0000FF" stroke-width="1.13" stroke-miterlimit="10" stroke-linecap="round" stroke-linejoin="round"/>
<path d="M16.8923 25.9384H14.7692C14.7692 24.6923 13.7538 23.6769 12.4615 23.6769V21.6" stroke="#0000FF" stroke-width="1.13" stroke-miterlimit="10" stroke-linecap="round" stroke-linejoin="round"/>
<path d="M35.9073 21.6001V23.677C34.6612 23.677 33.5996 24.6924 33.5996 25.9386H31.4766" stroke="#0000FF" stroke-width="1.13" stroke-miterlimit="10" stroke-linecap="round" stroke-linejoin="round"/>
<path d="M24.1384 23.4923C26.1692 23.4923 27.8307 21.8307 27.8307 19.8C27.8307 17.7692 26.1692 16.1077 24.1384 16.1077C22.1076 16.1077 20.4461 17.7692 20.4461 19.8C20.4461 21.8307 22.1076 23.4923 24.1384 23.4923Z" fill="#FF8800"/>
<path d="M36.0919 16.1539C38.6304 16.1539 40.7073 14.0769 40.7073 11.5385C40.7073 9.00002 38.6304 6.9231 36.0919 6.9231C33.5535 6.9231 31.4766 9.00002 31.4766 11.5385C31.4766 14.0769 33.5073 16.1539 36.0919 16.1539Z" fill="#FF8800" stroke="#0000FF" stroke-width="1.13" stroke-miterlimit="10" stroke-linecap="round" stroke-linejoin="round"/>
<path d="M34.0151 11.5384L35.3998 12.923L38.169 10.1538" stroke="white" stroke-width="1.13" stroke-miterlimit="10" stroke-linecap="round" stroke-linejoin="round"/>
<path d="M33.0923 34.1538H37.2461V38.3077" stroke="#0000FF" stroke-width="1.13" stroke-miterlimit="10" stroke-linecap="round" stroke-linejoin="round"/>
<path d="M9.55389 40.6153L15.0924 36L20.6308 39.2307L26.1693 34.1538L31.7077 41.0769L37.2462 34.1538" stroke="#0000FF" stroke-width="1.13" stroke-miterlimit="10" stroke-linecap="round" stroke-linejoin="round"/>
</svg>
