<svg width="48" height="48" viewBox="0 0 48 48" fill="none" xmlns="http://www.w3.org/2000/svg">
<path d="M27.6923 30.9231H9.23071V34.6154H27.6923V30.9231Z" fill="#FF8800"/>
<path d="M17.5384 37.3846V40.1538C17.5384 41.6769 18.7845 42.923 20.3076 42.923H32.3076C33.8307 42.923 35.0769 41.6769 35.0769 40.1538V26.3076V19.3846V14.3076M17.5384 24.4615V12.4615C17.5384 10.9384 18.7845 9.69226 20.3076 9.69226H26.3076H29.3076" stroke="#0000FF" stroke-width="1.13"/>
<path d="M25.3843 12.4615H27.2304" stroke="#0000FF" stroke-width="1.13" stroke-linecap="round"/>
<path fill-rule="evenodd" clip-rule="evenodd" d="M39.2305 10.6154C39.2305 13.6742 36.7508 16.1538 33.692 16.1538C30.6332 16.1538 28.1536 13.6742 28.1536 10.6154C28.1536 7.55657 30.6332 5.0769 33.692 5.0769C36.7508 5.0769 39.2305 7.55657 39.2305 10.6154ZM36.0873 9.56495C36.2718 9.3892 36.2789 9.09704 36.1031 8.91243C35.9274 8.72786 35.6352 8.72075 35.4506 8.89655L32.863 11.3609L31.9352 10.4675C31.7516 10.2907 31.4595 10.2963 31.2827 10.4799C31.1058 10.6635 31.1113 10.9557 31.295 11.1324L32.5411 12.3324C32.7191 12.5038 33.0006 12.5046 33.1796 12.3342L36.0873 9.56495Z" fill="#FF8800"/>
<path d="M11.0769 24.4615H25.8461C26.8615 24.4615 27.6923 25.2923 27.6923 26.3077V35.5385C27.6923 36.5539 26.8615 37.3846 25.8461 37.3846H11.0769C10.0615 37.3846 9.23071 36.5539 9.23071 35.5385V26.3077C9.23071 25.2923 10.0153 24.4615 11.0769 24.4615Z" stroke="#0000FF" stroke-width="1.13"/>
<path fill-rule="evenodd" clip-rule="evenodd" d="M23.5384 28.7078C23.3076 28.9385 22.9846 29.0308 22.6153 29.0308C21.8307 29.0308 21.2307 28.4308 21.2307 27.6462C21.2307 26.8616 21.8307 26.2616 22.6153 26.2616C22.9846 26.2616 23.3076 26.4001 23.5384 26.5847C23.7692 26.3539 24.0923 26.2616 24.4615 26.2616C25.2461 26.2616 25.8461 26.8616 25.8461 27.6462C25.8461 28.4308 25.2461 29.0308 24.4615 29.0308C24.0923 29.077 23.7692 28.9385 23.5384 28.7078Z" fill="#FF8800"/>
</svg>
