<svg width="24" height="24" viewBox="0 0 24 24" fill="none" xmlns="http://www.w3.org/2000/svg">
<path fill-rule="evenodd" clip-rule="evenodd" d="M12.6211 15.5997C12.2345 15.813 11.7655 15.813 11.3789 15.5997C11.7655 15.813 12.2345 15.813 12.6211 15.5997ZM18.4285 12.3955L20.3716 11.3234C20.586 11.2052 20.8484 11.3602 20.8484 11.6048V19.5253C20.8484 19.9164 20.6931 20.2916 20.4165 20.5681C20.1399 20.8447 19.7648 21 19.3737 21H4.62636C4.23524 21 3.86014 20.8447 3.58357 20.5681C3.307 20.2916 3.15163 19.9164 3.15163 19.5253L3.15161 11.6048C3.15161 11.3601 3.4141 11.2052 3.62832 11.3234L5.57139 12.3954V12.3954L11.3789 15.5997C11.7655 15.813 12.2345 15.813 12.6211 15.5997L18.4285 12.3954V12.3955ZM12 14.1068L18.4285 10.5599V4.92857C18.4285 4.41708 18.2254 3.92654 17.8637 3.56487C17.502 3.20319 17.0114 3 16.5 3H7.49996C6.98848 3 6.49793 3.20319 6.13626 3.56487C5.77458 3.92654 5.57139 4.41709 5.57139 4.92857V10.5598L12 14.1068ZM9.19664 5.48079C8.75284 5.48079 8.39307 5.84057 8.39307 6.28436C8.39307 6.72816 8.75284 7.08793 9.19664 7.08793H14.8033C15.2471 7.08793 15.6069 6.72816 15.6069 6.28436C15.6069 5.84057 15.2471 5.48079 14.8033 5.48079H9.19664ZM8.39307 9.49864C8.39307 9.05485 8.75284 8.69507 9.19664 8.69507H14.8033C15.2471 8.69507 15.6069 9.05485 15.6069 9.49864C15.6069 9.94245 15.2471 10.3022 14.8033 10.3022H9.19664C8.75284 10.3022 8.39307 9.94245 8.39307 9.49864Z" fill="#1D9EFA"/>
</svg>
