<svg width="24" height="24" viewBox="0 0 24 24" fill="none" xmlns="http://www.w3.org/2000/svg">
<path fill-rule="evenodd" clip-rule="evenodd" d="M21.2323 15.8452C21.2323 20.092 17.3855 22 12.0001 22C6.61458 22 2.76782 20.092 2.76782 15.876C2.76782 11.2598 5.07588 8.92084 9.692 6.58201L8.05731 3.53888C7.95981 3.38638 7.90552 3.21026 7.90024 3.02933C7.89497 2.84839 7.93889 2.66941 8.02734 2.51148C8.11578 2.35354 8.24543 2.22257 8.40246 2.13253C8.55949 2.04248 8.738 1.99674 8.91899 2.00018H15.4431C15.6128 2.00449 15.7785 2.05191 15.9248 2.13798C16.0711 2.22404 16.1931 2.34591 16.2793 2.49212C16.3655 2.63834 16.4131 2.80408 16.4175 2.97374C16.422 3.14341 16.3831 3.31141 16.3048 3.46195L14.3081 6.58201C18.9243 8.89007 21.2323 11.2291 21.2323 15.8452ZM11.1074 18.6985C10.9465 18.6564 10.7886 18.6015 10.6355 18.5341C10.1944 18.34 9.80373 18.0475 9.49328 17.6791C9.17556 17.302 9.22373 16.7387 9.60085 16.421C9.97798 16.1032 10.5413 16.1514 10.859 16.5285C10.9937 16.6884 11.1633 16.8154 11.3547 16.8995C11.5461 16.9838 11.7542 17.0231 11.9631 17.0144C11.9958 17.013 12.0285 17.0134 12.0611 17.0157C12.3581 17.0358 12.6514 16.9402 12.8793 16.7487C13.083 16.5775 13.2203 16.3417 13.2694 16.0822C13.2203 15.8227 13.083 15.5869 12.8793 15.4158C12.6514 15.2243 12.3581 15.1286 12.0611 15.1488C11.3029 15.2005 10.5543 14.9562 9.97254 14.4673C9.39078 13.9785 9.02123 13.2831 8.94158 12.5274C8.93529 12.4677 8.93503 12.4076 8.94079 12.3479C9.01425 11.5875 9.38304 10.8862 9.96791 10.3947C10.3024 10.1136 10.6923 9.91398 11.1074 9.80552V8.80339C11.1074 8.31027 11.5071 7.91052 12.0002 7.91052C12.4933 7.91052 12.8931 8.31027 12.8931 8.80339V9.80236C13.0401 9.83802 13.1847 9.88418 13.3259 9.94067C13.7639 10.1159 14.1576 10.3859 14.4787 10.7315C14.8143 11.0927 14.7936 11.6577 14.4323 11.9934C14.0711 12.329 13.5061 12.3082 13.1705 11.947C13.029 11.7948 12.8556 11.6758 12.6627 11.5987C12.4698 11.5215 12.2622 11.4881 12.0549 11.5008C12.0139 11.5033 11.9728 11.5029 11.9319 11.4998C11.6363 11.4771 11.3437 11.5711 11.1168 11.7618C10.913 11.933 10.7768 12.1699 10.7305 12.43C10.7791 12.691 10.9167 12.9282 11.1214 13.1002C11.3493 13.2917 11.6426 13.3874 11.9396 13.3672C12.6978 13.3155 13.4464 13.5598 14.0281 14.0487C14.6099 14.5375 14.9794 15.2329 15.0591 15.9886C15.0657 16.0508 15.0657 16.1136 15.0591 16.1758C14.9794 16.9315 14.6099 17.627 14.0281 18.1158C13.6947 18.396 13.3065 18.5958 12.8931 18.7055V19.7853C12.8931 20.2784 12.4934 20.6781 12.0003 20.6781C11.5071 20.6781 11.1074 20.2784 11.1074 19.7853V18.6985Z" fill="#FF7300"/>
</svg>
