<svg width="24" height="24" viewBox="0 0 24 24" fill="none" xmlns="http://www.w3.org/2000/svg">
<path fill-rule="evenodd" clip-rule="evenodd" d="M4.14286 2.02441C2.95939 2.02441 2 2.9838 2 4.16727V9.06361C2 14.9582 5.84449 20.1634 11.4784 21.897C11.8183 22.0016 12.1817 22.0016 12.5216 21.897C18.1556 20.1634 22 14.9582 22 9.06361V4.16727C22 2.9838 21.0406 2.02441 19.8571 2.02441H4.14286ZM10.0006 6.17899C10.0006 5.7845 10.3204 5.4647 10.7149 5.4647H13.2847C13.6792 5.4647 13.999 5.7845 13.999 6.17899V8.60601H16.426C16.8206 8.60601 17.1403 8.92581 17.1403 9.3203V11.8902C17.1403 12.2847 16.8206 12.6045 16.426 12.6045H13.999V15.0315C13.999 15.426 13.6792 15.7458 13.2847 15.7458H10.7149C10.3204 15.7458 10.0006 15.426 10.0006 15.0315V12.6045H7.57356C7.17907 12.6045 6.85927 12.2847 6.85927 11.8902V9.3203C6.85927 8.92581 7.17907 8.60601 7.57356 8.60601H10.0006V6.17899Z" fill="#FF5C3E"/>
</svg>
