<svg width="24" height="24" viewBox="0 0 24 24" fill="none" xmlns="http://www.w3.org/2000/svg">
<path fill-rule="evenodd" clip-rule="evenodd" d="M8.78571 4.28571C8.78571 3.57563 8.21007 3 7.5 3C6.78993 3 6.21429 3.57563 6.21429 4.28571V5.57143H4.92857C3.86345 5.57143 3 6.43488 3 7.5V19.0714C3 20.1365 3.86345 21 4.92857 21H19.0714C20.1365 21 21 20.1365 21 19.0714V7.5C21 6.43488 20.1365 5.57143 19.0714 5.57143H17.7858V4.28571C17.7858 3.57563 17.2102 3 16.5001 3C15.7901 3 15.2144 3.57563 15.2144 4.28571V5.57143H8.78571V4.28571ZM11.7963 16.8741L11.7946 16.8736L11.791 16.8723L11.7798 16.8685L11.7413 16.8551C11.7088 16.8435 11.6629 16.8268 11.6054 16.8048C11.4905 16.7611 11.329 16.6965 11.1362 16.6108C10.7525 16.4402 10.236 16.1824 9.71484 15.835C8.71172 15.1663 7.5 14.0343 7.5 12.4073C7.5 11.1599 8.3283 10.1055 9.40457 9.78262C10.3694 9.49317 11.3571 9.68047 12 10.9662C12.6429 9.68047 13.6306 9.49317 14.5954 9.78262C15.6717 10.1055 16.5 11.1599 16.5 12.4073C16.5 14.0343 15.2883 15.1663 14.2852 15.835C13.764 16.1824 13.2475 16.4402 12.8638 16.6108C12.671 16.6965 12.5095 16.7611 12.3946 16.8048C12.3371 16.8268 12.2912 16.8435 12.2587 16.8551L12.2202 16.8685L12.209 16.8723L12.2054 16.8736L12.2042 16.874C12.0722 16.918 11.9283 16.9181 11.7963 16.8741Z" fill="#870B8E"/>
</svg>
