<svg width="24" height="24" viewBox="0 0 24 24" fill="none" xmlns="http://www.w3.org/2000/svg">
<path fill-rule="evenodd" clip-rule="evenodd" d="M22 12C22 17.5229 17.5229 22 12 22C6.47716 22 2 17.5229 2 12C2 6.47716 6.47716 2 12 2C17.5229 2 22 6.47716 22 12ZM12.8929 5.77144C12.8929 5.27834 12.4931 4.87859 12 4.87859C11.5069 4.87859 11.1071 5.27834 11.1071 5.77144V7.23469C11.0754 7.23691 11.0438 7.23937 11.0124 7.2421C10.6876 7.27037 10.3194 7.33176 9.97383 7.49101C9.60747 7.65984 9.28157 7.9323 9.06153 8.34061C8.8511 8.7311 8.77146 9.18269 8.77146 9.6644C8.77146 10.6011 9.25989 11.2682 9.82263 11.7371C10.3412 12.1692 11.0041 12.5005 11.5539 12.7753L11.6007 12.7987C12.2099 13.1033 12.6917 13.3494 13.0342 13.6349C13.3474 13.8959 13.4429 14.1047 13.4429 14.3358C13.4429 14.6327 13.3921 14.765 13.3665 14.8125C13.3506 14.8421 13.3349 14.8616 13.2789 14.8874C13.2021 14.9228 13.0671 14.9587 12.8328 14.9791C12.5993 14.9995 12.3327 15.0001 12 15.0001C11.416 15.0001 11.0167 14.9074 10.7932 14.7787C10.6937 14.7214 10.6448 14.6662 10.6172 14.6193C10.5903 14.5736 10.5572 14.4907 10.5572 14.3358C10.5572 13.8427 10.1574 13.443 9.66431 13.443C9.1712 13.443 8.77146 13.8427 8.77146 14.3358C8.77146 15.2491 9.21163 15.9284 9.90184 16.326C10.2668 16.5363 10.6826 16.6581 11.1072 16.723V18.2287C11.1072 18.7219 11.5069 19.1216 12 19.1216C12.4931 19.1216 12.8929 18.7219 12.8929 18.2287V16.7656C12.9246 16.7633 12.9562 16.7609 12.9876 16.7581C13.3124 16.7299 13.6806 16.6684 14.0262 16.5093C14.3926 16.3404 14.7185 16.0679 14.9385 15.6596C15.1489 15.2691 15.2286 14.8175 15.2286 14.3358C15.2286 13.3991 14.7402 12.732 14.1774 12.2631C13.6589 11.831 12.996 11.4997 12.4462 11.2249L12.3993 11.2015C11.7901 10.8969 11.3084 10.6508 10.9658 10.3653C10.6527 10.1044 10.5572 9.89554 10.5572 9.6644C10.5572 9.36756 10.6079 9.23521 10.6335 9.18774C10.6495 9.15811 10.6652 9.13861 10.7212 9.1128C10.798 9.07741 10.9329 9.04149 11.1672 9.02109C11.4007 9.00077 11.6673 9.00013 12 9.00013C12.5239 9.00013 12.9296 9.12214 13.1734 9.27721C13.3988 9.42057 13.4429 9.55269 13.4429 9.6644C13.4429 10.1575 13.8426 10.5573 14.3357 10.5573C14.8288 10.5573 15.2286 10.1575 15.2286 9.6644C15.2286 8.8107 14.751 8.16424 14.1317 7.77039C13.7667 7.53827 13.3422 7.383 12.8929 7.29687V5.77144Z" fill="#870B8E"/>
</svg>
