<svg width="24" height="24" viewBox="0 0 24 24" fill="none" xmlns="http://www.w3.org/2000/svg">
<path fill-rule="evenodd" clip-rule="evenodd" d="M8.56888 6.36207C9.47885 5.4521 10.713 4.94089 11.9999 4.94089C13.2868 4.94089 14.521 5.4521 15.431 6.36207C16.3409 7.27204 16.8521 8.50622 16.8521 9.79311V9.99933H7.1477V9.79311C7.1477 8.50622 7.65891 7.27204 8.56888 6.36207ZM5.20681 9.99933V9.79311C5.20681 7.99147 5.9225 6.26362 7.19647 4.98965C8.47041 3.7157 10.1983 3 11.9999 3C13.8016 3 15.5294 3.7157 16.8033 4.98965C18.0773 6.26362 18.793 7.99147 18.793 9.79311V9.99933H18.9475H18.9549V9.99936C20.1066 10.0126 21.0068 11.0506 20.857 12.1926L20.8568 12.1936L19.9538 18.9979C19.951 19.019 19.9481 19.0437 19.9449 19.0716L19.9447 19.0718V19.072C19.9251 19.2413 19.8921 19.5234 19.7861 19.7791C19.5576 20.3299 19.0768 20.7576 18.5067 20.9232C18.2357 21.0018 17.9602 20.9995 17.791 20.9981L17.7337 20.9977H6.35112C6.32811 20.9977 6.30124 20.9981 6.27111 20.9986H6.2711C6.08639 21.0017 5.7795 21.0069 5.49154 20.9232C4.92144 20.7576 4.44058 20.3299 4.21213 19.7791C4.09056 19.4859 4.0544 19.1373 4.03253 18.9264C4.02786 18.8814 4.02384 18.8425 4.01978 18.812L3.15847 12.3227C3.13847 12.172 3.10854 11.9445 3.14123 11.696C3.24808 10.884 3.86876 10.2072 4.67816 10.0391C4.8079 10.0121 4.94208 9.99838 5.07906 9.99933H5.20681ZM8.87622 12.9836C9.32284 12.9836 9.68492 13.3457 9.68492 13.7923V17.4172C9.68492 17.8637 9.32284 18.2259 8.87622 18.2259C8.42958 18.2259 8.06751 17.8637 8.06751 17.4172V13.7923C8.06751 13.3457 8.42958 12.9836 8.87622 12.9836ZM15.9323 13.7923C15.9323 13.3457 15.5702 12.9836 15.1236 12.9836C14.677 12.9836 14.3149 13.3457 14.3149 13.7923V17.4172C14.3149 17.8637 14.677 18.2259 15.1236 18.2259C15.5702 18.2259 15.9323 17.8637 15.9323 17.4172V13.7923Z" fill="#1D9EFA"/>
</svg>
