<svg width="24" height="24" viewBox="0 0 24 24" fill="none" xmlns="http://www.w3.org/2000/svg">
<path fill-rule="evenodd" clip-rule="evenodd" d="M12 22C17.5229 22 22 17.5229 22 12C22 6.47716 17.5229 2 12 2C6.47716 2 2 6.47716 2 12C2 17.5229 6.47716 22 12 22ZM7.71429 13.4286C8.50326 13.4286 9.14286 12.789 9.14286 12C9.14286 11.211 8.50326 10.5714 7.71429 10.5714C6.92531 10.5714 6.28571 11.211 6.28571 12C6.28571 12.789 6.92531 13.4286 7.71429 13.4286ZM13.4286 12C13.4286 12.789 12.789 13.4286 12 13.4286C11.211 13.4286 10.5714 12.789 10.5714 12C10.5714 11.211 11.211 10.5714 12 10.5714C12.789 10.5714 13.4286 11.211 13.4286 12ZM16.2857 13.4286C17.0747 13.4286 17.7143 12.789 17.7143 12C17.7143 11.211 17.0747 10.5714 16.2857 10.5714C15.4967 10.5714 14.8571 11.211 14.8571 12C14.8571 12.789 15.4967 13.4286 16.2857 13.4286Z" fill="#6A00C8"/>
</svg>
