<svg width="24" height="24" viewBox="0 0 24 24" fill="none" xmlns="http://www.w3.org/2000/svg">
<path fill-rule="evenodd" clip-rule="evenodd" d="M5.57139 3H7.17854V21H5.57139C5.0599 21 4.56936 20.7969 4.20769 20.4352C3.84601 20.0735 3.64282 19.5829 3.64282 19.0714V4.92857C3.64282 4.41709 3.84601 3.92654 4.20769 3.56487C4.56936 3.20319 5.05991 3 5.57139 3ZM18.4285 21H9.10711V3H18.4285C18.94 3 19.4306 3.20319 19.7923 3.56487C20.154 3.92654 20.3571 4.41708 20.3571 4.92857V19.0714C20.3571 19.5829 20.154 20.0735 19.7923 20.4352C19.4306 20.7969 18.94 21 18.4285 21ZM12.1405 6.02701C11.7855 6.02701 11.4977 6.31483 11.4977 6.66987V8.83762C11.4977 9.19266 11.7855 9.48048 12.1405 9.48048H17.1307C17.4859 9.48048 17.7736 9.19266 17.7736 8.83762V6.66987C17.7736 6.31483 17.4859 6.02701 17.1307 6.02701H12.1405Z" fill="#FF5C3E"/>
</svg>
